{
  "accessors": [
    {
      "bufferView": 1,
      "componentType": 5123,
      "type": "SCALAR",
      "count": 1746
    },
    {
      "bufferView": 2,
      "componentType": 5126,
      "type": "VEC3",
      "count": 1164,
      "min": [8, 8, 0],
      "max": [16, 16, 16]
    },
    {
      "bufferView": 2,
      "componentType": 5126,
      "type": "VEC3",
      "byteOffset": 12,
      "count": 1164
    },
    {
      "bufferView": 2,
      "componentType": 5126,
      "type": "VEC2",
      "byteOffset": 24,
      "count": 1164
    },
    {
      "bufferView": 3,
      "componentType": 5123,
      "type": "SCALAR",
      "count": 1914
    },
    {
      "bufferView": 4,
      "componentType": 5126,
      "type": "VEC3",
      "count": 1276,
      "min": [0, 8, 0],
      "max": [9, 16, 16]
    },
    {
      "bufferView": 4,
      "componentType": 5126,
      "type": "VEC3",
      "byteOffset": 12,
      "count": 1276
    },
    {
      "bufferView": 4,
      "componentType": 5126,
      "type": "VEC2",
      "byteOffset": 24,
      "count": 1276
    },
    {
      "bufferView": 5,
      "componentType": 5123,
      "type": "SCALAR",
      "count": 1914
    },
    {
      "bufferView": 6,
      "componentType": 5126,
      "type": "VEC3",
      "count": 1276,
      "min": [8, 0, 0],
      "max": [16, 9, 16]
    },
    {
      "bufferView": 6,
      "componentType": 5126,
      "type": "VEC3",
      "byteOffset": 12,
      "count": 1276
    },
    {
      "bufferView": 6,
      "componentType": 5126,
      "type": "VEC2",
      "byteOffset": 24,
      "count": 1276
    },
    {
      "bufferView": 7,
      "componentType": 5123,
      "type": "SCALAR",
      "count": 2088
    },
    {
      "bufferView": 8,
      "componentType": 5126,
      "type": "VEC3",
      "count": 1392,
      "min": [0, 0, 0],
      "max": [9, 9, 16]
    },
    {
      "bufferView": 8,
      "componentType": 5126,
      "type": "VEC3",
      "byteOffset": 12,
      "count": 1392
    },
    {
      "bufferView": 8,
      "componentType": 5126,
      "type": "VEC2",
      "byteOffset": 24,
      "count": 1392
    },
    {
      "bufferView": 9,
      "componentType": 5123,
      "type": "SCALAR",
      "count": 150
    },
    {
      "bufferView": 10,
      "componentType": 5126,
      "type": "VEC3",
      "count": 100,
      "min": [12, 12, 0],
      "max": [16, 16, 2]
    },
    {
      "bufferView": 10,
      "componentType": 5126,
      "type": "VEC3",
      "byteOffset": 12,
      "count": 100
    },
    {
      "bufferView": 10,
      "componentType": 5126,
      "type": "VEC2",
      "byteOffset": 24,
      "count": 100
    },
    {
      "bufferView": 11,
      "componentType": 5123,
      "type": "SCALAR",
      "count": 186
    },
    {
      "bufferView": 12,
      "componentType": 5126,
      "type": "VEC3",
      "count": 124,
      "min": [0, 12, 0],
      "max": [5, 16, 2]
    },
    {
      "bufferView": 12,
      "componentType": 5126,
      "type": "VEC3",
      "byteOffset": 12,
      "count": 124
    },
    {
      "bufferView": 12,
      "componentType": 5126,
      "type": "VEC2",
      "byteOffset": 24,
      "count": 124
    },
    {
      "bufferView": 13,
      "componentType": 5123,
      "type": "SCALAR",
      "count": 186
    },
    {
      "bufferView": 14,
      "componentType": 5126,
      "type": "VEC3",
      "count": 124,
      "min": [12, 0, 0],
      "max": [16, 5, 2]
    },
    {
      "bufferView": 14,
      "componentType": 5126,
      "type": "VEC3",
      "byteOffset": 12,
      "count": 124
    },
    {
      "bufferView": 14,
      "componentType": 5126,
      "type": "VEC2",
      "byteOffset": 24,
      "count": 124
    },
    {
      "bufferView": 15,
      "componentType": 5123,
      "type": "SCALAR",
      "count": 228
    },
    {
      "bufferView": 16,
      "componentType": 5126,
      "type": "VEC3",
      "count": 152,
      "min": [0, 0, 0],
      "max": [5, 5, 2]
    },
    {
      "bufferView": 16,
      "componentType": 5126,
      "type": "VEC3",
      "byteOffset": 12,
      "count": 152
    },
    {
      "bufferView": 16,
      "componentType": 5126,
      "type": "VEC2",
      "byteOffset": 24,
      "count": 152
    }
  ],
  "asset": {
    "generator": "goxel",
    "version": "2.0"
  },
  "bufferViews": [
    {
      "buffer": 0,
      "byteLength": 80
    },
    {
      "buffer": 2,
      "byteLength": 3492
    },
    {
      "buffer": 1,
      "byteLength": 37248,
      "byteStride": 32
    },
    {
      "buffer": 4,
      "byteLength": 3828
    },
    {
      "buffer": 3,
      "byteLength": 40832,
      "byteStride": 32
    },
    {
      "buffer": 6,
      "byteLength": 3828
    },
    {
      "buffer": 5,
      "byteLength": 40832,
      "byteStride": 32
    },
    {
      "buffer": 8,
      "byteLength": 4176
    },
    {
      "buffer": 7,
      "byteLength": 44544,
      "byteStride": 32
    },
    {
      "buffer": 10,
      "byteLength": 300
    },
    {
      "buffer": 9,
      "byteLength": 3200,
      "byteStride": 32
    },
    {
      "buffer": 12,
      "byteLength": 372
    },
    {
      "buffer": 11,
      "byteLength": 3968,
      "byteStride": 32
    },
    {
      "buffer": 14,
      "byteLength": 372
    },
    {
      "buffer": 13,
      "byteLength": 3968,
      "byteStride": 32
    },
    {
      "buffer": 16,
      "byteLength": 456
    },
    {
      "buffer": 15,
      "byteLength": 4864,
      "byteStride": 32
    }
  ],
  "buffers": [
    {
      "uri": "data:application/octet-stream;base64,",
      "byteLength": 80
    },
    {
      "uri": "data:application/octet-stream;base64,",
      "byteLength": 37248
    },
    {
      "uri": "data:application/octet-stream;base64,",
      "byteLength": 3492
    },
    {
      "uri": "data:application/octet-stream;base64,",
      "byteLength": 40832
    },
    {
      "uri": "data:application/octet-stream;base64,",
      "byteLength": 3828
    },
    {
      "uri": "data:application/octet-stream;base64,",
      "byteLength": 40832
    },
    {
      "uri": "data:application/octet-stream;base64,",
      "byteLength": 3828
    },
    {
      "uri": "data:application/octet-stream;base64,",
      "byteLength": 44544
    },
    {
      "uri": "data:application/octet-stream;base64,",
      "byteLength": 4176
    },
    {
      "uri": "data:application/octet-stream;base64,",
      "byteLength": 3200
    },
    {
      "uri": "data:application/octet-stream;base64,",
      "byteLength": 300
    },
    {
      "uri": "data:application/octet-stream;base64,",
      "byteLength": 3968
    },
    {
      "uri": "data:application/octet-stream;base64,",
      "byteLength": 372
    },
    {
      "uri": "data:application/octet-stream;base64,",
      "byteLength": 3968
    },
    {
      "uri": "data:application/octet-stream;base64,",
      "byteLength": 372
    },
    {
      "uri": "data:application/octet-stream;base64,",
      "byteLength": 4864
    },
    {
      "uri": "data:application/octet-stream;base64,",
      "byteLength": 456
    }
  ],
  "images": [
    {
      "bufferView": 0,
      "mimeType": "image/png"
    }
  ],
  "meshes": [
    {
      "primitives": [
        {
          "indices": 0,
          "material": 0,
          "attributes": {
            "POSITION": 1,
            "NORMAL": 2,
            "TEXCOORD_0": 3
          }
        }
      ]
    },
    {
      "primitives": [
        {
          "indices": 4,
          "material": 0,
          "attributes": {
            "POSITION": 5,
            "NORMAL": 6,
            "TEXCOORD_0": 7
          }
        }
      ]
    },
    {
      "primitives": [
        {
          "indices": 8,
          "material": 0,
          "attributes": {
            "POSITION": 9,
            "NORMAL": 10,
            "TEXCOORD_0": 11
          }
        }
      ]
    },
    {
      "primitives": [
        {
          "indices": 12,
          "material": 0,
          "attributes": {
            "POSITION": 13,
            "NORMAL": 14,
            "TEXCOORD_0": 15
          }
        }
      ]
    },
    {
      "primitives": [
        {
          "indices": 16,
          "material": 0,
          "attributes": {
            "POSITION": 17,
            "NORMAL": 18,
            "TEXCOORD_0": 19
          }
        }
      ]
    },
    {
      "primitives": [
        {
          "indices": 20,
          "material": 0,
          "attributes": {
            "POSITION": 21,
            "NORMAL": 22,
            "TEXCOORD_0": 23
          }
        }
      ]
    },
    {
      "primitives": [
        {
          "indices": 24,
          "material": 0,
          "attributes": {
            "POSITION": 25,
            "NORMAL": 26,
            "TEXCOORD_0": 27
          }
        }
      ]
    },
    {
      "primitives": [
        {
          "indices": 28,
          "material": 0,
          "attributes": {
            "POSITION": 29,
            "NORMAL": 30,
            "TEXCOORD_0": 31
          }
        }
      ]
    }
  ],
  "materials": [
    {
      "name": "Material.1",
      "pbrMetallicRoughness": {
        "baseColorTexture": {
          "index": 0
        },
        "metallicFactor": 0.200000003,
        "roughnessFactor": 0.5
      }
    }
  ],
  "nodes": [
    {
      "children": [ 9 ],
      "matrix": [1, 0, 0, 0, 0, 0, -1, 0, 0, 1, 0, 0, 0, 0, 0, 1]
    },
    {
      "mesh": 0,
      "translation": [-16, -16, 0]
    },
    {
      "mesh": 1,
      "translation": [0, -16, 0]
    },
    {
      "mesh": 2,
      "translation": [-16, 0, 0]
    },
    {
      "mesh": 3,
      "translation": [0, 0, 0]
    },
    {
      "mesh": 4,
      "translation": [-16, -16, 16]
    },
    {
      "mesh": 5,
      "translation": [0, -16, 16]
    },
    {
      "mesh": 6,
      "translation": [-16, 0, 16]
    },
    {
      "mesh": 7,
      "translation": [0, 0, 16]
    },
    {
      "children": [ 1, 2, 3, 4, 5, 6, 7, 8 ]
    }
  ],
  "scenes": [
    {
      "nodes": [ 0 ]
    }
  ],
  "textures": [
    {
      "source": 0
    }
  ]
}
