{
  "accessors": [
    {
      "bufferView": 1,
      "componentType": 5123,
      "type": "SCALAR",
      "count": 1878
    },
    {
      "bufferView": 2,
      "componentType": 5126,
      "type": "VEC3",
      "count": 1252,
      "min": [0, 7, 0],
      "max": [16, 16, 1]
    },
    {
      "bufferView": 2,
      "componentType": 5126,
      "type": "VEC3",
      "byteOffset": 12,
      "count": 1252
    },
    {
      "bufferView": 2,
      "componentType": 5126,
      "type": "VEC2",
      "byteOffset": 24,
      "count": 1252
    },
    {
      "bufferView": 3,
      "componentType": 5123,
      "type": "SCALAR",
      "count": 1878
    },
    {
      "bufferView": 4,
      "componentType": 5126,
      "type": "VEC3",
      "count": 1252,
      "min": [0, 7, 0],
      "max": [16, 16, 1]
    },
    {
      "bufferView": 4,
      "componentType": 5126,
      "type": "VEC3",
      "byteOffset": 12,
      "count": 1252
    },
    {
      "bufferView": 4,
      "componentType": 5126,
      "type": "VEC2",
      "byteOffset": 24,
      "count": 1252
    },
    {
      "bufferView": 5,
      "componentType": 5123,
      "type": "SCALAR",
      "count": 2274
    },
    {
      "bufferView": 6,
      "componentType": 5126,
      "type": "VEC3",
      "count": 1516,
      "min": [0, 0, 0],
      "max": [16, 11, 1]
    },
    {
      "bufferView": 6,
      "componentType": 5126,
      "type": "VEC3",
      "byteOffset": 12,
      "count": 1516
    },
    {
      "bufferView": 6,
      "componentType": 5126,
      "type": "VEC2",
      "byteOffset": 24,
      "count": 1516
    },
    {
      "bufferView": 7,
      "componentType": 5123,
      "type": "SCALAR",
      "count": 2274
    },
    {
      "bufferView": 8,
      "componentType": 5126,
      "type": "VEC3",
      "count": 1516,
      "min": [0, 0, 0],
      "max": [16, 11, 1]
    },
    {
      "bufferView": 8,
      "componentType": 5126,
      "type": "VEC3",
      "byteOffset": 12,
      "count": 1516
    },
    {
      "bufferView": 8,
      "componentType": 5126,
      "type": "VEC2",
      "byteOffset": 24,
      "count": 1516
    }
  ],
  "asset": {
    "generator": "goxel",
    "version": "2.0"
  },
  "bufferViews": [
    {
      "buffer": 0,
      "byteLength": 87
    },
    {
      "buffer": 2,
      "byteLength": 3756
    },
    {
      "buffer": 1,
      "byteLength": 40064,
      "byteStride": 32
    },
    {
      "buffer": 4,
      "byteLength": 3756
    },
    {
      "buffer": 3,
      "byteLength": 40064,
      "byteStride": 32
    },
    {
      "buffer": 6,
      "byteLength": 4548
    },
    {
      "buffer": 5,
      "byteLength": 48512,
      "byteStride": 32
    },
    {
      "buffer": 8,
      "byteLength": 4548
    },
    {
      "buffer": 7,
      "byteLength": 48512,
      "byteStride": 32
    }
  ],
  "buffers": [
    {
      "uri": "data:application/octet-stream;base64,",
      "byteLength": 87
    },
    {
      "uri": "data:application/octet-stream;base64,",
      "byteLength": 40064
    },
    {
      "uri": "data:application/octet-stream;base64,",
      "byteLength": 3756
    },
    {
      "uri": "data:application/octet-stream;base64,",
      "byteLength": 40064
    },
    {
      "uri": "data:application/octet-stream;base64,",
      "byteLength": 3756
    },
    {
      "uri": "data:application/octet-stream;base64,",
      "byteLength": 48512
    },
    {
      "uri": "data:application/octet-stream;base64,",
      "byteLength": 4548
    },
    {
      "uri": "data:application/octet-stream;base64,",
      "byteLength": 48512
    },
    {
      "uri": "data:application/octet-stream;base64,",
      "byteLength": 4548
    }
  ],
  "images": [
    {
      "bufferView": 0,
      "mimeType": "image/png"
    }
  ],
  "meshes": [
    {
      "primitives": [
        {
          "indices": 0,
          "material": 1,
          "attributes": {
            "POSITION": 1,
            "NORMAL": 2,
            "TEXCOORD_0": 3
          }
        }
      ]
    },
    {
      "primitives": [
        {
          "indices": 4,
          "material": 1,
          "attributes": {
            "POSITION": 5,
            "NORMAL": 6,
            "TEXCOORD_0": 7
          }
        }
      ]
    },
    {
      "primitives": [
        {
          "indices": 8,
          "material": 1,
          "attributes": {
            "POSITION": 9,
            "NORMAL": 10,
            "TEXCOORD_0": 11
          }
        }
      ]
    },
    {
      "primitives": [
        {
          "indices": 12,
          "material": 1,
          "attributes": {
            "POSITION": 13,
            "NORMAL": 14,
            "TEXCOORD_0": 15
          }
        }
      ]
    }
  ],
  "materials": [
    {
      "name": "Material.1",
      "pbrMetallicRoughness": {
        "baseColorTexture": {
          "index": 0
        },
        "metallicFactor": 0.100000001
      }
    },
    {
      "name": "",
      "pbrMetallicRoughness": {
        "baseColorTexture": {
          "index": 0
        }
      }
    }
  ],
  "nodes": [
    {
      "children": [ 5 ],
      "matrix": [1, 0, 0, 0, 0, 0, -1, 0, 0, 1, 0, 0, 0, 0, 0, 1]
    },
    {
      "mesh": 0,
      "translation": [-16, -16, 0]
    },
    {
      "mesh": 1,
      "translation": [0, -16, 0]
    },
    {
      "mesh": 2,
      "translation": [-16, 0, 0]
    },
    {
      "mesh": 3,
      "translation": [0, 0, 0]
    },
    {
      "children": [ 1, 2, 3, 4 ]
    }
  ],
  "scenes": [
    {
      "nodes": [ 0 ]
    }
  ],
  "textures": [
    {
      "source": 0
    }
  ]
}
