/* XPM */
static char *result[] = {
/* columns rows colors chars-per-pixel */
"68 62 248 2 ",
"   c #A70001",
".  c #A70101",
"X  c #A80001",
"o  c #A80101",
"O  c #AB0001",
"+  c #AB0101",
"@  c #A80201",
"#  c #AE0101",
"$  c #AB0A02",
"%  c #AC0802",
"&  c #B00101",
"*  c #B30001",
"=  c #B20101",
"-  c #B40101",
";  c #BB0001",
":  c #BC0101",
">  c #BA0902",
",  c #B31303",
"<  c #B61B04",
"1  c #BF1804",
"2  c #B92F07",
"3  c #BE3C08",
"4  c #BE3D09",
"5  c #C30000",
"6  c #C20101",
"7  c #C60000",
"8  c #C80000",
"9  c #C80101",
"0  c #CD0501",
"q  c #D20000",
"w  c #D50000",
"e  c #D70000",
"r  c #D90000",
"t  c #DD0000",
"y  c #DE0000",
"u  c #DF0000",
"i  c #DE0701",
"p  c #D81403",
"a  c #E00000",
"s  c #E40000",
"d  c #E70000",
"f  c #EB0000",
"g  c #EE0000",
"h  c #EA0601",
"j  c #F00000",
"k  c #FA0000",
"l  c #FC0000",
"z  c #FD0000",
"x  c #FE0000",
"c  c red",
"v  c #FF0100",
"b  c #FE0200",
"n  c #FF0200",
"m  c #FF0300",
"M  c #FF0501",
"N  c #FF0801",
"B  c #FF0901",
"V  c #FF0A01",
"C  c #FF0C02",
"Z  c #FF0E02",
"A  c #FC1503",
"S  c #FF1403",
"D  c #FF1503",
"F  c #FF1603",
"G  c #FF1903",
"H  c #FB1F05",
"J  c #FF1C04",
"K  c #C52206",
"L  c #D22706",
"P  c #D32906",
"I  c #D83F0A",
"U  c #FF2004",
"Y  c #FE2204",
"T  c #FE2405",
"R  c #FF2A06",
"E  c #FE2B06",
"W  c #FB2E07",
"Q  c #FE2D06",
"!  c #FE2E06",
"~  c #FF2E07",
"^  c #FF3106",
"/  c #FE3507",
"(  c #FF3308",
")  c #FF3708",
"_  c #FF3909",
"`  c #FE3B08",
"'  c #C84A0A",
"]  c #D7490B",
"[  c #D55D0C",
"{  c #D75E0D",
"}  c #F8400A",
"|  c #FE4709",
" . c #FF4B0B",
".. c #FF4C0B",
"X. c #FF4F0C",
"o. c #EE520D",
"O. c #EB550D",
"+. c #EE590E",
"@. c #EC5B0E",
"#. c #FD560B",
"$. c #FF520C",
"%. c #FF570D",
"&. c #FD5B0C",
"*. c #FD5C0C",
"=. c #FF5E0E",
"-. c #CE6A0E",
";. c #D6690F",
":. c #D57410",
">. c #FD620D",
",. c #FA660F",
"<. c #FD660D",
"1. c #FD670D",
"2. c #FC650F",
"3. c #FE640E",
"4. c #FD670E",
"5. c #FD6F0F",
"6. c #FD700F",
"7. c #FD720F",
"8. c #FD730F",
"9. c #FF6710",
"0. c #F36810",
"q. c #F36B10",
"w. c #FF6810",
"e. c #FC6D11",
"r. c #FF6E11",
"t. c #FF6F11",
"y. c #F67310",
"u. c #FF7011",
"i. c #FF7111",
"p. c #FF7211",
"a. c #FF7311",
"s. c #FE7511",
"d. c #FC7611",
"f. c #FF7512",
"g. c #FF7612",
"h. c #FF7712",
"j. c #FD7B10",
"k. c #FF7912",
"l. c #FD7F11",
"z. c #FE7D12",
"x. c #FF7D12",
"c. c #FE7E13",
"v. c #FE7F13",
"b. c #DB8412",
"n. c #DD9514",
"m. c #E98D13",
"M. c #F08613",
"N. c #FD8211",
"B. c #FE8012",
"V. c #FE8213",
"C. c #FE8313",
"Z. c #FE8413",
"A. c #FE8513",
"S. c #FE8613",
"D. c #FD8912",
"F. c #FD8B12",
"G. c #FD8A13",
"H. c #FC8D13",
"J. c #E39B15",
"K. c #E49D15",
"L. c #FC9313",
"P. c #FE9014",
"I. c #FE9015",
"U. c #FE9414",
"Y. c #FE9415",
"T. c #FE9515",
"R. c #FE9615",
"E. c #FC9914",
"W. c #FE9916",
"Q. c #FC9C14",
"!. c #FE9D16",
"~. c #FCA215",
"^. c #FDA217",
"/. c #FCA415",
"(. c #FCA416",
"). c #FCA516",
"_. c #FDA417",
"`. c #FDA716",
"'. c #FDA717",
"]. c #FEA717",
"[. c #FCA816",
"{. c #FDA817",
"}. c #FDAA17",
"|. c #FDAB17",
" X c #FCAD17",
".X c #FDAD18",
"XX c #FCAE18",
"oX c #FEAF18",
"OX c #FCB017",
"+X c #FCB217",
"@X c #FDB218",
"#X c #FDB318",
"$X c #FCB918",
"%X c #FCBB19",
"&X c #FCBF19",
"*X c #FCBC1A",
"=X c #FCBD1A",
"-X c #FCBF1A",
";X c #EEC019",
":X c #FBC21A",
">X c #FCC019",
",X c #FCC11A",
"<X c #FEC11A",
"1X c #FCC31A",
"2X c #FBC71A",
"3X c #FCC41A",
"4X c #FCC51A",
"5X c #FCC61B",
"6X c #FCC71B",
"7X c #FCCA1B",
"8X c #FDCB1B",
"9X c #FBCC1B",
"0X c #FBCD1B",
"qX c #FBCF1B",
"wX c #FCCC1B",
"eX c #FCCD1B",
"rX c #FCCF1C",
"tX c #FBD11B",
"yX c #FBD21C",
"uX c #FCD01C",
"iX c #FCD21C",
"pX c #FBD41C",
"aX c #FBD61C",
"sX c #FBD71C",
"dX c #FBD81D",
"fX c #FBD91D",
"gX c #F9DB1D",
"hX c #FBDA1D",
"jX c #FBDB1D",
"kX c #FCDB1D",
"lX c #FBDC1D",
"zX c #FBDD1D",
"xX c #F8DE1D",
"cX c #FBDE1D",
"vX c #FBDF1D",
"bX c #FBE01D",
"nX c #FBE11D",
"mX c #FBE01E",
"MX c #FBE11E",
"NX c #FBE21E",
"BX c #FBE31E",
"VX c #FBE41E",
"CX c #FBE51E",
"ZX c #FBE61E",
"AX c #FBE71E",
"SX c #FBE81E",
"DX c #FBEA1F",
"FX c None",
/* pixels */
"FXFXFXFXFXFXFXFXFXFXFXFXFXFXFXFXFXFXFXFXFXFXFXFXFXFXFXFXFXFXFXFXFXFXFXFXFXFXFXFXFXFXFXFXFXFXFXFXFXFXFXFXFXFXFXFXFXFXFXFXFXFXFXFXFXFXFXFX",
"FXFXFXFXFXFXFXFXFXFXFXFXFXFXFXFXFXFXFXFXFXFXFXFXFXFXFXFXFXFXFXFXFXFXFXFXFXFXFXFXFXFXFXFXFXFXFXFXFXFXFXFXFXFXFXFXFXFXFXFXFXFXFXFXFXFXFXFX",
"FXFXFXFXFXFXFXFXFXFXFXFXFXFXFXFXFXFXFXFXFXFXFXFXFXFXFXFXFXFXFXFXFXFXFXFXFXFXFXFXFXFXFXFXFXFXFXFXFXFXFXFXFXFXFXFXFXFXFXFXFXFXFXFXFXFXFXFX",
"FXFXFXFXFXFXFXFXFXFXFXFXFXFXFXFXFXFXFXFXFXFXFXFXFXFXFXFXFXFXFXFXFXFXFXFXFXFXFXFXFXFXFXFXFXFXFXFXFXFXFXFXFXFXFXFXFXFXFXFXFXFXFXFXFXFXFXFX",
"FXFXFXFXFXFXFXFXFXFXFXFXFXFXFXFXFXFXFXFXFXFXFXFXFXFXFXFXFXFXFXFXFXFXFXFXFXFXFXFXFXFXFXFXFXFXFXFXFXFXFXFXFXFXFXFXFXFXFXFXFXFXFXFXFXFXFXFX",
"FXFXFXFXFXFXFXFXFXFXFXFXFXFXFXFXFXFXFXFXFXFXFXFXFXFXFXFXFXFXFXFXFXFXFXFXFXFXFXFXFXFXFXFXFXFXFXFXFXFXFXFXFXFXFXFXFXFXFXFXFXFXFXFXFXFXFXFX",
"FXFXFXFXFXFXFXFXFXFXFXFXFXFXFXFXFXFXFXFXFXFXFXFXFXFXFXFXFXFXFXFXFXFXFXFXFXFXFXFXFXFXFXFXFXFXFXFXFXFXFXFXFXFXFXFXFXFXFXFXFXFXFXFXFXFXFXFX",
"FXFXFXFXFXFXFXFXFXFXFXFXFXFXFXFXFXFXFXFXFXFXFXFXFXFXFXFXFXFXFXFXFXFXFXFXFXFXFXFXFXFXFXFXFXFXFXFXFXFXFXFXFXFXFXFXFXFXFXFXFXFXFXFXFXFXFXFX",
"FXFXFXFXFXFXFXFXFXFXFXFXFXFXFXFXFXFXFXFXFXFXFXFXFXFXFXFXFXFXFXFXFXFXFXFXFXFXFXFXFXFXFXFXFXFXFXFXFXFXFXFXFXFXFXFXFXFXFXFXFXFXFXFXFXFXFXFX",
"FXFXFXFXFXFXFXFXFXFXFXFXFXFXFXFXFXFXFXFXFXFXFXFXFXFXFXFXFXFXFXFXFXFXFXFXFXFXFXFXFXFXFXFXFXFXFXFXFXFXFXFXFXFXFXFXFXFXFXFXFXFXFXFXFXFXFXFX",
"FXFXFXFXFXFXFXFXFXFXFXFXFXFXFXFXFXFXFXFXFXFXFXFXFXFXFXFXFXFXFXFXFXFXFXFXFXFXFXFXFXFXFXFXFXFXFXFXFXFXFXFXFXFXFXFXFXFXFXFXFXFXFXFXFXFXFXFX",
"FXFXFXFXFXFXFXFXFXFXFXFXFXFXFXFXFXFXFXFXFXFXFXFXFXFXFXFXFXFXFXFXFXFXFXFXFXFXFXFXFXFXFXFXFXFXFXFXFXFXFXFXFXFXFXFXFXFXFXFXFXFXFXFXFXFXFXFX",
"FXFXFXFXFXFXFXFXFXFXFXFXFXFXFXFXFXFXFXFXFXFXFXFXFXFXFXFXFXFXFXFXFXFXFXFXFXFXFXFXVXVXVXVXVXFXFXFXFXFXFXFXFXFXFXFXFXFXFXFXFXFXFXFXFXFXFXFX",
"FXFXFXFXFXFXFXFXFXFXFXFXFXFXFXFXFXFXFXFXFXFXFXFXFXFXFXFXFXFXFXFXFXFXFXFXFXFXFXFXFXFXFXVXVXVXFXFXFXFXFXFXFXFXFXFXFXFXFXFXFXFXFXFXFXFXFXFX",
"FXFXFXFXFXFXFXFXFXFXFXFXFXFXFXFXFXFXFXFXFXFXFXFXFXFXFXFXFXFXFXFXFXFXFXFXFXFXFXFXFXFXFXFXVXVXVXFXFXVXVXFXFXFXFXFXFXFXFXFXFXFXFXFXFXFXFXFX",
"FXFXFXFXFXFXFXFXFXFXFXFXFXFXFXFXFXFXFXFXFXFXFXFXFXFXFXFXFXFXFXFXFXFXFXFXFXFXFXFXFXFXFXFXFXVXVXVXFXFXVXFXFXFXFXFXFXFXFXFXFXFXFXFXFXFXFXFX",
"FXFXFXFXFXFXFXFXFXFXFXFXFXFXFXFXFXFXFXFXFXFXFXFXFXFXFXFXFXFXVXVXQ./ M FXFXFXFXFXFXFXFXFXFXFXVXVXVXVXFXFXFXFXFXFXFXFXFXFXFXFXFXFXFXFXFXFX",
"FXFXFXFXFXFXFXFXFXFXFXFXFXFXFXFXFXFXFXFXFXFXFXFXFXFXFXFXFXFXVXMX*.m c Z FXFXFXVXVXVXFXFXFXFXFXFXVXVXFXFXFXFXFXFXFXFXFXFXFXFXFXFXFXFXFXFX",
"FXFXFXFXFXFXFXFXFXFXFXFXFXFXFXFXFXFXFXFXFXFXFXFXFXFXFXFXFXVXVXVXqX(.L.[.NXCXNXVXCXVXVXVXFXFXFXFXFXFXFXFXFXFXFXFXFXFXFXFXFXFXFXFXFXFXFXFX",
"FXFXFXFXFXFXFXFXFXFXFXFXFXFXFXFXFXFXFXFXFXFXFXFXFXFXFXCXVXVXVXZXBXhXrXwXuX3XW._.uXCXVXVXVXFXFXFXFXFXFXFXFXFXFXFXFXFXFXFXFXFXFXFXFXFXFXFX",
"FXFXFXFXFXFXFXFXFXFXFXFXFXFXFXFXFXFXFXFXFXFXFXFXFXFXFXVXCXZXvX=XR.v.g.f.k.k.V.g.c.#XvXCXVXVXFXFXFXFXFXFXFXFXFXFXFXFXFXFXFXFXFXFXFXFXFXFX",
"FXFXFXFXFXFXFXFXFXFXFXFXFXFXFXFXFXFXFXFXFXFXFXFXFXFX>XZXyX1XA.r.t.i.i.u.t.u.a.i.t.p.T.aXCXVXFXFXFXFXFXFXFXFXFXFXFXFXFXFXFXFXFXFXFXFXFXFX",
"FXFXFXFXFXFXFXFXFXFXFXFXFXFXFXFXFXFXFXFXFXFXFXFXFXFXzXNX XB.=.w.2..._ ~ R ( %.h.i.t.r.@XZXVXVXFXVXFXFXFXFXFXCXFXFXFXFXFXFXFXFXFXFXFXFXFX",
"FXFXFXFXVXVXAX<.c c FXFXFXFXFXFXFXFXFXFXFXFXFXFXnX+X5.| ~.U.,.I p b c c c c B D.^.p.u._.CXVXVXVXVXVXFXFXFXFXFXFXFXFXFXFXFXFXFXFXFXFXFXFX",
"FXFXFXFXFXFXFXFXc c FXFXFXFXFXFX$XjXCXFXFXFXFXFXE.D c Q }.q.K @ ; k c c c c c N.vXs. .3.pXCXCXCXVXVXFXFXFXFXFXFXFXFXFXFXFXFXFXFXFXFXFXFX",
"FXFXFXFXFXFXFXFXFXFXFXFXFXFXFXVXcXBXVXFXFXFXFXFXFX` E `.y.1   = u x c c c c c 7.DX&.c J /.l..XiXVXVXFXFXFXFXFXFXFXFXFXFXFXFXFXFXFXFXFXFX",
"FXFXFXFXFXFXFXFXFXFXFXFXc FXDXVXVXVXVXFXFXFXFXFXCXtXqXeXW 7 . q c c c c c c c Y F.` c B G N $.v.@XNXVXFXFXFXFXFXFXFXFXFXFXFXFXFXFXFXFXFX",
"FXFXFXFXFXFXFXFXFXFXFXc c FXSXVXVXVXFXFXDXFXFXFXVXCXZXsX^ j - 6 l c c v n c c c v v c c c c J 9.g.,XZXFXFXFXFXFXFXFXFXFXFXFXFXFXFXFXFXFX",
"FXFXFXFXFXFXFXFXFXFXFXc FXFXFXVXVXVXFXFXj.6.FXCXZXVXCX9X>.U e + r c c m N c c c c c c c c c m X.u.W.BXVXFXFXFXFXFXFXFXFXFXFXFXFXFXFXFXFX",
"FXFXFXFXFXFXVXVXVXVXFXFXFXFXFXFXFXFXFXFXc c FXFXOXbXZX8.Z N j & # a c c c c c c c c c c c c z } u.S.lXCXFXFXFXVXFXFXFXFXFXFXFXFXFXFXFXFX",
"FXFXFXFXFXVXVXFXFXFXFXFXFXFXFXFXFXFXFXFXc FXFXFX&XMXZX).F c k : . - f c c c c c c c c c c c h o.u.C.hXCXFXFXFXFXFXFXFXFXFXFXFXFXFXFXFXFX",
"FXFXFXFXFXFXFXFXFXFXFXFXFXFXFXFXFXFXFXFXFXFXFX&XZXVXVXBXG.S g & . o = w s 0 i t q 9 y c c d L e.r.I.mXVXFXFXFXFXFXFXFXFXFXFXFXFXFXFXFXFX",
"FXFXFXFXFXFXFXFXFXFXFXFXFXFXFXFXFXFXFXFXFXFX0X3XCXVXVXCXlXz.H y 5 O   < [ n.4 X o . * w 8 > O.p.Z.4XCXMXFXFXFXFXFXFXFXFXFXFXFXFXFXFXFXFX",
"FXFXFXFXFXFXFXFXFXFXFXFXFXFXFXFXFXFXFXFXFXFXFXFXFXVXVXVXZX5Xt.) A P -.;XxXb., X X % 2 3 $ { '.%XsXZXCXVXFXFXFXFXFXFXFXFXFXFXFXFXFXFXFXFX",
"FXFXFXFXFXFXFXFXFXFXFXFXFXFXFXFXFXFXFXFXFXFXFXFXFXFXVXVXVXBX*X'.|.:XMXfXm.@.+.] ;.J.K.' :.gXZXZXCX2XFXFXFXFXFXFXFXFXFXFXFXFXFXFXFXFXFXFX",
"FXFXFXFXFXFXFXFXFXFXFXFXFXFXFXFXFXFXFXFXFXFXFXFXFXFXFXFXVXVXZXcX7X-XuXXXd.x.].8X<XY.0.M.zXZXVXVXBXFXFXFXFXFXFXFXFXFXFXFXFXFXFXFXFXFXFXFX",
"FXFXFXFXFXFXFXFXFXFXFXFXFXFXFXFXFXFXFXFXFXFXFXFXFXFXFXFXFXFXFXFXZXCXVX-X!.6XdX{.P.Y.oXkXCXFXFXFXFXFXFXFXFXFXFXFXFXFXFXFXFXFXFXFXFXFXFXFX",
"FXFXFXFXFXFXFXFXFXFXFXFXFXFXFXFXFXFXFXFXFXFXFXFXFXFXFXFXFXFXFXFXFXVXVXVXVXAXH.T 1.vXZXCXFXFXFXFXFXFXFXFXFXFXFXFXFXFXFXFXFXFXFXFXFXFXFXFX",
"FXFXFXFXFXFXFXFXFXFXFXFXFXFXFXFXFXFXFXFXFXFXFXFXFXFXFXFXFXFXFXFXFXFXVXVXVXZX4.c C E.SXFXFXFXFXFXFXFXFXFXFXFXFXFXFXFXFXFXFXFXFXFXFXFXFXFX",
"FXFXFXFXFXFXFXFXFXFXFXFXFXFXFXFXFXFXFXFXFXFXFXFXFXFXFXFXFXFXFXFXFXFXFXVXFXFX| c c V FXFXFXFXFXFXFXFXFXFXFXFXFXFXFXFXFXFXFXFXFXFXFXFXFXFX",
"FXFXFXFXFXFXFXFXFXFXFXFXFXFXFXFXFXFXFXFXFXFXFXFXFXFXFXFXFXFXFXFXFXFXFXVXVXFXFX#.! FXFXFXFXFXFXFXFXFXFXFXFXFXFXFXFXFXFXFXFXFXFXFXFXFXFXFX",
"FXFXFXFXFXFXFXFXFXFXFXFXFXFXFXFXFXFXFXFXFXFXFXFXFXFXFXFXFXFXFXFXFXFXFXVXVXVXZXFXFXFXFXFXFXFXFXFXFXFXFXFXFXFXFXFXFXFXFXFXFXFXFXFXFXFXFXFX",
"FXFXFXFXFXFXFXFXFXFXFXFXFXFXFXFXFXFXFXFXFXFXFXFXFXFXFXFXFXFXFXFXFXFXFXFXFXFXVXVXFXFXFXFXFXFXFXFXFXFXFXFXFXFXFXFXFXFXFXFXFXFXFXFXFXFXFXFX",
"FXFXFXFXFXFXFXFXFXFXFXFXFXFXFXFXFXFXFXFXFXFXFXFXFXFXFXFXFXFXFXFXFXFXFXFXFXFXFXFXFXFXFXFXFXFXFXFXFXFXFXFXFXFXFXFXFXFXFXFXFXFXFXFXFXFXFXFX",
"FXFXFXFXFXFXFXFXFXFXFXFXFXFXFXFXFXFXFXFXFXFXFXFXFXFXFXFXFXFXFXFXFXFXFXFXFXFXFXFXFXFXFXFXFXFXFXFXFXFXFXFXFXFXFXFXFXFXFXFXFXFXFXFXFXFXFXFX",
"FXFXFXFXFXFXFXFXFXFXFXFXFXFXFXFXFXFXFXFXFXFXFXFXFXFXFXFXFXFXFXFXFXFXFXFXFXFXFXFXFXFXFXVXFXFXFXFXFXFXFXFXFXFXFXFXFXFXFXFXFXFXFXFXFXFXFXFX",
"FXFXFXFXFXFXFXFXFXFXFXFXFXFXFXFXFXFXFXFXFXFXFXFXFXFXFXFXFXFXFXFXFXFXFXFXFXFXFXFXFXFXVXFXFXFXFXFXFXFXFXFXFXFXFXFXFXFXFXFXFXFXFXFXFXFXFXFX",
"FXFXFXFXFXFXFXFXFXFXFXFXFXFXFXFXFXFXFXFXFXFXFXFXFXFXFXFXFXFXFXFXFXFXFXFXFXFXFXFXFXFXFXFXFXFXFXFXFXFXFXFXFXFXFXFXFXFXFXFXFXFXFXFXFXFXFXFX",
"FXFXFXFXFXFXFXFXFXFXFXFXFXFXFXFXFXFXFXFXFXFXFXFXFXFXFXFXFXFXFXFXFXFXFXFXFXFXFXFXFXFXFXFXFXFXFXFXFXFXFXFXFXFXFXFXFXFXFXFXFXFXFXFXFXFXFXFX",
"FXFXFXFXFXFXFXFXFXFXFXFXFXFXFXFXFXFXFXFXFXFXFXFXFXFXFXFXFXFXFXFXFXFXFXFXFXFXFXFXFXFXFXFXFXFXFXFXFXFXFXFXFXFXFXFXFXFXFXFXFXFXFXFXFXFXFXFX",
"FXFXFXFXFXFXFXFXFXFXFXFXFXFXFXFXFXFXFXFXFXFXFXFXFXFXFXFXFXFXFXFXFXFXFXFXFXFXFXFXFXFXFXFXFXFXFXFXFXFXFXFXFXFXFXFXFXFXFXFXFXFXFXFXFXFXFXFX",
"FXFXFXFXFXFXFXFXFXFXFXFXFXFXFXFXFXFXFXFXFXFXFXFXFXFXFXFXFXFXFXFXFXFXFXFXFXFXFXFXFXFXFXFXFXFXFXFXFXFXFXFXFXFXFXFXFXFXFXFXFXFXFXFXFXFXFXFX",
"FXFXFXFXFXFXFXFXFXFXFXFXFXFXFXFXFXFXFXFXFXFXFXFXFXFXFXFXFXFXFXFXFXFXFXFXFXFXFXFXFXFXFXFXFXFXFXFXFXFXFXFXFXFXFXFXFXFXFXFXFXFXFXFXFXFXFXFX",
"FXFXFXFXFXFXFXFXFXFXFXFXFXFXFXFXFXFXFXFXFXFXFXFXFXFXFXFXFXFXFXFXFXFXFXFXFXFXFXFXFXFXFXFXFXFXFXFXFXFXFXFXFXFXFXFXFXFXFXFXFXFXFXFXFXFXFXFX",
"FXFXFXFXFXFXFXFXFXFXFXFXFXFXFXFXFXFXFXFXFXFXFXFXFXFXFXFXFXFXFXFXFXFXFXFXFXFXFXFXFXFXFXFXFXFXFXFXFXFXFXFXFXFXFXFXFXFXFXFXFXFXFXFXFXFXFXFX",
"FXFXFXFXFXFXFXFXFXFXFXFXFXFXFXFXFXFXFXFXFXFXFXFXFXFXFXFXFXFXFXFXFXFXFXFXFXFXFXFXFXFXFXFXFXFXFXFXFXFXFXFXFXFXFXFXFXFXFXFXFXFXFXFXFXFXFXFX",
"FXFXFXFXFXFXFXFXFXFXFXFXFXFXFXFXFXFXFXFXFXFXFXFXFXFXFXFXFXFXFXFXFXFXFXFXFXFXFXFXFXFXFXFXFXFXFXFXFXFXFXFXFXFXFXFXFXFXFXFXFXFXFXFXFXFXFXFX",
"FXFXFXFXFXFXFXFXFXFXFXFXFXFXFXFXFXFXFXFXFXFXFXFXFXFXFXFXFXFXFXFXFXFXFXFXFXFXFXFXFXFXFXFXFXFXFXFXFXFXFXFXFXFXFXFXFXFXFXFXFXFXFXFXFXFXFXFX",
"FXFXFXFXFXFXFXFXFXFXFXFXFXFXFXFXFXFXFXFXFXFXFXFXFXFXFXFXFXFXFXFXFXFXFXFXFXFXFXFXFXFXFXFXFXFXFXFXFXFXFXFXFXFXFXFXFXFXFXFXFXFXFXFXFXFXFXFX",
"FXFXFXFXFXFXFXFXFXFXFXFXFXFXFXFXFXFXFXFXFXFXFXFXFXFXFXFXFXFXFXFXFXFXFXFXFXFXFXFXFXFXFXFXFXFXFXFXFXFXFXFXFXFXFXFXFXFXFXFXFXFXFXFXFXFXFXFX",
"FXFXFXFXFXFXFXFXFXFXFXFXFXFXFXFXFXFXFXFXFXFXFXFXFXFXFXFXFXFXFXFXFXFXFXFXFXFXFXFXFXFXFXFXFXFXFXFXFXFXFXFXFXFXFXFXFXFXFXFXFXFXFXFXFXFXFXFX",
"FXFXFXFXFXFXFXFXFXFXFXFXFXFXFXFXFXFXFXFXFXFXFXFXFXFXFXFXFXFXFXFXFXFXFXFXFXFXFXFXFXFXFXFXFXFXFXFXFXFXFXFXFXFXFXFXFXFXFXFXFXFXFXFXFXFXFXFX"
};
