/* XPM */
static char *charizard0_removebg_preview1675691715[] = {
/* columns rows colors chars-per-pixel */
"62 62 253 2 ",
"   c None",
".  c #171510",
"X  c #31180F",
"o  c #372818",
"O  c #2A2415",
"+  c #1B292A",
"@  c #1A332B",
"#  c #162B32",
"$  c #06373E",
"%  c #193739",
"&  c #062633",
"*  c #292928",
"=  c #28322C",
"-  c #3A3329",
";  c #283639",
":  c #3C3A38",
">  c #362D2E",
",  c #1E1F24",
"<  c #4D140C",
"1  c #6E1000",
"2  c #4A341B",
"3  c #532914",
"4  c #713717",
"5  c #702D12",
"6  c #583423",
"7  c #473A3A",
"8  c #4F3230",
"9  c #673829",
"0  c #773528",
"q  c #71322C",
"w  c #531F21",
"e  c #1C443C",
"r  c #594438",
"t  c #4B4639",
"y  c #77442D",
"u  c #704D35",
"i  c #68421E",
"p  c #093845",
"a  c #193846",
"s  c #053D53",
"d  c #283946",
"f  c #383E45",
"g  c #033D62",
"h  c #563C45",
"j  c #04434A",
"k  c #17474B",
"l  c #074559",
"z  c #164556",
"x  c #304A50",
"c  c #024664",
"v  c #11526B",
"b  c #315472",
"n  c #28637C",
"m  c #1F6C7C",
"M  c #544848",
"N  c #504F51",
"B  c #684847",
"V  c #794945",
"C  c #7C5345",
"Z  c #6B5855",
"A  c #72544F",
"S  c #746258",
"D  c #525765",
"F  c #496878",
"G  c #726868",
"H  c #983817",
"J  c #8B2E10",
"K  c #A53E0B",
"L  c #893727",
"P  c #8B3F32",
"I  c #AF3E28",
"U  c #821F0C",
"Y  c #954715",
"T  c #AB4C16",
"R  c #AD5B17",
"E  c #B24E10",
"W  c #AE6719",
"Q  c #87462A",
"!  c #994828",
"~  c #9C5729",
"^  c #87453A",
"/  c #984A37",
"(  c #8B5435",
")  c #965637",
"_  c #8E5227",
"`  c #A84B28",
"'  c #B64928",
"]  c #AE582B",
"[  c #B85727",
"{  c #A54937",
"}  c #B64B39",
"|  c #AA5538",
" . c #B95737",
".. c #97653A",
"X. c #806135",
"o. c #B8652A",
"O. c #A8663A",
"+. c #B66737",
"@. c #AB6D2C",
"#. c #CA5712",
"$. c #D46F15",
"%. c #E4771F",
"&. c #C75A27",
"*. c #CA4D3C",
"=. c #C75838",
"-. c #D35934",
";. c #D46727",
":. c #D97827",
">. c #C86638",
",. c #D76939",
"<. c #D97A38",
"1. c #C9712B",
"2. c #EB7D2B",
"3. c #E57729",
"4. c #EA7D31",
"5. c #E57A38",
"6. c #F07334",
"7. c #E0572B",
"8. c #884A43",
"9. c #865647",
"0. c #975847",
"q. c #885A56",
"w. c #995B56",
"e. c #914D4B",
"r. c #A75748",
"t. c #BA5947",
"y. c #A85B53",
"u. c #AA5247",
"i. c #966445",
"p. c #886356",
"a. c #9A6757",
"s. c #916F54",
"d. c #A76A49",
"f. c #B66547",
"g. c #B77447",
"h. c #A96557",
"j. c #A87559",
"k. c #B97657",
"l. c #B3685C",
"z. c #8B6964",
"x. c #986866",
"c. c #95766A",
"v. c #987A72",
"b. c #8B7670",
"n. c #AA6B65",
"m. c #A67667",
"M. c #B97967",
"N. c #B2736F",
"B. c #C65748",
"V. c #D45947",
"C. c #C1584F",
"Z. c #C76649",
"A. c #CA7545",
"S. c #D97947",
"D. c #C66658",
"F. c #C57657",
"G. c #D67755",
"H. c #D5684A",
"J. c #E57B46",
"K. c #F57C45",
"L. c #C77963",
"P. c #CF6C60",
"I. c #7E8075",
"U. c #D7853A",
"Y. c #D28C2D",
"T. c #E4812D",
"R. c #EA862B",
"E. c #E7853A",
"W. c #F28334",
"Q. c #F4863A",
"!. c #F6842C",
"~. c #FEB823",
"^. c #FBB73D",
"/. c #F2A436",
"(. c #DB941B",
"). c #FFC428",
"_. c #FFC439",
"`. c #B48352",
"'. c #9B8C7B",
"]. c #BA846B",
"[. c #A78679",
"{. c #BA8976",
"}. c #B28E72",
"|. c #D98449",
" X c #D78759",
".X c #D08D52",
"XX c #E88747",
"oX c #F58647",
"OX c #E68857",
"+X c #ED9453",
"@X c #DDAC51",
"#X c #EBA94C",
"$X c #EAAC58",
"%X c #F3B154",
"&X c #D6896B",
"*X c #CB9878",
"=X c #D2916F",
"-X c #E99168",
";X c #D3A678",
":X c #E7A967",
">X c #F4B766",
",X c #F3B370",
"<X c #FFCB49",
"1X c #F8C76B",
"2X c #EDD56B",
"3X c #F9CD75",
"4X c #ECD975",
"5X c #FED47A",
"6X c #F3DB7C",
"7X c #F7D876",
"8X c #F2D570",
"9X c #F6E17B",
"0X c #185382",
"qX c #2A5B83",
"wX c #1B7689",
"eX c #1D7493",
"rX c #196B8F",
"tX c #276B89",
"yX c #26738C",
"uX c #276B92",
"iX c #277498",
"pX c #396C90",
"aX c #2B6FA1",
"sX c #7DA0B6",
"dX c #9B8985",
"fX c #978F92",
"gX c #B89886",
"hX c #B89C97",
"jX c #B08F89",
"kX c #B4A291",
"lX c #B0B0AF",
"zX c #C79688",
"xX c #CE9086",
"cX c #C7A79C",
"vX c #D5A499",
"bX c #D7A88F",
"nX c #F2B786",
"mX c #C9AAA2",
"MX c #D9B0A6",
"NX c #E5B8A8",
"BX c #EFB4AA",
"VX c #E09381",
"CX c #FDD883",
"ZX c #FBD793",
"AX c #FCE285",
"SX c #EFC2B5",
"DX c #DCC0B5",
"FX c #93ACCA",
"GX c #D4BFC4",
"HX c #FDDAD2",
"JX c #FFE4DB",
"KX c #FDFCFA",
"LX c #EFEAEE",
/* pixels */
"                                                                                                                            ",
"                                                                                                                            ",
"                                                                                                                            ",
"                                                                                                                            ",
"                                                                                                                            ",
"                                                  w.M.                                                                      ",
"                                                  VX' ' bXcX                                                                ",
"                                                  ,XE ;.A.                                                                  ",
"                                                } #.#.R.@.                                                                  ",
"                                              @.E 7.^./.Y           '.                                                      ",
"                                        w.F.|.E (.^.<X/.1.        kX[.z.cX                                                  ",
"                                      w.VXG.E #.^._./.E 1.        [.m.{.0.BX    s.p.q.gX                                    ",
"                                      0.=XC.S.E ^._.(.(.#Xg.;X      9 &X X>.1.@.g.k.F.l.N.                                  ",
"                              s.a.g.d.&X/ G.  T /.).).~.<X#X_ zX    n.| -X X+.g...( 8.q.N.N.hXcX                            ",
"                          m.a.=X.X.X|. Xr.    ;XW (.~.).).(.@.        ^ =X0.2 . @ # d N M Z v.hXjX                          ",
"                        [.c.p.X 3 ...X XQ       @.$.~.)._.Y.g.        jXA o @ e v m tXpXF N x Z mX}.dX                      ",
"                    {.) b.M @ # & * 6 M.( *X    =XU.<X^./..X          [.r = % l yXuXtXuXyXpXpXD B }.m.                      ",
"                  v.0.m.7 & k j l k . u k.j.      O.@.W ..            '.S = p l tXiXuXuXiXiXiXqXM j.h.NX                    ",
"                  z.C r # k s j p k @ o n.N.        j.O.k.            [.M = z c v aXpXtXyXwXiXtXx S j.xX                    ",
"                  z.A = % j s s j j e O q.w.          a.&Xa.          [.Z . a s v uXyXwXwXwXwXyXx 7 M.k.                    ",
"                jXV M ; d # d p j $ % ; h x.hX        MX/ D.w.      NXq.x.* a l g rXeXwXwXwXuXyXm % j.k.MX                  ",
"                8.q.h + f D N # k e ; > h G q.          e.u.r.8.m.MXm.q.8 = a s c v wXeXwXwXrXeXv $ C F.].                  ",
"              b.w.B % d 8 x.r X O o [.A , Z q.8.          e.y.D.u.8.q S 7 d $ l c c eXaXwXeXeXeXv p 8 ].j.                  ",
"              w V o a d V n.3 X 3 `.].w = ; A V 2 kX        y.{ P 0 q.7 @ % j l c g uXaXeXeXaXeXc j - p.s.NX                ",
"              8 r O k ; 8.r.< ..>.F.9.O @ = h r ^ ^         ].5 r.e.> d a l p l g g 0XaXaXuXqXv c a # t v.p.                ",
"              7 S - @ = 0.| +.@.+X]     = = . 3 L J Q       X.].m.X # z v s z p a g g qXpXb sXn & p a + r 2                 ",
"              dXr o O u G.XX<.XX|.<     . 9 0 f.F.A.J 5 C ;X! k.- & k v n p # @ = % s b qXFXKXLXD a p x 2 2                 ",
"                u i 3 `.|.oXT.T.Y.~ 9 9 0 F.-XJ.XX<.oXU.~ 4 H e.. k l v z b h Z t - + d D LXKXKXLXx & # t t                 ",
"                }.5 .XS.5.4.3.W.T.|.+.) +.S.OXJ.5.<.Q.<.#XA.f.< * k $ $ x     V a.a.u w B GXKXKXKXG & # M t                 ",
"                m.Q +X5.,XXX;.&.oXE.|.<. .[ [ ;.J.E.E.<.5.E.OX~ o . @ x         0 h.l.e.y.w.HXJXKXlX# ; : -                 ",
"                w 0.>.<. X] nX|.oXoX5.1.Y f.L.U U ' <.XX6.W.Q.1.! ) i u         mXq y.C.B.C./ SXKXLXD + M M                 ",
"                  q T >.T 5 -X X=.E |.] -XBXy.u.' I &.&.2.!.$.T.5.+X.X.Xa.zX        ^ t.V.*.H.4 mXKXb.* Z                   ",
"                  *XH  X,.>.S.>.< 1  .! ] t.V.V.V.V.,.6.2.2.!.R.R.3.T.XXS.+.f.h.[.  x.r.t.V.V.{ V LXdX8 G                   ",
"                  .X.X<.XX|. XJ I L / / ` B.I =.*.-.6.Q.!.3.%.R.T.R.4.;.[ S. Xk.3     e.} V.B.D.0 NXDXS                     ",
"                VX] OX|. Xg.( Q t.U r.^ 0 | `  .A.|.|.5.2.2.2.2.T.1.<.' H f.r.k.3     zX/ =.B.C.r.a.  dX                    ",
"              gXi. X>.-Xg.)   Q } J P q a.0.~  X:X>X$XU.T.T.2.2.4.;.&.>.] t.| Q 9.z.    |  .=.} t.8.gX                      ",
"              jXy ].g.d.i *X  4 |  .V q JXy `.5X7X7X7X1X%XU.3.2.2.W.E.5.S.` 1 t.e.6   zX! ,.=.V.B.u.9.                      ",
"                  p.< 0.y i.0 L.! &Xq GXzXu ZX7X8X8X9X9X7X1X#XT.W.2.!.E.R H  .Z.y.q   0.A.&.,.-.*.D.y                       ",
"                      hXa.r.| / | 4 mX  2 *XAX8X2X2X2X2X7XAX1X#XR.3.W.K T G.OXG.t.L y.g.oXK.7.7.*.P.4 '.                    ",
"                      Z w l.| L ( 6 mXHXi ZXCX2X7X9X4X9X7X7X7X3XU.E.Q.K T T ' OXG.u.5 &XK.6.6.6.-.B.3 '.                    ",
"                        b.w.8.n.C 6   j...ZX6X2X4X4X4X6X9X4X4X6X$XY.<.J.>.Y >.OX! u.L Z.oX6.6.-.V.P.0 '.                    ",
"                          B V v.    NX_ ;XCX8X6X4XCX6X8X4X4X4XAX5X|.E.5.5.A.T [ U { L Z.J.&.&.=.C.u.9                       ",
"                            fXhX    i. XY.$X6XCXCX4X7X8X9X9X4X2X7X#X:.3.5.E.R E T I J C.=.&.>.} P.y.                        ",
"                                  bX+.+Xo.Y.5X4XZXCX5X8X8X8X7X6X5X#X:.W.2.5.T.:.,.=.H C.=. . .L.=Xx.                        ",
"                                  =XOX:.E.W :XZX3X3X5X5XCX2X1X5X5X<.4.2.2.W.!.2.oX&.H ] o.+.F.=Xx.                          ",
"                                BXf.<.E.E.1.+.,X,X1X1X1X3X1X:X@X,XW ;.Q.T.3.!.%.6.-.` ~ :XnX=Xw.                            ",
"                                =Xg.oX:.oXXX]  .$X$X#X@X@X2X$X$X>XW R oXE.:.Q.6.K.H.! ( ;Xq.q.                              ",
"                                ].O.XXoX;.-.V.H [ @X>X>X:X:X:X:X,X] T <.U.XXR.6.J.=.r.9 z.                                  ",
"                                vX^ Z.>.=.=.=. .J _ ..;XnXnX:X,XnXY J >.+.H.S.-.-.=.u.0                                     ",
"                                  m.h.t.B.B.} u.h.  }.s.C }.;Xg.g.-XY | t.Z.B.' =.=.f.P zX                                  ",
"                                    8.y.C.C.P./ {.        `.s...i.j.) 5 L t.V.V.*.V.H.0 zX                                  ",
"                                      0 l.u.y.w.6             zX}.kX}.  N./ t.B.B.} D.h.C                                   ",
"                                        MXMXzXx.8 fX                      q u.D.B.D.t.y.r                                   ",
"                                    h hXq.hX8 > M                         q 8.l.y.l.N.xX[.                                  ",
"                                    fXG lXG fX                            b.X vXSXq.JXJXhXG                                 ",
"                                                                              dXS z.v.'.>                                   ",
"                                                                                I.                                          ",
"                                                                                                                            ",
"                                                                                                                            ",
"                                                                                                                            ",
"                                                                                                                            ",
"                                                                                                                            "
};
