/* XPM */
static char *result[] = {
/* columns rows colors chars-per-pixel */
"62 62 178 2 ",
"   c #614718",
".  c #78561E",
"X  c #55422B",
"o  c #59452E",
"O  c #4F4031",
"+  c #474137",
"@  c #62452B",
"#  c #644B2D",
"$  c #734F2B",
"%  c #76552F",
"&  c #674E30",
"*  c #6B5436",
"=  c #60513F",
"-  c #7D5935",
";  c #775C3B",
":  c #79603D",
">  c #124650",
",  c #19545E",
"<  c #21535B",
"1  c #3A655E",
"2  c #195E6A",
"3  c #185560",
"4  c #18626F",
"5  c #0B697B",
"6  c #126C7C",
"7  c #2D6D6F",
"8  c #44544A",
"9  c #5D5348",
"0  c #6C5D42",
"q  c #745647",
"w  c #625F5A",
"e  c #5D614A",
"r  c #6E6146",
"t  c #7B6547",
"y  c #65615B",
"u  c #6E665C",
"i  c #756A54",
"p  c #71775C",
"a  c #5A7867",
"s  c #467771",
"d  c #6F6961",
"f  c #815F39",
"g  c #8D6237",
"h  c #886539",
"j  c #936A3D",
"k  c #9B6B3A",
"l  c #976A36",
"z  c #A06F3D",
"x  c #AA753D",
"c  c #B0783F",
"v  c #8C6A47",
"b  c #876644",
"n  c #996E41",
"m  c #8F7344",
"M  c #947347",
"N  c #9C7444",
"B  c #98754A",
"V  c #93754E",
"C  c #887958",
"Z  c #937E55",
"A  c #9D7D5A",
"S  c #9E7B53",
"D  c #A47542",
"F  c #A67B46",
"G  c #AD7B45",
"H  c #A17B4F",
"J  c #AC7D4B",
"K  c #B37D44",
"L  c #A67E51",
"P  c #967F66",
"I  c #45827D",
"U  c #498078",
"Y  c #9B8458",
"T  c #A3814E",
"R  c #AD804B",
"E  c #B8874D",
"W  c #B88147",
"Q  c #A08057",
"!  c #AC8451",
"~  c #AD8E5A",
"^  c #AF8D57",
"/  c #B38752",
"(  c #B58A52",
")  c #BD8D52",
"_  c #BC8D5A",
"`  c #BE915D",
"'  c #8E8E64",
"]  c #9D8E6C",
"[  c #9A8864",
"{  c #A38B68",
"}  c #A09365",
"|  c #B6A57D",
" . c #C38546",
".. c #C78A4B",
"X. c #D4924D",
"o. c #DA954F",
"O. c #C48E54",
"+. c #CB9455",
"@. c #CC9A5A",
"#. c #C2985B",
"$. c #D49654",
"%. c #DA9651",
"&. c #DD9953",
"*. c #D49C5B",
"=. c #DA9F5E",
"-. c #D19856",
";. c #E49E56",
":. c #CCA15D",
">. c #D3A25C",
",. c #DCA45E",
"<. c #E4A25B",
"1. c #E9A55D",
"2. c #EBA85F",
"3. c #C09561",
"4. c #D6A363",
"5. c #DFAA63",
"6. c #DBA260",
"7. c #D7B167",
"8. c #D8B168",
"9. c #C5AA7E",
"0. c #CAA470",
"q. c #DEAF73",
"w. c #D8B074",
"e. c #E2A662",
"r. c #E3AC63",
"t. c #EBAB62",
"y. c #E8AF6C",
"u. c #F3AE63",
"i. c #E8B868",
"p. c #E9B366",
"a. c #F5B265",
"s. c #FBB467",
"d. c #FEB668",
"f. c #FEBC6B",
"g. c #F6B96A",
"h. c #E3B578",
"j. c #FFC36E",
"k. c #EBC67E",
"l. c #FDC671",
"z. c #FFCA72",
"x. c #F1C771",
"c. c #FFD579",
"v. c #0A6F82",
"b. c #087388",
"n. c #1A7986",
"m. c #057B91",
"M. c #227C85",
"N. c #8F8982",
"B. c #BDAC83",
"V. c #C1AF84",
"C. c #C7B68E",
"Z. c #C7B488",
"A. c #D3BF8F",
"S. c #D2BF90",
"D. c #D4C191",
"F. c #D2C299",
"G. c #DEC393",
"H. c #E3C08B",
"J. c #F5CE8E",
"K. c #E1CA9D",
"L. c #EBD09D",
"P. c #F6D490",
"I. c #DAC9A0",
"U. c #ECDAAD",
"Y. c #E1D1A7",
"T. c #E7D9B0",
"R. c #EBDCB3",
"E. c #EFE1B8",
"W. c #F2E5BB",
"Q. c #F6E8BF",
"!. c #FAECC2",
"~. c #F5ECC7",
"^. c #FDF2C6",
"/. c #FEF5C9",
"(. c #F5F1C9",
"). c #FFFCD2",
"_. c #FEFCD9",
"`. c None",
/* pixels */
"`.`.`.`.`.`.`.`.`.`.`.`.`.`.`.`.`.`.`.`.`.`.`.`.`.`.`.`.`.`.`.`.`.`.`.`.`.`.`.`.`.`.`.`.`.`.`.`.`.`.`.`.`.`.`.`.`.`.`.`.`.`.",
"`.`.`.`.`.`.`.`.`.`.`.`.`.`.`.`.`.`.`.`.`.`.`.`.`.`.`.`.`.`.`.`.`.`.`.`.`.`.`.`.`.`.`.`.`.`.`.`.`.`.`.`.`.`.`.`.`.`.`.`.`.`.",
"`.`.`.`.`.`.`.`.`.`.`.`.`.`.`.`.`.`.`.`.`.`.`.`.`.`.`.`.`.`.`.`.`.`.`.`.`.`.`.`.`.`.`.`.`.`.`.`.`.`.`.`.`.`.`.`.`.`.`.`.`.`.",
"`.`.`.`.`.`.`.`.`.`.`.`.`.`.`.`.`.`.`.`.`.`.`.`.`.`.`.`.`.`.`.`.`.`.`.`.`.`.`.`.`.`.`.`.`.`.`.`.`.`.`.`.`.`.`.`.`.`.`.`.`.`.",
"`.`.`.`.`.`.`.`.`.`.`.`.`.`.`.`.`.`.`.`.`.`.`.`.`.`.`.`.`.`.`.`.`.`.`.`.`.`.`.`.`.`.`.`.`.`.`.`.`.`.`.`.`.`.`.`.`.`.`.`.`.`.",
"`.`.`.`.`.`.`.`.`.`.`.`.`.`.`.`.`.`.`.`.`.`.`.`.`.`.`.`.`.`.`.`.`.`.`.`.`.`.`.`.`.`.`.`.`.`.`.`.`.`.`.`.`.`.`.`.`.`.`.`.`.`.",
"`.`.`.`.`.`.`.`.`.`.`.`.`.`.`.`.`.`.`.`.`.`.`.`.`.`.`.`.`.`.`.`.`.`.`.`.`.`.`.`.`.`.`.`.`.`.`.`.`.`.`.`.`.`.`.`.`.`.`.`.`.`.",
"`.`.`.`.`.`.`.`.`.`.`.`.`.`.`.`.`.`.`.`.`.`.`.`.`.`.`.`.`.`.`.`.`.`.`.`.`.`.`.`.`.`.`.`.`.`.`.`.`.`.`.`.`.`.`.`.`.`.`.`.`.`.",
"`.`.`.`.`.`.`.`.`.`.`.`.`.`.`.`.`.`.`.`.`.`.`.`.`.`.`.`.`.`.`.`.`.`.`.`.`.`.`.`.`.`.`.`.`.`.`.`.`.`.`.`.`.`.`.`.`.`.`.`.`.`.",
"`.`.`.`.`.`.`.`.`.`.`.`.`.`.`.: V `.`.`.`.`.`.`.`.`.`.`.`.`.`.`.`.`.`.`.`.`.`.`.`.`.`.`.`.`.`.`.`.`.`.`.`.`.`.`.`.`.`.`.`.`.",
"`.`.`.`.`.`.`.`.`.`.`.`.`.`.`.h @.4.`.`.`.`.`.`.`.`.`.`.`.`.`.`.`.`.`.`.`.`.`.`.`.`.`.`.`.`.`.o * X X `.`.`.`.`.`.`.`.`.`.`.",
"`.`.`.`.`.`.`.`.`.`.`.`.`.`.`.`.N t.t.`.`.`.`.`.`.`.`.`.`.`.`.`.`.`.`.`.`.`.`.`.`.`.`.`.`.X & # `.`.`.`.`.`.`.`.`.`.`.`.`.`.",
"`.`.`.`.`.`.`.`.`.`.`.`.`.`.`.`.`.R a.r.S `.`.`.`.`.`.`.`.`.`.`.`.`.`.`.`.`.`.`.`.`.`.; * # `.`.`.`.`.`.`.`.`.`.`.`.`.`.`.`.",
"`.`.`.`.`.`.`.`.`.`.`.`.`.`.`.`.`.`.+.s.t.` `.`.`.`.`.`.`.`.`.`.`.`.`.`.`.`.`.`.`.b m 0 `.`.`.`.`.`.`.`.`.`.`.`.`.`.`.`.`.`.",
"`.`.`.`.`.`.`.`.`.`.`.`.`.`.`.`.`.`.j ,.d.a._ `.`.`.`.`.`.`.`.`.`.`.`.`.`.`.`.; B p 8 `.`.`.`.`.`.`.`.`.`.`.`.`.`.`.`.`.`.`.",
"`.`.`.`.`.`.`.`.`.`.`.`.`.`.`.`.`.`.`.F a.d.s.@.`.`.`.`.`.`.`.`.`.`.`.`.`.`.B Y U 4 `.`.`.`.`.`.`.`.`.`.`.`.`.`.`.`.`.`.`.`.",
"`.`.`.`.`.`.`.`.`.`.`.`.`.`.`.`.`.`.`.`.5.s.s.a.<.H `.`.`.`.`.`.`.`.`.`.`.J } M.b.< `.`.`.`.`.`.`.`.`.`.`.`.`.`.`.`.`.`.`.`.",
"`.`.`.`.`.`.`.`.`.`.`.`.`.`.`.`.`.`.`.`.) s.d.s.d._ `.`.`.`.`.`.`.`.`.`.n ~ n.5 > `.`.`.`.`.`.`.`.`.`.`.`.`.`.`.`.`.`.`.`.`.",
"`.`.`.`.`.`.`.`.`.`.`.`.`.`.`.`.`.`.`.`.N ..2.s.d.e.`.`.`.`.`.`.`.`.`.`.T I v.`.`.`.`.`.`.`.`.`.`.`.`.`.`.`.`.`.`.`.`.`.`.`.",
"`.`.`.`.`.`.`.`.`.`.`.`.`.`.`.`.`.`.`.`.`.`.D 2.s.,.L `.`.`.`.`.`.`.`.`.e b.3 `.`.`.`.`.`.`.`.`.`.`.`.`.`.`.`.`.`.`.`.`.`.`.",
"`.`.`.`.`.`.`.`.`.`.`.`.`.`.`.`.`.`.`.`.`.`.`.W 2.R / `.`.b `.`.`.`.`.`.1 6 `.`.`.`.`.`.`.`.`.`.`.`.`.`.`.`.`.`.`.`.`.`.`.`.",
"`.`.`.`.`.`.`.`.`.`.`.`.`.`.`.`.`.`.`.`.`.`.`.`.K ( ) `.T B `.`.`.`.`.# 7 2 `.`.`.`.`.`.`.`.`.`.`.`.`.`.`.`.`.`.`.`.`.`.`.`.",
"`.`.`.`.`.`.`.`.`.`.`.`.`.`.`.`.`.`.`.`.`.`.`.`.% >.+.^ :.`.`.`.`.`.`.0 n.`.`.`.`.`.`.`.`.`.`.`.`.`.`.`.`.`.`.`.`.`.`.`.`.`.",
"`.`.`.`.`.`.`.`.`.`.`.`.`.`.`.`.`.`.`.`.`.`.`.`.D p.g.l.r.`.`.`.`.`.- a v.`.`.`.`.`.`.`.`.`.`.`.`.`.`.`.`.`.`.`.`.`.`.`.`.`.",
"`.`.`.`.`.`.`.`.`.`.`.`.`.`.`.`.`.`.`.`.`.`.`.`.-.a.i.5.p.6.`.`.`.`.Z n.v.`.`.`.`.`.`.`.`.`.`.`.`.`.`.`.`.`.`.`.`.`.`.`.`.`.",
"`.`.`.`.`.`.`.`.`.`.`.`.`.`.`.`.`.`.`.`.`.`.`.`.D t.:.t t.2.( `.`.n I m.4 `.`.`.`.`.`.`.`.`.`.`.`.`.`.`.`.`.`.`.`.`.`.`.`.`.",
"`.`.`.`.`.`.`.`.`.`.`.`.`.`.`.`.`.`.`.`.`.`.`.`.F a.>.@.+.z *.`.g ' m.v.`.`.`.`.`.`.`.`.`.`.`.`.`.`.`.`.`.`.`.`.`.`.`.`.`.`.",
"`.`.`.`.`.`.`.`.`.`.`.`.`.`.`.`.`.`.`.`.`.`.`.`.r.j.g.G $ K ;.+.R s b., `.`.`.`.`.`.`.`.`.`.`.`.`.`.`.`.`.`.`.`.`.`.`.`.`.`.",
"`.`.`.`.`.`.`.`.`.`.`.`.`.`.`.`.`.`.`.`.`.`.`.`.+.O.v @ k X.&.u.*.' a `.`.`.`.`.`.`.`.`.`.`.`.`.`.`.`.`.`.`.`.`.`.`.`.`.`.`.",
"`.`.`.`.`.`.`.`.`.`.`.`.`.`.`.`.`.`.`.`.`.`.`.`.`.q q k X.o.;.s.j.z.x.^ `.`.`.`.`.`.`.`.`.`.`.`.`.`.`.`.`.`.`.`.`.`.`.`.`.`.",
"`.`.`.`.`.`.`.`.`.`.`.`.`.`.`.`.`.`.`.`.`.`.`.`.`.D G 1.a.a.d.j.z.p.,.7.`.`.`.`.`.`.`.`.`.`.`.`.`.`.`.`.`.`.`.`.`.`.`.`.`.`.",
"`.`.`.`.`.`.`.`.`.`.`.`.`.`.`.`.`.`.`.`.`.`.`.`./ / $.d.j.z.c.c.x.( :.5.=.`.`.`.`.`.`.`.`.`.`.`.`.`.`.`.`.`.`.`.`.`.`.`.`.`.",
"`.`.`.`.`.`.`.`.`.`.`.`.`.`.`.`.`.`.`.`.`.`.`.R :.`.E g.k.J.P.H.8.Q S W =.`.`.`.`.`.`.`.`.`.`.`.`.`.`.`.`.`.`.`.`.`.`.`.`.`.",
"`.`.`.`.`.`.`.`.`.`.`.`.`.`.`.`.`.`.`.`.`.`.T 5.` `.( L.(._._.(.U.q.>.R M `.`.`.`.`.`.`.`.`.`.`.`.`.`.`.`.`.`.`.`.`.`.`.`.`.",
"`.`.`.`.`.`.`.`.`.`.`.`.`.`.`.`.`.`.`.`.`.f @.j V O 9.!./.).).).).E.q.,.v `.`.`.`.`.`.`.`.`.`.`.`.`.`.`.`.`.`.`.`.`.`.`.`.`.",
"`.`.`.`.`.`.`.`.`.`.`.`.`.`.`.`.`.`.`.`.`.F M + `.0 I.!.!./././.^.!.U.y.O.`.`.`.`.`.`.`.`.`.`.`.`.`.`.`.`.`.`.`.`.`.`.`.`.`.",
"`.`.`.`.`.`.`.`.`.`.`.`.`.`.`.`.`.`.`.`.`.`.= `.`.3.R.Q.!.!.!.!.Q.!.~.H.1.! `.`.`.`.`.`.`.`.`.`.`.`.`.`.`.`.`.`.`.`.`.`.`.`.",
"`.`.`.`.`.`.`.`.`.`.`.`.`.`.`.`.`.`.`.`.`.`.`.`.R h.T.W.Q.Q.Q.!.Q.Q.!.K.t.=.`.`.`.`.`.`.`.`.`.`.`.`.`.`.`.`.`.`.`.`.`.`.`.`.",
"`.`.`.`.`.`.`.`.`.`.`.`.`.`.`.`.`.`.`.`.`.`.`.`.<.y.I.W.Q.Q.Q.Q.Q.Q.W.H.u.t.v `.`.`.`.`.`.`.`.`.`.`.`.`.`.`.`.`.`.`.`.`.`.`.",
"`.`.`.`.`.`.`.`.`.`.`.`.`.`.`.`.`.`.`.`.`.`.`.n u.t.V.T.E.W.W.W.W.W.R.0.u.u.J `.`.`.`.`.`.`.`.`.`.`.`.`.`.`.`.`.`.`.`.`.`.`.",
"`.`.`.`.`.`.`.`.`.`.`.`.`.`.`.`.`.`.`.`.`.`.`.W u.a.4.Z.Y.E.W.W.W.T.B.O.u.u.! `.`.`.`.`.`.`.`.`.`.`.`.`.`.`.`.`.`.`.`.`.`.`.",
"`.`.`.`.`.`.`.`.`.`.`.`.`.`.`.`.`.`.`.`.`.`.`.g 1.1.u.+.Y C.F.F.C.B.H <.u.t.J `.`.`.`.`.`.`.`.`.`.`.`.`.`.`.`.`.`.`.`.`.`.`.",
"`.`.`.`.`.`.`.`.`.`.`.`.`.`.`.`.`.`.`.`.`.`.`.`.X.<.1.o.h [ | | B.] - X.;.;.k `.`.`.`.`.`.`.`.`.`.`.`.`.`.`.`.`.`.`.`.`.`.`.",
"`.`.`.`.`.`.`.`.`.`.`.`.`.`.`.`.`.`.`.`.`.`.`.`.K o.o.o.l Y D.D.Z.i `.x %.X.j `.`.`.`.`.`.`.`.`.`.`.`.`.`.`.`.`.`.`.`.`.`.`.",
"`.`.`.`.`.`.`.`.`.`.`.`.`.`.`.`.`.`.`.`.`.`.`.`.g ..X.o.$ j D.D.{ `.`.K  . .K `.`.`.`.`.`.`.`.`.`.`.`.`.`.`.`.`.`.`.`.`.`.`.",
"`.`.`.`.`.`.`.`.`.`.`.`.`.`.`.`.`.`.`.`.`.`.`.`.W <.o.c   / D.| `.`.`.K &.&.$.`.`.`.`.`.`.`.`.`.`.`.`.`.`.`.`.`.`.`.`.`.`.`.",
"`.`.`.`.`.`.`.`.`.`.`.`.`.`.`.`.`.`.`.`.`.`.`.u A #.{ q `.Z ] r `.`.`.[ _ _ A d `.`.`.`.`.`.`.`.`.`.`.`.`.`.`.`.`.`.`.`.`.`.",
"`.`.`.`.`.`.`.`.`.`.`.`.`.`.`.`.`.`.`.`.`.`.`.`.w u u `.`.`.`.`.`.`.`.w 9 N.`.`.`.`.`.`.`.`.`.`.`.`.`.`.`.`.`.`.`.`.`.`.`.`.",
"`.`.`.`.`.`.`.`.`.`.`.`.`.`.`.`.`.`.`.`.`.`.`.`.`.`.`.`.`.`.`.`.`.`.`.`.`.`.`.`.`.`.`.`.`.`.`.`.`.`.`.`.`.`.`.`.`.`.`.`.`.`.",
"`.`.`.`.`.`.`.`.`.`.`.`.`.`.`.`.`.`.`.`.`.`.`.`.`.`.`.`.`.`.`.`.`.`.`.`.`.`.`.`.`.`.`.`.`.`.`.`.`.`.`.`.`.`.`.`.`.`.`.`.`.`.",
"`.`.`.`.`.`.`.`.`.`.`.`.`.`.`.`.`.`.`.`.`.`.`.`.`.`.`.`.`.`.`.`.`.`.`.`.`.`.`.`.`.`.`.`.`.`.`.`.`.`.`.`.`.`.`.`.`.`.`.`.`.`.",
"`.`.`.`.`.`.`.`.`.`.`.`.`.`.`.`.`.`.`.`.`.`.`.`.`.`.`.`.`.`.`.`.`.`.`.`.`.`.`.`.`.`.`.`.`.`.`.`.`.`.`.`.`.`.`.`.`.`.`.`.`.`.",
"`.`.`.`.`.`.`.`.`.`.`.`.`.`.`.`.`.`.`.`.`.`.`.`.`.`.`.`.`.`.`.`.`.`.`.`.`.`.`.`.`.`.`.`.`.`.`.`.`.`.`.`.`.`.`.`.`.`.`.`.`.`.",
"`.`.`.`.`.`.`.`.`.`.`.`.`.`.`.`.`.`.`.`.`.`.`.`.`.`.`.`.`.`.`.`.`.`.`.`.`.`.`.`.`.`.`.`.`.`.`.`.`.`.`.`.`.`.`.`.`.`.`.`.`.`.",
"`.`.`.`.`.`.`.`.`.`.`.`.`.`.`.`.`.`.`.`.`.`.`.`.`.`.`.`.`.`.`.`.`.`.`.`.`.`.`.`.`.`.`.`.`.`.`.`.`.`.`.`.`.`.`.`.`.`.`.`.`.`.",
"`.`.`.`.`.`.`.`.`.`.`.`.`.`.`.`.`.`.`.`.`.`.`.`.`.`.`.`.`.`.`.`.`.`.`.`.`.`.`.`.`.`.`.`.`.`.`.`.`.`.`.`.`.`.`.`.`.`.`.`.`.`.",
"`.`.`.`.`.`.`.`.`.`.`.`.`.`.`.`.`.`.`.`.`.`.`.`.`.`.`.`.`.`.`.`.`.`.`.`.`.`.`.`.`.`.`.`.`.`.`.`.`.`.`.`.`.`.`.`.`.`.`.`.`.`.",
"`.`.`.`.`.`.`.`.`.`.`.`.`.`.`.`.`.`.`.`.`.`.`.`.`.`.`.`.`.`.`.`.`.`.`.`.`.`.`.`.`.`.`.`.`.`.`.`.`.`.`.`.`.`.`.`.`.`.`.`.`.`.",
"`.`.`.`.`.`.`.`.`.`.`.`.`.`.`.`.`.`.`.`.`.`.`.`.`.`.`.`.`.`.`.`.`.`.`.`.`.`.`.`.`.`.`.`.`.`.`.`.`.`.`.`.`.`.`.`.`.`.`.`.`.`.",
"`.`.`.`.`.`.`.`.`.`.`.`.`.`.`.`.`.`.`.`.`.`.`.`.`.`.`.`.`.`.`.`.`.`.`.`.`.`.`.`.`.`.`.`.`.`.`.`.`.`.`.`.`.`.`.`.`.`.`.`.`.`.",
"`.`.`.`.`.`.`.`.`.`.`.`.`.`.`.`.`.`.`.`.`.`.`.`.`.`.`.`.`.`.`.`.`.`.`.`.`.`.`.`.`.`.`.`.`.`.`.`.`.`.`.`.`.`.`.`.`.`.`.`.`.`.",
"`.`.`.`.`.`.`.`.`.`.`.`.`.`.`.`.`.`.`.`.`.`.`.`.`.`.`.`.`.`.`.`.`.`.`.`.`.`.`.`.`.`.`.`.`.`.`.`.`.`.`.`.`.`.`.`.`.`.`.`.`.`."
};
