/* XPM */
static char *charizard1_removebg_preview1675691714[] = {
/* columns rows colors chars-per-pixel */
"62 62 256 2 ",
"   c None",
".  c #11120E",
"X  c #310E05",
"o  c #382A08",
"O  c #07142A",
"+  c #05242B",
"@  c #01352B",
"#  c #02293A",
"$  c #043638",
"%  c #152F31",
"&  c #2E2C29",
"*  c #372828",
"=  c #353738",
"-  c #302F33",
";  c #581A06",
":  c #4C1715",
">  c #79181B",
",  c #57291A",
"<  c #512911",
"1  c #69381C",
"2  c #712D0F",
"3  c #462924",
"4  c #493533",
"5  c #563C37",
"6  c #58322A",
"7  c #673727",
"8  c #773728",
"9  c #663535",
"0  c #702F2A",
"q  c #05453A",
"w  c #1E4239",
"e  c #2F443A",
"r  c #514636",
"t  c #764838",
"y  c #704B2F",
"u  c #033B43",
"i  c #053849",
"p  c #033D53",
"a  c #003D5A",
"s  c #073858",
"d  c #143B53",
"f  c #123648",
"g  c #323C44",
"h  c #293447",
"j  c #103C65",
"k  c #283B63",
"l  c #4A3A46",
"z  c #682946",
"x  c #054448",
"c  c #0C4256",
"v  c #064659",
"b  c #124458",
"n  c #16404E",
"m  c #2E4950",
"M  c #044865",
"N  c #144965",
"B  c #165875",
"V  c #0D546E",
"C  c #285676",
"Z  c #2E6174",
"A  c #525350",
"S  c #665257",
"D  c #6B514C",
"F  c #756358",
"G  c #5D686B",
"H  c #636D74",
"J  c #6E7271",
"K  c #5F5A65",
"L  c #8D3617",
"P  c #A63C12",
"I  c #873729",
"U  c #963826",
"Y  c #933932",
"T  c #A83B36",
"R  c #AB3A28",
"E  c #CE340D",
"W  c #C73F2B",
"Q  c #E32105",
"!  c #974714",
"~  c #8A4513",
"^  c #AA491C",
"/  c #AF4D15",
"(  c #874827",
")  c #974429",
"_  c #884539",
"`  c #984838",
"'  c #895839",
"]  c #975A39",
"[  c #935A2B",
"{  c #A94A28",
"}  c #B74A26",
"|  c #A75B26",
" . c #B65325",
".. c #A94736",
"X. c #BA4C37",
"o. c #A65937",
"O. c #BA553C",
"+. c #B66737",
"@. c #AF6932",
"#. c #B26017",
"$. c #D15511",
"%. c #E64F03",
"&. c #D76716",
"*. c #D57016",
"=. c #EC7B1D",
"-. c #E6771B",
";. c #E37D00",
":. c #C74B2A",
">. c #C55B2A",
",. c #C54B3B",
"<. c #C85638",
"1. c #D55639",
"2. c #D4542C",
"3. c #E2522A",
"4. c #C7672A",
"5. c #D8682B",
"6. c #C87427",
"7. c #DC7827",
"8. c #CA6836",
"9. c #D76B37",
"0. c #DA7835",
"q. c #C8733B",
"w. c #E66B29",
"e. c #EC7B23",
"r. c #E57C2B",
"t. c #E57826",
"y. c #F67B29",
"u. c #E56738",
"i. c #EA7C33",
"p. c #E57734",
"a. c #F77A34",
"s. c #FA6C2E",
"d. c #843E48",
"f. c #C7374E",
"g. c #854E45",
"h. c #9A5947",
"j. c #95534D",
"k. c #B94845",
"l. c #AA5748",
"z. c #B65946",
"x. c #A6534E",
"c. c #976A4C",
"v. c #936655",
"b. c #A76A47",
"n. c #B96949",
"m. c #B9764A",
"M. c #A76A5B",
"N. c #BA6B54",
"B. c #AF7A58",
"V. c #987469",
"C. c #8D706F",
"Z. c #AE7669",
"A. c #A65A62",
"S. c #C84A43",
"D. c #D64944",
"F. c #C95547",
"G. c #D65A48",
"H. c #D85751",
"J. c #CA5050",
"K. c #E45544",
"L. c #C7674A",
"P. c #D66547",
"I. c #C67548",
"U. c #D57948",
"Y. c #C76351",
"T. c #D66A56",
"R. c #D37557",
"E. c #E77A44",
"W. c #F57646",
"Q. c #E96A4B",
"!. c #D77165",
"~. c #748773",
"^. c #EA8215",
"/. c #FB9313",
"(. c #FCBA1A",
"). c #F0B112",
"_. c #DE8535",
"`. c #D2852D",
"'. c #EB842C",
"]. c #E98628",
"[. c #FC8424",
"{. c #F68629",
"}. c #E88737",
"|. c #F78538",
" X c #F49335",
".X c #F1A533",
"XX c #D3841F",
"oX c #FBD613",
"OX c #FAC81B",
"+X c #FAC724",
"@X c #FBD035",
"#X c #F8E51D",
"$X c #928477",
"%X c #B08974",
"&X c #BC845F",
"*X c #D98455",
"=X c #CD8A50",
"-X c #E98745",
";X c #F78645",
":X c #E79947",
">X c #F19853",
",X c #ECAD56",
"<X c #F4AD56",
"1X c #FBB55C",
"2X c #ECAE54",
"3X c #C38778",
"4X c #CF9070",
"5X c #E99670",
"6X c #F7B967",
"7X c #F0AB6C",
"8X c #F8C86A",
"9X c #EDDB79",
"0X c #EAD974",
"qX c #F2D574",
"wX c #F2D976",
"eX c #F4DB7A",
"rX c #F7D478",
"tX c #F4CE74",
"yX c #DEE772",
"uX c #F4E475",
"iX c #EFD368",
"pX c #186986",
"aX c #1C738A",
"sX c #1C6C95",
"dX c #197799",
"fX c #0D758D",
"gX c #266B87",
"hX c #24718A",
"jX c #286C99",
"kX c #227393",
"lX c #237498",
"zX c #30718D",
"xX c #1E77A6",
"cX c #256BA1",
"vX c #115EA6",
"bX c #547A83",
"nX c #A37E80",
"mX c #CD7F97",
"MX c #2A849E",
"NX c #798B8F",
"BX c #568398",
"VX c #938D8E",
"CX c #B5938C",
"ZX c #ACAEA2",
"AX c #C89A8C",
"SX c #CF9389",
"DX c #D7A284",
"FX c #CAA994",
"GX c #C9B3A9",
"HX c #F0A69C",
"JX c #F8DD85",
"KX c #FFDD9A",
"LX c #F8E189",
"PX c #CEC1BB",
"IX c #C9BCC5",
"UX c #EDE3E3",
/* pixels */
"                                                                                                                            ",
"                                                                                            !.HX                            ",
"                                                                                            5X3.P.  SX                      ",
"                                                                                              E $.DX                        ",
"                                                                                          Y.P.5.&.G.                        ",
"                                                                                        !.Q %.(.].Q.                        ",
"                                                                                        E [.(.oX[.1.                        ",
"                                                                                      G.$.OXOX).%.R.                        ",
"                                                                                      T.%.OXoX*.^._.8.7X                    ",
"                                                                                        / .X+XOX+X@X-.E 3X                  ",
"                                                                                        5X$.*..X).oX/.%.                    ",
"                                            y                   SX'                       1.<.6.oXoX=.}                     ",
"                                        %X4.U.                  c.I.O.3X  AX] O.R.M.AX    m.q.{.(..X4X                      ",
"                                  %X    o.a.8.                    ~ {.p.q.5.t.E.&.8.P.U.*XI.I.XX[.m.                        ",
"                                &Xm.+.|  Xp.`                     @. X0.o.` 8 4 y y ' { =X!. .B.4X                          ",
"                            &X] 4.>.i./.{.^                         7.( + $ i fXvXpXfXC A 4X-X3X                            ",
"                          L.q.v.= + - [ ;X>.                        O.1 i v B kXkXjXhXkXxXk L.0.                            ",
"                        M.N.r u $ N N . | } CX                      n.1 # v V kXaXkXaXkXxXZ g.U.CX                          ",
"                        h.* a a v a M v 3 U.c.                      n.1 # b M hXpXdXdXsXkXkXm L.SX                          ",
"                      V.D $ v m p d @ $ * U                         O.1 i p p B aXMXcXlXhXdXx h.I.                          ",
"                    %X8 g M c $ v d x x g N.n.                      n.1 i p i V aXlXcXjXhXsXV y 5.DX                        ",
"                     .z.m i h p $ a M M i '  .                      4Xy p p d M hXjXjXlXaXsXN = Q.N.                        ",
"                  B...9 % D 4 s v N h h s D 8.%X                    R.y d c b x pXjXkXhXsXsXb f D ..B.                      ",
"                  < D j g <.> + v % [ ..p f ..%X                  S ) 7 i v i p V sXfXgXsXMXd v f o.5.B.                    ",
"                  ; e f d.<.o k * [ W.L # q y _ F                 0 o.% v s b u M hXhXhXzXV v v p w P.;                     ",
"                  I F % Y z.o AXn.;X] VXg x f Y T g.          5 ( j.l i b d c v c V pXgXZ   m i v q Y ,                     ",
"                  L 7 * x.{ ( / {.4.FXUXIXi x & T I V.      c.| p.3 s B u v u v b M lXzX    G # a $ t ,                     ",
"                  c.y 8 P.5._.|.i.3     e * , ' @.| ! v.    x.W., @ V B B # h - O d B BX      K d i D 9                     ",
"                    1 7.{.y.e.e.}.7 S D < q.|.a.;X{.=.4.t g.t ) O d N C N NX    J + +         H O x S ,                     ",
"                  C.| '.=.=.{.}.=. XP U P.0.|.].t.|.i.|.a.>.( o j x v v BX          K           . x A :                     ",
"                  2 ;X0.;X X@.5.a.*.y.1.8.>.5.].}.}.i.i.{.a.5X0 @ @ q $                         g.% m Y V.                  ",
"                = $.w.*X:Xb.FXw.'.}.`.u.f.A.y < L 1.u.{.XX].i.4.8 9 . F                         <.* 5 T SX                  ",
"                  > ,.4.| A GX{.p.6.].$.M.nX!.` U T ,.u.y.'.}.#.9.;X$. XI.x.CX  V.            CXk.; ` I CX                  ",
"                    2 0.>./ 0.u.: : T.{ ) S.1.G.F.X.<.1.t.=.{.p.-.7.}.]._._.q.>.:             v.k.O.{ U V.                  ",
"                  m.-.|._. X}.` 7 : J.X.Y.,.R J.1.<.9.0.].=.y.a.|.XX}.r.^  .5.[.2             N.,.z.O.k.Z.                  ",
"                  >.|.}.'.*.2 :.{ ( L R I l.P z.3.5.W.t.].].t.t.s.].6.} x.AXb.) ..D         %XU H...G.T v.                  ",
"                O.p.6._.E.2 2 W 2 8 o Z.  CX! q.:X>X<Xe.-.'.].].y.r. .<...CXCXz 1.D VX      M.D.G.F.G.T D                   ",
"              VX/ W.5.=Xv.: !.j.3X6       v.5.iXiXuXrX:X].t.t.'.e.t.'.p.K.L : ` 3.Y ~.    CXT Q.:.G.G.`                     ",
"                $XM.> ; 5 0 b.c.b.C.      < KXJXyX0XuXwX,X_.:X].|.].=.e.E.O./ 9.w.F.D   Z.l.D.:.G.1.,._                     ",
"                    VX6 X.h., { 2 ~.    r &XuXrXrXqX0X9XLXqX8X_.e.7.'.E.! 8.W.0.].Q.8 ; { F.K.8.F.<.,.j.                    ",
"                        4 C.GXr A       r tXiXeX9X9X9XwXeXJX9X0X}._.].[./ 0 h.! {.P x.g.! W.5.9.L.,...V.                    ",
"                          D VX        $Xh.JXwXtXeXeXqXrXwXwXrXeX.X_.7.e.7.I.O.{ Q.I 7 y +.a.s.9.<.S.Y                       ",
"                                      [ U.JXyXJXrXwXeXeXeXeXeXwX8X}.r.|.'.i.9. .' h.L.} 7. Xr.u.2.G.8 VX                    ",
"                                    &X7.>XJX0XiXqXwX9XqX9XqXwX9XqX.Xw.|.e.e.|.9.+.~ q.W.s.0.8.8.1.O.1                       ",
"                                  FX0.[.&.I.eXuX9X9X9X0X0X0X9XeXLX2X*.7.}.y.{.].W. .) X.S.O.G.D.H.` F                       ",
"                                  Y.y.^.7.L.6XiXqXqXeX9XeXeX0XqXLX=X7.].y.|.-.=.9.1.U J.R...G.D.N.V.                        ",
"                                AX0.{.|.{.2.I.6X6X8X8XqXrX8XiX,X8X| 9.|.=.r.'.y.|.8.U ) >.u.5X'                             ",
"                                %X*.|.9.{.e.U =X1X<X2X2X,X,X,X,X1Xn.O.a.[.`.p.y.a.8.O.( 5X*Xc.~.                            ",
"                                %XO.E.0.>.D.H.( `.1X6X2X:X1X:X6X6Xo...>.}.r.i.r.Q.:.O.I V.ZX                                ",
"                                  A.W 1.F.G.k.z.9 j.&X6X8X<X8X,X1Xm.( Y.W 1.Q.:.F.F.Y.; F                                   ",
"                                    h.F.H.S.J.{ VXUXr t [ :X<X6.6.+.( T H.D.,.J.z.S.F._ GX                                  ",
"                                    GXI J.F.S.:.r     ZX$XM.l.F.@.>X4X7 0 G.:.Y.J.D.9.U nX                                  ",
"                                        GXGX4XS., V.          %XZ.b.N.PXGX2 1.P.G.<.:.N.5                                   ",
"                                    =   K   * 9 S                         r j.J.l.L.R.4XVX                                  ",
"                                    NXH   G                               bXX HX  v.    CXJ                                 ",
"                                                                              J H H NXVX-                                   ",
"                                                                                                                            ",
"                                                                                                                            ",
"                                                                                                                            ",
"                                                                                                                            ",
"                                                                                                                            ",
"                                                                                                                            "
};
