/* XPM */
static char *result[] = {
/* columns rows colors chars-per-pixel */
"62 62 174 2 ",
"   c #4F3C27",
".  c #553D26",
"X  c #513839",
"o  c #5C472B",
"O  c #44483C",
"+  c #5D4C35",
"@  c #624729",
"#  c #714D29",
"$  c #79512D",
"%  c #614436",
"&  c #714F36",
"*  c #6E563C",
"=  c #665139",
"-  c #755434",
";  c #7D5935",
":  c #70573A",
">  c #725B3D",
",  c #7A5F3E",
"<  c #1C535C",
"1  c #394741",
"2  c #135A66",
"3  c #0F6D7D",
"4  c #3F726D",
"5  c #524E49",
"6  c #565944",
"7  c #7D6342",
"8  c #6E665B",
"9  c #7D6D50",
"0  c #7C7D5F",
"q  c #5A7864",
"w  c #637B67",
"e  c #75716C",
"r  c #825C34",
"t  c #815F38",
"y  c #886037",
"u  c #85613A",
"i  c #8B633C",
"p  c #8F693F",
"a  c #956636",
"s  c #91673B",
"d  c #996A3A",
"f  c #976B3E",
"g  c #AB753D",
"h  c #835B5E",
"j  c #8E6D49",
"k  c #896944",
"l  c #936E44",
"z  c #986E42",
"x  c #977447",
"c  c #9C7141",
"v  c #95744C",
"b  c #9B7348",
"n  c #8B7552",
"m  c #8A785A",
"M  c #937C5B",
"N  c #997C59",
"B  c #A27544",
"V  c #A87541",
"C  c #AD7A44",
"Z  c #A37D4B",
"A  c #AC7D4C",
"S  c #A57947",
"D  c #B37D45",
"F  c #B57E45",
"G  c #AD7B5D",
"H  c #9B7F60",
"J  c #917E69",
"K  c #78805F",
"L  c #718066",
"P  c #B4834D",
"I  c #BB854A",
"U  c #B6894F",
"Y  c #BE884D",
"T  c #BA8043",
"R  c #AB8353",
"E  c #A8865E",
"W  c #B18453",
"Q  c #B78A50",
"!  c #BA8F5F",
"~  c #BE8852",
"^  c #BE9559",
"/  c #87827D",
"(  c #AF8D61",
")  c #BE9463",
"_  c #AD9B74",
"`  c #B39D73",
"'  c #AFA27F",
"]  c #B7A479",
"[  c #C38445",
"{  c #C88947",
"}  c #CC8D4B",
"|  c #D6934D",
" . c #DB954F",
".. c #C18D51",
"X. c #CB9254",
"o. c #C69857",
"O. c #C49259",
"+. c #CA9C5E",
"@. c #C79757",
"#. c #D49452",
"$. c #DB9750",
"%. c #D69A57",
"&. c #DD9A54",
"*. c #D59B59",
"=. c #DC9D5A",
"-. c #E39E56",
";. c #C9A25F",
":. c #DFA25C",
">. c #E5A25A",
",. c #EBA55C",
"<. c #EFA85F",
"1. c #C9A262",
"2. c #D7A660",
"3. c #DEA861",
"4. c #C8A676",
"5. c #DFBD78",
"6. c #DEB279",
"7. c #EAA760",
"8. c #E6AB64",
"9. c #ECAC62",
"0. c #EEAF68",
"q. c #E5A661",
"w. c #F3AD62",
"e. c #E2B469",
"r. c #ECB46C",
"t. c #E7B164",
"y. c #F6B064",
"u. c #F9B265",
"i. c #F7B769",
"p. c #FCBB6B",
"a. c #F2B967",
"s. c #E9BF71",
"d. c #E2BA74",
"f. c #F4BB73",
"g. c #FDC06D",
"h. c #EEC578",
"j. c #FFC670",
"k. c #F4C973",
"l. c #FECB73",
"z. c #FFD779",
"x. c #03758B",
"c. c #0F7C8E",
"v. c #107485",
"b. c #247881",
"n. c #BDAD86",
"m. c #C1AE82",
"M. c #C5B48A",
"N. c #C9B789",
"B. c #CAB789",
"V. c #C7B790",
"C. c #CEBE94",
"Z. c #D2BC90",
"A. c #E1BD84",
"S. c #D3C090",
"D. c #D8C79D",
"F. c #E7C080",
"G. c #E4C28D",
"H. c #DECFA6",
"J. c #E5CFA1",
"K. c #E8D9AF",
"L. c #E5D2A7",
"P. c #ECDDB3",
"I. c #EFE2B7",
"U. c #EFE1B8",
"Y. c #F3E6BC",
"T. c #F5E8BE",
"R. c #F7EAC1",
"E. c #F9EBC2",
"W. c #FCF0C5",
"Q. c #F7F2CD",
"!. c #FEF3C8",
"~. c #FFF9CE",
"^. c #FFFCD2",
"/. c None",
/* pixels */
"/./././././././././././././././././././././././././././././././././././././././././././././././././././././././././././././.",
"/./././././././././././././././././././././././././././././././././././././././././././././././././././././././././././././.",
"/./././././././././././././././././././././././././././././././././././././././././././././././././././././././././././././.",
"/./././././././././././././././././././././././././././././././././././././././././././././././././././././././././././././.",
"/./././././././././././././././././././././././././././././././././././././././././././././././././././././././././././././.",
"/./././././././././././././././././././././././././././.. /./././././././.  /./././././././././././././././././././././././.",
"/./././././././././././././././././././././././././.p g r /./././././././.r u /././././././././././././././././././././././.",
"/././././././././././././././././././././././././.I | D /././././././././.a S /././././././././././././././././././././././.",
"/./././././././././././././././././././././././.C  .} r /./././././././././.V /././././././././././././././././././././././.",
"/././././././././././././././././././././././.u |  .F /././././././././././.f /././././././././././././././././././././././.",
"/././././././././././././././././././././././.I $.$.c /././././././././././.F : /./././././././././././././././././././././.",
"/./././././././././././././././././././././.B $.$.| u /././././././././././.C , /./././././././././././././././././././././.",
"/././././././././././././././././././././.k $.-.&.$././././././././././././.D k /./././././././././././././././././././././.",
"/././././././././././././././././././././.I >.-.&.&././././././././././././.D 7 /./././././././././././././././././././././.",
"/././././././././././././././././././././.C ,.>.-.=.j /./././././././././.r S /././././././././././././././././././././././.",
"/././././././././././././././././././././.[ <.,.>.>.W /./././././././././.r b /././././././././././././././././././././././.",
"/././././././././././././././././././././.X.7.,.,.,.=././././././././././.B l /././././././././././././././././././././././.",
"/./././././././././././././././././././.u >.,.,.,.>.-.X././././././././.u X././././././././././././././././././././././././.",
"/./././././././././././././././././././.D ,.,.>.>.-.>.W /./././././././.a :././././././././././././././././././././././././.",
"/./././././././././././././././././././.X.<.,.>.,.,.,.l /./././././././.d %././././././././././././././././././././././././.",
"/././././././././././././././././././.k X.>.w.w.w.w.7././././././././././.U /./././././././././././././././././././././././.",
"/././././././././././././././././././.z r F ,.u.y.,.X./././././././././.@ l /./././././././././././././././././././././././.",
"/./././././././././././././././././././././.C <.u...k /./.> = /././././.o O /./././././././././././././././././././././././.",
"/././././././././././././././././././././././.I w.@.x /./.A /./././././.+ 1 /./././././././././././././././././././././././.",
"/./././././././././././././././././././././././.Y @.o.k 1.R /./././././.6 /././././././././././././././././././././././././.",
"/./././././././././././././././././././././././.r %.a.r.i.W /././././.u 4 /././././././././././././././././././././././././.",
"/./././././././././././././././././././././././.c w.8.e.q.3././././.p L v./././././././././././././././././././././././././.",
"/./././././././././././././././././././././././.> %.:.n ) u.@././.r 0 c.3 /././././././././././././././././././././././././.",
"/./././././././././././././././././././././././.f 9.9.+.*.D X.R - Z b.x.2 /././././././././././././././././././././././././.",
"/./././././././././././././././././././././././.@.g.a...- a $.=.D w x.2 /./././././././././././././././././././././././././.",
"/./././././././././././././././././././././././.S ..G % $ { | ,.>.L q /././././././././././././././././././././././././././.",
"/././././././././././././././././././././././././.X h & F | &.w.p.g.l.1././././././././././././././././././././././././././.",
"/./././././././././././././././././././././././., x u I w.,.w.g.l.3.o.e.v /././././././././././././././././././././././././.",
"/././././././././././././././././././././././.7 ;.P P i.j.j.l.z.k.v ( Q *./././././././././././././././././././././././././.",
"/./././././././././././././././././././././.R :.^ /.B 9.f.d.5.h.h.1.O.A @.Z /./././././././././././././././././././././././.",
"/././././././././././././././././././././.Z U S m /.S A.Y.Q.Q.Q.P.F.y.7.j /././././././././././././././././././././././././.",
"/././././././././././././././././././././.Z * /././.( Y.W.~.^.^.~.R.G.9.P /././././././././././././././././././././././././.",
"/././././././././././././././././././././.+ /././.- Z.R.E.E.!.!.!.E.T.6.%./././././././././././././././././././././././././.",
"/././././././././././././././././././././././././.O.K.R.R.E.E.E.E.E.R.J.q.O././././././././././././././././././././././././.",
"/./././././././././././././././././././././././.P r.J.Y.R.R.E.E.E.T.T.P.f.7././././././././././././././././././././././././.",
"/./././././././././././././././././././././././.>.9.Z.P.Y.T.T.T.R.Y.R.L.w.y.A /././././././././././././././././././././././.",
"/././././././././././././././././././././././.z w.y.4.J.I.Y.Y.Y.Y.Y.P.4.w.y.R /././././././././././././././././././././././.",
"/././././././././././././././././././././././.F w.w.q.] D.P.I.U.P.K.n.O.y.w.A /././././././././././././././././././././././.",
"/././././././././././././././././././././././.i q.7.w.#.n ' V.C.M.n.R >.w.,.B /././././././././././././././././././././././.",
"/./././././././././././././././././././././././.#.-.>.} y 9 m.m.M.m.k } -.| f /././././././././././././././././././././././.",
"/./././././././././././././././././././././././.g | |  .B /.M.S.Z.` o [ | } r /././././././././././././././././././././././.",
"/./././././././././././././././././././././././.d [  .} /./.] Z.Z.M # { F [ C /././././././././././././././././././././././.",
"/././././././././././././././././././././././.- X.-.-.d /./.M N._ /./.} &.| D /././././././././././././././././././././././.",
"/././././././././././././././././././././././.8 M ! N /./././././././.E R j J /././././././././././././././././././././././.",
"/./././././././././././././././././././././././.e 8 /././././././././.5 8 n././././././././././././././././././././././././.",
"/./././././././././././././././././././././././././././././././././././././././././././././././././././././././././././././.",
"/./././././././././././././././././././././././././././././././././././././././././././././././././././././././././././././.",
"/./././././././././././././././././././././././././././././././././././././././././././././././././././././././././././././.",
"/./././././././././././././././././././././././././././././././././././././././././././././././././././././././././././././.",
"/./././././././././././././././././././././././././././././././././././././././././././././././././././././././././././././.",
"/./././././././././././././././././././././././././././././././././././././././././././././././././././././././././././././.",
"/./././././././././././././././././././././././././././././././././././././././././././././././././././././././././././././.",
"/./././././././././././././././././././././././././././././././././././././././././././././././././././././././././././././.",
"/./././././././././././././././././././././././././././././././././././././././././././././././././././././././././././././.",
"/./././././././././././././././././././././././././././././././././././././././././././././././././././././././././././././.",
"/./././././././././././././././././././././././././././././././././././././././././././././././././././././././././././././.",
"/./././././././././././././././././././././././././././././././././././././././././././././././././././././././././././././."
};
