/* XPM */
static char *result[] = {
/* columns rows colors chars-per-pixel */
"62 62 183 2 ",
"   c #57442D",
".  c #474634",
"X  c #63442F",
"o  c #644E34",
"O  c #6C5333",
"+  c #715332",
"@  c #735B3D",
"#  c #785736",
"$  c #17454D",
"%  c #1E545A",
"&  c #204B50",
"*  c #005A6C",
"=  c #005669",
"-  c #17626F",
";  c #01697D",
":  c #0A6A7B",
">  c #136877",
",  c #14717F",
"<  c #306766",
"1  c #39726F",
"2  c #2B797E",
"3  c #3D7976",
"4  c #2C686A",
"5  c #455C4F",
"6  c #5A5841",
"7  c #6C5341",
"8  c #635445",
"9  c #73534C",
"0  c #41635D",
"q  c #5D6F5B",
"w  c #5B705E",
"e  c #7D6B4E",
"r  c #796442",
"t  c #6B655E",
"y  c #736556",
"u  c #7F7B5B",
"i  c #40716A",
"p  c #5E7B6A",
"a  c #497C74",
"s  c #477D76",
"d  c #507C72",
"f  c #697862",
"g  c #845A2F",
"h  c #875E34",
"j  c #85633D",
"k  c #8D643A",
"l  c #91663A",
"z  c #9C6D3C",
"x  c #93683E",
"c  c #A3713E",
"v  c #AC753E",
"b  c #865F42",
"n  c #816441",
"m  c #8B6742",
"M  c #8D6B42",
"N  c #866D49",
"B  c #926C43",
"V  c #85714F",
"C  c #937146",
"Z  c #93734C",
"A  c #9B764A",
"S  c #9D7C4B",
"D  c #977548",
"F  c #8C7A54",
"G  c #877758",
"H  c #977A57",
"J  c #A27343",
"K  c #AB7843",
"L  c #A57C4B",
"P  c #AC7A46",
"I  c #B57C42",
"U  c #B27F49",
"Y  c #A17F51",
"T  c #917B64",
"R  c #64816E",
"E  c #95825A",
"W  c #AB814F",
"Q  c #B3844E",
"!  c #BB874B",
"~  c #A2835C",
"^  c #A98353",
"/  c #B28552",
"(  c #BA8A54",
")  c #BB8F5E",
"_  c #BC9256",
"`  c #BB945A",
"'  c #B7955C",
"]  c #968561",
"[  c #939367",
"{  c #988B7D",
"}  c #888663",
"|  c #A8966F",
" . c #B79768",
".. c #BAA066",
"X. c #BBA57A",
"o. c #CE8D4A",
"O. c #C38749",
"+. c #D08E4B",
"@. c #D5914C",
"#. c #DB964E",
"$. c #C28C53",
"%. c #C49454",
"&. c #CD9556",
"*. c #CA9358",
"=. c #CB9D5D",
"-. c #C6955C",
";. c #D29452",
":. c #D99752",
">. c #D59956",
",. c #DF9B54",
"<. c #D49C5C",
"1. c #E19C54",
"2. c #DCA35E",
"3. c #E4A25B",
"4. c #EAA65D",
"5. c #ECA95D",
"6. c #C09A68",
"7. c #C2A160",
"8. c #D8A869",
"9. c #CAAF7E",
"0. c #E5AD63",
"q. c #EDAC62",
"w. c #E0A760",
"e. c #F3AE62",
"r. c #EDBD6D",
"t. c #E8B568",
"y. c #F3B466",
"u. c #FBB466",
"i. c #FDBC6A",
"p. c #F7B968",
"a. c #E6B97D",
"s. c #FFC36F",
"d. c #E7C077",
"f. c #FFC671",
"g. c #FFCD74",
"h. c #F4C579",
"j. c #026D82",
"k. c #0C7B8F",
"l. c #08778B",
"z. c #127483",
"x. c #167B8A",
"c. c #1B7986",
"v. c #037C93",
"b. c #0B7E92",
"n. c #157F91",
"m. c #227B85",
"M. c #0D8196",
"N. c #0C8398",
"B. c #11859A",
"V. c #118296",
"C. c #348082",
"Z. c #8A8780",
"A. c #BBAB84",
"S. c #B7A881",
"D. c #C1AA81",
"F. c #C2B086",
"G. c #C7B489",
"H. c #CBB788",
"J. c #D2BD8D",
"K. c #DDBE8A",
"L. c #D1BF90",
"P. c #C6BA96",
"I. c #EBBF84",
"U. c #D3C192",
"Y. c #E2C28E",
"T. c #FED183",
"R. c #E3CD9D",
"E. c #D7C8A0",
"W. c #E2D4AC",
"Q. c #E8D9AF",
"!. c #E6D2A5",
"~. c #EBDCB3",
"^. c #EEE1B8",
"/. c #F3E6BC",
"(. c #F5E9BF",
"). c #EFEAC2",
"_. c #F7E9C0",
"`. c #FAECC2",
"'. c #FDF1C6",
"]. c #FEF5C9",
"[. c #FFF9CE",
"{. c #FFFBD0",
"}. c None",
/* pixels */
"}.}.}.}.}.}.}.}.}.}.}.}.}.}.}.}.}.}.}.}.}.}.}.}.}.}.}.}.}.}.}.}.}.}.}.}.}.}.}.}.}.}.}.}.}.}.}.}.}.}.}.}.}.}.}.}.}.}.}.}.}.}.",
"}.}.}.}.}.}.}.}.}.}.}.}.}.}.}.}.}.}.}.}.}.}.}.}.}.}.}.}.}.}.}.}.}.}.}.}.}.}.}.}.}.}.}.}.}.}.}.}.}.}.}.}.}.}.}.}.}.}.}.}.}.}.",
"}.}.}.}.}.}.}.}.}.}.}.}.}.}.}.}.}.}.}.}.}.}.}.}.}.}.}.}.}.}.}.}.}.}.}.}.}.}.}.}.}.}.}.}.}.}.}.}.}.}.}.}.}.}.}.}.}.}.}.}.}.}.",
"}.}.}.}.}.}.}.}.}.}.}.}.}.}.}.}.}.}.}.}.}.}.}.}.}.}.}.}.}.}.}.}.}.}.}.}.}.}.}.}.}.}.}.}.}.}.}.}.}.}.}.}.}.}.}.}.}.}.}.}.}.}.",
"}.}.}.}.}.}.}.}.}.}.}.}.}.}.}.}.}.}.}.}.}.}.}.}.}.}.}.}.}.}.}.}.}.}.}.}.}.}.}.}.}.}.}.}.}.}.}.}.}.}.}.}.}.}.}.}.}.}.}.}.}.}.",
"}.}.}.}.}.}.}.}.}.}.}.}.}.}.}.}.}.}.}.}.}.}.}.}.}.}.}.}.}.}.}.}.}.}.}.}.}.}.}.}.}.}.}.}.}.}.}.}.}.}.}.}.}.}.}.}.}.}.}.}.}.}.",
"}.}.}.}.}.}.}.}.}.}.}.}.}.}.}.}.}.}.}.}.}.}.}.}.}.}.}.}.}.}.}.}.}.}.}.}.}.}.}.}.}.}.}.}.}.}.}.}.}.}.}.}.}.}.}.}.}.}.}.}.}.}.",
"}.}.}.}.}.}.}.}.}.}.}.}.}.}.}.}.}.}.}.}.}.}.}.}.}.}.}.}.}.}.}.}.}.}.}.}.}.}.}.}.}.}.}.}.}.}.}.}.}.}.}.}.}.}.}.}.}.}.}.}.}.}.",
"}.}.}.}.}.}.}.}.}.}.}.}.}.}.}.}.}.}.}.}.}.}.}.}.}.}.}.}.}.}.}.}.}.}.}.}.}.}.}.}.}.}.}.}.}.}.}.}.}.}.}.}.}.}.}.}.}.}.}.}.}.}.",
"}.}.}.}.}.}.}.}.}.}.}.}.}.}.}.}.}.}.}.}.}.}.}.}.}.}.}.}.}.}.}.}.}.}.}.}.}.}.}.}.}.}.}.}.}.}.}.}.}.}.}.}.}.}.}.}.}.}.}.}.}.}.",
"}.}.}.}.}.}.}.}.}.}.}.}.}.}.}.}.}.}.}.}.}.}.}.}.}.}.}.}.}.}.}.}.}.}.}.}.}.}.}.}.}.}.}.}.}.}.}.}.}.}.}.}.}.}.}.}.}.}.}.}.}.}.",
"}.}.}.}.}.}.}.}.}.}.}.}.}.}.}.}.}.}.}.}.}.}.}.}.}.}.}.}.}.}.}.}.}.}.}.}.}.}.}.}.}.}.}.}.}.}.}.}.}.}.}.}.}.}.}.}.}.}.}.}.}.}.",
"}.}.}.}.}.}.}.}.}.}.}.}.}.}.}.}.}.}.}.}.}.}.}.}.}.}.}.}.}.}.}.}.}.}.}.}.}.}.}.}.}.}.}.}.}.}.}.}.}.}.}.}.}.}.}.}.}.}.}.}.}.}.",
"}.}.}.}.}.}.}.}.}.}.}.}.}.}.}.}.}.}.}.}.}.}.}.}.}.}.}.}.}.}.}.}.}.}.}.}.}.}.}.}.}.}.}.}.}.}.}.}.}.}.}.}.}.}.}.}.}.}.}.}.}.}.",
"}.}.}.}.}.}.}.}.}.}.}.}.}.}.}.}.}.}.}.}.}.}.}.}.}.}.}.}.}.}.}.}.}.}.}.}.}.}.}.}.}.}.}.}.}.}.}.}.}.}.}.}.}.}.}.}.}.}.}.}.}.}.",
"}.}.}.}.}.}.}.}.}.}.}.}.}.}.}.}.}.}.}.}.}.}.}.}.}.}.}.}.}.}.}.}.}.}.}.}.}.}.}.}.}.}.}.}.}.}.}.}.}.}.}.}.}.}.}.}.}.}.}.}.}.}.",
"}.}.}.}.}.}.}.}.}.}.}.}.}.}.}.}.}.}.}.}.}.}.}.}.}.}.}.}.}.}.}.}.}.}.}.}.}.}.}.}.}.}.}.}.}.}.}.}.}.}.}.}.}.}.}.}.}.}.}.}.}.}.",
"}.}.}.}.}.}.}.}.}.}.}.}.}.}.}.}.}.}.}.}.}.}.}.}.}.}.}.}.}.}.}.}.}.}.}.}.}.}.}.}.}.}.}.}.}.}.}.}.}.}.}.}.}.}.}.}.}.}.}.}.}.}.",
"}.}.}.}.}.}.}.}.}.}.}.}.}.}.}.}.}.}.}.}.}.}.}.}.}.}.}.}.}.}.}.}.}.}.}.}.}.}.}.}.}.}.}.}.}.}.}.}.}.}.}.}.}.}.}.}.}.}.}.}.}.}.",
"}.}.}.}.}.}.}.}.}.}.}.}.}.}.}.}.}.}.}.}.}.}.}.}.}.}.}.}.}.}.}.}.}.}.}.}.}.}.}.}.}.}.}.}.}.}.}.}.}.}.}.}.}.}.}.}.}.}.}.}.}.}.",
"}.}.}.}.}.}.}.}.}.}.}.}.}.}.}.}.}.}.}.}.}.}.}.}.}.}.}.}.}.}.}.}.}.}.}.}.}.}.}.}.}.}.}.}.}.}.}.}.}.}.}.}.}.}.}.}.}.}.}.}.}.}.",
"}.}.}.}.}.}.}.}.}.}.}.}.}.}.}.}.}.}.}.}.}.}.}.}.}.}.}.}.}.}.}.}.}.}.}.}.}.}.}.}.}.}.}.}.}.}.}.}.}.}.}.}.}.}.}.}.}.}.}.}.}.}.",
"}.}.}.}.}.}.}.}.}.}.}.}.}.}.}.}.}.}.}.}.}.}.}.}.}.}.}.}.}.}.}.}.}.}.}.}.}.}.}.}.}.}.}.}.}.}.}.}.}.}.}.}.}.}.}.}.}.}.}.}.}.}.",
"}.}.}.}.}.}.}.}.}.}.}.}.}.}.}.}.}.}.}.}.}.}.}.}.}.}.}.}.}.}.}.}.}.}.}.}.}.}.}.}.}.}.}.}.}.}.}.}.}.}.}.}.}.}.}.}.}.}.}.}.}.}.",
"}.}.}.}.}.}.}.}.}.}.}.}.}.}.}.}.}.}.}.}.}.}.}.}.}.}.@ }.}.}.7 }.}.}.}.}.}.}.}.}.}.}.}.}.}.}.}.}.}.}.}.}.}.}.}.}.}.}.}.}.}.}.",
"}.}.}.}.}.}.}.}.}.}.}.}.}.}.}.}.}.}.}.}.}.}.}.}.}.}.D }.}.C N }.}.}.}.}.}.}.}.}.}.}.}.}.}.}.}.}.}.}.}.}.}.}.}.}.}.}.}.}.}.}.",
"}.}.}.}.}.}.}.}.}.}.}.}.}.}.}.}.}.}.}.}.}.}.}.}.}.}.7.}.N _ }.}.}.}.}.}.}.}.}.}.}.}.}.}.}.}.}.}.}.}.}.}.}.}.}.}.}.}.}.}.}.}.",
"}.}.}.}.}.}.}.}.}.}.}.}.}.}.}.}.}.}.}.}.}.}.}.}.}.S t.0.r.=.}.}.}.}.}.}.}.}.}.}.}.}.}.}.}.}.}.}.}.}.}.}.}.}.}.}.}.}.}.}.}.}.",
"}.}.}.}.}.}.}.}.}.}.}.}.}.}.}.}.}.}.}.}.}.}.}.}.}.&.i.f.f.y.-.}.}.}.}.}.}.}.}.}.}.}.}.}.}.}.}.}.}.}.}.}.}.}.}.}.}.}.}.}.}.}.",
"}.}.}.}.}.}.}.}.}.}.}.}.}.}.}.}.}.}.}.}.}.}.}.}.}.3.y.d.8.y.e./ }.A L L B }.}.}.}.}.}.}.}.}.}.}.}.}.}.}.}.}.}.}.}.}.}.}.}.}.",
"}.}.}.}.}.}.}.}.}.}.}.}.}.}.}.}.}.}.}.}.}.}.}.B r Q 5._ Z 4.&.1.Q L u p } ^ m }.}.}.}.}.}.}.}.}.}.}.}.}.}.}.}.}.}.}.}.}.}.}.",
"}.}.}.}.}.}.}.}.}.}.}.}.}.}.}.}.}.}.}.}.j C F R q ;.y.w.<.c v 1.e.` [ 2 l.m.p V @ }.}.}.}.}.}.}.}.}.}.}.}.}.}.}.}.}.}.}.}.}.",
"}.}.}.}.}.}.}.}.}.}.}.}.}.}.}.}.K / L F f s x.v.a y.s.q.k g +.1.u.f.g...% = ; , 1 F P }.}.}.}.}.}.}.}.}.}.}.}.}.}.}.}.}.}.}.",
"}.}.}.}.}.}.}.}.}.}.}.}.}.}.}.}.I ' a c.v.v.b.N.i <.$.n # o.1.e.i.f.p.r.' }.}.}.; c.E &./ }.}.}.}.}.}.}.}.}.}.}.}.}.}.}.}.}.",
"}.}.}.}.}.}.}.}.}.}.}.}.}.}.}.h H c.v.v.M.B.M.k.t L 9 7 ( i.i.f.g.t.%.! 8.}.}.}.}.* z.d _ B }.}.}.}.}.}.}.}.}.}.}.}.}.}.}.}.",
"}.}.}.}.}.}.}.}.}.}.}.}.}.}.}.z a v.v.v.M.N.b.0 7.C X U 0.h.T.T.d.S Q %.4.W }.}.}.}.* j.3 L }.}.}.}.}.}.}.}.}.}.}.}.}.}.}.}.",
"}.}.}.}.}.}.}.}.}.}.}.}.}.}.}.N m.N.M.b.b.B.1 ` 0.E B 8.R._.[.[.).P.G K 2.Z }.}.}.}.}.}.j.s A }.}.}.}.}.}.}.}.}.}.}.}.}.}.}.",
"}.}.}.}.}.}.}.}.}.}.}.}.}.}.}.F n.B.B.B.V.x.F / l y V !.'.].[.{.{.[.Q. .L }.}.}.}.}.}.}.}.* p J }.}.}.}.}.}.}.}.}.}.}.}.}.}.",
"}.}.}.}.}.}.}.}.}.}.}.}.}.}.}.f N.B.B.B.k.4 L 8 }.}.7._._.`.'.'.'.`.`.W.) W }.}.}.}.}.}.}.}.}.r m }.}.}.}.}.}.}.}.}.}.}.}.}.",
"}.}.}.}.}.}.}.}.}.}.}.}.}.}.g a N.N.B.- }.}.}.}.}.%.Y.)._._._.`.`.`._./.a.4.}.}.}.}.}.}.}.}.}.}.+ @ }.}.}.}.}.}.}.}.}.}.}.}.",
"}.}.}.}.}.}.}.}.}.}.}.}.}.}.j C.N.b.- }.}.}.}.}.D 0.I.^.(._._._._._._./.I.u.( }.}.}.}.}.}.}.}.}.}.}.O # }.}.}.}.}.}.}.}.}.}.",
"}.}.}.}.}.}.}.}.}.}.}.}.}.}.8 x.M.z.}.}.}.}.}.}.*.y.8.W././././._././.W.8.u.*.}.}.}.}.}.}.}.}.}.}.}.}.  + o   }.}.}.}.}.}.}.",
"}.}.}.}.}.}.}.}.}.}.}.}.}.}.5 M.b.% }.}.}.}.}.}.3.u.8.G.Q././././.~./.D.1.u.*.}.}.}.}.}.}.}.}.}.}.}.}.}.}.}.}.}.}.}.}.}.}.}.",
"}.}.}.}.}.}.}.}.}.}.}.}.}.}.< M.- }.}.}.}.}.}.}.q.e.e.<.S.U.Q.~.Q.W.A.( e.u.$.}.}.}.}.}.}.}.}.}.}.}.}.}.}.}.}.}.}.}.}.}.}.}.",
"}.}.}.}.}.}.}.}.}.}.}.}.}.. , : }.}.}.}.}.}.}.}.;.q.e.1.B G S.A.F.A.~ >.4.4.U }.}.}.}.}.}.}.}.}.}.}.}.}.}.}.}.}.}.}.}.}.}.}.",
"}.}.}.}.}.}.}.}.}.}.}.}.}.6 > $ }.}.}.}.}.}.}.}.O.1.1.#.x }.F.G.H.L.Z K 1.1.c }.}.}.}.}.}.}.}.}.}.}.}.}.}.}.}.}.}.}.}.}.}.}.",
"}.}.}.}.}.}.}.}.}.}.}.}.}.. & }.}.}.}.}.}.}.}.}.z +.#.#.J }.A.U.J.J.Z K +.+.l }.}.}.}.}.}.}.}.}.}.}.}.}.}.}.}.}.}.}.}.}.}.}.",
"}.}.}.}.}.}.}.}.}.}.}.}.}.}.}.}.}.}.}.}.}.}.}.}.J +.1.+.+ }.| U.J.H.B I O.I I }.}.}.}.}.}.}.}.}.}.}.}.}.}.}.}.}.}.}.}.}.}.}.",
"}.}.}.}.}.}.}.}.}.}.}.}.}.}.}.}.}.}.}.}.}.}.}.7 %.4.:.J }.}.V H.L.9.j U 3.,.O.}.}.}.}.}.}.}.}.}.}.}.}.}.}.}.}.}.}.}.}.}.}.}.",
"}.}.}.}.}.}.}.}.}.}.}.}.}.}.}.}.}.}.}.}.}.}.}.t T ~ e }.}.}.}.X.U. .# { Y T T }.}.}.}.}.}.}.}.}.}.}.}.}.}.}.}.}.}.}.}.}.}.}.",
"}.}.}.}.}.}.}.}.}.}.}.}.}.}.}.}.}.}.}.}.}.}.}.}.t }.}.}.}.}.}.] H. .}.}.}.Z.}.}.}.}.}.}.}.}.}.}.}.}.}.}.}.}.}.}.}.}.}.}.}.}.",
"}.}.}.}.}.}.}.}.}.}.}.}.}.}.}.}.}.}.}.}.}.}.}.}.}.}.}.}.}.}.}.}.}.}.}.}.}.}.}.}.}.}.}.}.}.}.}.}.}.}.}.}.}.}.}.}.}.}.}.}.}.}.",
"}.}.}.}.}.}.}.}.}.}.}.}.}.}.}.}.}.}.}.}.}.}.}.}.}.}.}.}.}.}.}.}.}.}.}.}.}.}.}.}.}.}.}.}.}.}.}.}.}.}.}.}.}.}.}.}.}.}.}.}.}.}.",
"}.}.}.}.}.}.}.}.}.}.}.}.}.}.}.}.}.}.}.}.}.}.}.}.}.}.}.}.}.}.}.}.}.}.}.}.}.}.}.}.}.}.}.}.}.}.}.}.}.}.}.}.}.}.}.}.}.}.}.}.}.}.",
"}.}.}.}.}.}.}.}.}.}.}.}.}.}.}.}.}.}.}.}.}.}.}.}.}.}.}.}.}.}.}.}.}.}.}.}.}.}.}.}.}.}.}.}.}.}.}.}.}.}.}.}.}.}.}.}.}.}.}.}.}.}.",
"}.}.}.}.}.}.}.}.}.}.}.}.}.}.}.}.}.}.}.}.}.}.}.}.}.}.}.}.}.}.}.}.}.}.}.}.}.}.}.}.}.}.}.}.}.}.}.}.}.}.}.}.}.}.}.}.}.}.}.}.}.}.",
"}.}.}.}.}.}.}.}.}.}.}.}.}.}.}.}.}.}.}.}.}.}.}.}.}.}.}.}.}.}.}.}.}.}.}.}.}.}.}.}.}.}.}.}.}.}.}.}.}.}.}.}.}.}.}.}.}.}.}.}.}.}.",
"}.}.}.}.}.}.}.}.}.}.}.}.}.}.}.}.}.}.}.}.}.}.}.}.}.}.}.}.}.}.}.}.}.}.}.}.}.}.}.}.}.}.}.}.}.}.}.}.}.}.}.}.}.}.}.}.}.}.}.}.}.}.",
"}.}.}.}.}.}.}.}.}.}.}.}.}.}.}.}.}.}.}.}.}.}.}.}.}.}.}.}.}.}.}.}.}.}.}.}.}.}.}.}.}.}.}.}.}.}.}.}.}.}.}.}.}.}.}.}.}.}.}.}.}.}.",
"}.}.}.}.}.}.}.}.}.}.}.}.}.}.}.}.}.}.}.}.}.}.}.}.}.}.}.}.}.}.}.}.}.}.}.}.}.}.}.}.}.}.}.}.}.}.}.}.}.}.}.}.}.}.}.}.}.}.}.}.}.}.",
"}.}.}.}.}.}.}.}.}.}.}.}.}.}.}.}.}.}.}.}.}.}.}.}.}.}.}.}.}.}.}.}.}.}.}.}.}.}.}.}.}.}.}.}.}.}.}.}.}.}.}.}.}.}.}.}.}.}.}.}.}.}.",
"}.}.}.}.}.}.}.}.}.}.}.}.}.}.}.}.}.}.}.}.}.}.}.}.}.}.}.}.}.}.}.}.}.}.}.}.}.}.}.}.}.}.}.}.}.}.}.}.}.}.}.}.}.}.}.}.}.}.}.}.}.}."
};
