/* XPM */
static char *result[] = {
/* columns rows colors chars-per-pixel */
"62 62 195 2 ",
"   c #5D3A1C",
".  c #4C3C2A",
"X  c #5A422A",
"o  c #544B35",
"O  c #684A2C",
"+  c #704A2E",
"@  c #70502D",
"#  c #6B5336",
"$  c #765533",
"%  c #7B5A38",
"&  c #694D34",
"*  c #7F603F",
"=  c #024957",
"-  c #335D58",
";  c #065968",
":  c #185D69",
">  c #076879",
",  c #146E7D",
"<  c #116977",
"1  c #1D747F",
"2  c #356467",
"3  c #216974",
"4  c #2F7B7E",
"5  c #3C7978",
"6  c #494F44",
"7  c #495E52",
"8  c #4B574B",
"9  c #695D4F",
"0  c #77694C",
"q  c #7C6A4C",
"w  c #696156",
"e  c #7C6D50",
"r  c #7A7456",
"t  c #406C6D",
"y  c #487A71",
"u  c #5B7D72",
"i  c #547668",
"p  c #6F6C66",
"a  c #736C62",
"s  c #677A66",
"d  c #777D60",
"f  c #895D33",
"g  c #85613A",
"h  c #89653B",
"j  c #8C6032",
"k  c #94693C",
"l  c #9B6C3C",
"z  c #9A6937",
"x  c #A16D39",
"c  c #8B6740",
"v  c #8A6B45",
"b  c #846C4A",
"n  c #926C44",
"m  c #9A6E42",
"M  c #87714A",
"N  c #9C7447",
"B  c #9B7A4C",
"V  c #967448",
"C  c #84755B",
"Z  c #837B5B",
"A  c #887858",
"S  c #947F5B",
"D  c #987C51",
"F  c #A37543",
"G  c #A37749",
"H  c #AA7B47",
"J  c #B27B43",
"K  c #BA7F43",
"L  c #A07F5A",
"P  c #837769",
"I  c #42807D",
"U  c #648579",
"Y  c #8B845F",
"T  c #93815C",
"R  c #A6824C",
"E  c #BD8145",
"W  c #BD864B",
"Q  c #BB8A4E",
"!  c #B7834B",
"~  c #AE8952",
"^  c #A3875B",
"/  c #AA8858",
"(  c #B28753",
")  c #BA8E54",
"_  c #BB8D58",
"`  c #B48B55",
"'  c #BC975C",
"]  c #8B8764",
"[  c #9D8960",
"{  c #9E8B6A",
"}  c #8C847C",
"|  c #AC8C61",
" . c #B48B60",
".. c #A9956C",
"X. c #B59767",
"o. c #AD9C75",
"O. c #B4A37E",
"+. c #B7A57B",
"@. c #C88A4A",
"#. c #D6924D",
"$. c #DC964F",
"%. c #C38D53",
"&. c #C88E50",
"*. c #C39254",
"=. c #CC9353",
"-. c #CC965B",
";. c #C69559",
":. c #D39755",
">. c #DB9751",
",. c #DF9A53",
"<. c #D49D5D",
"1. c #DA9C58",
"2. c #E39D55",
"3. c #CCA05F",
"4. c #DCA25D",
"5. c #D7A35E",
"6. c #E4A35C",
"7. c #EBA65D",
"8. c #EDA85E",
"9. c #C79B65",
"0. c #C4A064",
"q. c #D3AD66",
"w. c #DDA964",
"e. c #DCA864",
"r. c #C4A879",
"t. c #CCB27E",
"y. c #DAB57D",
"u. c #E6AB62",
"i. c #ECAB61",
"p. c #F1AC62",
"a. c #E6B568",
"s. c #F5B164",
"d. c #FAB466",
"f. c #F2BC6B",
"g. c #FCBA69",
"h. c #E3B579",
"j. c #EFC16D",
"k. c #FCC06D",
"l. c #F0C06E",
"z. c #EEC270",
"x. c #FFC570",
"c. c #FDCC74",
"v. c #036D81",
"b. c #05788E",
"n. c #0C7A8D",
"m. c #087387",
"M. c #12778A",
"N. c #137A8C",
"B. c #1C7684",
"V. c #037C92",
"C. c #0C7D91",
"Z. c #267A82",
"A. c #2C7582",
"S. c #347D89",
"D. c #0B8195",
"F. c #0D849A",
"G. c #128396",
"H. c #12869A",
"J. c #168A9E",
"K. c #1A8B9F",
"L. c #1F8291",
"P. c #348D9C",
"I. c #238596",
"U. c #1C8EA2",
"Y. c #168BA1",
"T. c #2B97AA",
"R. c #2394A9",
"E. c #438787",
"W. c #BCAB80",
"Q. c #B6AE91",
"!. c #C1AD80",
"~. c #CAB78A",
"^. c #D1BE8F",
"/. c #DBBD8C",
"(. c #DAB580",
"). c #CEBE95",
"_. c #D2BF91",
"`. c #D3C091",
"'. c #D2C299",
"]. c #DCCDA5",
"[. c #DED1AC",
"{. c #E9D7A7",
"}. c #E6DBB4",
"|. c #EADCB4",
" X c #EFE0B6",
".X c #EDE1B9",
"XX c #F2E5BC",
"oX c #F6E8BF",
"OX c #FAECC2",
"+X c #F7EDC3",
"@X c #FEF5CA",
"#X c #FEF3C7",
"$X c #FFFFD5",
"%X c #E9E8C4",
"&X c None",
/* pixels */
"&X&X&X&X&X&X&X&X&X&X&X&X&X&X&X&X&X&X&X&X&X&X&X&X&X&X&X&X&X&X&X&X&X&X&X&X&X&X&X&X&X&X&X&X&X&X&X&X&X&X&X&X&X&X&X&X&X&X&X&X&X&X",
"&X&X&X&X&X&X&X&X&X&X&X&X&X&X&X&X&X&X&X&X&X&X&X&X&X&X&X&X&X&X&X&X&X&X&X&X&X&X&X&X&X&X&X&X&X&X&X&X&X&X&X&X&X&X&X&X&X&X&X&X&X&X",
"&X&X&X&X&X&X&X&X&X&X&X&X&X&X&X&X&X&X&X&X&X&X&X&X&X&X&X&X&X&X&X&X&X&X&X&X&X&X&X&X&X&X&X&X&X&X&X&X&X&X&X&X&X&X&X&X&X&X&X&X&X&X",
"&X&X&X&X&X&X&X&X&X&X&X&X&X&X&X&X&X&X&X&X&X&X&X&X&X&X&X&X&X&X&X&X&X&X&X&X&X&X&X&X&X&X&X&X&X&X&X&X&X&X&X&X&X&X&X&X&X&X&X&X&X&X",
"&X&X&X&X&X&X&X&X&X&X&X&X&X&X&X&X&X&X&X&X&X&X&X&X&X&X&X&X&X&X&X&X&X&X&X&X&X&X&X&X&X&X&X&X&X&X&X&X&X&X&X&X&X&X&X&X&X&X&X&X&X&X",
"&X&X&X&X&X&X&X&X&X&X&X&X&X&X&X&X&X&X&X&X&X&X&X&X&X&X&X&X&X&X&X&X&X&X&X&X&X&X&X&X&X&X&X&X&X&X&X&X&X&X&X&X&X&X&X&X&X&X&X&X&X&X",
"&X&X&X&X&X&X&X&X&X&X&X&X&X&X&X&X&X&X&X&X&X&X&X&X&X&X&X&X&X&X&X&X&X&X&X&X&X&X&X&X&X&X&X&X&X&X&X&X&X&X&X&X&X&X&X&X&X&X&X&X&X&X",
"&X&X&X&X&X&X&X&X&X&X&X&X&X&X&X&X&X&X&X&X&X&X&X&X&X&X&X&X&X&X&X&X&X&X&X&X&X&X&X&X&X&X&X&X&X&X&X&X&X&X&X&X&X&X&X&X&X&X&X&X&X&X",
"&X&X&X&X&X&X&X&X&X&X&X&X&X&X&X&X&X&X&X&X&X&X&X&X&X&X&X&X&X&X&X&X&X&X&X&X&X&X&X&X&X&X&X&X&X&X&X&X&X&X&X&X&X&X&X&X&X&X&X&X&X&X",
"&X&X&X&X&X&X&X&X&X&X&X&X&X&X&X&X&X&X&X&X&X&X&X&X&X&X&X&X&X&X&X&X&X&X&X&X&X&X&X&X&X&X&X&X&X&X&X&X&X&X&X&X&X&X&X&X&X&X&X&X&X&X",
"&X&X&X&X&X&X&X&X&X&X&X&X&X&X&X&X&X&X&X&X&X&X&X&X&X&X&X&X&X&X&X&X&X&X&X&X&X&X&X&X&X&X&X&X&X&X&X&X&X&X&X&X&X&X&X&X&X&X&X&X&X&X",
"&X&X&X&X&X&X&X&X&X&X&X&X&X&X&X&X&X&X&X&X&X&X&X&X&X&X&X&X&X&X&X&X&X&X&X&X&X&X&X&X&X&X&X&X&X&X&X&X&X&X&X&X&X&X&X&X&X&X&X&X&X&X",
"&X&X&X&X&X&X&X&X&X&X&X&X&X&X&X&X&X&X&X&X&X&X&X&X&X&X&X&X&X&X&X&X&X&X&X&X&X&X&X&X&X&X&X&X&X&X&X&X&X&X&X&X&X&X&X&X&X&X&X&X&X&X",
"&X&X&X&X&X&X&X&X&X&X&X&X&X&X&X&X&X&X&X&X&X&X&X&X&X&X&X&X&X&X&X&X&X&X&X&X&X&X&X&X&X&X&X&X&X&X&X&X&X&X&X&X&X&X&X&X&X&X&X&X&X&X",
"&X&X&X&X&X&X&X&X&X&X&X&X&X&X&X&X&X&X&X&X&X&X&X&X&X&X&X&X&X&X&X&X&X&X&X&X&X&X&X&X&X&X&X&X&X&X&X&X&X&X&X&X&X&X&X&X&X&X&X&X&X&X",
"&X&X&X&X&X&X&X&X&X&X&X&X&X&X&X&X&X&X&X&X&X&X&X&X&X&X&X&X&X&X&X&X&X&X&X&X&X&X&X&X&X&X&X&X&X&X&X&X&X&X&X&X&X&X&X&X&X&X&X&X&X&X",
"&X&X&X&X&X&X&X&X&X&X&X&X&X&X&X&X&X&X&X&X&X&X&X&X&X&X&X&X&X&X&X&X&X&X&X&X&X&X&X&X&X&X&X&X&X&X&X&X&X&X&X&X&X&X&X&X&X&X&X&X&X&X",
"&X&X&X&X&X&X&X&X&X&X&X&X&X&X&X&X&X&X&X&X&X&X&X&X&X&X&X&X&X&X&X&X&X&X&X&X&X&X&X&X&X&X&X&X&X&X&X&X&X&X&X&X&X&X&X&X&X&X&X&X&X&X",
"&X&X&X&X&X&X&X&X&X&X&X&X&X&X&X&X&X&X&X&X&X&X&X&X&X&X&X&X&X&X&X&X&X&X&X&X&X&X&X&X&X&X&X&X&X&X&X&X&X&X&X&X&X&X&X&X&X&X&X&X&X&X",
"&X&X&X&X&X&X&X&X&X&X&X&X&X&X&X&X&X&X&X&X&X&X&X&X&X&X&X&X&X&X&X&X&X&X&X&X&X&X&X&X&X&X&X&X&X&X&X&X&X&X&X&X&X&X&X&X&X&X&X&X&X&X",
"&X&X&X&X&X&X&X&X&X&X&X&X&X&X&X&X&X&X&X&X&X&X&X&X&X&X&X&X&X&X&X&X&X&X&X&X&X&X&X&X&X&X&X&X&X&X&X&X&X&X&X&X&X&X&X&X&X&X&X&X&X&X",
"&X&X&X&X&X&X&X&X&X&X&X&X&X&X&X&X&X&X&X&X&X&X&X&X&X&X&X&X&X&X&X&X&X&X&X&X&X&X&X&X&X&X&X&X&X&X&X&X&X&X&X&X&X&X&X&X&X&X&X&X&X&X",
"&X&X&X&X&X&X&X&X&X&X&X&X&X&X&X&X&X&X&X&X&X&X&X&X&X&X&X&X&X&X# &X&X&X&X&X&X&X&X&X&X&X&X&X&X&X&X&X&X&X&X&X&X&X&X&X&X&X&X&X&X&X",
"&X&X&X&X&X&X&X&X&X&X&X&X&X&X&X&X&X&X&X&X&X&X&X&X&X&XB &X&XB &X&X&X&X&X&X&X&X&X&X&X&X&X&X&X&X&X&X&X&X&X&X&X&X&X&X&X&X&X&X&X&X",
"&X&X&X&X&X&X&X&X&X&X&X&X&X&X&X&Xv &X&X&X&X&X&X&X&XR ;.&XM ) &X&X&X&X&X&X&X&X&X&X&Xn &X&X&X&X&X&X&X&X&X&X&X&X&X&X&X&X&X&X&X&X",
"&X&X&X&X&X&X&X&X&X&X&X&X&X&X&X&Xx N &X&X&X&X&X&X&XR l.q.a.5.&X&X&X&X&X&X&X&X&X&X&Xk c &X&X&X&X&X&X&X&X&X&X&X&X&X&X&X&X&X&X&X",
"&X&X&X&X&X&X&X&X&X&X&X&X&X&X&X&XW _ T S Y Z C r b =.x.c.x.g.u.&X&Xc R | [ Z r r 0 V W &X&X&X&X&X&X&X&X&X&X&X&X&X&X&X&X&X&X&X",
"&X&X&X&X&X&X&X&X&X&X&X&X&X&X&XF ] Z.M.M.M.n.n.n.y 8.k.c.f.s.7.<.m ( y n.G.n.N.n.m.Z.] %.&X&X&X&X&X&X&X&X&X&X&X&X&X&X&X&X&X&X",
"&X&X&X&X&X&X&X&X&X&X&X&X&X&X&XV B.V.V.V.D.V.V.V.- =.s.q.| u.@.,.1.Z y , > > > v.b.V.n.] G &X&X&X&X&X&X&X&X&X&X&X&X&X&X&X&X&X",
"&X&X&X&X&X&X&X&X&X&X&X&X&X&Xf d C.V.V.D.D.D.b.; o ) 8.*.) W E ,.d.k.z.T &X&X&X&X; v.b.1 B &X&X&X&X&X&X&X&X&X&X&X&X&X&X&X&X&X",
"&X&X&X&X&X&X&X&X&X&X&X&X&X&Xh P.F.H.C.V.F.C.: &X&Xi.g.d.! z #.8.k.x.x.a.&X&X&X&X&X= m.V.u k &X&X&X&X&X&X&X&X&X&X&X&X&X&X&X&X",
"&X&X&X&X&X&X&X&X&X&X&X&X&X&XM L.K.J.G.C.H., &X&X&Xi.s.%.g 4.g.x.c.x.u.a.0.&X&X&X&X&X; b.Z.B &X&X&X&X&X&X&X&X&X&X&X&X&X&X&X&X",
"&X&X&X&X&X&X&X&X&X&X&X&X&X&Xs F.K.K.J.G.G.3 &X&Xg Q m & Q f.f.j.x.j.4.Q q.&X&X&X&X&X&Xv.D.d h &X&X&X&X&X&X&X&X&X&X&X&X&X&X&X",
"&X&X&X&X&X&X&X&X&X&X&X&X&Xh I Y.K.K.N., , : &X&X~ ) $ G (.{.}.{.{.~ ;.5.5.&X&X&X&X&X&X; V.4 v &X&X&X&X&X&X&X&X&X&X&X&X&X&X&X",
"&X&X&X&X&X&X&X&X&X&X&X&X&X&XE.U.U.B.&X&X&X&X&X&X*.3.N /.OX@X$X$X%X[ ~ i.4.&X&X&X&X&X&X&X= < e &X&X&X&X&X&X&X&X&X&X&X&X&X&X&X",
"&X&X&X&X&X&X&X&X&X&X&X&X&X&X5 R.I.&X&X&X&X&X&XV w.m A [.OXOX#X#X@XQ.{ r.@.q &X&X&X&X&X&X&X&Xq &X&X&X&X&X&X&X&X&X&X&X&X&X&X&X",
"&X&X&X&X&X&X&X&X&X&X&X&X&X&X2 T.A.&X&X&X&X&X&XG ` * t.XXOXOXOXOX+X.X}.W.( -.&X&X&X&X&X&X&X&X@ &X&X&X&X&X&X&X&X&X&X&X&X&X&X&X",
"&X&X&X&X&X&X&X&X&X&X&X&X&X&XU T.2 &X&X&X&X&X&XH v ) /..XXXXXoXOX+XoXoX.X(.p.( &X&X&X&X&X&X&X@ &X&X&X&X&X&X&X&X&X&X&X&X&X&X&X",
"&X&X&X&X&X&X&X&X&X&X&X&X&X&XU P.&X&X&X&X&X&X&X&XG s.y.}.XXXXOXOXoXXXXXXXh.d.-.&X&X&X&X&X&X&X$ &X&X&X&X&X&X&X&X&X&X&X&X&X&X&X",
"&X&X&X&X&X&X&X&X&X&X&X&X&X&Xu P.&X&X&X&X&X&X&X&X=.g.u._. XXXXXXXXXXXXX'.<.d.1.&X&X&X&X&X&X&XO &X&X&X&X&X&X&X&X&X&X&X&X&X&X&X",
"&X&X&X&X&X&X&X&X&X&X&X&X&X&X7 S.&X&X&X&X&X&X&X&X1.d.p.9.'.}. XXX.X|.]. .i.p.i.&X&X&X&X&X&X&XO &X&X&X&X&X&X&X&X&X&X&X&X&X&X&X",
"&X&X&X&X&X&X&X&X&X&X&X&X&X&Xo t &X&X&X&X&X&X&X&X:.i.i.i.~ O.).'.).).{ &.i.p.=.&X&X&X&X&X&X&XX &X&X&X&X&X&X&X&X&X&X&X&X&X&X&X",
"&X&X&X&X&X&X&X&X&X&X&X&X&X&X&X8 &X&X&X&X&X&X&X&X@.i.p.2.k 0 +.+.!.~.S J 2.7.&.&X&X&X&X&X&X&XX &X&X&X&X&X&X&X&X&X&X&X&X&X&X&X",
"&X&X&X&X&X&X&X&X&X&X&X&X&X&X&X&X6 &X&X&X&X&X&X&Xj >.,.#.H # ~.`._.~.b f #.$.J &X&X&X&X&X&X&XX &X&X&X&X&X&X&X&X&X&X&X&X&X&X&X",
"&X&X&X&X&X&X&X&X&X&X&X&X&X&X&X&X&X&X&X&X&X&X&X&X+ @.#.#.H &X!.^._.~.+ x @.K J $ &X&X&X&X&X&X. &X&X&X&X&X&X&X&X&X&X&X&X&X&X&X",
"&X&X&X&X&X&X&X&X&X&X&X&X&X&X&X&X&X&X&X&X&X&X&X&XH 2.2.#.% &X+.^._.X.  x >.:.,.m &X&X&X&X&X&X&X&X&X&X&X&X&X&X&X&X&X&X&X&X&X&X",
"&X&X&X&X&X&X&X&X&X&X&X&X&X&X&X&X&X&X&X&X&X&X&Xa L 9._ h &X&X[ `.`. .&X&XL -.;.C &X&X&X&X&X&X&X&X&X&X&X&X&X&X&X&X&X&X&X&X&X&X",
"&X&X&X&X&X&X&X&X&X&X&X&X&X&X&X&X&X&X&X&X&X&X&X&Xw P 9 &X&X&Xb ^.^.( &X&X8 W.a p &X&X&X&X&X&X&X&X&X&X&X&X&X&X&X&X&X&X&X&X&X&X",
"&X&X&X&X&X&X&X&X&X&X&X&X&X&X&X&X&X&X&X&X&X&X&X&X&X&X&X&X&X&X&Xr.^.) &X&X&X&X&X&X&X&X&X&X&X&X&X&X&X&X&X&X&X&X&X&X&X&X&X&X&X&X",
"&X&X&X&X&X&X&X&X&X&X&X&X&X&X&X&X&X&X&X&X&X&X&X&X&X&X&X&X&X&X&X..`._ &X&X&X&X&X&X&X&X&X&X&X&X&X&X&X&X&X&X&X&X&X&X&X&X&X&X&X&X",
"&X&X&X&X&X&X&X&X&X&X&X&X&X&X&X&X&X&X&X&X&X&X&X&X&X&X&X&X&X&X&Xe o.v &X&X&X&X&X&X&X&X&X&X&X&X&X&X&X&X&X&X&X&X&X&X&X&X&X&X&X&X",
"&X&X&X&X&X&X&X&X&X&X&X&X&X&X&X&X&X&X&X&X&X&X&X&X&X&X&X&X&X&X&X&X&X&X&X&X&X&X&X&X&X&X&X&X&X&X&X&X&X&X&X&X&X&X&X&X&X&X&X&X&X&X",
"&X&X&X&X&X&X&X&X&X&X&X&X&X&X&X&X&X&X&X&X&X&X&X&X&X&X&X&X&X&X&X&X&X&X&X&X&X&X&X&X&X&X&X&X&X&X&X&X&X&X&X&X&X&X&X&X&X&X&X&X&X&X",
"&X&X&X&X&X&X&X&X&X&X&X&X&X&X&X&X&X&X&X&X&X&X&X&X&X&X&X&X&X&X&X&X&X&X&X&X&X&X&X&X&X&X&X&X&X&X&X&X&X&X&X&X&X&X&X&X&X&X&X&X&X&X",
"&X&X&X&X&X&X&X&X&X&X&X&X&X&X&X&X&X&X&X&X&X&X&X&X&X&X&X&X&X&X&X&X&X&X&X&X&X&X&X&X&X&X&X&X&X&X&X&X&X&X&X&X&X&X&X&X&X&X&X&X&X&X",
"&X&X&X&X&X&X&X&X&X&X&X&X&X&X&X&X&X&X&X&X&X&X&X&X&X&X&X&X&X&X&X&X&X&X&X&X&X&X&X&X&X&X&X&X&X&X&X&X&X&X&X&X&X&X&X&X&X&X&X&X&X&X",
"&X&X&X&X&X&X&X&X&X&X&X&X&X&X&X&X&X&X&X&X&X&X&X&X&X&X&X&X&X&X&X&X&X&X&X&X&X&X&X&X&X&X&X&X&X&X&X&X&X&X&X&X&X&X&X&X&X&X&X&X&X&X",
"&X&X&X&X&X&X&X&X&X&X&X&X&X&X&X&X&X&X&X&X&X&X&X&X&X&X&X&X&X&X&X&X&X&X&X&X&X&X&X&X&X&X&X&X&X&X&X&X&X&X&X&X&X&X&X&X&X&X&X&X&X&X",
"&X&X&X&X&X&X&X&X&X&X&X&X&X&X&X&X&X&X&X&X&X&X&X&X&X&X&X&X&X&X&X&X&X&X&X&X&X&X&X&X&X&X&X&X&X&X&X&X&X&X&X&X&X&X&X&X&X&X&X&X&X&X",
"&X&X&X&X&X&X&X&X&X&X&X&X&X&X&X&X&X&X&X&X&X&X&X&X&X&X&X&X&X&X&X&X&X&X&X&X&X&X&X&X&X&X&X&X&X&X&X&X&X&X&X&X&X&X&X&X&X&X&X&X&X&X",
"&X&X&X&X&X&X&X&X&X&X&X&X&X&X&X&X&X&X&X&X&X&X&X&X&X&X&X&X&X&X&X&X&X&X&X&X&X&X&X&X&X&X&X&X&X&X&X&X&X&X&X&X&X&X&X&X&X&X&X&X&X&X",
"&X&X&X&X&X&X&X&X&X&X&X&X&X&X&X&X&X&X&X&X&X&X&X&X&X&X&X&X&X&X&X&X&X&X&X&X&X&X&X&X&X&X&X&X&X&X&X&X&X&X&X&X&X&X&X&X&X&X&X&X&X&X"
};
