/* XPM */
static char *result[] = {
/* columns rows colors chars-per-pixel */
"62 62 189 2 ",
"   c #213E3E",
".  c #4E3E2C",
"X  c #2E413F",
"o  c #434C3D",
"O  c #574B35",
"+  c #694B2D",
"@  c #65482E",
"#  c #70482B",
"$  c #76552F",
"%  c #6A4D35",
"&  c #765531",
"*  c #785635",
"=  c #755A36",
"-  c #735739",
";  c #745B3B",
":  c #795B3A",
">  c #7F6133",
",  c #10424B",
"<  c #084B58",
"1  c #10525E",
"2  c #375047",
"3  c #345F5B",
"4  c #265657",
"5  c #015362",
"6  c #055D6D",
"7  c #085A69",
"8  c #1A5560",
"9  c #046274",
"0  c #0A6475",
"q  c #03697B",
"w  c #126E7C",
"e  c #11707F",
"r  c #306363",
"t  c #397B79",
"y  c #595547",
"u  c #745D41",
"i  c #5D604B",
"p  c #7D6443",
"a  c #676856",
"s  c #7A6D52",
"d  c #44726B",
"f  c #5B7563",
"g  c #4E7F75",
"h  c #776C61",
"j  c #617D6A",
"k  c #607A66",
"l  c #835C34",
"z  c #865F38",
"x  c #89623C",
"c  c #8C673B",
"v  c #946B3E",
"b  c #9E6E3B",
"n  c #956635",
"m  c #A26F3B",
"M  c #8C6B44",
"N  c #8A6C49",
"B  c #866746",
"V  c #916E45",
"C  c #996E43",
"Z  c #8B724D",
"A  c #9B7344",
"S  c #9C764A",
"D  c #9C794D",
"F  c #947048",
"G  c #867A5A",
"H  c #9A7854",
"J  c #A97641",
"K  c #AA7A46",
"L  c #AB7F4E",
"P  c #A17748",
"I  c #B27A41",
"U  c #B97D41",
"Y  c #877963",
"T  c #62816D",
"R  c #71876E",
"E  c #9C8356",
"W  c #97835B",
"Q  c #A5814F",
"!  c #B9844A",
"~  c #A58252",
"^  c #A3835C",
"/  c #A48A5C",
"(  c #AD8450",
")  c #B58D55",
"_  c #BC8D52",
"`  c #B78E5E",
"'  c #B98A58",
"]  c #BF965A",
"[  c #878360",
"{  c #938B65",
"}  c #988663",
"|  c #948A7F",
" . c #A28B63",
".. c #A99067",
"X. c #AB9A74",
"o. c #B19E7B",
"O. c #B6A57D",
"+. c #BBA67B",
"@. c #BAA175",
"#. c #C68A4C",
"$. c #C68646",
"%. c #D18F4B",
"&. c #D5924D",
"*. c #DB954F",
"=. c #C28D52",
"-. c #CB9455",
";. c #C3945C",
":. c #C99358",
">. c #C39B5B",
",. c #C99857",
"<. c #D49552",
"1. c #D79A56",
"2. c #DE9A54",
"3. c #D49B5B",
"4. c #DC9D5A",
"5. c #DB9650",
"6. c #E39D55",
"7. c #E19F59",
"8. c #C7A25F",
"9. c #DBA15D",
"0. c #D5A65F",
"q. c #E5A35C",
"w. c #EAA55D",
"e. c #EEA95F",
"r. c #D49E62",
"t. c #D4AB64",
"y. c #DAAB63",
"u. c #DBB168",
"i. c #CAA773",
"p. c #E3AE64",
"a. c #ECAB62",
"s. c #E6AB68",
"d. c #F3AD62",
"f. c #EDB367",
"g. c #EAB968",
"h. c #F2B567",
"j. c #F9B265",
"k. c #FDBB6A",
"l. c #F2BC6D",
"z. c #E3B474",
"x. c #E9C16F",
"c. c #FDC16E",
"v. c #F3C46F",
"b. c #EEC273",
"n. c #F3C473",
"m. c #FDC570",
"M. c #FFCB74",
"N. c #FFD378",
"B. c #016E82",
"V. c #00778E",
"C. c #04798E",
"Z. c #0A7A8D",
"A. c #007086",
"S. c #1D7A86",
"D. c #147A89",
"F. c #157786",
"G. c #007A91",
"H. c #267C85",
"J. c #948C83",
"K. c #B9A984",
"L. c #C1AE82",
"P. c #CBB687",
"I. c #CCBA8C",
"U. c #C7B58B",
"Y. c #D1BD8E",
"T. c #CBBA95",
"R. c #D2BF90",
"E. c #D5C191",
"W. c #D3C49C",
"Q. c #D9C99D",
"!. c #D2C8A5",
"~. c #E2D2A8",
"^. c #E7D4A5",
"/. c #EDDEB4",
"(. c #E9DEB8",
"). c #F2DFB3",
"_. c #EFE1B9",
"`. c #F2E4BC",
"'. c #F6E8BF",
"]. c #F0E0B6",
"[. c #F5E9C2",
"{. c #FAECC2",
"}. c #F6EBCA",
"|. c #FCF2C6",
" X c #FEF5C9",
".X c #FFFACF",
"XX c #FFFFD5",
"oX c #E7E6C4",
"OX c None",
/* pixels */
"OXOXOXOXOXOXOXOXOXOXOXOXOXOXOXOXOXOXOXOXOXOXOXOXOXOXOXOXOXOXOXOXOXOXOXOXOXOXOXOXOXOXOXOXOXOXOXOXOXOXOXOXOXOXOXOXOXOXOXOXOXOX",
"OXOXOXOXOXOXOXOXOXOXOXOXOXOXOXOXOXOXOXOXOXOXOXOXOXOXOXOXOXOXOXOXOXOXOXOXOXOXOXOXOXOXOXOXOXOXOXOXOXOXOXOXOXOXOXOXOXOXOXOXOXOX",
"OXOXOXOXOXOXOXOXOXOXOXOXOXOXOXOXOXOXOXOXOXOXOXOXOXOXOXOXOXOXOXOXOXOXOXOXOXOXOXOXOXOXOXOXOXOXOXOXOXOXOXOXOXOXOXOXOXOXOXOXOXOX",
"OXOXOXOXOXOXOXOXOXOXOXOXOXOXOXOXOXOXOXOXOXOXOXOXOXOXOXOXOXOXOXOXOXOXOXOXOXOXOXOXOXOXOXOXOXOXOXOXOXOXOXOXOXOXOXOXOXOXOXOXOXOX",
"OXOXOXOXOXOXOXOXOXOXOXOXOXOXOXOXOXOXOXOXOXOXOXOXOXOXOXOXOXOXOXOXOXOXOXOXOXOXOXOXOXOXOXOXOXOXOXOXOXOXOXOXOXOXOXOXOXOXOXOXOXOX",
"OXOXOXOXOXOXOXOXOXOXOXOXOXOXOXOXOXOXOXOXOXOXOXOXOXOXOXOXOXOXOXOXOXOXOXOXOXOXOXOXOXOXOXOXOXOXOXOXOXOXOXOXOXOXOXOXOXOXOXOXOXOX",
"OXOXOXOXOXOXOXOXOXOXOXOXOXOXOXOXOXOXOXOXOXOXOXOXOXOXOXOXOXOXOXOXOXOXOXOXOXOXOXOXOXOXOXOXOXOXOXOXOXOXOXOXOXOXOXOXOXOXOXOXOXOX",
"OXOXOXOXOXOXOXOXOXOXOXOXOXOXOXOXOXOXOXOXOXOXOXOXOXOXOXOXOXOXOXOXOXOXOXOXOXOXOXOXOXOXOXOXOXOXOXOXOXOXOXOXOXOXOXOXOXOXOXOXOXOX",
"OXOXOXOXOXOXOXOXOXOXOXOXOXOXOXOXOXOXOXOXOXOXOXOXOXOXOXOXOXOXOXOXOXOXOXOXOXOXOXOXOXOXOXOXOXOXOXOXOXOXOXOXOXOXOXOXOXOXOXOXOXOX",
"OXOXOXOXOXOXOXOXOXOXOXOXOXOXOXOXOXOXOXOXOXOXOXOXOXOXOXOXOXOXOXOXOXOXOXOXOXOXOXOXOXOXOXOXOXOXOXOXOXOXOXOXOXOXOXOXOXOXOXOXOXOX",
"OXOXOXOXOXOXOXOXOXOXOXOXOXOXOXOXOXOXOXOXOXOXOXOXOXOXOXOXOXOXOXOXOXOXOXOXOXOXOXOXOXOXOXOXOXOXOXOXOXOXOXOXOXOXOXOXOXOXOXOXOXOX",
"OXOXOXOXOXOXOXOXOXOXOXOXOXOXOXOXOXOXOXOXOXOXOXOXOXOXOXOXOXOXOXOXOXOXOXOXOXOXOXOXOXOXOXOXOXOXOXOXOXOXOXOXOXOXOXOXOXOXOXOXOXOX",
"OXOXOXOXOXOXOXOXOXOXOXOXOXOXOXOXOXOXOXOXOXOXOXOXOXOXOXOXOXOXOXOXOXOXOXOXOXOXOXOXOXOXOXOXOXOXOXOXOXOXOXOXOXOXOXOXOXOXOXOXOXOX",
"OXOXOXOXOXOXOXOXOXOXOXOXOXOXOXOXOXOXOXOXOXOXOXOXOXOXOXOXOXOXOXOXOXOXOXOXOXOXOXOXOXOXOXOXOXOXOXOXOXOXOXOXOXOXOXOXOXOXOXOXOXOX",
"OXOXOXOXOXOXOXOXOXOXOXOXOXOXOXOXOXOXOXOXOXOXOXOXOXOXOXOXOXOXOXOXOXOXOXOXOXOXOXOXOXOXOXOXOXOXOXOXOXOXOXOXOXOXOXOXOXOXOXOXOXOX",
"OXOXOXOXOXOXOXOXOXOXOXOXOXOXOXOXOXOXOXOXOXOXOXOXOXOXOXOXOXOXOXOXOXOXOXOXOXOXOXOXOXOXOXOXOXOXOXOXOXOXOXOXOXOXOXOXOXOXOXOXOXOX",
"OXOXOXOXOXOXOXOXOXOXOXOXOXOXOXOXOXOXOXOXOXOXOXOXOXOXOXOXOXOXOXOXOXOXOXOXOXOXOXOXOXOXOXOXOXOXOXOXOXOXOXOXOXOXOXOXOXOXOXOXOXOX",
"OXOXOXOXOXOXOXOXOXOXOXOXOXOXOXOXOXOXOXOXOXOXOXOXOXOXOXOXOXOXOXOXOXOXOXOXOXOXOXOXOXOXOXOXOXOXOXOXOXOXOXOXOXOXOXOXOXOXOXOXOXOX",
"OXOXOXOXOXOXOXOXOXOXOXOXOXOXOXOXB S V OXOXOXOXOXOXOXOXOXOXOXOXOXOXOXOXOXOXOXD _ ) ] Q M OXOXOXOXOXOXOXOXOXOXOXOXOXOXOXOXOXOX",
"OXOXOXOXOXOXOXOXOXOXOXOXOX; M Z G { / ( M OXOXOXOXOXOXOXOXOXOXOXOXOXOXOXOXOX$ E R T j } E P F OXOXOXOXOXOXOXOXOXOXOXOXOXOXOX",
"OXOXOXOXOXOXOXOXOXOXOXOX: a t S.Z.G.D.H.f Z OXOXOX; OXOXOX; OXOXOXOXOXOXOX+ a D.G.G.V.Z.S.t T W D OXOXOXOXOXOXOXOXOXOXOXOXOX",
"OXOXOXOXOXOXOXOXOXOXOXO 3 Z.q 9 7 6 q B.C.d B : OX~ OXOXM S OXOXOXOXOXOX+ i F.G.G.G.V.V.G.G.A.w f p OXOXOXOXOXOXOXOXOXOXOXOX",
"OXOXOXOXOXOXOXOXOXOXO 4 9 < OXOXOXOXOX< 6 < OX* V 8.Z OX) N OXOXOXOXOX+ y e G.B.6 5 5 5 q 0 , OXOXo = - OXOXOXOXOXOXOXOXOXOX",
"OXOXOXOXOXOXOXOXOXO r 1 OXOXOXOXOXOXOXOXOXOXOXOX$ y.y.t.p.F OXOXOXOXx a e C.6 OXOXOXOXOXOXOXOXOXOXOXOX& : OXOXOXOXOXOXOXOXOX",
"OXOXOXOXOXOXOXOXOX2 8 OXOXOXOXOXOXOXOXOXOXOXOXOXA f.M.N.c.a.OXOXOXx [ S.G.0 OXOXOXOXOXOXOXOXOXOXOXOXOXOXOX= OXOXOXOXOXOXOXOX",
"OXOXOXOXOXOXOXOXOX  OXOXOXOXOXOXOXOXOXOXOXOXOXOX=.k.v.v.f.j.9.OX* D S.G.q OXOXOXOXOXOXOXOXOXOXOXOXOXOXOXOXOX% OXOXOXOXOXOXOX",
"OXOXOXOXOXOXOXOXOXX OXOXOXOXOXOXOXOXOXOXOXOXOXOXA e.g. .r.1.2.:.K j G.0 OXOXOXOXOXOXOXOXOXOXOXOXOXOXOXOXOXOXOXOXOXOXOXOXOXOX",
"OXOXOXOXOXOXOXOXOXOXOXOXOXOXOXOXOXOXOXOXOXOXOXOXx 6.9.) -.b %.e.,.k d OXOXOXOXOXOXOXOXOXOXOXOXOXOXOXOXOXOXOXOX. OXOXOXOXOXOX",
"OXOXOXOXOXOXOXOXOXOXOXOXOXOXOXOXOXOXOXOXOXOXOXOX=.k.k.3.l m 6.j.k.v.x.~ OXOXOXOXOXOXOXOXOXOXOXOXOXOXOXOXOXOXOXOXOXOXOXOXOXOX",
"OXOXOXOXOXOXOXOXOXOXOXOXOXOXOXOXOXOXOXOXOXOXOXOX-.a.1.z m q.e.k.m.c.c.u.OXOXOXOXOXOXOXOXOXOXOXOXOXOXOXOXOXOXOXOXOXOXOXOXOXOX",
"OXOXOXOXOXOXOXOXOXOXOXOXOXOXOXOXOXOXOXOXOXOXOXOX* x % b h.k.M.N.N.c.1.y.] OXOXOXOXOXOXOXOXOXOXOXOXOXOXOXOXOXOXOXOXOXOXOXOXOX",
"OXOXOXOXOXOXOXOXOXOXOXOXOXOXOXOXOXOXOXOXOXOXOXOXS P : 9.l.n.b.n.v.y._ _ y.OXOXOXOXOXOXOXOXOXOXOXOXOXOXOXOXOXOXOXOXOXOXOXOXOX",
"OXOXOXOXOXOXOXOXOXOXOXOXOXOXOXOXOXOXOXOXOXOXOXOX>.D A z.^.{.}.[.Q.Q ,.g.y.OXOXOXOXOXOXOXOXOXOXOXOXOXOXOXOXOXOXOXOXOXOXOXOXOX",
"OXOXOXOXOXOXOXOXOXOXOXOXOXOXOXOXOXOXOXOXOXOXOXv p.~ ~ ].|..XXXXXoXY S #.r.OXOXOXOXOXOXOXOXOXOXOXOXOXOXOXOXOXOXOXOXOXOXOXOXOX",
"OXOXOXOXOXOXOXOXOXOXOXOXOXOXOXOXOXOXOXOXOXOXOX>.t.Q o.{.{.|. X X X!.K.E K OXOXOXOXOXOXOXOXOXOXOXOXOXOXOXOXOXOXOXOXOXOXOXOXOX",
"OXOXOXOXOXOXOXOXOXOXOXOXOXOXOXOXOXOXOXOXOXOXOX=.Q B T.'.{.{.{.{.{.{.(.K.3.:.OXOXOXOXOXOXOXOXOXOXOXOXOXOXOXOXOXOXOXOXOXOXOXOX",
"OXOXOXOXOXOXOXOXOXOXOXOXOXOXOXOXOXOXOXOXOXOXOXC p ;.^.[.'.[.[.[.{.[.'.).s.s.OXOXOXOXOXOXOXOXOXOXOXOXOXOXOXOXOXOXOXOXOXOXOXOX",
"OXOXOXOXOXOXOXOXOXOXOXOXOXOXOXOXOXOXOXOXOXOXOXOXL s.R.).`.`.'.[.[.'.'.^.f.j.' OXOXOXOXOXOXOXOXOXOXOXOXOXOXOXOXOXOXOXOXOXOXOX",
"OXOXOXOXOXOXOXOXOXOXOXOXOXOXOXOXOXOXOXOXOXOXOXOX2.j.i.^.).[.`.[.'._.`.I.a.j.:.OXOXOXOXOXOXOXOXOXOXOXOXOXOXOXOXOXOXOXOXOXOXOX",
"OXOXOXOXOXOXOXOXOXOXOXOXOXOXOXOXOXOXOXOXOXOXOXOXa.j.p.o.~.).).`././.!.` a.d.:.OXOXOXOXOXOXOXOXOXOXOXOXOXOXOXOXOXOXOXOXOXOXOX",
"OXOXOXOXOXOXOXOXOXOXOXOXOXOXOXOXOXOXOXOXOXOXOXOX4.d.d.9...U.W.W.R.T. .<.j.a.=.OXOXOXOXOXOXOXOXOXOXOXOXOXOXOXOXOXOXOXOXOXOXOX",
"OXOXOXOXOXOXOXOXOXOXOXOXOXOXOXOXOXOXOXOXOXOXOXOX#.q.e.q.v } K.O.K.O.u #.7.w.! OXOXOXOXOXOXOXOXOXOXOXOXOXOXOXOXOXOXOXOXOXOXOX",
"OXOXOXOXOXOXOXOXOXOXOXOXOXOXOXOXOXOXOXOXOXOXOXOXm 6.2.*.! / E.Y.R.X.OXn &.5.J OXOXOXOXOXOXOXOXOXOXOXOXOXOXOXOXOXOXOXOXOXOXOX",
"OXOXOXOXOXOXOXOXOXOXOXOXOXOXOXOXOXOXOXOXOXOXOXOX# m &.*.J Z E.Y.P.G OXb $.$.I z OXOXOXOXOXOXOXOXOXOXOXOXOXOXOXOXOXOXOXOXOXOX",
"OXOXOXOXOXOXOXOXOXOXOXOXOXOXOXOXOXOXOXOXOXOXOXOXm 4.6.&.# S Y.Y.+.OXOXm 5.7.7.C OXOXOXOXOXOXOXOXOXOXOXOXOXOXOXOXOXOXOXOXOXOX",
"OXOXOXOXOXOXOXOXOXOXOXOXOXOXOXOXOXOXOXOXOXOXOXOXH ,.` N OXS Y.Y.H OXOXOXH ;.` Y OXOXOXOXOXOXOXOXOXOXOXOXOXOXOXOXOXOXOXOXOXOX",
"OXOXOXOXOXOXOXOXOXOXOXOXOXOXOXOXOXOXOXOXOXOXOXOXa h y OXOXv P.P.B OXOXOXa J.J.OXOXOXOXOXOXOXOXOXOXOXOXOXOXOXOXOXOXOXOXOXOXOX",
"OXOXOXOXOXOXOXOXOXOXOXOXOXOXOXOXOXOXOXOXOXOXOXOXOXOXOXOXOX> I.@.OXOXOXOXOXOXOXOXOXOXOXOXOXOXOXOXOXOXOXOXOXOXOXOXOXOXOXOXOXOX",
"OXOXOXOXOXOXOXOXOXOXOXOXOXOXOXOXOXOXOXOXOXOXOXOXOXOXOXOXOX= L.} OXOXOXOXOXOXOXOXOXOXOXOXOXOXOXOXOXOXOXOXOXOXOXOXOXOXOXOXOXOX",
"OXOXOXOXOXOXOXOXOXOXOXOXOXOXOXOXOXOXOXOXOXOXOXOXOXOXOXOXOXOXs OXOXOXOXOXOXOXOXOXOXOXOXOXOXOXOXOXOXOXOXOXOXOXOXOXOXOXOXOXOXOX",
"OXOXOXOXOXOXOXOXOXOXOXOXOXOXOXOXOXOXOXOXOXOXOXOXOXOXOXOXOXOXOXOXOXOXOXOXOXOXOXOXOXOXOXOXOXOXOXOXOXOXOXOXOXOXOXOXOXOXOXOXOXOX",
"OXOXOXOXOXOXOXOXOXOXOXOXOXOXOXOXOXOXOXOXOXOXOXOXOXOXOXOXOXOXOXOXOXOXOXOXOXOXOXOXOXOXOXOXOXOXOXOXOXOXOXOXOXOXOXOXOXOXOXOXOXOX",
"OXOXOXOXOXOXOXOXOXOXOXOXOXOXOXOXOXOXOXOXOXOXOXOXOXOXOXOXOXOXOXOXOXOXOXOXOXOXOXOXOXOXOXOXOXOXOXOXOXOXOXOXOXOXOXOXOXOXOXOXOXOX",
"OXOXOXOXOXOXOXOXOXOXOXOXOXOXOXOXOXOXOXOXOXOXOXOXOXOXOXOXOXOXOXOXOXOXOXOXOXOXOXOXOXOXOXOXOXOXOXOXOXOXOXOXOXOXOXOXOXOXOXOXOXOX",
"OXOXOXOXOXOXOXOXOXOXOXOXOXOXOXOXOXOXOXOXOXOXOXOXOXOXOXOXOXOXOXOXOXOXOXOXOXOXOXOXOXOXOXOXOXOXOXOXOXOXOXOXOXOXOXOXOXOXOXOXOXOX",
"OXOXOXOXOXOXOXOXOXOXOXOXOXOXOXOXOXOXOXOXOXOXOXOXOXOXOXOXOXOXOXOXOXOXOXOXOXOXOXOXOXOXOXOXOXOXOXOXOXOXOXOXOXOXOXOXOXOXOXOXOXOX",
"OXOXOXOXOXOXOXOXOXOXOXOXOXOXOXOXOXOXOXOXOXOXOXOXOXOXOXOXOXOXOXOXOXOXOXOXOXOXOXOXOXOXOXOXOXOXOXOXOXOXOXOXOXOXOXOXOXOXOXOXOXOX",
"OXOXOXOXOXOXOXOXOXOXOXOXOXOXOXOXOXOXOXOXOXOXOXOXOXOXOXOXOXOXOXOXOXOXOXOXOXOXOXOXOXOXOXOXOXOXOXOXOXOXOXOXOXOXOXOXOXOXOXOXOXOX",
"OXOXOXOXOXOXOXOXOXOXOXOXOXOXOXOXOXOXOXOXOXOXOXOXOXOXOXOXOXOXOXOXOXOXOXOXOXOXOXOXOXOXOXOXOXOXOXOXOXOXOXOXOXOXOXOXOXOXOXOXOXOX",
"OXOXOXOXOXOXOXOXOXOXOXOXOXOXOXOXOXOXOXOXOXOXOXOXOXOXOXOXOXOXOXOXOXOXOXOXOXOXOXOXOXOXOXOXOXOXOXOXOXOXOXOXOXOXOXOXOXOXOXOXOXOX",
"OXOXOXOXOXOXOXOXOXOXOXOXOXOXOXOXOXOXOXOXOXOXOXOXOXOXOXOXOXOXOXOXOXOXOXOXOXOXOXOXOXOXOXOXOXOXOXOXOXOXOXOXOXOXOXOXOXOXOXOXOXOX",
"OXOXOXOXOXOXOXOXOXOXOXOXOXOXOXOXOXOXOXOXOXOXOXOXOXOXOXOXOXOXOXOXOXOXOXOXOXOXOXOXOXOXOXOXOXOXOXOXOXOXOXOXOXOXOXOXOXOXOXOXOXOX"
};
