/* XPM */
static char *result[] = {
/* columns rows colors chars-per-pixel */
"62 62 179 2 ",
"   c #463626",
".  c #5A4226",
"X  c #574935",
"o  c #61452B",
"O  c #694C2E",
"+  c #714E2B",
"@  c #6F5123",
"#  c #644E32",
"$  c #694F35",
"%  c #665137",
"&  c #765630",
"*  c #775835",
"=  c #194E56",
"-  c #18545F",
";  c #3B5853",
":  c #0F5E6C",
">  c #165863",
",  c #0B6D7E",
"<  c #0B6272",
"1  c #136777",
"2  c #2C797D",
"3  c #347070",
"4  c #3E7472",
"5  c #57534D",
"6  c #6E4E41",
"7  c #655B45",
"8  c #745845",
"9  c #615E5A",
"0  c #446458",
"q  c #7D6443",
"w  c #77634B",
"e  c #6C665E",
"r  c #766952",
"t  c #6C765D",
"y  c #7A7657",
"u  c #4F766A",
"i  c #467C77",
"p  c #7C766F",
"a  c #845E37",
"s  c #8D683F",
"d  c #8D6236",
"f  c #97683B",
"g  c #9B6D3D",
"h  c #976934",
"j  c #A36F3B",
"k  c #AA743D",
"l  c #876743",
"z  c #856A44",
"x  c #886E49",
"c  c #8C6646",
"v  c #9C6F40",
"b  c #916E48",
"n  c #956F43",
"m  c #9A7444",
"M  c #9A754A",
"N  c #95794D",
"B  c #97764A",
"V  c #887559",
"C  c #9A7952",
"Z  c #9A7D5E",
"A  c #A47544",
"S  c #A97741",
"D  c #A67B47",
"F  c #AD7B45",
"G  c #A47B4A",
"H  c #AC7D49",
"J  c #B37B42",
"K  c #4B827A",
"L  c #7D8261",
"P  c #748165",
"I  c #98845C",
"U  c #AE824C",
"Y  c #B78247",
"T  c #BB8044",
"R  c #B5844B",
"E  c #BA8A4F",
"W  c #BA844A",
"Q  c #A78650",
"!  c #AB8452",
"~  c #A3845C",
"^  c #AE8A58",
"/  c #B78550",
"(  c #B58B53",
")  c #B98A53",
"_  c #BC8E58",
"`  c #BD9156",
"'  c #BA965E",
"]  c #9F886E",
"[  c #939567",
"{  c #B28F6A",
"}  c #A2926D",
"|  c #A89974",
" . c #B49E77",
".. c #B8A379",
"X. c #C78A4B",
"o. c #D18E4B",
"O. c #CF904E",
"+. c #D6924D",
"@. c #DB964F",
"#. c #CC8F51",
"$. c #CA9455",
"%. c #CF9659",
"&. c #CC9B5A",
"*. c #C4975C",
"=. c #D49654",
"-. c #DA9651",
";. c #D19857",
":. c #DE9B54",
">. c #D49C5C",
",. c #DC9F5A",
"<. c #E39E56",
"1. c #CCA05D",
"2. c #D4A25E",
"3. c #E5A45D",
"4. c #EAA55C",
"5. c #E9A95E",
"6. c #CC9F60",
"7. c #C79A63",
"8. c #CAA268",
"9. c #D4AB63",
"0. c #DDAB63",
"q. c #D8A966",
"w. c #C8A976",
"e. c #E2A561",
"r. c #E4AB63",
"t. c #EEAC62",
"y. c #F4AE63",
"u. c #EBB165",
"i. c #E9B869",
"p. c #F5B265",
"a. c #FBB466",
"s. c #FCB668",
"d. c #F3B96B",
"f. c #FBBC6A",
"g. c #E4AF70",
"h. c #E0B173",
"j. c #FEC26E",
"k. c #F0C671",
"l. c #FDCB73",
"z. c #FBC771",
"x. c #FCD479",
"c. c #046F85",
"v. c #097184",
"b. c #03788F",
"n. c #07778C",
"m. c #177987",
"M. c #047B91",
"N. c #878581",
"B. c #B7A780",
"V. c #BEAE86",
"C. c #C9B689",
"Z. c #CCB789",
"A. c #D1BE8F",
"S. c #DCBB87",
"D. c #CDBE94",
"F. c #D2BF90",
"G. c #DDC38D",
"H. c #D5C397",
"J. c #E8C484",
"K. c #E4C895",
"L. c #DDCEA5",
"P. c #E7CFA1",
"I. c #E2D3AA",
"U. c #E7D8AF",
"Y. c #EED6A3",
"T. c #E6D8B0",
"R. c #ECDDB3",
"E. c #EFE0B6",
"W. c #F3E5BC",
"Q. c #F6E8BF",
"!. c #F7E9C0",
"~. c #FAECC2",
"^. c #FDF2C7",
"/. c #FDF4CA",
"(. c #FFFACF",
"). c #FFFCD2",
"_. c #FCFCDA",
"`. c #F9F7D5",
"'. c None",
/* pixels */
"'.'.'.'.'.'.'.'.'.'.'.'.'.'.'.'.'.'.'.'.'.'.'.'.'.'.'.'.'.'.'.'.'.'.'.'.'.'.'.'.'.'.'.'.'.'.'.'.'.'.'.'.'.'.'.'.'.'.'.'.'.'.",
"'.'.'.'.'.'.'.'.'.'.'.'.'.'.'.'.'.'.'.'.'.'.'.'.'.'.'.'.'.'.'.'.'.'.'.'.'.'.'.'.'.'.'.'.'.'.'.'.'.'.'.'.'.'.'.'.'.'.'.'.'.'.",
"'.'.'.'.'.'.'.'.'.'.'.'.'.'.'.'.'.'.'.'.'.'.'.'.'.'.'.'.'.'.'.'.'.'.'.'.'.'.'.'.'.'.'.'.'.'.'.'.'.'.'.'.'.'.'.'.'.'.'.'.'.'.",
"'.'.'.'.'.'.'.'.'.'.'.'.'.'.'.'.'.'.'.'.'.'.'.'.'.'.'.'.'.'.'.'.'.'.'.'.'.'.'.'.'.'.'.'.'.'.'.'.'.'.'.'.'.'.'.'.'.'.'.'.'.'.",
"'.'.'.'.'.'.'.'.'.'.'.'.'.'.'.'.'.'.'.'.'.'.'.'.'.'.'.'.'.'.'.'.'.'.'.'.'.'.'.'.'.'.'.'.'.'.'.'.'.'.'.'.'.'.'.'.'.'.'.'.'.'.",
"'.'.'.'.'.'.'.'.'.'.'.'.'.'.'.'.'.'.'.'.'.'.'.'.'.'.'.'.'.'.'.'.'.'.'.'.'.'.'.'.'.'.'.'.'.'.'.'.'.'.'.'.'.'.'.'.'.'.'.'.'.'.",
"'.'.'.'.'.'.'.'.'.'.'.'.'.'.'.'.'.'.'.'.'.'.'.'.'.'.'.'.'.'.'.'.'.'.'.'.'.'.'.'.'.'.'.'.'.'.'.'.'.'.'.'.'.'.'.'.'.'.'.'.'.'.",
"'.'.'.'.'.'.'.'.'.'.'.'.'.'.'.'.'.'.'.'.'.'.'.'.'.'.'.'.'.'.'.'.'.'.'.'.'.'.'.'.'.'.'.'.'.'.'.'.'.'.'.'.'.'.'.'.'.'.'.'.'.'.",
"'.'.'.'.'.'.'.'.'.'.'.'.'.'.'.'.'.'.'.'.'.'.'.'.'.'.'.'.'.'.'.'.'.'.'.'.'.'.'.'.'.'.'.'.'.'.'.'.'.'.'.'.'.'.'.'.'.'.'.'.'.'.",
"'.'.'.'.'.'.'.'.'.'.'.'.'.'.'.'.'.'.'.'.'.'.'.'.'.'.'.'.'.'.'.'.'.'.'.'.'.'.'.'.'.'.'.'.'.'.'.'.'.'.'.'.'.'.'.'.'.'.'.'.'.'.",
"'.'.'.'.'.'.'.'.'.'.'.'.'.'.'.'.'.'.'.'.'.'.'.'.'.'.'.'.'.'.'.'.'.'.'.'.'.'.'.'.'.'.'.'.'.'.'.'.'.'.'.'.'.'.'.'.'.'.'.'.'.'.",
"'.'.'.'.'.'.'.'.'.'.'.'.'.'.* _ 8.^ '.'.'.'.'.'.'.'.'.'.'.'.'.'.'.'.'.'.'.'.'.'.'.'.'.'.'.'.'.'.% # % .   '.'.'.'.'.'.'.'.'.",
"'.'.'.'.'.'.'.'.'.'.'.'.'.'.'.'.R r.1.'.'.'.'.'.'.'.'.'.'.'.'.'.'.'.'.'.'.'.'.'.'.'.'.'.'.# # O X '.'.'.'.'.'.'.'.'.'.'.'.'.",
"'.'.'.'.'.'.'.'.'.'.'.'.'.'.'.'.'.E r.0.'.'.'.'.'.'.'.'.'.'.'.'.'.'.'.'.'.'.'.'.'.'.z N z X '.'.'.'.'.'.'.'.'.'.'.'.'.'.'.'.",
"'.'.'.'.'.'.'.'.'.'.'.'.'.'.'.'.'.'.( t.p._ '.'.'.'.'.'.'.'.'.'.'.'.'.'.'.'.'.'.l N t ; '.'.'.'.'.'.'.'.'.'.'.'.'.'.'.'.'.'.",
"'.'.'.'.'.'.'.'.'.'.'.'.'.'.'.'.'.'.'.$.p.d.>.'.'.'.'.'.'.'.'.'.'.'.'.'.'.'.z Q t 2 - '.'.'.'.'.'.'.'.'.'.'.'.'.'.'.'.'.'.'.",
"'.'.'.'.'.'.'.'.'.'.'.'.'.'.'.'.'.'.'.m u.s.p.e.! '.'.'.'.'.'.'.'.'.'.'.'.M ' K b., '.'.'.'.'.'.'.'.'.'.'.'.'.'.'.'.'.'.'.'.",
"'.'.'.'.'.'.'.'.'.'.'.'.'.'.'.'.'.'.'.'.&.s.s.s.r.'.'.'.'.'.'.'.'.'.'.'.c ` K n.< - '.'.'.'.'.'.'.'.'.'.'.'.'.'.'.'.'.'.'.'.",
"'.'.'.'.'.'.'.'.'.'.'.'.'.'.'.'.'.'.'.'.m R 5.s.s.*.'.'.'.'.'.'.'.'.'.'.D K b.: '.'.'.'.'.'.'.'.'.'.'.'.'.'.'.'.'.'.'.'.'.'.",
"'.'.'.'.'.'.'.'.'.'.'.'.'.'.'.'.'.'.'.'.'.'.k 5.p./ '.'.'.'.'.'.'.'.'.'.7 n.< '.'.'.'.'.'.'.'.'.'.'.'.'.'.'.'.'.'.'.'.'.'.'.",
"'.'.'.'.'.'.'.'.'.'.'.'.'.'.'.'.'.'.'.'.'.'.'.W 3.D B '.'.z '.'.'.'.'.'.0 v.'.'.'.'.'.'.'.'.'.'.'.'.'.'.'.'.'.'.'.'.'.'.'.'.",
"'.'.'.'.'.'.'.'.'.'.'.'.'.'.'.'.'.'.'.'.'.'.'.'.F *./ '.Q M '.'.'.'.'.O 4 1 '.'.'.'.'.'.'.'.'.'.'.'.'.'.'.'.'.'.'.'.'.'.'.'.",
"'.'.'.'.'.'.'.'.'.'.'.'.'.'.'.'.'.'.'.'.'.'.'.'.& 2.*.( 2.'.'.'.'.'.'.8 m.= '.'.'.'.'.'.'.'.'.'.'.'.'.'.'.'.'.'.'.'.'.'.'.'.",
"'.'.'.'.'.'.'.'.'.'.'.'.'.'.'.'.'.'.'.'.'.'.'.'.U p.f.z.u.M '.'.'.'.d u v.'.'.'.'.'.'.'.'.'.'.'.'.'.'.'.'.'.'.'.'.'.'.'.'.'.",
"'.'.'.'.'.'.'.'.'.'.'.'.'.'.'.'.'.'.'.'.'.'.'.'.;.p.i.2.t.2.'.'.'.* y m., '.'.'.'.'.'.'.'.'.'.'.'.'.'.'.'.'.'.'.'.'.'.'.'.'.",
"'.'.'.'.'.'.'.'.'.'.'.'.'.'.'.'.'.'.'.'.'.'.'.'.m 5.1.q 5.5._ '.'.M 2 M.> '.'.'.'.'.'.'.'.'.'.'.'.'.'.'.'.'.'.'.'.'.'.'.'.'.",
"'.'.'.'.'.'.'.'.'.'.'.'.'.'.'.'.'.'.'.'.'.'.'.'.D p.2.&.$.j ,.M f L M., '.'.'.'.'.'.'.'.'.'.'.'.'.'.'.'.'.'.'.'.'.'.'.'.'.'.",
"'.'.'.'.'.'.'.'.'.'.'.'.'.'.'.'.'.'.'.'.'.'.'.'.r.j.p.U + k <.>.H 4 c.= '.'.'.'.'.'.'.'.'.'.'.'.'.'.'.'.'.'.'.'.'.'.'.'.'.'.",
"'.'.'.'.'.'.'.'.'.'.'.'.'.'.'.'.'.'.'.'.'.'.'.'.%.%.c . j +.<.y.2.[ L '.'.'.'.'.'.'.'.'.'.'.'.'.'.'.'.'.'.'.'.'.'.'.'.'.'.'.",
"'.'.'.'.'.'.'.'.'.'.'.'.'.'.'.'.'.'.'.'.'.'.'.'.'.8 6 f @.-.4.a.j.l.l.' '.'.'.'.'.'.'.'.'.'.'.'.'.'.'.'.'.'.'.'.'.'.'.'.'.'.",
"'.'.'.'.'.'.'.'.'.'.'.'.'.'.'.'.'.'.'.'.'.'.'.'.'.A J t.a.a.f.l.l.u.2.9.'.'.'.'.'.'.'.'.'.'.'.'.'.'.'.'.'.'.'.'.'.'.'.'.'.'.",
"'.'.'.'.'.'.'.'.'.'.'.'.'.'.'.'.'.'.'.'.'.'.'.'.*.) ) f.j.l.x.x.k.( 2.0.2.'.'.'.'.'.'.'.'.'.'.'.'.'.'.'.'.'.'.'.'.'.'.'.'.'.",
"'.'.'.'.'.'.'.'.'.'.'.'.'.'.'.'.'.'.'.'.'.'.'.Q &.'.U d.J.F.K.J.q.C G R >.'.'.'.'.'.'.'.'.'.'.'.'.'.'.'.'.'.'.'.'.'.'.'.'.'.",
"'.'.'.'.'.'.'.'.'.'.'.'.'.'.'.'.'.'.'.'.'.'.C 0.*.'.` Y./._._._.E.w.q.H M '.'.'.'.'.'.'.'.'.'.'.'.'.'.'.'.'.'.'.'.'.'.'.'.'.",
"'.'.'.'.'.'.'.'.'.'.'.'.'.'.'.'.'.'.'.'.'.'.2.D x X Z.~.^.(.).).).!.S.R c '.'.'.'.'.'.'.'.'.'.'.'.'.'.'.'.'.'.'.'.'.'.'.'.'.",
"'.'.'.'.'.'.'.'.'.'.'.'.'.'.'.'.'.'.'.'.'.'.( r '.w I.~.~.^.^.^.~.~.E.g.*.'.'.'.'.'.'.'.'.'.'.'.'.'.'.'.'.'.'.'.'.'.'.'.'.'.",
"'.'.'.'.'.'.'.'.'.'.'.'.'.'.'.'.'.'.'.'.'.'.8 '.'.7.T.!.!.~.~.~.~.~.!.K.t.( '.'.'.'.'.'.'.'.'.'.'.'.'.'.'.'.'.'.'.'.'.'.'.'.",
"'.'.'.'.'.'.'.'.'.'.'.'.'.'.'.'.'.'.'.'.'.'.'.'.R h.T.!.!.!.!.!.!.Q.!.P.t.e.'.'.'.'.'.'.'.'.'.'.'.'.'.'.'.'.'.'.'.'.'.'.'.'.",
"'.'.'.'.'.'.'.'.'.'.'.'.'.'.'.'.'.'.'.'.'.'.'.'.3.0.H.W.!.!.!.!.Q.W.W.S.y.y.c '.'.'.'.'.'.'.'.'.'.'.'.'.'.'.'.'.'.'.'.'.'.'.",
"'.'.'.'.'.'.'.'.'.'.'.'.'.'.'.'.'.'.'.'.'.'.'.v y.t.w.L.R.W.W.W.W.W.U.8.y.y.H '.'.'.'.'.'.'.'.'.'.'.'.'.'.'.'.'.'.'.'.'.'.'.",
"'.'.'.'.'.'.'.'.'.'.'.'.'.'.'.'.'.'.'.'.'.'.'.F y.y.;...L.T.R.E.R.I. .%.p.y./ '.'.'.'.'.'.'.'.'.'.'.'.'.'.'.'.'.'.'.'.'.'.'.",
"'.'.'.'.'.'.'.'.'.'.'.'.'.'.'.'.'.'.'.'.'.'.'.'.3.5.y.=.V ..H.A.V...n 4.y.4.H '.'.'.'.'.'.'.'.'.'.'.'.'.'.'.'.'.'.'.'.'.'.'.",
"'.'.'.'.'.'.'.'.'.'.'.'.'.'.'.'.'.'.'.'.'.'.'.'.O.3.4.@.d I Z.Z.C.} O X.<.-.n '.'.'.'.'.'.'.'.'.'.'.'.'.'.'.'.'.'.'.'.'.'.'.",
"'.'.'.'.'.'.'.'.'.'.'.'.'.'.'.'.'.'.'.'.'.'.'.'.j +.@.@.h I H.A.C.r '.k +.o.f '.'.'.'.'.'.'.'.'.'.'.'.'.'.'.'.'.'.'.'.'.'.'.",
"'.'.'.'.'.'.'.'.'.'.'.'.'.'.'.'.'.'.'.'.'.'.'.'.d k @.+.@ B H.H.} '.'.T T J T '.'.'.'.'.'.'.'.'.'.'.'.'.'.'.'.'.'.'.'.'.'.'.",
"'.'.'.'.'.'.'.'.'.'.'.'.'.'.'.'.'.'.'.'.'.'.'.'.Y 3.-.k . Q A.| '.'.'.J :.<.#.$ '.'.'.'.'.'.'.'.'.'.'.'.'.'.'.'.'.'.'.'.'.'.",
"'.'.'.'.'.'.'.'.'.'.'.'.'.'.'.'.'.'.'.'.'.'.'.e V ~ ] 7 '.~ } '.'.'.'.w C { Z p '.'.'.'.'.'.'.'.'.'.'.'.'.'.'.'.'.'.'.'.'.'.",
"'.'.'.'.'.'.'.'.'.'.'.'.'.'.'.'.'.'.'.'.'.'.'.'.9 e 5 '.'.'.'.'.'.'.'.'.'.N.'.'.'.'.'.'.'.'.'.'.'.'.'.'.'.'.'.'.'.'.'.'.'.'.",
"'.'.'.'.'.'.'.'.'.'.'.'.'.'.'.'.'.'.'.'.'.'.'.'.'.'.'.'.'.'.'.'.'.'.'.'.'.'.'.'.'.'.'.'.'.'.'.'.'.'.'.'.'.'.'.'.'.'.'.'.'.'.",
"'.'.'.'.'.'.'.'.'.'.'.'.'.'.'.'.'.'.'.'.'.'.'.'.'.'.'.'.'.'.'.'.'.'.'.'.'.'.'.'.'.'.'.'.'.'.'.'.'.'.'.'.'.'.'.'.'.'.'.'.'.'.",
"'.'.'.'.'.'.'.'.'.'.'.'.'.'.'.'.'.'.'.'.'.'.'.'.'.'.'.'.'.'.'.'.'.'.'.'.'.'.'.'.'.'.'.'.'.'.'.'.'.'.'.'.'.'.'.'.'.'.'.'.'.'.",
"'.'.'.'.'.'.'.'.'.'.'.'.'.'.'.'.'.'.'.'.'.'.'.'.'.'.'.'.'.'.'.'.'.'.'.'.'.'.'.'.'.'.'.'.'.'.'.'.'.'.'.'.'.'.'.'.'.'.'.'.'.'.",
"'.'.'.'.'.'.'.'.'.'.'.'.'.'.'.'.'.'.'.'.'.'.'.'.'.'.'.'.'.'.'.'.'.'.'.'.'.'.'.'.'.'.'.'.'.'.'.'.'.'.'.'.'.'.'.'.'.'.'.'.'.'.",
"'.'.'.'.'.'.'.'.'.'.'.'.'.'.'.'.'.'.'.'.'.'.'.'.'.'.'.'.'.'.'.'.'.'.'.'.'.'.'.'.'.'.'.'.'.'.'.'.'.'.'.'.'.'.'.'.'.'.'.'.'.'.",
"'.'.'.'.'.'.'.'.'.'.'.'.'.'.'.'.'.'.'.'.'.'.'.'.'.'.'.'.'.'.'.'.'.'.'.'.'.'.'.'.'.'.'.'.'.'.'.'.'.'.'.'.'.'.'.'.'.'.'.'.'.'.",
"'.'.'.'.'.'.'.'.'.'.'.'.'.'.'.'.'.'.'.'.'.'.'.'.'.'.'.'.'.'.'.'.'.'.'.'.'.'.'.'.'.'.'.'.'.'.'.'.'.'.'.'.'.'.'.'.'.'.'.'.'.'.",
"'.'.'.'.'.'.'.'.'.'.'.'.'.'.'.'.'.'.'.'.'.'.'.'.'.'.'.'.'.'.'.'.'.'.'.'.'.'.'.'.'.'.'.'.'.'.'.'.'.'.'.'.'.'.'.'.'.'.'.'.'.'.",
"'.'.'.'.'.'.'.'.'.'.'.'.'.'.'.'.'.'.'.'.'.'.'.'.'.'.'.'.'.'.'.'.'.'.'.'.'.'.'.'.'.'.'.'.'.'.'.'.'.'.'.'.'.'.'.'.'.'.'.'.'.'.",
"'.'.'.'.'.'.'.'.'.'.'.'.'.'.'.'.'.'.'.'.'.'.'.'.'.'.'.'.'.'.'.'.'.'.'.'.'.'.'.'.'.'.'.'.'.'.'.'.'.'.'.'.'.'.'.'.'.'.'.'.'.'.",
"'.'.'.'.'.'.'.'.'.'.'.'.'.'.'.'.'.'.'.'.'.'.'.'.'.'.'.'.'.'.'.'.'.'.'.'.'.'.'.'.'.'.'.'.'.'.'.'.'.'.'.'.'.'.'.'.'.'.'.'.'.'.",
"'.'.'.'.'.'.'.'.'.'.'.'.'.'.'.'.'.'.'.'.'.'.'.'.'.'.'.'.'.'.'.'.'.'.'.'.'.'.'.'.'.'.'.'.'.'.'.'.'.'.'.'.'.'.'.'.'.'.'.'.'.'.",
"'.'.'.'.'.'.'.'.'.'.'.'.'.'.'.'.'.'.'.'.'.'.'.'.'.'.'.'.'.'.'.'.'.'.'.'.'.'.'.'.'.'.'.'.'.'.'.'.'.'.'.'.'.'.'.'.'.'.'.'.'.'."
};
