/* XPM */
static char *_a253522a36f47b6b830d493866fd8d4jwkil4EX1DAwEEnh[] = {
/* columns rows colors chars-per-pixel */
"62 62 167 2 ",
"   c None",
".  c #040604",
"X  c #070907",
"o  c #05060B",
"O  c #07090D",
"+  c #0B0C0D",
"@  c #130E06",
"#  c #110F0C",
"$  c #0F100E",
"%  c #10100F",
"&  c #1B160A",
"*  c #1F190C",
"=  c #1B1407",
"-  c #070A11",
";  c #0B0D12",
":  c #0E1013",
">  c #0C1018",
",  c #131314",
"<  c #171816",
"1  c #181917",
"2  c #161718",
"3  c #171819",
"4  c #1B1B1B",
"5  c #231C0D",
"6  c #291F0D",
"7  c #241F15",
"8  c #350707",
"9  c #1F201F",
"0  c #27210E",
"q  c #2D250E",
"w  c #3B2804",
"e  c #2E2513",
"r  c #23211B",
"t  c #272215",
"y  c #302713",
"u  c #322810",
"i  c #1E1F20",
"p  c #1F2020",
"a  c #232423",
"s  c #272826",
"d  c #282927",
"f  c #262728",
"g  c #272829",
"h  c #2C2D2D",
"j  c #2F3030",
"k  c #333332",
"l  c #3C3D3A",
"z  c #383837",
"x  c #432E05",
"c  c #482F01",
"v  c #532F02",
"b  c #4D3305",
"n  c #4D3B0D",
"m  c #513807",
"M  c #5A3D04",
"N  c #573B06",
"B  c #3F403F",
"V  c #5B4007",
"C  c #5E4209",
"Z  c #644203",
"A  c #6A4605",
"S  c #6F4A05",
"D  c #684909",
"F  c #734D03",
"G  c #704E09",
"H  c #7B5303",
"J  c #755408",
"K  c #40413F",
"L  c #3F4141",
"P  c #434443",
"I  c #464748",
"U  c #474849",
"Y  c #4A4B4C",
"T  c #474847",
"R  c #4E504F",
"E  c #50504F",
"W  c #4E4F50",
"Q  c #4F5050",
"!  c #535454",
"~  c #585957",
"^  c #575958",
"/  c #5B5C5B",
"(  c #575957",
")  c #605F5E",
"_  c #5F605E",
"`  c #60615F",
"'  c #5E5F60",
"]  c #5F6061",
"[  c #636564",
"{  c #666867",
"}  c #696A67",
"|  c #666768",
" . c #676868",
".. c #6B6C6C",
"X. c #6F706F",
"o. c #6E6F70",
"O. c #6E7070",
"+. c #737474",
"@. c #777877",
"#. c #767778",
"$. c #777878",
"%. c #7B7C7C",
"&. c #AB0000",
"*. c #B90000",
"=. c #8C4F04",
"-. c #825603",
";. c #845A03",
":. c #8B5A03",
">. c #925C04",
",. c #9A5F03",
"<. c #905404",
"1. c #A45C02",
"2. c #8C6403",
"3. c #8F6608",
"4. c #936403",
"5. c #9C6204",
"6. c #9B6B03",
"7. c #A46602",
"8. c #A96502",
"9. c #A16D03",
"0. c #AC6B02",
"q. c #A16F08",
"w. c #B46B03",
"e. c #BC6E02",
"r. c #B56601",
"t. c #A47002",
"y. c #AB7403",
"u. c #AD7A03",
"i. c #B47403",
"p. c #BB7602",
"a. c #B47C03",
"s. c #BD7C02",
"d. c #C17E01",
"f. c #C87A01",
"g. c #CC7401",
"h. c #49EE3F",
"j. c #7F807F",
"k. c #BD8402",
"l. c #B78403",
"z. c #C38401",
"x. c #CE8201",
"c. c #CB8B01",
"v. c #C38A01",
"b. c #D58D01",
"n. c #E6D654",
"m. c #7D7F80",
"M. c #7E8080",
"N. c #1DBDEB",
"B. c #5DD3E4",
"V. c #4BE3F9",
"C. c #848583",
"Z. c #898985",
"A. c #868788",
"S. c #868989",
"D. c #8C8C8A",
"F. c #8F908C",
"G. c #91918E",
"H. c #8D8F90",
"J. c #8F9192",
"K. c #939494",
"L. c #979895",
"P. c #959798",
"I. c #969899",
"U. c #9C9D9C",
"Y. c #999A97",
"T. c #9D9FA0",
"R. c #A4A6A7",
/* pixels */
"                                                                                                                            ",
"                                                                                                                            ",
"                                                                                                                            ",
"D.D.C.D.C.C.Z.Z.D.Z.Z.Z.Z.Z.D.D.Z.Z.D.Z.Z.Z.Z.Z.Z.Z.D.D.C.Z.D.C.Z.D.Z.Z.Z.Z.Z.Z.D.C.C.D.C.Z.D.Z.D.Z.F.Z.Z.Z.C.D.C.Z.F.Z.C.Z.",
"L.U.U.G.G.D.G.D.G.D.D.D.Z.D.G.D.D.D.G.D.G.L.G.L.L.Y.U.U.U.U.U.L.L.L.L.L.L.L.L.L.Y.L.L.G.D.D.F.Z.Z.Z.D.C.Z.C.Z.Z.Z.C.D.Z.A.S.",
"G.L.F.F.D.C.Z.C.D.Z.Z.Z.C.Z.D.Z.Z.C.Z.Z.C.Z.Z.Z.Z.Z.F.Z.Z.C.C.C.Z.Z.Z.Z.Z.Z.D.Z.F.D.D.Z.C.Z.D.Z.Z.Z.D.Z.Z.Z.Z.Z.C.Z.Z.Z.C.M.",
"l l l l K l l l l l l l l l l l l l l l l l l K l l l l K l l l l l l l l l l l l l l l l l l l z l l l l l l l l l l l l l ",
"h h h h h h h h h h h h h h h j h h h h h h h h h h h h h j h h h h h h h h h h h h h h h h j h h h h h h h h h j d j h j h ",
"} } X.} ..l g Y ^ ] o.m.%.$.%.$.$.%.$.' 4 4 k k k k k h 1 1 1 4 2 h j k k k k 1 , l #.m.m.m.M.M.j.C.j.j.o.[ ^ P ....o.....l ",
"j.C.$.+.o.' k L I W ' [ [ { | | { { | | P + O k T T Y Y h 3 + 1 h Y Y Y Y k + + , ............| } } } } / E U ^ M.C.#.o.O.' ",
"A.%.{ { | ^ z z B I W ! ^ ^ ^ ^ ~ / ~ ^ / / + + @ Y Y Y Y h + h Y Y Y Y + + + I | / ' ~ ~ / / ^ / / / / ! U L ' C.%.| | | ! ",
"%...] [ ] ! k l I W ' [ [ [ { [ [ [ [ [ [ / [ , # + Y Y Y Y h Y Y Y Y + O , ! ' ] [ ] [ [ ] [ [ [ ` [ ` ! E I [ %.o.[ ' ] W ",
"%...[ [ [ ! j - + + % , , % , % % , , % j ..[ ..4 + ; Y Y Y Y Y Y Y + % 3 ) ) | k 4 7 4 1 7 4 4 4 4 4 4 1 < , { m. .[ [ [ ! ",
"M... . .[ ' k l P Y ! / ^ / / / / / / ) 3 p } { o.s + + Y Y W U Y ; + i | [ [ f 4 / ^ ^ ~ ) / ^ ~ / / / ! Y P | m... . .| ' ",
"A.o. .....' h Q / { +.A.C.C.m.m.C.m.%.m.+.7 < { | o.h ; h Y U Y h % h ..[ [ r i o.m.m.m.%.m.m.m.m.%.m.%.+.{ ~ } A.o. . ...' ",
"A.O. ...o.^ p L Y / [ ..} ......o.o.o...$.C.h + o.| #.- h Y Y Y g % } { | , h j.#...| ........} ........` ~ E { A.o. .o...' ",
"S.O.o.O.o./ 4 P E / [ o.o.o.+.o.+.+.o.X.X.@.D.k # +.+.% h Y Y Y h ; ....3 k C.%...} ..o...X...X...O...O.] ^ L  .M.O.o.o.O.^ ",
"D.#.O.O.+.[ 4 P E ) | +.+.+.@.@.@.@.@.@.#.#.j.j.# +.%.: : k Y k : % o...< j.m.o.o.+.o.o.X.X.X.X.o.o.o.O. .^ ^ ] M.+.O.O.+.] ",
"J.%.#.%.%.| 1 I E / { +.@.@.@.@.$.$.$.@.@.@.@.%.3 $.%.% : k Y j % : o...< A.C.+.#.+.+.#.+.+.+.+.+.+.+.+. .' Q o.I.M.M.+.M.] ",
"H.$.#.#.%.| , I ! / ..@.@.@.@.@.$.@.$.@.@.@.@.@.4 #.#.3 : % k : , 2 ..+.< S.H.+.#.#.+.#.@.+.@.@.+.#.+.+. .' Q  .M.M.+.j.M. .",
"J.%.$.$.%..., P ! ' } $.@.@.@.@.@.@.@.+.@.+.+.@.7 @.o.@.h : : , a +.} @.1 A.S.o.+.+.@.+.@.+.+.@.#.#.#.#.o./ L  .I.M.M.+.M. .",
"J.m.$.m.%.o.; I E ) ..+.+.@.+.@.+.+.+.+.+.+.+.@.p E X.o.+.% : , { X.o.! 1 A.D.+.+.+.+.+.+.@.@.+.#.+.+.+. .' ^ o.I.M.m.M.M.O.",
"J.$.$.m.$...: P ! / | +.+.+.+.+.+.+.+.+.+.+.X.+.| a ) +.#.g 4 g +.X.[ a } X.$.+.+.+.X.+.+.+.+.+.+.+.+.+. .' L ..M.m.O.M.#...",
"J.%.#.%.%.o.3 P E / | +.+.+.X.+.+.+.+.o.+.+.+.X.+.^ 1 o.o.#., o.X.X.1 ! %.P...+.X.+.+.X.X.+.X.+.O.O.+.O...] ^ O.M.M.O.M.#.o.",
"I.m.#.M.%.O.p L E / [ +.o.+.+.+.X.X.+.X.X.X.X.X.o.+.K d +.+.s } +.d l +.D.C...+.X.o.{ [ } ..o...O.O...O.] ( Y ] T.M.+.M.j...",
"J.M.#.%.#...> L Y / [ o...o...X.X...o.X.X.X.X.X.o...+.s o.o.7 X.+.f +.D.#.} ..o.o.s 8 s d h h h g B B B Y _ R ] I.M.$.M.#. .",
"I.S.#.%.$.O.4 L Y ~ [ o.o.....o.o...................+.h +.o.a +.+.g +.D.} ..o.....7 &.X.K ..h.} ....R _ z ^ R ] I.M.#.$.M.o.",
"I.S.#.%.j.X.9 P Y ~ ` ....o.........X.........X...o.+.d +.+., +.$.p +.D.| ........4 ` X.n...h.....V.B.j.k _ Y  .I.M.#.M.M...",
"I.M.#.#.#...p L Y ~ ' o...o.........X.....X.........+.d +.X.< +.%.a +.D.} ........a &...K } X.} } V.B.$.k ^ R ] I.M.M.#.#.o.",
"P.S.j.%.$...p L Y ~ ' ......................} ......X.h @.+.a +.%.4 +.D.{ ........a { ..n.} 4 4 [ } [ j.k ^ R ] I.J.M.$.m. .",
"P.S.#.+.#.O.a L Y ~ ` o...o.........................+.h +.X., +.%.a +.D.{ ......{ z *.} K } 4 4 [ } _ S.j ^ R ] I.M.+.#.#.o.",
"P.S.#.#.#.O.a L Y ~ [ ......................} ......X.h @.+.a +.%.7 +.D.{ ....../ j ) { n...[ } [ N.R J.k ^ R ] I.M.$.#.+.o.",
"J.M.$.$.#.o.p L Y ^ ] ............} } .... .} } } ..o.h @.X.d +.j.9 +.D.[ } } } ^ h } { P [ r a { N.! K.k ~ Y [ J.A.#.#.$.O.",
"J.j.$.$.#.o.p L L ! ]  .] .. . .} } } } }  . .{ }  ...g @.X.4 @.j.r O.D.` { } } ' h D.P.P.P.K.J.G.K.A.D.l ! Y o.J.%.%.#.$.o.",
"P.$.$.+.+.+.p L W ^ ] ..{ {  . .} } { { | { { { { { ..h @.X.h @.C.9 X.D._ { { { | { +.$.#.+.O.+.+.X.+.+.! ! Y O.K.$.@.O.o.o.",
"K.+.$.O.o...p l L ^ ' ] { { { { ` { { { { [ { [ { } ..g @...h +.M.p O.D._ [ { [ { { { { { { { { { } [ } / ! U o.K.#.$.O.O.o.",
"K.O.O.O.O.] i l K R _ [ ] { [ [ ` { ` { [ ` [ } } ) ..d @...d +.C.9 ..$.` ..} ` [ [ [ [ [ [ [ [ [ [ [ [ / ! I | K.O.O.O.O.] ",
"M...o... .] p z T R ( [ ] [ ] _ ` ` ` ` ` ` } + , D...d @...g X.C.4 ..$.} X , M._ ` ` ` [ ` ` ` [ ` ` [ ~ E Y ' S.........' ",
"M.] o...] ^ i z K R ( _ _ ` _ _ ` ` _ _ ` ` ` % g R.+.h @.} g +.C.4 ..$.[ % k U.X._ _ _ ` ` _ ` ` ` ` [ ~ Y Y ^ %. . . . .! ",
"M.+.] ] ] W i k K R ( _ _ _ _ _ / ` _ ` / ` / j.U.R.X.d @.} g +.C.4 ..$.! C.T.U.[ _ ` _ ` _ ` _ ` ` ` ` ~ Y l ^ M.O.[ [ ] I ",
"A.J.m.+.#.k a z K Y ! / / / ~ _ / / / / / ~ ~ ~ ` ~ [ d @...a +.A.7 ..@.~ ~ ^ ^ ~ / / _ ~ _ _ _ / _ _ / ~ Y P I M.J.M.+.#.k ",
"#.m.m.+.o.2 i , < 9 r r a a a r a a r a a a s a a a a 1 %...a #.C.X < , 1 4 p 7 9 4 4 4 4 < < < 1 1 1 1 1 , , h m.M.M.#.O.4 ",
"i i j P L j j Y ( [ X.j.j.j.j.j.%.j.j.%.j.j.%.%.j.j.j.j.+.X.p #.#.M.C.j.C.M.j.C.j.j.j.j.j.C.j.j.j.C.j.C.+.{ ~ 4 i p z L L j ",
"| m.A.#...] i P Y ~ { X.O.O.X.X.X...+...X...X.X...X...X...X.. o.o.o.o...o.o.o.o.X.X.X.X.X.X.X.X.+...+.X.{ / E l  .m.M.#. .] ",
"#.m.m.m.[ ^ i 3 p a a a 4 2 : + ; ; , 2 4 a a f s s f a p 4 . 4 4 i f h j h h h j h g p 4 1 : + ; : , 3 4 4 3 l m.m.m.+.] / ",
"m.o.| ' [ / a v @ o + O + V p.7.5.8.>.5 + ; - & ,.w.w.p.x.N . + + O b g.r.1.1.=.= O + O + C s.7.5.7.>.* o - o h m.o.| | ] ^ ",
"A.+.o.o...' 7 @ o + O & S x.z.s.f.y.5 ; , - 0 y.d.0.i.b.J : . , > M e.8.,.r.=.5 O + O & S x.d.s.f.y.0 - : O < p M.o.....o.] ",
"H.m.o.o.#./ 7 . + o & :.c.z.k.b.a.e ; , - e a.d.i.i.z.G : : . 2 n b.0.8.r.,.6 O # - 5 :.c.z.z.b.a.y ; : - 0 J f P.m.+.o.#.^ ",
"P.A.#.#.m.^ 4 O O * 4.y.k.k.c.u.y > , ; u a.z.y.y.a.G : , , X r q.b.y.a.4.6 ; ; ; 7 9.i.k.k.c.a.y > , ; q 2.;.j P.M.m.#.%.^ ",
"P.m.m.m.m.! 3 O & H t.9.a.k.u.y > 1 > e u.v.u.u.y.Z ; 2 2 > O y 3.l.i.6.q ; , ; 0 6.a.9.a.k.u.y > 1 > y 6.6.H h K.S.m.m.m.^ ",
"J.A.#.#.%.Q 1 % M F -.>.6.4.e ; , : u 6.y.u.t.t.M ; , : ; C X y J 9.:.7 ; % ; * -.4.>.:.6.4.e ; , > u 6.6.2.F j K.M.$.$.$.Q ",
"P.M.#.+.#.Y 1 c Z Z F :.H 5 O , - 0 ;.4.:.4.4.m ; + ; ; M 5.X r H -.5 - ; - 5 F :.-.;.<.H 5 O : - 5 ;.4.H F A h I.M.+.+.#.I ",
"J.A.#.#.#.I 4 c b N Z x 5 ; ; - 6 ;.:.-.-.2.m - + + + m 4.H O t A 5 - + + & F H S S F x & ; % - 5 ;.:.;.F F w h K.A.#.#.#.I ",
"j.M.#.#.$.L r w x v w O ; % + 5 F -.H H -.m ; ; + ; x -.-.F X r 5 - + ; = M F Z C A x X ; % ; 5 F ;.H H F w O p M.M.#.$.%.L ",
"O.M.+.#.#.l r , 3 i i 4 , % + + + + ; 2 , 4 4 i i i i 4 1 , . , , 3 a a f f a a a a a 4 , , + + O + : , > < < s +.m.O.+.#.B ",
" .$..... .l 9 j l L I W W h 4 l W ! W Q ! ! ! ! ! W ! ! ! h a z ! E Q Q W W ! ! ! Q E Y W h 4 l E ! Q Q Y L z s [ %.o.o. .z ",
"] %.#... .P 4 h j z P I P , : f W Y Y U U U Y Y Y Y Y Y I : 2 f W Y Y Y Y Y Y I I I U U I : , s E Y Y U P z k h ] %.#.o.| L ",
"Q  ...] ] z , 2 2 4 i 1 4 , : , , 2 , , 2 1 4 4 i 4 i 4 4 , , , , 2 i a a a a a a a i 1 4 , ; , , 1 , , , , , l W  . .[ [ z ",
", 3 p 4 4 3 ,                                                                                                 1 , 2 i 4 4 2 ",
"                                                                                                                            ",
"                                                                                                                            ",
"                                                                                                                            "
};
