/* XPM */
static char *result[] = {
/* columns rows colors chars-per-pixel */
"62 62 43 1 ",
"  c #202020",
". c #4B4F52",
"X c #981000",
"o c #B83010",
"O c #C03010",
"+ c #CB3223",
"@ c #C84020",
"# c #D04020",
"$ c #D84828",
"% c #E14525",
"& c #E54C2C",
"* c #EA4E2E",
"= c #E25931",
"- c #E76038",
"; c #ED633A",
": c #C95E56",
"> c #BBCCCC",
", c #C3CAD9",
"< c #C1D2D2",
"1 c #D6DFDF",
"2 c #DFDFDF",
"3 c #CFCFE0",
"4 c #D6DFE5",
"5 c #DCDCE5",
"6 c #D7DFE8",
"7 c #D7E0E4",
"8 c #DAE3E4",
"9 c #D7E0E8",
"0 c #DAE3EB",
"q c #DEE9EF",
"w c #DFE8F0",
"e c #E3E3E3",
"r c #E4ECED",
"t c #E4ECF4",
"y c #E8EFF6",
"u c #E7F0F6",
"i c #ECF4F5",
"p c #EBF3FA",
"a c #F0F7F7",
"s c #F2F7FC",
"d c #F3FBFD",
"f c #FDFFFF",
"g c None",
/* pixels */
"gggggggggggggggggggggggggggggggggggggggggggggggggggggggggggggg",
"gggggggggggggggggggggggggggggggggggggggggggggggggggggggggggggg",
"gggggggggggggggggggggggggggggggggggggggggggggggggggggggggggggg",
"gggggggggggggggggggggggggggggggggggggggggggggggggggggggggggggg",
"gggggggggggggggggggggggggggggggggggggggggggggggggggggggggggggg",
"gggggggggggggggggggggggggggggggggggggggggggggggggggggggggggggg",
"gggggggggggggggggggggggggggggggggggggggggggggggggggggggggggggg",
"gggggggggggggggggggggggggggggggggggggggggggggggggggggggggggggg",
"gggggggggggggggX$$$$$$$$$$&$$$$$&$$$$$*$$$$$$$Xggggggggggggggg",
"ggggggggggggggX$$$$$********************$$$$$$$Xgggggggggggggg",
"ggggggggggggggX$$$%*;;;;;;;;;;;;;;;;;;;;***&$$$Xgggggggggggggg",
"gggggggggggggXX$$$;;;*********;*****=**;;;;*$$$XXggggggggggggg",
"gggggggggggggX###**=*&****&*******&***&***--&+##Xggggggggggggg",
"ggggggggggggX###*;=;&#O$##+#$+###+####+@#**-;*###Xgggggggggggg",
"gggggggggggX@@@&=;**@XXXXXXXXXXXXXXXXXXXX@&&=**@@@Xggggggggggg",
"gggggggggggXOO%==%OOXfdidfffff,,01118qrafX@%%==%OOXggggggggggg",
"gggggggggggXO%==&OOXfsppdffffd,,611140idffX@%%==OOXggggggggggg",
"ggggggggggXOO=%%OXXffpisffffdi,,41140riffffXX@O==OOXgggggggggg",
"gggggggggXOO==OOXfffduifffffpr,,11440ifffffffX@O=OOOXggggggggg",
"gggggggggXO==ooXfffdiusfffffte,,1110tsdfffffffX@==ooXggggggggg",
"gggggggggXO=OooXffdptaffffdp06,,170wifffffffffX@o==oXggggggggg",
"gggggggggXO=OOXfffaytdffffdt88,,460tpffffffffffXoo=oXggggggggg",
"gggggggggXO=OXfffdiypfffffu014,,17rifffffffffffXoo=oXggggggggg",
"gggggggggXO=OXfffiryfffffa0011,,40ydfffffffffffXoo=oXggggggggg",
"gggggggggXO=OXffdttpffffai0641,,8tpffffffffffffeXo=oXggggggggg",
"gggggggggXO=OXffiridfffdy06411,,qidffffffffffffeXo=oXggggggggg",
"gggggggggXO=OXfirraffffst86011,,tpfffffffffffffeXo=oXggggggggg",
"gggggggggXO=OXdiridfffdt074411,,idfffffffffffffeXo=oXggggggggg",
"gggggggggXO=OXurraffffiw411111,,ddfffffffffffff2Xo=oXggggggggg",
"gggggggggXO=OXrridfffdr0411440,,dffffffffffffffeXo=oXggggggggg",
"gggggggggXO=OXqradffdu07116640,,fdfffffffffffdf8Xo=oXggggggggg",
"gggggggggXX=OXqudffdit0411060t,,dfffffdffdfffdf8Xo=oXggggggggg",
"gggggggggXO=OXyafdfdu0771197ww,,dffddfffdfffddf6Xo=oXggggggggg",
"gggggggggXO=OXifdfspq8111108up,,fddffddffddffds3Xo=oXggggggggg",
"gggggggggXO=oXiffdit0111170qpd,,fdfffffdfdddddp3Xo=oXggggggggg",
"ggggggggXOO=OXdfdsur7111170rpd,,dfddddddddfddpy<Xo=ooXgggggggg",
"ggggggggXOO=OXdfdpr8111110wppd,,ddddddddddsdspt>Xo=ooXgggggggg",
"ggggggggXOO=OXddpt01111170upsd,,ddddddddddddpyq>Xo=ooXgggggggg",
"ggggggggXOO=oXfsiw8111140tusdp,,ddssdddspdspuw0>Xo=ooXgggggggg",
"ggggggggXOO=OXspr04111460tpssd,,dsdsdppdppppw04>Xo=ooXgggggggg",
"ggggggggXOO=OXdy06111660wppssd,,aassspspdauuw97>Xo=ooXgggggggg",
"ggggggggXOO=OXyr06111660uppppp,,dssdpiippuuw091>Xo=ooXgggggggg",
"ggggggggXOO=OXt04614440tupsssp,,iiippaiipuww997>Xo=ooXgggggggg",
"ggggggggXOO::X06411884wypaiiia,,iiippippptw0999>Xo:::Xgggggggg",
"ggggggggX::::X00411660tuuipppi,,iiiuupuutw00999>X::::Xgggggggg",
"ggggggggX::::X14111600tuupppyp,,uppuupptww99718>X::::Xgggggggg",
"ggggggggX+::+X4111480tuupupupy,,upupuytt000979q>X+:::Xgggggggg",
"ggggggggX++:+X1111400tupuppppp,,uuututtw099990w<X+:+:Xgggggggg",
"ggggggggX++:+X111100rtypipttty,,turutt00749640q>X+++:Xgggggggg",
"ggggggggX++++X111100rtttttttyt,,urrrrrq0879000t<X++++Xgggggggg",
"ggggggggX++++X00660ttytyytttrr,,rrrtt000118900w<X++++Xgggggggg",
"ggggggggX++++X6660rrrrrrrrrrrr,,rrrr000411800ww>X++++Xgggggggg",
"ggggggggX++++X0600trrrrrrrrrqr,,rrqw006644800ww<X++++Xgggggggg",
"ggggggggX+++XX6880rrrrrrrrrqwt,,wt0000069090000<X++++Xgggggggg",
"ggggggggX+++X...................................X++++Xgggggggg",
"gggggggg.XXX ................................... XXXX.gggggggg",
"gggggggggggggggggggggggggggggggggggggggggggggggggggggggggggggg",
"gggggggggggggggggggggggggggggggggggggggggggggggggggggggggggggg",
"gggggggggggggggggggggggggggggggggggggggggggggggggggggggggggggg",
"gggggggggggggggggggggggggggggggggggggggggggggggggggggggggggggg",
"gggggggggggggggggggggggggggggggggggggggggggggggggggggggggggggg",
"gggggggggggggggggggggggggggggggggggggggggggggggggggggggggggggg"
};
