/* XPM */
static char *e11675970366[] = {
/* columns rows colors chars-per-pixel */
"62 62 130 2 ",
"   c None",
".  c #FE6544",
"X  c #FE6746",
"o  c #FE6947",
"O  c #FE6A47",
"+  c #FE6948",
"@  c #FD6B48",
"#  c #FD6A49",
"$  c #FD6B49",
"%  c #FE6A48",
"&  c #FE6B48",
"*  c #FE6A49",
"=  c #FE6B49",
"-  c #FD6B4A",
";  c #FE6B4A",
":  c #FF6B4A",
">  c #FD6C49",
",  c #FE6C48",
"<  c #FE6C49",
"1  c #FF6C49",
"2  c #FE6D49",
"3  c #FE6C4A",
"4  c #FF6C4A",
"5  c #FE6D4A",
"6  c #FF6D4A",
"7  c #FE6D4B",
"8  c #FE6E4A",
"9  c #FE6E4B",
"0  c #FF6E4B",
"q  c #FE6F4B",
"w  c #FE6F4C",
"e  c #FF6F4C",
"r  c #FE704C",
"t  c #FF704C",
"y  c #FE704D",
"u  c #FF714D",
"i  c #FE724D",
"p  c #FE734D",
"a  c #FE724E",
"s  c #FE734E",
"d  c #FF734E",
"f  c #FE734F",
"g  c #FE744E",
"h  c #FF744E",
"j  c #FE754E",
"k  c #FF744F",
"l  c #FF754F",
"z  c #FE764F",
"x  c #FF7550",
"c  c #FE7650",
"v  c #FE7651",
"b  c #FF7751",
"n  c #FE7852",
"m  c #FF7852",
"M  c #FF7953",
"N  c #FE7A53",
"B  c #FF7A53",
"V  c #FF7B54",
"C  c #FF7C54",
"Z  c #FF7C55",
"A  c #FE7D55",
"S  c #FF7D55",
"D  c #FF7E56",
"F  c #FE7F56",
"G  c #FF7F56",
"H  c #FE7F57",
"J  c #FF8057",
"K  c #FF8157",
"L  c #FF8158",
"P  c #FF8258",
"I  c #FF8259",
"U  c #FF8359",
"Y  c #FF845A",
"T  c #FF855B",
"R  c #FF875C",
"E  c #FF895C",
"W  c #FF885D",
"Q  c #FF895D",
"!  c #FF8A5D",
"~  c #FE895E",
"^  c #FF8A5E",
"/  c #FF8C5F",
"(  c #FF8C60",
")  c #FE8D60",
"_  c #FF8D60",
"`  c #FF8D61",
"'  c #FF8E61",
"]  c #FF9062",
"[  c #FF9063",
"{  c #FF9163",
"}  c #FF9364",
"|  c #FF9565",
" . c #FF9566",
".. c #FF9766",
"X. c #FF9968",
"o. c #FF9B6A",
"O. c #FF9C69",
"+. c #FF9C6A",
"@. c #FF9C6B",
"#. c #FF9D6B",
"$. c #FFA06D",
"%. c #FFA06E",
"&. c #FFA26F",
"*. c #FFA36F",
"=. c #FFA46F",
"-. c #FFA570",
";. c #FFAA73",
":. c #FFA974",
">. c #FFAA75",
",. c #FFAC74",
"<. c #FFAC75",
"1. c #FFAC76",
"2. c #FFAF79",
"3. c #FFB078",
"4. c #FFB178",
"5. c #FFB47B",
"6. c #FFB57D",
"7. c #FFB67D",
"8. c #FFB684",
"9. c #FFBE86",
"0. c #FFC083",
"q. c #FFC287",
"w. c #FFD094",
"e. c #FFD294",
"r. c #FFD495",
"t. c #FFD696",
"y. c #FFD598",
"u. c #FFDFA1",
"i. c #FFE4A9",
"p. c #FFEEAE",
/* pixels */
"                                                                                                                            ",
"                                                                                                                            ",
"                                                                                                                            ",
"                                                                                                                            ",
"                                                                                                                            ",
"                                                                                                                            ",
"                                                                                                                            ",
"                                                                                                                            ",
"                                                                                                                            ",
"                                                                                                                            ",
"                                                                                                                            ",
"                                                            - - 1                                                           ",
"                                                        - - - - 1                                                           ",
"                                                      - - 1 1 O -                                                           ",
"                                                      - 1 7 1 1 -                                                           ",
"                                                      1 - 1 1 1 -                                                           ",
"                                                      1 1 - 1 1 -                                                           ",
"                                                      - 1 - - 1 -                                                           ",
"                                                        O - - -                                                             ",
"                                                        1 - O -     1 1 - O                                                 ",
"                                    O - -               O - O 1     1 7 1 - O                                               ",
"                                  - - - - O               - 1 1     s b b s 1 - 1 1                                         ",
"                                    - - O -         r   O - 1 1     - N N g O 1 - -                                         ",
"                                                    N g r g U 1     O 1 s s - - - 1                                         ",
"                                            - 1 - O N U A U W 1       - O - 1 - - 1                                         ",
"                                          - 1 1 1 1 s A U X.A - O     - O - O - -                                           ",
"                                          - N b s N A ) | U g   O O   O O -                                                 ",
"                                          - V U W #.{ X.0.) .           O                                                   ",
"                                          - 1 1 g Y / <.<.W E W N                                                           ",
"                                          - 1 b / =.5.-.#.2.t.<.K 1 U s                                                     ",
"                                          - 7 g A 1.t.9.q.w.w.) - - s 1   -                                                 ",
"                                          - - 1 g 8.p.w.7.-.-.W A O                                                         ",
"                                          1 Y $.7.i.u.<.V A W ) K O                                                         ",
"                                          1 $.<.<.7.1.4.;.K r g g                   -   - 1                                 ",
"                                          - b U ) #.) W 5.#.N W 1   O -           1 1 1 - -                                 ",
"                                        -   - - U $.K 1 { ..7 K R 1 O           - 1 1 - -                                   ",
"                                      - s 1   - V R A 1   s   g N 7 - O 1 -     - 1 g 1 -                                   ",
"                                        1 1     1 - 1 1       1 1 7   1 O - -     1 r O                                     ",
"                                          - - - -           - -         1 - O     - O -                                     ",
"                                            - - -           - -         - - s     - - -                                     ",
"                                                                        - 1 g 1 O 1 - -                                     ",
"                                                    - -                   - 1 - -                                           ",
"                                    1 O - - - 1         -                   - -                                             ",
"                                    - - s U V g -                               - O -                                       ",
"                                    - - b @.| A 1 1                                                                         ",
"                                        s | #.W 7 - -                       1 -                                             ",
"                                          s N g O - -                                                                       ",
"                                          - O - O - 1                   O - -                                               ",
"                                            - -                                                                             ",
"                                                                                                                            ",
"                                                                                                                            ",
"                                                                                                                            ",
"                                                                                                                            ",
"                                                                                                                            ",
"                                                                                                                            ",
"                                                                                                                            ",
"                                                                                                                            ",
"                                                                                                                            ",
"                                                                                                                            ",
"                                                                                                                            ",
"                                                                                                                            ",
"                                                                                                                            "
};
