/* XPM */
static char *e21675970366[] = {
/* columns rows colors chars-per-pixel */
"62 62 67 1 ",
"  c None",
". c #FE6645",
"X c #FE6947",
"o c #FE6B49",
"O c #FE724E",
"+ c #FF7650",
"@ c #FF7B53",
"# c #FF8057",
"$ c #FF845A",
"% c #FF8A5E",
"& c #FF8E61",
"* c #FF9464",
"= c #FF9867",
"- c #FF9C6B",
"; c #FFA16E",
": c #FFA470",
"> c #FFAB75",
", c #FFAD79",
"< c #FFB077",
"1 c #FFB37A",
"2 c #FFB87E",
"3 c #FFB782",
"4 c #FFBE82",
"5 c #FFC485",
"6 c #FFC68A",
"7 c #FFCC8C",
"8 c #FFD18F",
"9 c #FFCD91",
"0 c #FFC99A",
"q c #FFD592",
"w c #FFDA95",
"e c #FFD49A",
"r c #FFDD99",
"t c #FFE39C",
"y c #FFEB9F",
"u c #FFD1A7",
"i c #FFDBA4",
"p c #FFD6A9",
"a c #FFDCAA",
"s c #FFE4A3",
"d c #FFEBA4",
"f c #FFE4AC",
"g c #FFECAB",
"h c #FFF2A6",
"j c #FFF4AD",
"k c #FFF9AE",
"l c #FFE7B4",
"z c #FFEDB3",
"x c #FFEBBB",
"c c #FFF4B2",
"v c #FFF9B4",
"b c #FFF4BD",
"n c #FFFBBC",
"m c #FFEFC5",
"M c #FFEDCC",
"N c #FFF4C4",
"B c #FFFBC5",
"V c #FFF1CA",
"C c #FFFBCD",
"Z c #FFEDD3",
"A c #FFFCD3",
"S c #FFFDDD",
"D c #FFF2E5",
"F c #FFFFE4",
"G c #FFFFEC",
"H c #FFFEF3",
"J c #FFFFFC",
/* pixels */
"                                                              ",
"                                                              ",
"                                                              ",
"                                                              ",
"                           ooooo                              ",
"                          ooooooo                             ",
"                          ooooooo                             ",
"                         oooooooo                             ",
"                         oooooooo                             ",
"                         oooooooo                             ",
"                        ooooooooo                             ",
"                        ooooooooo                             ",
"                         Xoooooo     Xo                       ",
"                         oXooooo   ooO@O                      ",
"                         oXXooo   o@$*-%oo                    ",
"                      oXXoooooo   +-<22-$ooo                  ",
"              oXooooXXOOoXXXXXoX X@>686<*Oooo                 ",
"             oXoooooXO&;%@OooOOo X$>5qw4-Oooo                 ",
"             oooooOoo%<183;$o@@o o$>6qq2%oooo                 ",
"              oooo+o#188cbr<@@Oo X@-<><-@oooo                 ",
"                ooO$;8yhBSnr<-oo Xo@@$@OoXooo                 ",
"                 oO&2wyykAvgt7@XX.XooOoooooo                  ",
"                 o-4thw8wcgcj>XX.Xo$OooXX                     ",
"                o$>5rdr8w6skw@ XXXo@@OX                       ",
"               o@-*>gjgs7>sd*. .X oo@+X                       ",
"               o$;;<qedd5582$$o@@@$ooOo                       ",
"              oO*>1<26wrr84>;l,57aa-$@oo                      ",
"              o@*>28wtkvhtyrxGxmbxCw5%OooXoo                  ",
"              o@*:1qr588snBcNFFViwcs75*OO@@X                  ",
"              oo$*>1125fNczefSGAe<fC3->%O-1$                  ",
"                o@%;6sdFGj7rAHJGBaZF9*2;%>q<O                 ",
"                oo@;dgtlASxclMDHGGxe,@=<;55>O                 ",
"                ooO&64<:5NHAesmJHSe*$@OO@*#$OOXoo             ",
"                ooo@-1>%-9GJVBbxNCm2-*%$o&++++ooo             ",
"                oooo@&:-$uHHpsjfrbBtr176&%%=#OOoo             ",
"                oooooo$*&9auCzfBbc85s7nc5@$;;#@oo             ",
"                o+oooo@@@:&,d60CAf>>cNjrr$O;>$+O              ",
"                 oOOo  ++@+&;&$e6>%%iBw87@%>&#o               ",
"                  ooooo   +@@+@=$@=<sgBnr@$*%$o               ",
"                   ooo      +o@&O@1446zfi@o$$*@               ",
"                             oOoOoO@-wwiM>&--;@               ",
"                        oX    oo@o$*2trbvw>;*$O               ",
"               ooooo    o X    oX@=1qdhvgq;@@oX               ",
"              oooo@oo     oXo  oX$;<7tdnf*oooo                ",
"              ooo$&$@oo         X$->5r874-OXX                 ",
"              ooo&-*$oooo       XO%-5yt7-%@o                  ",
"               oo&>:*@ooo       XO$$;7wt>@XXo                 ",
"                o@==*$OoXo      ooO%-:<1*oX o                 ",
"                 oo++ooooX     ooXo:44>-$X                    ",
"                  oooooooo     XXoo@%2>&+oo                   ",
"                  oooXoooo     oooooo@$oooO                   ",
"                  oo           ooXooooo                       ",
"                               oo                             ",
"                                                              ",
"                                                              ",
"                                                              ",
"                                                              ",
"                                                              ",
"                                                              ",
"                                                              ",
"                                                              ",
"                                                              "
};
