/* XPM */
static char *e31675970366[] = {
/* columns rows colors chars-per-pixel */
"62 62 69 1 ",
"  c None",
". c #FE6746",
"X c #FE6947",
"o c #FE6B49",
"O c #FF724D",
"+ c #FF7651",
"@ c #FF7B54",
"# c #FE7F59",
"$ c #FF8057",
"% c #FF845A",
"& c #FF8A5E",
"* c #FF8D61",
"= c #FF9364",
"- c #FF9967",
"; c #FF9468",
": c #FF9C6A",
"> c #FFA26E",
", c #FFA571",
"< c #FFAB74",
"1 c #FFAE79",
"2 c #FFB077",
"3 c #FFB47B",
"4 c #FFB97E",
"5 c #FFB683",
"6 c #FFBD82",
"7 c #FFC385",
"8 c #FFC589",
"9 c #FFCC8C",
"0 c #FFD18E",
"q c #FFC392",
"w c #FFCE92",
"e c #FFD493",
"r c #FFDB95",
"t c #FFD39B",
"y c #FFDD9A",
"u c #FFE49D",
"i c #FFE89E",
"p c #FFD6A5",
"a c #FFDDA1",
"s c #FFDDAF",
"d c #FFDDB4",
"f c #FFE5A2",
"g c #FFEBA3",
"h c #FFE2AB",
"j c #FFECAC",
"k c #FFF1A5",
"l c #FFF4AB",
"z c #FFFAAD",
"x c #FFE4B4",
"c c #FFECB5",
"v c #FFE4B8",
"b c #FFEDBB",
"n c #FFF3B4",
"m c #FFFAB4",
"M c #FFF4BB",
"N c #FFFCBC",
"B c #FFECC5",
"V c #FFF4C3",
"C c #FFFDC3",
"Z c #FFF4CB",
"A c #FFFDCC",
"S c #FFFDD4",
"D c #FFF7DA",
"F c #FFFEDC",
"G c #FFF6E0",
"H c #FFFEE3",
"J c #FFFFEB",
"K c #FFFFF4",
"L c #FFFFFC",
/* pixels */
"                              o                               ",
"                          oooooo                              ",
"                          oooooo                              ",
"                         ooooooo                              ",
"                         ooooooo                              ",
"                        ooooooooo                             ",
"                        ooooooooo                             ",
"                        ooooooooo                             ",
"                       Xooooooooo     oXoo                    ",
"                       XoooooXoo     ooOOooo                  ",
"                    XXXXoXXoooo     O+@&&+ooo                 ",
"                   oOooXoXoXooo    +=::<>@Ooo                 ",
"                  .O&=%OXooOooo   o@<2262=@OXo                ",
"               o XO&,3>&$@O+oOoX  o%16696>%Ooo                ",
"            ooOoXo*<4762>&@@@@OX Xo=68999:@oooo               ",
"           XoO%@O%2890er03>%$%@. oo=47772;@ooXo               ",
"           Xo@%%=279eikmNiu4<>*X  o#:<<<:%+oooo               ",
"           XoO&%>77rkzzmFCAnmf2o   o+@%%@+ooooo               ",
"            XO$%,77ukzzNKKKKHu4+o  oooo+ooooooo               ",
"            XoO%>49eiiilJLKLJj3@ooooooooooooooo               ",
"            Xoo$>0fljrruCHHJSj2%o+O#+Ooooo    o               ",
"           ooXO%7NFHAyrizVKLH0<&o++##++O+    oooo             ",
"          oXXo+-rCSHSglNkMKLA9><*#*%#***;## oo+oo             ",
"          ooO$=2rgmJHSHHnALJn9ei86t>#;,<1*++o@%+o             ",
"         oXo%>26ulSHSJHSnMSAFBjSbVC5#><:;*%+o@:*oo            ",
"         oO@=<00uALLFHAAnjNMKHMHKJS8*<:&:6<%@$>>@XX           ",
"         o@&,6eukSLLJHSASvemLLGGBbhw5>@@:ww::,,:@XX           ",
"         oo%<9reumKLHClVLDw9SLLLvMcp77:%>5225:%#OX            ",
"         ooO%20rkCKLKCCAJJx3VHLLHNCJM449h73fh6%ooX            ",
"         XoXo+&4mCJLLKLKAcVBDSHLDhZLDtyjlceemg<%o             ",
"         ooOXX%7mCFLJKLLJcbKHKLLKJLLKjlmNCl6umu-o             ",
"           Ooo+>jCNSANMFLJDJKKLLLLLLKyfgMcie9yn6O o           ",
"           o@@%=3eNFNgeaZHHHGHLLLLLHAVmgAt:490Nf%ooo          ",
"            o@&=@=wVCm9=<VHJJKLKLLHHHJFVGB<6c7yf>ooo          ",
"             oO@o%-4fN8=6ZAAZHKJLKMSKLLJDAt6M6,7>oX           ",
"              o@&-&O&486lh6cKKKLLLDDLLLLJSq=004<>@o           ",
"               @4<&O+:40f4%fHLLLLLKSSLLLJJd@&7>-:@o           ",
"               %:>;&@<6<3%$4fMSLSvDVAKKKLHe$%>>@oX            ",
"               ;:173><<::%&4jg9bMwcAHKKKLH9O%<>+o             ",
"               =;:,<<78<$O+<mt6if0VKLFFLLKh$O-,=+             ",
"               %@@@-:7MM2OX@6y49u7xHKKHJJKb*.@%+oo            ",
"                  o%-<cme:oO%=<>,-2cSSKHCSy<%--*@o            ",
"                  OO@;9u76@Xo+:,-@#6gCKAnAmr<34=@o            ",
"              ooooXXo@==@&*&@@$%%O@3glCnfmm0<,>@oo            ",
"            oooXo+oo.XXX.O%%oO++Oo&9NmNmNNi88>&$o             ",
"            oooO%&&@o.X    X XooX@>7rlmkljf40:@O              ",
"            ooo@;--%ooX       Xoo%<6ezmmiug94$X               ",
"             oX@,,-%OXXX       Xo-69ekzmCny<&O                ",
"              o@:<:=@OXXX      oO-7000gzASm4%#o               ",
"               o@%*&OooXX      oo%,7ijlzCNy1%Oo               ",
"                XoOoXooXX      ooO$:7yNNVf42=o.               ",
"                 oXooXoXo      ooXO%*:8gu843>@o               ",
"                 oXooooXo     .oooo+%%:<>%@@+#                ",
"                 oo           oooooo+#**%Oooo                 ",
"                              ooooooo+++oooo                  ",
"                              oooooooooXo                     ",
"                              oooo  ooo                       ",
"                               o                              ",
"                                                              ",
"                                                              ",
"                                                              ",
"                                                              "
};
