/* XPM */
static char *result[] = {
/* columns rows colors chars-per-pixel */
"62 62 100 2 ",
"   c #70C0A0",
".  c #6FC09F",
"X  c #6ABE9C",
"o  c #44B182",
"O  c #53B68C",
"+  c #6FC0A0",
"@  c #71C0A1",
"#  c #5CB993",
"$  c #40B080",
"%  c #64BC98",
"&  c #71C0A0",
"*  c #78C3A5",
"=  c #83C6AD",
"-  c #75C2A3",
";  c #6DBF9E",
":  c #56B78F",
">  c #5FBA95",
",  c #7CC4A8",
"<  c #82C6AC",
"1  c #72C1A1",
"2  c #7FC5AA",
"3  c #54B78D",
"4  c #69BE9B",
"5  c #9ECFBF",
"6  c #7BC4A8",
"7  c #6EBF9E",
"8  c #8CC9B3",
"9  c #9BCEBC",
"0  c #75C2A4",
"q  c #94CCB8",
"w  c #6EBF9F",
"e  c #79C3A6",
"r  c #54B68E",
"t  c #2DA875",
"y  c #60BA96",
"u  c #77C2A5",
"i  c #7BC4A7",
"p  c #86C7AF",
"a  c #92CBB6",
"s  c #74C1A3",
"d  c #3BAD7F",
"f  c #8DCAB3",
"g  c #73C1A2",
"h  c #5AB991",
"j  c #49B386",
"k  c #6BBE9D",
"l  c #4EB58A",
"z  c #65BC99",
"x  c #45B284",
"c  c #5EBA94",
"v  c #6CBF9E",
"b  c #6CBF9D",
"n  c #6BBE9C",
"m  c #78C3A6",
"M  c #68BD9B",
"N  c #71C1A1",
"B  c #65BC98",
"V  c #2DA876",
"C  c #58B790",
"Z  c #42B181",
"A  c #5DBA93",
"S  c #4CB389",
"D  c #81C6AB",
"F  c #8AC9B1",
"G  c #7AC3A7",
"H  c #97CDBA",
"J  c #67BD9A",
"K  c #4FB58A",
"L  c #40AF82",
"P  c #28A672",
"I  c #51B58C",
"U  c #53B68D",
"Y  c #4CB488",
"T  c #61BB96",
"R  c #66BD99",
"E  c #66BC9A",
"W  c #5DB994",
"Q  c #22A46E",
"!  c #4FB48B",
"~  c #63BB98",
"^  c #3CAD7F",
"/  c #5BB892",
"(  c #5BB893",
")  c #1BA16A",
"_  c #61BB97",
"`  c #9ACEBC",
"'  c #3DAD80",
"]  c #23A46F",
"[  c #77C2A4",
"{  c #5AB892",
"}  c #64BB98",
"|  c #9ECFBE",
" . c #68BD9A",
".. c #74C1A2",
"X. c #6CBE9D",
"o. c #6FBF9F",
"O. c #47B186",
"+. c #32AA79",
"@. c #46B284",
"#. c white",
/* pixels */
"                .         X o O         + .                       . .       @ # $ % &       . +                       .     ",
"              * = -       ; : >         , < 1                   & 2 2 &     & % 3 4 &     1 < ,                     - = *   ",
"            . = 5 6   @ &     + 7 +     8 9 0   @               @ q q @ & @       w w     0 9 8   @ @             + 6 5 = . ",
"              - 6 1 e q 2 + @ r t y @   u i & 2 q e +             e e   p a s   w d d w   @ i u @ f f @             g 6 -   ",
"                + + e q 2 + @ r t y @     + . 2 q e +             + +   p a s   w d d w     +   @ f f @               +     ",
"                      @ &     . 7             & @                       @ @       w w             @ @                       ",
"        > : ;                   + h h .                   ; : >                   & 4 3 % &                 & % 3 4         ",
"        : j k                   . l l .                   k j :                   & z x c @                 @ c x z &       ",
"      . v k +                   . b b   & @             + . k ;                   + w n 7   @ &             . ; n .         ",
"    - = m                     * = -     % c 7           , < g                   & 2 2 @   7 c %           1 < ,             ",
"  + 6 5 = .                 . = 5 6 +   3 x n + 7 +     8 9 0                   @ q q @   n x 3   w w     0 9 8             ",
"    g 6 -                     - 6 g     4 z   r t y @ & u i @                     e e     . z 4 w d d w   1 i u             ",
"v M M .                         +         & N r t y w B k                         + +       & & w d d w 4 z w               ",
"V C X                                         . 7   B Z A @                                       w w   3 x n               ",
"S M @       + , 8 u +                   D F g       k A M @     @ p p @                   g F D         % c w &     u 8 , + ",
"1 b b       . < 9 G & 0 1               F H - 1 0 @   @ X J .   @ a a @ g - &             - H F   s s   &   J X   + i 9 < . ",
". K l .       1 0 & G 9 < .             g -   < 9 i + & L P J &   s s   F H -             & - g @ a a @ & J P L &   @ 0 1   ",
". h h .           + u 8 , +                 + , 8 u   & I L X           D F g                   @ p p @   X L I &           ",
"@ &     . .                       . .                   & & . .                       . +                   @   .           ",
"q e +   h l b                   . U U .                   b l h                   & J Y T &                 & T Y J &       ",
"q e +   h l b                   . U U .                   b l h                   & J Y T &                 & T Y J &       ",
"@       . .                       . .                     + . .                     + . +                     . .           ",
"            & % 3 4 & &     + , 8 u                     D F g   . h h .   &     @ p p @                   g F D     4 3 % & ",
"            @ c x R w E b   . < 9 i +                   F H -   . l l . X J .   @ a a @                   - H F   & z x c @ ",
"              w n   W Q ! 1 @ g 0 @                     g - &     b b & L P J @ @ s s                     & - g     . n w   ",
"                  @ ~ ^ / . c %                                       & I L X M A k                                         ",
"              & @     @ & n x 3         @ @                       @ @   & & @ A Z B &       @ @                       @ &   ",
"  & &       + 2 q e + +   . z X N       p a s + +               @ f f @   +   k B w @     s a p   + +             + e q 2 . ",
"  J J       + 2 q e 1 6 -   @ M ( k     p a s s 6 g             @ f f @ u i @     y y +   s a p   e e             + e q 2 . ",
". Y Y .       & @   6 5 = . 1 S ) ( @   @ @ . = 5 6 +             @ @   8 9 0   7 t t 7     @ & @ q q @               @ &   ",
". T T +             - = *   & _ S M @         * = -                     , < 1   . r r +         & 2 2 &                     ",
"0 1 &   ; k +         .       & 1 b b           .         + k ;         + .       N   n 7         + +         w n .         ",
"` i +   : j k                   . l l .                   k j :                   & z x c @                 @ c x z &       ",
"8 u     > : ;                   . h h .                   ; : >                     4 3 % &                 & % 3 4         ",
"                              & @ &     . .             @ @ &                     @ @       . .             @ @             ",
"                            + 2 q e +   h l b @ @       p a s                   @ f f @   b l h   @ @     s a p             ",
"                            + 2 q e +   h l b M ( k     p a s                   @ f f @   b l h   y y +   s a p             ",
"@                             & @       . . 1 S ) ( N   @ @                       @ @       . + 7 t t 7   & @ @             ",
"' ~ @                                       & _ S M X 3 % &                                     . r r + > : ;               ",
"] # @         1 0 @                     g - & & 1 @ z x c @       s s                     & - g   @ @   : j k       @ 0 1   ",
"E w @       . < 9 i . .                 F H - + .   . n . 1     @ a a @ + .               - H F   + +   ; k @ @   + i 9 < . ",
"  T T +     + , 8 [ s = *               D F g * = -   & / ! b   @ p p & , < 1             g F D   2 2 &   v ! {     u 8 , + ",
". Y Y .           . 6 5 = .                 . = 5 6 + @ ^ Q E &         8 9 0                   @ q q @ & E Q ^ @           ",
". J J     &         g 6 -         & &         - 6 g     ~ W w &         u i @         &           e e     7 W } @           ",
"6 g     4 z .         +           J J           +       @   R 4           +         ; B k         + +       N b B ;         ",
"| , +   3 x n                   . Y Y .                   n x 3                   & B Z A @                 @ A Z B &       ",
"= -     % c 7                   . T T +                   ; c %                     k A M                      .A k         ",
".       & @   7 n .           1 0 1 &                   g - @ &   b b             s s @                   & - ..@   . n w   ",
"            @ c x z @ 1 &   . < 9 i +                   F H -   . l l . @ 1     @ a a @                   - H F   & z x c @ ",
"            & % 3 X M S _ & + , 8 u                     D F g   . h h   { ! X.  @ p p @                   g F D     4 3 % & ",
"                  N ( ) S 1 . .                                       @ ^ Q E   . +                                         ",
"                +   k ( M b l h           +                       + +   ~ W w T Y J &       +                         +     ",
"              - 6 g   @ @ b l h         u i @                     e e   & @ @ T Y J &     @ i u                     g 6 -   ",
"            . = 5 6 .       .   @       8 9 0 +                 @ q q @       + .   &     0 9 8                   + 6 5 = . ",
". h h .       * = s [ 8 , + @ { ^ ~ @   , < 1 , 8 u             & 2 2   D F g   o.O.O.o.  1 < , & p p @             - = *   ",
". K l .         . . i 9 < . 1 ! Q W @   + . . < 9 i +             + +   F H -   w +.+.w     . + @ a a @               .     ",
". b b   & @         @ 0 1     X.E w @         1 0 @         @ &         g - &     M M &           s s           @           ",
"= -     % c w                     T T +                   w c %                   @ b A M                     M A k         ",
"| , +   3 x n                   . Y Y .                   n x 3                   & B Z A @                 @ A Z B &       ",
"i g     4 z .                   . J J     &               w z 4                     ; B k   &                 k B ;         ",
"+         &                   - , g     4 z .           u i 1                     e e @   . z 4           @ i u &           ",
"                            . = | i +   3 @.n           8 ` 0                   @ q q @   n @.3           0 ` 8             "
};
