/* XPM */
static char *Z3Jhc3M_[] = {
/* columns rows colors chars-per-pixel */
"62 62 134 2 ",
"   c #2C936B",
".  c #2F996F",
"X  c #31946D",
"o  c #369771",
"O  c #389671",
"+  c #359A72",
"@  c #399B74",
"#  c #3D9F78",
"$  c #3EA37B",
"%  c #419F7A",
"&  c #499F7C",
"*  c #43A37D",
"=  c #4CA27E",
"-  c #47A680",
";  c #4CA682",
":  c #43A880",
">  c #4DAA85",
",  c #4FAF89",
"<  c #50A783",
"1  c #53AA85",
"2  c #55AD89",
"3  c #59AE8B",
"4  c #4EB089",
"5  c #54B28C",
"6  c #5AB18D",
"7  c #57B691",
"8  c #5CB591",
"9  c #5BBA94",
"0  c #62B693",
"q  c #6BB697",
"w  c #64B996",
"e  c #6DB799",
"r  c #65BD99",
"t  c #6DBC9C",
"y  c #73B69C",
"u  c #72BB9D",
"i  c #79BA9E",
"p  c #6EBDA0",
"a  c #75BDA1",
"s  c #7ABDA2",
"d  c #65C29D",
"f  c #6CC29F",
"g  c #6EC09F",
"h  c #68C49F",
"j  c #6BC19E",
"k  c #72C19E",
"l  c #6CC3A0",
"z  c #6DC3A0",
"x  c #6EC2A0",
"c  c #6FC3A1",
"v  c #6AC6A1",
"b  c #6DC4A1",
"n  c #6EC4A1",
"m  c #6EC5A2",
"M  c #6FC5A2",
"N  c #6DC7A3",
"B  c #6DC3A0",
"V  c #71C0A0",
"C  c #73C0A0",
"Z  c #75C0A1",
"A  c #74C1A1",
"S  c #77C0A2",
"D  c #75C2A2",
"F  c #73C4A3",
"G  c #70C7A4",
"H  c #72C6A4",
"J  c #75C6A5",
"K  c #73C1A1",
"L  c #79C0A2",
"P  c #7BC0A3",
"I  c #7AC1A3",
"U  c #7BC2A4",
"Y  c #7DC2A5",
"T  c #7CC3A5",
"R  c #7EC3A6",
"E  c #7BC4A6",
"W  c #7DC4A6",
"Q  c #7FC4A7",
"!  c #7EC5A7",
"~  c #7CC1A5",
"^  c #7FC6A8",
"/  c #7EC3A9",
"(  c #7FC8AA",
")  c #80C2A6",
"_  c #81C3A7",
"`  c #80C2A7",
"'  c #80C5A8",
"]  c #82C4A8",
"[  c #83C5A9",
"{  c #81C6A9",
"}  c #82C7AA",
"|  c #83C5AB",
" . c #88C4AA",
".. c #83C8AB",
"X. c #81CAAC",
"o. c #86C8AC",
"O. c #87C9AD",
"+. c #85CCAE",
"@. c #87CCAF",
"#. c #86CDAF",
"$. c #85C9AD",
"%. c #88C8AD",
"&. c #89C9AE",
"*. c #88CAAE",
"=. c #89CBAF",
"-. c #89C8AD",
";. c #86CCB2",
":. c #8BCBB0",
">. c #88CDB0",
",. c #88CFB1",
"<. c #8CCCB1",
"1. c #8ECDB2",
"2. c #8DCFB3",
"3. c #8FCFB4",
"4. c #8BCCB2",
"5. c #90CFB4",
"6. c #90CCB2",
"7. c #8AD1B3",
"8. c #8BD0B5",
"9. c #8FD6B8",
"0. c #8ED2B9",
"q. c #91D1B6",
"w. c #90D2B6",
"e. c #90D1B6",
"r. c #90D7B9",
"t. c #90D5B9",
"y. c #91D8BA",
"u. c #93D8BB",
"i. c #92D9BB",
"p. c #93DABC",
"a. c #95DABD",
"s. c #94DBBD",
"d. c #95DCBE",
"f. c #96DDBF",
/* pixels */
"t g g g t k p k k u u k u i u V u i +.u.u.p.9.#.I k i u k u u i ) i u k k k u k t t g g t t h j r t n G J F A A u k u i A R ",
"t x V x V V V V k k k u k k i A u i @.a.d.d.r.,.I i i s I i u k k u u i k i i k k g t g x j j l h j t r r t t u i k A a I R ",
"V V g V k A V V i k u k i k a a u i ,.d.d.d.p.7.E A i k A u u A i i u i i u u k V V k g x l x l n l l h j j t t k k k k I R ",
"u g t u u A V u k k u u u u i k i s +.r.9.r.9.,.I i k a i i a U k i u k i t u k V V t j l n j r h h v v n M n x e u i i s R ",
"t u u e u u u u u u u u u u u u k u E X.( X.+.( k i u i i u k R [ _ _ _ ) u u k k t t d j h r 8 4 4 , 5 9 r t j e u u u i i ",
"t e t u u t t u u e e u u y y u u e t i u u D i i i u i u u I ]  .:.o.o.) u u u u g t t j j w 2 $ + + o * 5 w l j k u t e i ",
"u u e u u u u u u u y u e u u u u e t u e e u e t e u u y u i ..:.1.5.6._ k e u u t t r j l 9 - + .     # , r l j k u e y y ",
"e u u u u u u u u u u e u u u u u e t k e u i e e e u u e u A ..1.6.q.q. .k e e g k g r x l 8 * .     . $ 7 9 v t t e q y i ",
"u e u u e u u e u u u q t u u u u k u t u u u t u u u u y y i ) 1.2.5.2.o.k u e t t t t f f 8 = .       + 5 d l t t x y y u ",
"u u e u u u u u u k k t u t u t u t t t u u t u u e u u y e k k  .-.1.=. .k u u t t t r k k 0 = + .     $ 7 d l r t t t u u ",
"u u u u u u t t u u u t t j t t q j q j u q q t u u u i u y i k )  . . .) i u e e k u t j k 0 3 : $ $ $ > 9 r l r t t u u u ",
"t u e u u t t t q j q u t t t e t t k q j k u k u e u u u y y i i ) k k k k u y u u k t k j k 0 9 9 7 9 9 r h r t t t t t t ",
"t t t t u t t t j q t j t r t r t j k t q k q q e k y k u y e i u u y y y u y u t u u u k e k k l v h h j h j t r t t t t t ",
"t t t t k t t t j j j j t j j j j q j q j q k k k e e y u y y y u u y y u u u u e u u e e e e e t r t l l t r t t t e t t q ",
"t t t t t r t t k j w w w d j j r j j t e k k e y e e k k y e i u y e e u u u u e e e e y e y y t r r l r w w t r e r t t t ",
"t t t t t t j t w w w 0 0 0 w w t t t t j k e k k e e e y y e k u u y u u k u u k u u u k y k u p j t x t w w w w w w r r j ",
"t w t t t t j q t 0 3 1 1 2 6 w q t t u k q k q k t k u q k t t u u u q k q j j t t u u u y y k j j d 0 j 6 = 6 = 6 6 w f d ",
"t k t t k t t t t 0 1 < ; ; 5 8 j t t k q u t k t t q u k q u t q u j u j k q t t t u u e k k e q j d j j 8 = = = = 6 d j d ",
"k t k t t t t t t 8 1 < ; < 5 6 u t t u t u t k t t t k k q t t u u t j q t t t q t q k u y y u j j j j j = = = 6 = 6 w d r ",
"u k u k u t e e p q 0 3 3 6 6 0 q t t k t t t q t u u u u k u u u u t k j t j t k t t t e k y k = j j k k q 1 1 6 0 0 q j r ",
"u t u u e u e e y e q q w w w t q k t t t t q k u k t t q t t t q k q q t t t j j t u j e u y e ) k k q k q 0 t j 0 w j x t ",
"t t u u y u u y y t e t k j j j q j k u t u k u q t t k k t t t u u k u t t t j t t u u u u u u k k k q u k u k k q q k t r ",
"y u u u u y y y u y t u j t r t t t t t u u q t k u u q q k k u u u t t t t t q t t t t y u y u e i q q u u k k k q k j t e ",
"u u y y i i i i i u u u u t t j q k k t t u k t k q u j k q u u u u t t t t j t t t t t u u u e i k i e u u e u t k e u a t ",
"u u y i k ) i i i i u e u k t t q k u k q k t t j u q k u j u u u u q k t q t t g t e t y e e i ) y k i u e y u y a t p p y ",
"u u u )  . .:.:.o.) i u u t t t j q u u k u u t q u u k q k k q u u k q j j j j t e t u u u a Y O. .=.2.o.) i i e y t y t a ",
"u u i ) o.6.6.q.6. .k i t t j r j t t t q k k t k t t u u t q k u u t t t t t q t e t k u u U X.,.1.5.5.6.k u e y t y e t t ",
"e e t k o.6.6.6.&. .) u t t j r t t t t t t q k t t t t u t t j t u u u t t t j t t g k y e U $.1.=.1.=.[ i y y y p p p t t ",
"q u y k [ =.6.6.=. .i u q t j w t u q k t u u q q k u j u k j u t u t t t t j t t t t k y e s X.4.6.6.6.-.Y u u a y y e t t ",
"k t i ) o.=.6.6.6. .k i k j j j u u u j t t u k k q u k u q q u t t u t t t t t r t t u p y s  .4.6.4.e.=.) i y p e t t t p ",
"k t t k ) o. .o. .) i u t j d w j k q k t t t t j u u q t t k q u t u r t t t t t r t t p y s s s |  . .` a u y y e t p p p ",
"t t u u i i i i s i u e r j j j t q u t k q k k q u u u u t j k t u t t t t j t u t e t p y p y s s y a a t i s p a p p p p ",
"e u u u u i i i u y u y u q j j p p q q p p p q p e p e t t u u t t t p t t p t t t r p t t t y a i y u y u y a u u t a t t ",
"t u u k u u u i u u u u u u k q y p p p p q q p p p p p u t t t t t t t t t r p t p t t t p t p y u y i u y u y y t t t t a ",
"q j q t u u u e u u t t t t t j p p p p q p e p e p p e y t t t p t t p t p p t t p t p t t y t u y u y i y t y y t y t y t ",
"w w 0 w r t t t u e u t t j j q p y y p p p y p p e p p t t t t t t t t t t t t t t t t p t y p y a y u y u a t a y t a t t ",
"5 5 5 6 w j t t j q j j t j j t p y y y y p p y t y t t p t t t t t t t t p p t t t p t t p t t y y u y a t t y t t a t y t ",
"4 = 1 6 8 r d t j j t q j q r t / y y p y p y p p t t t t t t t p t t a t y t t p t t t t t t t t a y a t y u u t u t y t a ",
"= = 4 5 0 r j j t t t u t t t t y y y y y p y p y p t p t t t p t a t t t t y y e p t t t p p t u y y y y t p u a y t t t a ",
"> = ; 5 w d t t t t t u t u t u y y y / y y y y y t t t p t p r t t t y p y p t e t p t t t t t t t a t t a y t t t a t y t ",
"1 < 1 6 0 w q w t q e e u u i u y / y y y / y y p y y p p q y p e t y y t t t t p p p t t p t t t p t y p y a t t t t t t t ",
"w 0 6 0 q t t t j k u u i u u i s y y y / | | | / p p p p p y p t a a a y t y a t y t t t t t t t t t t y t t y t t y a y t ",
"a t t t t g t t t t u u u u u u y y y y / | 0.0.;./ p y p p y p a y y t t y t t t t t t t t p t t p p t p y p t y y a t a t ",
"u k u g t t g g q t t t y u u i y y y / | 0.0.0.;./ p y y p p a i t e e y a y y y p y p t p t t t t t t t t t u t t y t t e ",
"e t g V j j g F j j j t u k u k p y y y | 0.0.0.;./ a y s y y y a y y y a a y t t y p e t t e p r p t t t t t t t t t y t t ",
"e g V x j w w w w j j j j q q u p y y / / ;.;.;.;.| / a y y y s a i a a a y y t y p y t p t p r t p p t t p y t y p p y y y ",
"t g g w 6 ; = 1 2 6 d j j j j q y p y / / / | | | | / y y y s s Y Y / Y a a t q p y t p p t p r p r t p p t t p p y t y y p ",
"g x r 6 * o + + @ * 2 d d j d d y y p y / y y s y y y y y y s  .,.8.8.,.X.a y t y t t t t t t p t t t t t t t t t t t t t y ",
"r x l 7 * X   X   * 9 d d d d t t u p p t y p p p p s a y y i  . .4.0.;./ a a p t p p p p p p p p p p e p p p e p p p p p p ",
"r l l 7 #     . . * 9 v d d j r t p a p p p p t t a a a y y i  .:.0.0.8.X.a p p p p p r t p e p p y p p p p p p p p r p e p ",
"j l h 5 % X       * 5 d d d j t y a t t t t y t t t y a i y s  .4.0.t.8.X.a p e p t t p t t t p y t t t r p t e t r t p p p ",
"j l j 8 - O O X @ - 7 d d d d e t y y t p y p t u t t u y y i  .%.4.4.;.| a p e t t t t t p t t p y y p p e p p t h t t y t ",
"j l t 9 6 > > > ; 6 w d j t t t y u y u y a t t p t u a u y y I s | / | s a p t t t p t u t t u t a t t t p t r j t t t t t ",
"r r r h r r 9 d d d d g t q t u u y p t y t y t a a a V u e t i y y a s a a t a t t t t t u t t y t t p r p r p r t t t t t ",
"t t r j l l l l k h t t t t u u u y y u t t p y a t t a u t e u y i y y y t t a t t t t u u u t t t t t p t p r t d t t t u ",
"j t t t j t r w r q w t e u u I y a p y y a y t u t t u a t u k y i p e e t t t t t t t e u t q y p t p r p r p j t j t t t ",
"t t t t t j t g e q t q e e i u t u V u u e u u u t t t u t t t u i u e u t t u t q t e u u e u t a t e k k f j j j j r q j ",
"t t t t t t u j t t e q q q q q t u k u e e e u t t t u t t t u t y u u u t u t t r t t u u u u t t t r w r w 0 8 w w t t j ",
"t t e t u t u g u u t e e e e q u k u V u t u u u u u u k u u k u u u u u u u k t t u j u u i t e t t e 0 8 6 6 < 6 w g j q ",
"u u y t u t u i u t u u t u t k V V V V k i u k k k i k i k k i a k i A V k g u k k k u u u u u t t g r q 6 = = & 1 w j k q ",
"i k i A i k a A k k k u k g V F n g k k k k k i k i k k i k k k k k i k k k k k k k k i u k i u t t k j 0 1 = = = 1 0 t j q ",
"s A k i s A s A I I F k t t t g j j j j k k k k k k i k k k k k k i k k k k k k k k k k k u u t t j k j 0 3 = = = 3 w r j j "
};
