/* XPM */
static char *result[] = {
/* columns rows colors chars-per-pixel */
"68 62 77 1 ",
"  c #A70101",
". c #A90101",
"X c #AC0902",
"o c #B20101",
"O c #BC0101",
"+ c #BA0902",
"@ c #B31303",
"# c #B61B04",
"$ c #BF1804",
"% c #B92F07",
"& c #BE3D09",
"* c #C40000",
"= c #CA0201",
"- c #D40000",
"; c #DD0100",
": c #D81403",
"> c #E40000",
", c #EC0200",
"< c #F00000",
"1 c #FF0000",
"2 c #FF0A01",
"3 c #FE1503",
"4 c #FE1C04",
"5 c #C52206",
"6 c #D22706",
"7 c #D32906",
"8 c #D83F0A",
"9 c #FE2204",
"0 c #FE2D07",
"q c #FF3307",
"w c #FF3508",
"e c #FE3A08",
"r c #C84A0A",
"t c #D7490B",
"y c #D65E0D",
"u c #FC4509",
"i c #FF4D0B",
"p c #ED540D",
"a c #ED5A0E",
"s c #FF550C",
"d c #FE5C0D",
"f c #CE6A0E",
"g c #D6690F",
"h c #D57410",
"j c #FD650E",
"k c #FD6F0F",
"l c #FD730F",
"z c #FF6710",
"x c #F36A10",
"c c #FF6E11",
"v c #F67310",
"b c #FF7311",
"n c #FE7D12",
"m c #DB8412",
"M c #DD9514",
"N c #E98D13",
"B c #F08613",
"V c #FE8313",
"C c #FD8B13",
"Z c #E49C15",
"A c #FE9315",
"S c #FD9A15",
"D c #FDA516",
"F c #FDAA17",
"G c #FDAE18",
"H c #FDB217",
"J c #FDB218",
"K c #FCBD19",
"L c #EEC019",
"P c #FCC31A",
"I c #FCCD1B",
"U c #FBD31C",
"Y c #FBDC1D",
"T c #FBE41E",
"R c #FBE91E",
"E c #FBEA20",
"W c None",
/* pixels */
"WWWWWWWWWWWWWWWWWWWWWWWWWWWWWWWWWWWWWWWWWWWWWWWWWWWWWWWWWWWWWWWWWWWW",
"WWWWWWWWWWWWWWWWWWWWWWWWWWWWWWWWWWWWWWWWWWWWWWWWWWWWWWWWWWWWWWWWWWWW",
"WWWWWWWWWWWWWWWWWWWWWWWWWWWWWWWWWWWWWWWWWWWWWWWWWWWWWWWWWWWWWWWWWWWW",
"WWWWWWWWWWWWWWWWWWWWWWWWWWWWWWWWWWWWWWWWWWWWWWWWWWWWWWWWWWWWWWWWWWWW",
"WWWWWWWWWWWWWWWWWWWWWWWWWWWWWWWWWWWWWWWWWWWWWWWWWWWWWWWWWWWWWWWWWWWW",
"WWWWWWWWWWWWWWWWWWWWWWWWWWWWWWWWWWWWWWWWWWWWWWWWWWWWWWWWWWWWWWWWWWWW",
"WWWWWWWWWWWWWWWWWWWWWWWWWWWWWWWWWWWWWWWWWWWWWWWWWWWWWWWWWWWWWWWWWWWW",
"WWWWWWWWWWWWWWWWWWWWWWWWWWWWWWWWWWWWWWWWWWWWWWWWWWWWWWWWWWWWWWWWWWWW",
"WWWWWWWWWWWWWWWWWWWWWWWWWWWWWWWWWWWWWWWWWWWWWWWWWWWWWWWWWWWWWWWWWWWW",
"WWWWWWWWWWWWWWWWWWWWWWWWWWWWWWWWWWWWWWWWWWWWWWWWWWWWWWWWWWWWWWWWWWWW",
"WWWWWWWWWWWWWWWWWWWWWWWWWWWWWWWWWWWWWWWWWWWWWWWWWWWWWWWWWWWWWWWWWWWW",
"WWWWWWWWWWWWWWWWWWWWWWWWWWWWWWWWWWWWWWWWWWWWWWWWWWWWWWWWWWWWWWWWWWWW",
"WWWWWWWWWWWWWWWWWWWWWWWWWWWWWWWWWWWWWWWWWWWWWWWWWWWWWWWWWWWWWWWWWWWW",
"WWWWWWWWWWWWWWWWWWWWWWWWWWWWWWWWWWWWWWWWWWWWWWWWWWWWWWWWWWWWWWWWWWWW",
"WWWWWWWWWWWWWWWWWWWWWWWWWWWWWWWWWWWWWWWWWWWWWWWWWWWWWWWWWWWWWWWWWWWW",
"WWWWWWWWWWWWWWWWWWWWWWWWWTWWWWWWWWWWWWWWWWWWWWWWWWWWWWWWWWWWWWWWWWWW",
"WWWWWWWWWWWWWWWWWWWWWWWWTWWWWWWWWWWWWWWWWWWWWWWWWWWWWWWWWWWWWWWWWWWW",
"WWWWWWWWWWWWWWWWWWWWWWWWWWWWWWWWWWWWWWWWWWWWWWWWWWWWWWWWWWWWWWWWWWWW",
"WWWWWWWWWWWWWWWWWWWWWWWWWWWWWWWWWWWWWWWWWWWWWWWWWWWWWWWWWWWWWWWWWWWW",
"WWWWWWWWWWWWWWWWWWWWWWWWWWWWTTWWWWWWWWWWWWWWWWWWWWWWWWWWWWWWWWWWWWWW",
"WWWWWWWWWWWWWWWWWWWWWWWWWWWWWTTTTWWWWWWWWWWWWWWWWWWWWWWWWWWWWWWWWWWW",
"WWWWWWWWWWWWWWWWWWWWWWWWWWWqsWWTTWWWWWWWWWWWWWWWWWWWWWWWWWWWWWWWWWWW",
"WWWWWWWWWWWWWWWWWWWWWWWWWW211uWWTWWWWWWWWWWWWWWWWWWWWWWWWWWWWWWWWWWW",
"WWWWWWWWWWWWWWWWWWWWWWWWWRS21jTTTTWWWWWWWWWWWWWWWWWWWWWWWWWWWWWWWWWW",
"WWWWWWWWWWWWWWWWWWWWWWWWTTTj9CRTTTTWWWWWWWWWWWWWWWWWWWWWWWWWWWWWWWWW",
"WWWWWWWWWWWWWWWWWWWWWWWTYJACDYISPTTTWWWWWWWWWWWWWWWWWWWWWWWWWWWWWWWW",
"WWWWWWWWWWWWWWWWWWWTTTTYBxAPIDnbGUKIYTTTWWWWWWWWWWWWWWWWWWWWWWWWWWWW",
"WWWWWWWWWWWWWWWWWWPTTTYhrZZgtaaNUTPFFKTTTTWWWWWWWWWWWWWWWWWWWWWWWWWW",
"WWWWWWWWWWWWWWWWTTTYKDyX8%X  @mYLg73wbPETTTWWWWWWWWWWWWWWWWWWWWWWWWW",
"WWWWWWWWWWWWWWWWTTPVbp+=-    &Mg# .*;4nYTTTTPIWWWWWWWWWWWWWWWWWWWWWW",
"WWWWWWWWWWWWWWWWTTCcc6>11;*-;;=>-o  .,3CTTTTPWWWWWWWWWWWWWWWWWWWWWWW",
"WWWWWWWWWWWWWWWWTYVbp,11111111111,o O113DTTKWWW1WWWWWWWWWWWWWTTWWWWW",
"WWWWWWWWWWWWTWWWTYVbu1111111111111>.o,22lTTHWW11WWWWWWWWWWTTTTWWWWWW",
"WWWWWWWWWWWWWWWWTESbi11111111112111- ;4jITTTTWknWWTTTWWW1WWWWWWWWWWW",
"WWWWWWWWWWWWWWWWWTKbz411111111111111*o<qURTTWWWEWWTTTTW11WWWWWWWWWWW",
"WWWWWWWWWWWWWWWWWTTJns2421eC91111111- *0IIUTWWWWWTTTTRW1WWWWWWWWWWWW",
"WWWWWWWWWWWWWWWWWWTTUGnD41dRb111111;o $vF0eWWWWWWTTYTWWWWWWWWWWWWWWW",
"WWWWWWWWWWWWWWWWWWTTTTTUjubTV111111O 5xF013SWWWWWTYKWWWWWW11WWWWWWWW",
"WWWWWWWWWWWWWWWWWWTTTTTTDbbDC211111:8jADukHTWWWWWWWWWWWWWW11jTTEWWWW",
"WWWWWWWWWWWWWTWWWWWTWTTTJcccbsw00eijzdVGTYWWWWWWWWWWWWWWWWWWWWWWWWWW",
"WWWWWWWWWWWWWWWWWWWWWWTTUAbcbbbcbbbcbVPUTPWWWWWWWWWWWWWWWWWWWWWWWWWW",
"WWWWWWWWWWWWWWWWWWWWWWTTTYJVbVnbbbVAKYTTTWWWWWWWWWWWWWWWWWWWWWWWWWWW",
"WWWWWWWWWWWWWWWWWWWWWWWTTTTUFAPIIIYETTTTTWWWWWWWWWWWWWWWWWWWWWWWWWWW",
"WWWWWWWWWWWWWWWWWWWWWWWWTTTTTTETFCDITTTWWWWWWWWWWWWWWWWWWWWWWWWWWWWW",
"WWWWWWWWWWWWWWWWWWTTWWWWWWETTWWW211dTTWWWWWWWWWWWWWWWWWWWWWWWWWWWWWW",
"WWWWWWWWWWWWWWWWWWTTTTWWWWWWWWWWW1eSTTWWWWWWWWWWWWWWWWWWWWWWWWWWWWWW",
"WWWWWWWWWWWWWWWWWTWWTTTWWWWWWWWWWWWWWWWWWWWWWWWWWWWWWWWWWWWWWWWWWWWW",
"WWWWWWWWWWWWWWWWWTEWWTTTWWWWWWWWWWWWWWWWWWWWWWWWWWWWWWWWWWWWWWWWWWWW",
"WWWWWWWWWWWWWWWWWWWWWWTTTWWWWWWWWWWWWWWWWWWWWWWWWWWWWWWWWWWWWWWWWWWW",
"WWWWWWWWWWWWWWWWWWWWWWWTTTTTWWWWWWWWWWWWWWWWWWWWWWWWWWWWWWWWWWWWWWWW",
"WWWWWWWWWWWWWWWWWWWWWWWWWWWWWWWWWWWWWWWWWWWWWWWWWWWWWWWWWWWWWWWWWWWW",
"WWWWWWWWWWWWWWWWWWWWWWWWWWWWWWWWWWWWWWWWWWWWWWWWWWWWWWWWWWWWWWWWWWWW",
"WWWWWWWWWWWWWWWWWWWWWWWWWWWWWWWWWWWWWWWWWWWWWWWWWWWWWWWWWWWWWWWWWWWW",
"WWWWWWWWWWWWWWWWWWWWWWWWWWWWWWWWWWWWWWWWWWWWWWWWWWWWWWWWWWWWWWWWWWWW",
"WWWWWWWWWWWWWWWWWWWWWWWWWWWWWWWWWWWWWWWWWWWWWWWWWWWWWWWWWWWWWWWWWWWW",
"WWWWWWWWWWWWWWWWWWWWWWWWWWWWWWWWWWWWWWWWWWWWWWWWWWWWWWWWWWWWWWWWWWWW",
"WWWWWWWWWWWWWWWWWWWWWWWWWWWWWWWWWWWWWWWWWWWWWWWWWWWWWWWWWWWWWWWWWWWW",
"WWWWWWWWWWWWWWWWWWWWWWWWWWWWWWWWWWWWWWWWWWWWWWWWWWWWWWWWWWWWWWWWWWWW",
"WWWWWWWWWWWWWWWWWWWWWWWWWWWWWWWWWWWWWWWWWWWWWWWWWWWWWWWWWWWWWWWWWWWW",
"WWWWWWWWWWWWWWWWWWWWWWWWWWWWWWWWWWWWWWWWWWWWWWWWWWWWWWWWWWWWWWWWWWWW",
"WWWWWWWWWWWWWWWWWWWWWWWWWWWWWWWWWWWWWWWWWWWWWWWWWWWWWWWWWWWWWWWWWWWW",
"WWWWWWWWWWWWWWWWWWWWWWWWWWWWWWWWWWWWWWWWWWWWWWWWWWWWWWWWWWWWWWWWWWWW"
};
