/* XPM */
static char *result[] = {
/* columns rows colors chars-per-pixel */
"62 62 21 1 ",
"  c #202020",
". c #4B4F52",
"X c #981000",
"o c #991000",
"O c #B83010",
"+ c #C03010",
"@ c #CB3223",
"# c #C84020",
"$ c #D04020",
"% c #D84828",
"& c #E14525",
"* c #E54C2C",
"= c #E84C2C",
"- c #EC4F2F",
"; c #E05931",
": c #E35931",
"> c #E76038",
", c #EA6038",
"< c #EE643B",
"1 c #C95E56",
"2 c None",
/* pixels */
"22222222222222222222222222222222222222222222222222222222222222",
"22222222222222222222222222222222222222222222222222222222222222",
"22222222222222222222222222222222222222222222222222222222222222",
"22222222222222222222222222222222222222222222222222222222222222",
"22222222222222222222222222222222222222222222222222222222222222",
"22222222222222222222222222222222222222222222222222222222222222",
"22222222222222222222222222222222222222222222222222222222222222",
"22222222222222222222222222222222222222222222222222222222222222",
"222222222222222o%%%%%%%%%%%%%%%%%%%%%%%%%%%%%%o222222222222222",
"22222222222222X%%%%%--------------------%%%%%%%X22222222222222",
"22222222222222X%%%%-<<<<<<<<<<<<<<<<<<<<---%%%%X22222222222222",
"2222222222222XX%%%-<<------------------<<<<-%%%XX2222222222222",
"2222222222222X$$$==,======================,,=$$$X2222222222222",
"222222222222X$$$=,,,=$$$$$$$$$$$$$$$$$$$$==,,=$$$X222222222222",
"22222222222X###*>>**#XXXXXXXXXXXXXXXXXXXX#**>**###X22222222222",
"22222222222X++&::&++X                    X#&&::&++X22222222222",
"22222222222X+&::&++                       X#&&::++X22222222222",
"2222222222X++:&&+XX                        XX#+::++X2222222222",
"222222222X++::++X                            X#+:+++X222222222",
"222222222X+::OOX                              X#;;OOX222222222",
"222222222X+:+OOX                              X#O;;OX222222222",
"222222222X+:++X                                XOO;OX222222222",
"222222222X+:+X                                 XOO;OX222222222",
"222222222X+:+X                                 XOO;OX222222222",
"222222222X+:+X                                  XO;OX222222222",
"222222222X+:+X                                  XO;OX222222222",
"222222222X+:+X                                  XO;OX222222222",
"222222222X+:+X                                  XO;OX222222222",
"222222222X+:+X                                  XO;OX222222222",
"222222222X+:+X                                  XO;OX222222222",
"222222222X+:+X                                  XO;OX222222222",
"222222222XX:+X                                  XO;OX222222222",
"222222222X+:+X                                  XO;OX222222222",
"222222222X+:+X                                  XO;OX222222222",
"222222222X+:+X                                  XO;OX222222222",
"222222222++:+X                                  XO;OOX22222222",
"222222222++:+X                                  XO;OOX22222222",
"222222222++:+X                                  XO;OOX22222222",
"222222222++:+X                                  XO;OOX22222222",
"222222222++:+X                                  XO;OOX22222222",
"222222222++:+X                                  XO;OOX22222222",
"222222222++:+X                                  XO;OOX22222222",
"222222222++:+X                                  XO;OOX22222222",
"222222222++11X                                  XO111X22222222",
"2222222221111X                                  X1111X22222222",
"2222222221111X                                  X1111X22222222",
"222222222@11@X                                  X@111X22222222",
"222222222@@1@X                                  X@1@1X22222222",
"222222222@@1@X                                  X@@@1X22222222",
"222222222@@@@X                                  X@@@@X22222222",
"222222222@@@@X                                  X@@@@X22222222",
"222222222@@@@X                                  X@@@@X22222222",
"222222222@@@@X                                  X@@@@X22222222",
"222222222@@@XX                                  X@@@@X22222222",
"222222222@@@X...................................X@@@@X22222222",
"22222222222222222222222222222222222222222222222222222222222222",
"22222222222222222222222222222222222222222222222222222222222222",
"22222222222222222222222222222222222222222222222222222222222222",
"22222222222222222222222222222222222222222222222222222222222222",
"22222222222222222222222222222222222222222222222222222222222222",
"22222222222222222222222222222222222222222222222222222222222222",
"22222222222222222222222222222222222222222222222222222222222222"
};
