/* XPM */
static char *_93deb38ca974fe091f37cf709f64896bEt41Kt7misdsl2g[] = {
/* columns rows colors chars-per-pixel */
"62 62 57 1 ",
"  c None",
". c #040404",
"X c #070808",
"o c #0B0C0C",
"O c #0E0F10",
"+ c #131313",
"@ c #161718",
"# c #171818",
"$ c #1B1B1B",
"% c #221F19",
"& c #242019",
"* c #1E1F20",
"= c #1F2020",
"- c #222323",
"; c #272828",
": c #2D2E2E",
"> c #2F3030",
", c #323334",
"< c #3D3D39",
"1 c #3F4141",
"2 c #424344",
"3 c #464748",
"4 c #474849",
"5 c #484949",
"6 c #4F4F50",
"7 c #535555",
"8 c #565959",
"9 c #595B5B",
"0 c #5E5F60",
"q c #5F6061",
"w c #636465",
"e c #666768",
"r c #666868",
"t c #6A6C6C",
"y c #6E6F70",
"u c #6E7070",
"i c #737475",
"p c #767778",
"a c #777879",
"s c #7A7C7C",
"d c #7D7F80",
"f c #7E8080",
"g c #858683",
"h c #898985",
"j c #868789",
"k c #86898A",
"l c #8C8C89",
"z c #8F908C",
"x c #91918E",
"c c #8D8F90",
"v c #8F9192",
"b c #939494",
"n c #979895",
"m c #999A97",
"M c #969798",
"N c #969899",
"B c #9D9E9C",
/* pixels */
"                                                              ",
"                                                              ",
"                                                              ",
"gllglgglhlhhlggllhhlhhhhlghllhglgllhlhhhglglhhhllhhlghglhhhhlg",
"gnBmbllxzxlllhlxllhxlxxxnnmBBBBBnnnxnbbbbmxnxlllhhhlhhhghghlhg",
"gxnzllghglhhggglghglghhhhhhlggghghghhlhllxhlhhhlghghghhhhhghgg",
"<<<<<<<<<<<<<<<<<<<<<<<<<<<<<<<<<<<<<<<<<<<<<<<<<<<<<<<<<<<<<<",
":::::::::::::::;:::::::::::::::::::::::;::::::::::::::::::::::",
"2ttyrt<:................................................2ttytt",
"9fgayi9,................................................7sgauu",
"qgseww7<................................................qgsrre",
"wstwwq7,................................................qsywqq",
"estwww7:................................................edtwww",
"tftrre9,................................................tftetw",
"tgtrttw:..................X.X....X......................tjyttt",
"ehirtt8-............XX.XX.XXX...X.XXXX..................wjurtt",
"ejittu9$.........XXXXXXXXXXXXXXXXXXXXXXXXXXXX...........rkiuuu",
"wliiiiw$.....XXX..XXXXXXXXXXXXXXXXXXXXXXXXXXXXXX........rkiuuu",
"tcsaasw$...XXXXXX.XXXXXXXXXXXXXXXXXXXXXXXXXXXXXXXXX.....tcsadf",
"rcasase+..XXXXXXXXX.XXXXXXXXXXXXXXXXXXXXXXXXXXXXXX......rcaaps",
"evsaast+....XXXXX.XXXXXXXXXXoXoXXXXXXXXXXXXXXXXXXXX..X..evssas",
"ebssdsyO...XXXXXXXXXXXXXXXXXXXXXXXoXXXoXXXXXXXXXX.XXXXX.rvssds",
"wvspsat+..X.XXXXXXXXXXXXoXXooooooXXXXooXXXXXXXXXXXX.X.X.wvspsa",
"wbspssy#...XXXXoXXXXoooooooooooooooooooooXXoXXoXX.XXX..Xwvspsa",
"rNspssu=..X.XXXXXooooooooooooooooooooooooooXXXoXX.XXXXX.rNspss",
"qbgasatO..XXXoXoooooooooooooooooooooooooooooooXXXXXXXXX.qbgssa",
"wMjpsau#.XXXoooXoXooooooooooo+ooooooooooXooooooooXXXXXX.qNjpss",
"wMjpsdu=XXXXooooooo+ooooooooooo+oo+oooooooooooooooXoXXX.wMhpds",
"wbkpapt=XXoooXooooo+o+oo+o+o++ooo+ooo+oooooo+oooooooXXXXwbjapp",
"wbkssst=XXXoo+ooooooo+o+o+o++o+++++++o+oo++ooooooooooo.Xwbksas",
"qMkpppu=XXXooo+oo++oo++o+++o+++o+oo++o+++oo+oooooooooXXXwblppa",
"qbkpppu-XXooo+oo+o+++o++++++o++++++++++o+++o+o+ooooooooXwbkaip",
"rvfsppu;XXooOOO++o+++o+++o+++++++O++O++++O+O+oOO+ooooooXexgppp",
"uvfsapu=XoooO++OO++++++o+++++++++++++++O+++OO+OOo++ooooXyxsspp",
"ubapuiu=Xooo+O+OO++++++++O++++++++++++++O+O+++++ooo++ooXibppiy",
"ubiauuy=XoOOOO+++++++++++%++++@#++++++++++++O+O++++oooootbipit",
"rvuuuuw*oooO++O+++++#+++++@###@@###+@@+@+O+++++O+++++oooebyyyy",
"qktttt9=ooOO+++++++#+####%@@##@@##@@@@#@#%++++++o++o+ooo0htytt",
"9srtww7$ooo+++++++#####$#@#@#@@@%@@@@####++++++++++++ooo9pteee",
"8fuwww3*ooo++++++########%#%%@%@@%#%%###@%###++++O+++ooo7gywww",
"4jvdip,-ooO++++#####$$#$#$#$$$$$$$@$$#$@$#####++++++OO+o4jbfpp",
":pddiy#-ooo++%####$$$#$#$$$$$$$$$$$$$$$$#$$######+++++oo:pffuu",
"$**,21>:oo++#####$$$$$$$$$$$$$$$$$$$$$$$$$#$$#%+#+#O+Ooo$*=>21",
"<tsgpe0-oo+++##%$$#$$$$$$**%$$=$*%%$$$$$%#$#$#$####++OOo<tpjpt",
"<iddsw7-oO++#$$$$$$$$$*$*$=$$=$$$*****$$$$$$#%@$####@OOo<ifdpq",
";dieww9%oO+#%#$#$$$$$*$*$=====-=***$$***$$$$$$$$#$$#@+OO;dirrw",
"-jitytq%O++#$$$$$$$$**=%========-*********$$$$@$$##@@+OO;fitty",
";cdiup9%o++###$$$**=$*====-==-==-********%%$$$$$#$$@@@OO;cdiui",
":bjipp8$O++##%$$*$$$-$---&--=----*---*-%=*%*$$*##$####OO:Mjsps",
":bjddd8#o++#$$$*$--$--=&-----------*--**==****$#$$$$$@+O>vfdss",
":vjpps6$O+##$$$$$*=-=-==--------------*-=-==$%**$$$$%++O>vgpss",
":Mjipp5#O++#$%**---=-==;----------;------====**$$$$####O>vjiip",
":cjppp2$O+@#$$*==**--=-------;-------;----===**%*$*#$#+O:vgpaa",
"-dgpps2%O+@#=**=-----;----;---;-;-;---------==***$$$###O-sgpaa",
"-idiii<%o+#$**-=-=-----;-;-;;--;-;-;--------=--%$*$$%#++;idiii",
";rattt<*++@$$==-----;----;--;;;;;-;-;;-------=--*$%$$#+O;rattt",
":0siyw2$                                                >wpitr",
"<6etwq<O                                                <6rtwq",
"+@@*$$@+                                                @@@*$$",
"                                                              ",
"                                                              ",
"                                                              "
};
