/* XPM */
static char *_54282a7c9fc4aebe4fc732515eec716ECru2ultScajAvkC[] = {
/* columns rows colors chars-per-pixel */
"62 62 21 1 ",
"  c None",
". c black",
"X c #373737",
"o c #503018",
"O c #403040",
"+ c #384040",
"@ c #784040",
"# c #70514E",
"$ c #C03838",
"% c #885028",
"& c #B05048",
"* c #E87060",
"= c #C89800",
"- c #D89870",
"; c #D8A078",
": c #406888",
"> c #F8D0B8",
", c #A8A0C8",
"< c #B8B0D0",
"1 c #B8B8D8",
"2 c #E8E8F8",
/* pixels */
"                                                              ",
"                                                              ",
"                                                              ",
"                                                              ",
"                                                              ",
"                                                              ",
"                        OOOOOOOOOOOOOO                        ",
"                        OOOOOOOOOOOOOO                        ",
"                    OOOO**************OOOO                    ",
"                    OOOO**************OOOO                    ",
"                  OO&&******************&&OO                  ",
"                  OO&&******************&&OO                  ",
"                  OO&&******************&&OO                  ",
"                  OO**********************OO                  ",
"                  OO**********************OO                  ",
"                  OO**********************OO                  ",
"                ..OO**********************OO..                ",
"                OO&&&&******222222******&&&&OO                ",
"                OO&&&&******222222******&&&&OO                ",
"                ..&&&&&&&&1122&&2211&&&&&&&&..                ",
"                ..&&&&&&&&1122&&2211&&&&&&&&..                ",
"                ..&&&&&&&&11&&&&&&11&&&&&&&&..                ",
"                ..&&&&&&&&11&&&&&&11&&&&&&&&..                ",
"                ..OO&&111111111111111111&&OO..                ",
"              oo..OO&&111111111111111111&&OO..oo              ",
"              oo..OO&&111111111111111111&&OO..oo              ",
"              ..--##OOOO11222222222211OOOO##--..              ",
"              ..--##OOOO11222222222211OOOO##--..              ",
"              ..--XX########OOOOOO########XX--..              ",
"              ..--XX########OOOOOO########XX--..              ",
"                ..XX;;##;;XX;;;;;;XX,,##;;XX..                ",
"                ..XX;;##;;XX;;;;;;XX,,##;;XX..                ",
"                  ..;;;;22..>>>>>>..22;;;;..                  ",
"                  ..;;;;22..>>>>>>..22;;;;..                  ",
"                    ..;;>>>>>>>>>>>>>>;;..                    ",
"                    ..;;>>>>>>>>>>>>>>;;..                    ",
"                    ..##;;>>>>;;>>>>;;##..                    ",
"                    ..##;;>>>>;;>>>>;;##..                    ",
"                  ..++==##XX;;;;;;XX##==++..                  ",
"                  ..++==##XX;;;;;;XX##==++..                  ",
"                @@++++==$$<<XXXXXX<<$$==++++@@                ",
"                @@++++==$$<<XXXXXX<<$$==++++@@                ",
"              @@>>;;++%%$$$$<<++<<$$$$%%++;;>>@@              ",
"              @@>>;;++%%$$$$<<++<<$$$$%%++;;>>@@              ",
"              @@>>>>....@@$$<<++<<$$@@....>>>>@@              ",
"              @@>>>>....@@$$<<++<<$$@@....>>>>@@              ",
"                @@@@..::..............::..@@@@                ",
"                @@@@..::..............::..@@@@                ",
"                    ..++++::::++::::++++..                    ",
"                    ..++++::::++::::++++..                    ",
"                    ..$$$$..........$$$$..                    ",
"                    ..$$$$..........$$$$..                    ",
"                      ....          ....                      ",
"                      ....          ....                      ",
"                                                              ",
"                                                              ",
"                                                              ",
"                                                              ",
"                                                              ",
"                                                              ",
"                                                              ",
"                                                              "
};
