/* XPM */
static char *player_right1675628286[] = {
/* columns rows colors chars-per-pixel */
"62 62 32 1 ",
"  c black",
". c #882840",
"X c #403040",
"o c #503018",
"O c #C03838",
"+ c #384040",
"@ c #784040",
"# c #885028",
"$ c #B05048",
"% c #406888",
"& c #E87060",
"* c #9890B0",
"= c #C89800",
"- c #D8A078",
"; c #B8B0D0",
": c #F8D0B8",
"> c #E8E8F8",
", c white",
"< c None",
"1 c black",
"2 c black",
"3 c black",
"4 c black",
"5 c black",
"6 c black",
"7 c black",
"8 c black",
"9 c black",
"0 c black",
"q c black",
"w c black",
"e c black",
/* pixels */
"<<<<<<<<<<<<<<<<<<<<<<<<<<<<<<<<<<<<<<<<<<<<<<<<<<<<<<<<<<<<<<",
"<<<<<<<<<<<<<<<<<<<<<<<<<<<<<<<<<<<<<<<<<<<<<<<<<<<<<<<<<<<<<<",
"<<<<<<<<<<<<<<<<<<<<<<<<<<<<<<<<<<<<<<<<<<<<<<<<<<<<<<<<<<<<<<",
"<<<<<<<<<<<<<<<<<<<<<<<<<<<<<<<<<<<<<<<<<<<<<<<<<<<<<<<<<<<<<<",
"<<<<<<<<<<<<<<<<<<<<<<<<<<<<<<<<<<<<<<<<<<<<<<<<<<<<<<<<<<<<<<",
"<<<<<<<<<<<<<<<<<<<<<<<<<<<<<<<<<<<<<<<<<<<<<<<<<<<<<<<<<<<<<<",
"<<<<<<<<<<<<<<<<<<<<<<<<<<<<<<<<<<<<<<<<<<<<<<<<<<<<<<<<<<<<<<",
"<<<<<<<<<<<<<<<<<<<<<<<XXXXXXXXXXXXXX<<<<<<<<<<<<<<<<<<<<<<<<<",
"<<<<<<<<<<<<<<<<<<<<<<<XXXXXXXXXXXXXX<<<<<<<<<<<<<<<<<<<<<<<<<",
"<<<<<<<<<<<<<<<<<<<XXXX&&&&&&&&&&&&$$XX<<<<<<<<<<<<<<<<<<<<<<<",
"<<<<<<<<<<<<<<<<<<<XXXX&&&&&&&&&&&&$$XX<<<<<<<<<<<<<<<<<<<<<<<",
"<<<<<<<<<<<<<<<<<XX$$&&&&&&&&&&&&&&&&$$XX<<<<<<<<<<<<<<<<<<<<<",
"<<<<<<<<<<<<<<<<<XX$$&&&&&&&&&&&&&&&&$$XX<<<<<<<<<<<<<<<<<<<<<",
"<<<<<<<<<<<<<<<<<XX&&&&&&&&&&&&&&&&&&&&XX<<<<<<<<<<<<<<<<<<<<<",
"<<<<<<<<<<<<<<<<<XX&&&&&&&&&&&&&&&&&&&&XX<<<<<<<<<<<<<<<<<<<<<",
"<<<<<<<<<<<<<<<XX$$&&&&&&&&&&&&&&&&&&&&;;XX<<<<<<<<<<<<<<<<<<<",
"<<<<<<<<<<<<<<<XX$$&&&&&&&&&&&&&&&&&&&&;;XX<<<<<<<<<<<<<<<<<<<",
"<<<<<<<<<<<<<<<XX$$&&&&&&&&&&&&&&&&&&>>$$%%XX<<<<<<<<<<<<<<<<<",
"<<<<<<<<<<<<<<<XX$$&&&&&&&&&&&&&&&&&&>>$$%%XX<<<<<<<<<<<<<<<<<",
"<<<<<<<<<<<<<<<XX$$$$&&&&&&&&&&&&&&$$>>$$>>>>XX<<<<<<<<<<<<<<<",
"<<<<<<<<<<<<<<<XX$$$$&&&&&&&&&&&&&&$$>>$$>>>>XX<<<<<<<<<<<<<<<",
"<<<<<<<<<<<<<<<XX$$$$$$$$$$$$$$$$$$$$$$;;>>>>XX<<<<<<<<<<<<<<<",
"<<<<<<<<<<<<<<<XX$$$$$$$$$$$$$$$$$$$$$$;;>>>>XX<<<<<<<<<<<<<<<",
"<<<<<<<<<<<<<<<XX$$$$$$$$$$$$$$$$$$$$$$..>>;;XX<<<<<<<<<<<<<<<",
"<<<<<<<<<<<<<<<XX$$$$$$$$$$$$$$$$$$$$$$..>>;;XX<<<<<<<<<<<<<<<",
"<<<<<<<<<<<<<<<ooXX$$$$$$$$$$$$$$$$$$..;;;;XX<<<<<<<<<<<<<<<<<",
"<<<<<<<<<<<<<<<ooXX$$$$$$$$$$$$$$$$$$..;;;;XX<<<<<<<<<<<<<<<<<",
"<<<<<<<<<<<<<<<oo##XXXXXXXXXXXXXXXXXX++XXXX<<<<<<<<<<<<<<<<<<<",
"<<<<<<<<<<<<<<<oo##XXXXXXXXXXXXXXXXXX++XXXX<<<<<<<<<<<<<<<<<<<",
"<<<<<<<<<<<<<<<<<oo########oo##oo@@**  @@@@<<<<<<<<<<<<<<<<<<<",
"<<<<<<<<<<<<<<<<<oo########oo##oo@@**  @@@@<<<<<<<<<<<<<<<<<<<",
"<<<<<<<<<<<<<<<<<  oo####oo----oo-->>  --@@<<<<<<<<<<<<<<<<<<<",
"<<<<<<<<<<<<<<<<<  oo####oo----oo-->>  --@@<<<<<<<<<<<<<<<<<<<",
"<<<<<<<<<<<<<<<<<<<oo####oo------::::::::--<<<<<<<<<<<<<<<<<<<",
"<<<<<<<<<<<<<<<<<<<oo####oo------::::::::--<<<<<<<<<<<<<<<<<<<",
"<<<<<<<<<<<<<<<<<<<<<    ##oo------::::@@<<<<<<<<<<<<<<<<<<<<<",
"<<<<<<<<<<<<<<<<<<<<<    ##oo------::::@@<<<<<<<<<<<<<<<<<<<<<",
"<<<<<<<<<<<<<<<<<<<<<oo==oooooo--@@@@@@<<<<<<<<<<<<<<<<<<<<<<<",
"<<<<<<<<<<<<<<<<<<<<<oo==oooooo--@@@@@@<<<<<<<<<<<<<<<<<<<<<<<",
"<<<<<<<<<<<<<<<<<<<oo======##==;;;;@@<<<<<<<<<<<<<<<<<<<<<<<<<",
"<<<<<<<<<<<<<<<<<<<oo======##==;;;;@@<<<<<<<<<<<<<<<<<<<<<<<<<",
"<<<<<<<<<<<<<<<<<<<  ##====  ++++  OO++<<<<<<<<<<<<<<<<<<<<<<<",
"<<<<<<<<<<<<<<<<<<<  ##====  ++++  OO++<<<<<<<<<<<<<<<<<<<<<<<",
"<<<<<<<<<<<<<<<<<<<  ==####  ++++++  ++<<<<<<<<<<<<<<<<<<<<<<<",
"<<<<<<<<<<<<<<<<<<<  ==####  ++++++  ++<<<<<<<<<<<<<<<<<<<<<<<",
"<<<<<<<<<<<<<<<<<<<  ##==      ++::::  ++<<<<<<<<<<<<<<<<<<<<<",
"<<<<<<<<<<<<<<<<<<<  ##==      ++::::  ++<<<<<<<<<<<<<<<<<<<<<",
"<<<<<<<<<<<<<<<<<<<..    ++%%%%  --::  ..  <<<<<<<<<<<<<<<<<<<",
"<<<<<<<<<<<<<<<<<<<..    ++%%%%  --::  ..  <<<<<<<<<<<<<<<<<<<",
"<<<<<<<<<<<<<<<<<  OO..++%%          ....  <<<<<<<<<<<<<<<<<<<",
"<<<<<<<<<<<<<<<<<  OO..++%%          ....  <<<<<<<<<<<<<<<<<<<",
"<<<<<<<<<<<<<<<<<  OOOOOO  <<<<<<<<<<    <<<<<<<<<<<<<<<<<<<<<",
"<<<<<<<<<<<<<<<<<  OOOOOO  <<<<<<<<<<    <<<<<<<<<<<<<<<<<<<<<",
"<<<<<<<<<<<<<<<<<<<      <<<<<<<<<<<<<<<<<<<<<<<<<<<<<<<<<<<<<",
"<<<<<<<<<<<<<<<<<<<      <<<<<<<<<<<<<<<<<<<<<<<<<<<<<<<<<<<<<",
"<<<<<<<<<<<<<<<<<<<<<<<<<<<<<<<<<<<<<<<<<<<<<<<<<<<<<<<<<<<<<<",
"<<<<<<<<<<<<<<<<<<<<<<<<<<<<<<<<<<<<<<<<<<<<<<<<<<<<<<<<<<<<<<",
"<<<<<<<<<<<<<<<<<<<<<<<<<<<<<<<<<<<<<<<<<<<<<<<<<<<<<<<<<<<<<<",
"<<<<<<<<<<<<<<<<<<<<<<<<<<<<<<<<<<<<<<<<<<<<<<<<<<<<<<<<<<<<<<",
"<<<<<<<<<<<<<<<<<<<<<<<<<<<<<<<<<<<<<<<<<<<<<<<<<<<<<<<<<<<<<<",
"<<<<<<<<<<<<<<<<<<<<<<<<<<<<<<<<<<<<<<<<<<<<<<<<<<<<<<<<<<<<<<",
"<<<<<<<<<<<<<<<<<<<<<<<<<<<<<<<<<<<<<<<<<<<<<<<<<<<<<<<<<<<<<<"
};
