/* XPM */
static char *_4962b5387f54e7ab66957843f373f24BafstbbyjFvobKo0[] = {
/* columns rows colors chars-per-pixel */
"62 62 32 1 ",
"  c None",
". c black",
"X c #000001",
"o c #000008",
"O c #090909",
"+ c #291829",
"@ c #2A1D2B",
"# c #1C2426",
"$ c gray13",
"% c #232223",
"& c #4D3123",
"* c #5E3820",
"= c #633129",
"- c #313142",
"; c #313047",
": c #563D57",
"> c gray26",
", c #CE4239",
"< c #9C4242",
"1 c #844252",
"2 c #E25253",
"3 c #FF635A",
"4 c #C48558",
"5 c #C58759",
"6 c #F5C5A5",
"7 c #F6C6A7",
"8 c #94ADC6",
"9 c #BDCEE7",
"0 c #DEE6EF",
"q c #EAE9F5",
"w c gray97",
"e c white",
/* pixels */
"                                                              ",
"                                 OO                           ",
"                                 OO                           ",
"                               OOwwOO                         ",
"                             OOwwwwOO                         ",
"                           OO99999999OO                       ",
"                         XXXXXXXX88XXXXXX                     ",
"                         XXXXXXXX88XXXXXX                     ",
"                     XXXX88999999999988XXXXXXXX               ",
"                   XX::8899wwwwwwww9988888899wwXX             ",
"                   XX::8899wwwwwwww9988888899wwXX             ",
"                 XX::8899wwwwwwwwwwww99888888XX               ",
"                 XX::8899wwwwwwwwwwww99888888XX               ",
"                 XX8899wwwwwwwwwwwwwwww9988XXOO               ",
"               XX::8899wwwwwwwwwwwwwwww9988::XX               ",
"               XX::11999999wwwwwwww99999911::XX               ",
"               oo3311889988999999998899881133oo               ",
"               oo3311889988999999998899881133oo               ",
"             ++<<3333118888999999998888113333<<++             ",
"             ++<<<<333333888888888888113333<<<<++             ",
"             ++<<<<333333888888888888113333<<<<++             ",
"             ++<<<<<<333300ee3333ee003333<<<<<<++             ",
"             ++<<<<<<<<330000eeee000033<<<<<<<<++             ",
"             ++<<<<<<<<330000eeee000033<<<<<<<<++             ",
"               oo++<<<<<<330000000033<<<<<<++oo               ",
"               oo++<<<<<<330000000033<<<<<<++oo               ",
"               ++66++++++==<<<<<<<<==++++++66%%               ",
"               ++44%%**qq%%55555555%%qq**%%45XX               ",
"               ++44%%**qq%%45444544%%qq**%%44XX               ",
"               ++44%%**qq%%54444554%%qq**%%45XX               ",
"                 XX%%45qqXX76666666XXqq45%%XX                 ",
"                   %%**6666666666666666**%%                   ",
"                   XX**6666666666666666**XX                   ",
"                     **6666666666666666**                     ",
"                       XX556644546655XX                       ",
"                     XX--XXXX****XXXX--XX                     ",
"                     XX--XXXX****XXXX--XX                     ",
"               &&XXXX77XX,,,,====,,,,XX77XXXX&&               ",
"               &&XXXX77XX,,,,====,,,,XX67XXXX&&               ",
"             &&,,;;77XX  @@--,,,,--@@  XX76;;,,&&             ",
"             &&,,;;67XX  @@--,,,,--@@  XX77;;,,&&             ",
"             &&,,<<XX    @@$$----$%@@    XX<<,,&&             ",
"             &&,,<<XX    @@$$----$%@@    XX<<,,&&             ",
"               XXXX    @@,,==----==,,XX    XXXX               ",
"               XXXX    @@,,==----==,,XX    XXXX               ",
"                       XX%%>>>>>>>>$%;;                       ",
"                       XX$$>>>>>>>>$%;;                       ",
"                       XX$$$$$$$$$$$%XX                       ",
"                       XX%$$$$%$$$$$$XX                       ",
"                       XX$$$$XXXX$$$$XX                       ",
"                       XX$$%$XXXX%$$%XX                       ",
"                     XX%$$$XX####XX$%;;XX                     ",
"                     XX%%%$XX####XX%$;;XX                     ",
"                   ##XX2222XX####XX2222XX##                   ",
"                   ##XX2222XX####XX2222XX##                   ",
"               ########XXXX########XXXX########               ",
"               ########XXXX########XXXX########               ",
"               ################################               ",
"               ################################               ",
"                   ########################                   ",
"                   ########################                   ",
"                         ############                         "
};
