/* XPM */
static char *player_top1675628286[] = {
/* columns rows colors chars-per-pixel */
"62 62 16 1 ",
"  c black",
". c #882840",
"X c #403040",
"o c #503018",
"O c #C03838",
"+ c #384040",
"@ c #784040",
"# c #885028",
"$ c #B05048",
"% c #406888",
"& c #E87060",
"* c #C89800",
"= c #D8A078",
"- c #F8D0B8",
"; c white",
": c None",
/* pixels */
"::::::::::::::::::::::::::::::::::::::::::::::::::::::::::::::",
"::::::::::::::::::::::::::::::::::::::::::::::::::::::::::::::",
"::::::::::::::::::::::::::::::::::::::::::::::::::::::::::::::",
"::::::::::::::::::::::::::::::::::::::::::::::::::::::::::::::",
"::::::::::::::::::::::::::::::::::::::::::::::::::::::::::::::",
"::::::::::::::::::::::::::::::::::::::::::::::::::::::::::::::",
"::::::::::::::::::::::::::::::::::::::::::::::::::::::::::::::",
"::::::::::::::::::::::::::::::::::::::::::::::::::::::::::::::",
"::::::::::::::::::::::::::::::::::::::::::::::::::::::::::::::",
"::::::::::::::::::::::::::::::::::::::::::::::::::::::::::::::",
"::::::::::::::::::::::::XXXXXXXXXXXXXX::::::::::::::::::::::::",
"::::::::::::::::::::::::XXXXXXXXXXXXXX::::::::::::::::::::::::",
"::::::::::::::::::::XXXX&&&&&&&&&&&&&&XXXX::::::::::::::::::::",
"::::::::::::::::::::XXXX&&&&&&&&&&&&&&XXXX::::::::::::::::::::",
"::::::::::::::::::XX$$&&&&&&&&&&&&&&&&&&$$XX::::::::::::::::::",
"::::::::::::::::::XX$$&&&&&&&&&&&&&&&&&&$$XX::::::::::::::::::",
"::::::::::::::::::XX&&&&&&&&&&&&&&&&&&&&&&XX::::::::::::::::::",
"::::::::::::::::::XX&&&&&&&&&&&&&&&&&&&&&&XX::::::::::::::::::",
"::::::::::::::::XX$$&&&&&&&&&&&&&&&&&&&&&&$$XX::::::::::::::::",
"::::::::::::::::XX$$&&&&&&&&&&&&&&&&&&&&&&$$XX::::::::::::::::",
"::::::::::::::::XX$$&&&&&&&&&&&&&&&&&&&&&&$$XX::::::::::::::::",
"::::::::::::::::XX$$&&&&&&&&&&&&&&&&&&&&&&$$XX::::::::::::::::",
"::::::::::::::::XX$$$$&&&&&&&&&&&&&&&&&&$$$$XX::::::::::::::::",
"::::::::::::::::XX$$$$&&&&&&&&&&&&&&&&&&$$$$XX::::::::::::::::",
"::::::::::::::::XX$$$$$$$$&&&&&&&&&&$$$$$$$$XX::::::::::::::::",
"::::::::::::::::XX$$$$$$$$&&&&&&&&&&$$$$$$$$XX::::::::::::::::",
"::::::::::::::ooXXXX$$$$$$$$++++++$$$$$$$$XXXXoo::::::::::::::",
"::::::::::::::ooXXXX$$$$$$$$++++++$$$$$$$$XXXXoo::::::::::::::",
"::::::::::::::  ==XX$$$$$$++++++++++$$$$$$XX==  ::::::::::::::",
"::::::::::::::  ==XX$$$$$$++++++++++$$$$$$XX==  ::::::::::::::",
"::::::::::::::  ==ooXXXX$$$$$$$$$$$$$$XXXXoo==  ::::::::::::::",
"::::::::::::::  ==ooXXXX$$$$$$$$$$$$$$XXXXoo==  ::::::::::::::",
"::::::::::::::::  oo##ooXXXXXXXXXXXXXXoo##oo  ::::::::::::::::",
"::::::::::::::::  oo##ooXXXXXXXXXXXXXXoo##oo  ::::::::::::::::",
"::::::::::::::::::  oo##################oo  ::::::::::::::::::",
"::::::::::::::::::  oo##################oo  ::::::::::::::::::",
"::::::::::::::::::::  oo##############oo  ::::::::::::::::::::",
"::::::::::::::::::::  oo##############oo  ::::::::::::::::::::",
"::::::::::::::::@@++++    oo######oo    ::::::::::::::::::::::",
"::::::::::::::::@@++++    oo######oo    ::::::::::::::::::::::",
"::::::::::::::@@==++++++**oooooooooo**++  ::::::::::::::::::::",
"::::::::::::::@@==++++++**oooooooooo**++  ::::::::::::::::::::",
"::::::::::::::@@====++..oo******  **++++++++::::::::::::::::::",
"::::::::::::::@@====++..oo******  **++++++++::::::::::::::::::",
"::::::::::::::::@@    OO**********  ..++==  ::::::::::::::::::",
"::::::::::::::::@@    OO**********  ..++==  ::::::::::::::::::",
"::::::::::::::::::::  ..##******##ooOO  ----@@::::::::::::::::",
"::::::::::::::::::::  ..##******##ooOO  ----@@::::::::::::::::",
"::::::::::::::::::::++++**######**oo..  ----@@::::::::::::::::",
"::::::::::::::::::::++++**######**oo..  ----@@::::::::::::::::",
"::::::::::::::::::::  %%  ******  ++%%  @@@@::::::::::::::::::",
"::::::::::::::::::::  %%  ******  ++%%  @@@@::::::::::::::::::",
"::::::::::::::::::::  ++%%++++++++    ::::::::::::::::::::::::",
"::::::::::::::::::::  ++%%++++++++    ::::::::::::::::::::::::",
"::::::::::::::::::::::  %%%%  ::::::::::::::::::::::::::::::::",
"::::::::::::::::::::::  %%%%  ::::::::::::::::::::::::::::::::",
"::::::::::::::::::::::  OOOO  ::::::::::::::::::::::::::::::::",
"::::::::::::::::::::::  OOOO  ::::::::::::::::::::::::::::::::",
"::::::::::::::::::::::::    ::::::::::::::::::::::::::::::::::",
"::::::::::::::::::::::::    ::::::::::::::::::::::::::::::::::",
"::::::::::::::::::::::::::::::::::::::::::::::::::::::::::::::",
"::::::::::::::::::::::::::::::::::::::::::::::::::::::::::::::"
};
