/* XPM */
static char *result[] = {
/* columns rows colors chars-per-pixel */
"62 62 193 2 ",
"   c #020102",
".  c #0C0405",
"X  c #0A090A",
"o  c #07070B",
"O  c #140A0A",
"+  c #150906",
"@  c #1F100E",
"#  c #0E0E14",
"$  c #131216",
"%  c #17191B",
"&  c #1D181A",
"*  c #260F0C",
"=  c #22120D",
"-  c #2F1A13",
";  c #341D15",
":  c #39251A",
">  c #1C1C24",
",  c #221F21",
"<  c #1F2122",
"1  c #23232D",
"2  c #3F2523",
"3  c #2E2E36",
"4  c #36353F",
"5  c #46241A",
"6  c #51241D",
"7  c #58311C",
"8  c #61291E",
"9  c #62391E",
"0  c #553221",
"q  c #642E24",
"w  c #6D3C22",
"e  c #6F3B33",
"r  c #733426",
"t  c #64402A",
"y  c #7A4721",
"u  c #3A3D41",
"i  c #3A3B47",
"p  c #444C4D",
"a  c #4C4448",
"s  c #524F4D",
"d  c #5B4E4B",
"f  c #55504C",
"g  c #5A514B",
"h  c #464E50",
"j  c #4A4F51",
"k  c #494A59",
"l  c #465051",
"z  c #4B5355",
"x  c #51575A",
"c  c #52585B",
"v  c #644E4A",
"b  c #7D4A40",
"n  c #615349",
"m  c #695A49",
"M  c #6E574E",
"N  c #5B625F",
"B  c #65605C",
"V  c #776049",
"C  c #535463",
"Z  c #5A5C66",
"A  c #605F69",
"S  c #5B6164",
"D  c #696878",
"F  c #776F7C",
"G  c #6E7378",
"H  c #797479",
"J  c #63656D",
"K  c #893C2B",
"L  c #814B2A",
"P  c #81502A",
"I  c #95572D",
"U  c #844A3F",
"Y  c #984B3A",
"T  c #985836",
"R  c #98432D",
"E  c #A0442E",
"W  c #A05C2C",
"Q  c #AA4D37",
"!  c #B24A32",
"~  c #BC4E33",
"^  c #AB543D",
"/  c #B55B3B",
"(  c #BE583C",
")  c #B9543B",
"_  c #AA6533",
"`  c #AD6A31",
"'  c #BE6A38",
"]  c #BF7135",
"[  c #C75537",
"{  c #D75734",
"}  c #D85735",
"|  c #D75835",
" . c #D95935",
".. c #DB5938",
"X. c #D45939",
"o. c #DE6336",
"O. c #CB7A3D",
"+. c #D67638",
"@. c #E36D36",
"#. c #E36A38",
"$. c #E67437",
"%. c #EC7C39",
"&. c #E77639",
"*. c #F07D39",
"=. c #855344",
"-. c #836448",
";. c #936A47",
":. c #BE7F49",
">. c #D37D40",
",. c #DD863E",
"<. c #D7843A",
"1. c #DE9839",
"2. c #EB8538",
"3. c #EC8D3C",
"4. c #E6893B",
"5. c #F68E37",
"6. c #F88F37",
"7. c #F18339",
"8. c #F78F38",
"9. c #F88F39",
"0. c #F59137",
"q. c #F89037",
"w. c #F59B37",
"e. c #F69039",
"r. c #F9913A",
"t. c #F69C3A",
"y. c #F4A13A",
"u. c #F6AD39",
"i. c #F7AA38",
"p. c #EFB33A",
"a. c #F6CB3B",
"s. c #F7C538",
"d. c #DA8641",
"f. c #F4B843",
"g. c #F4CE4E",
"h. c #F1CE62",
"j. c #F1E17C",
"k. c #787784",
"l. c #7E7E96",
"z. c #817D8B",
"x. c #807B91",
"c. c #7D808B",
"v. c #7F8386",
"b. c #84818E",
"n. c #8A8794",
"m. c #8A8B9B",
"M. c #868498",
"N. c #8D9293",
"B. c #94939E",
"V. c #918FA4",
"C. c #9898B6",
"Z. c #8F8FA8",
"A. c #A39CAF",
"S. c #9FA0BD",
"D. c #A7A6AC",
"F. c #ABA9BA",
"G. c #A7A2B9",
"H. c #B0A7BB",
"J. c #B0B3B7",
"K. c #F6DB85",
"L. c #F5E48D",
"P. c #F6E090",
"I. c #F6ECB3",
"U. c #F7E9A1",
"Y. c #A5A4C2",
"T. c #ADAAC5",
"R. c #AEAAC9",
"E. c #B4AECD",
"W. c #BCBBC3",
"Q. c #BAB6C6",
"!. c #BEB7D3",
"~. c #C1B8CD",
"^. c #CABED6",
"/. c #C5BBD7",
"(. c #C5C6CB",
"). c #CEC2DC",
"_. c #C9C8D4",
"`. c #D1C4DE",
"'. c #CED0D7",
"]. c #D6D7D9",
"[. c #FBF6CF",
"{. c #CFC5E1",
"}. c #D4C6E2",
"|. c #D6C9E2",
" X c #D8C7E3",
".X c #DCD2E3",
"XX c #EDECEF",
"oX c #E6E4E9",
"OX c #EFEFF2",
"+X c #F3F1F3",
"@X c #FCFDFB",
"#X c #FCFFF7",
"$X c None",
/* pixels */
"$X$X$X$X$X$X$X$X$X$X$X$X$X$X$X$X$X$X$X$X$X$X$X$X$X$X$X$X$X$X$X$X$X$X$X$X$X$X$X$X$X$X$X$X$X$X$X$X$X$X$X$X$X$X$X$X$X$X$X$X$X$X",
"$X$X$X$X$X$X$X$X$X$X$X$X$X$X$X$X$X$X$X$X$X$X$X$X$X$X$X$X$X$X$X$X$X$X$X$X$X$X$X$X$X$X$X$X$X$X$X$X$X$X$X$X$X$X$X$X$X$X$X$X$X$X",
"$X$X$X$X$X$X$X$X$X$X$X$X$X$X$X$X$X$X$X$X$X$X$X$X$X$X$X$X$X$X$X$X$X$X$X$X$X$X$X$X$X$X$X$X$X$X$X$X$X$X$X$X$X$X$X$X$X$X$X$X$X$X",
"$X$X$X$X$X$X$X$X$X$X$X$X$X$X$X$X$X$X$X$X$X$X$X$X$X$X$X$X$X$X$X$X$X$X$X$X$X$X$X$X$X$X$X$X$X$X$X$X$X$X$X$X$X$X$X$X$X$X$X$X$X$X",
"$X$X$X$X$X$X$X$X$X$X$X$X$X$X$X$X$X$X$X$X$X$X$X$X$X$X$X$X$X$X$X$X$X$X$X$X$X$X$X$X$X$X$X$X$X$X$X$X$X$X$X$X$X$X$X$X$X$X$X$X$X$X",
"$X$X$X$X$X$X$X$X$X$X$X$X$X$X$X$X$X$X$X$X$X$X$X$X$X$X$X$X$X$X$X$X$X$X$X$X$X$X$X$X$X$X$X$X$X$X$X$X$X$X$X$X$X$X$X$X$X$X$X$X$X$X",
"$X$X$X$X$X$X$X$X$X$X$X$X$X$X$X$X$X$X$X$X$X$X$X$X$X$X$X$X$X$X$X$X$X$X$X$X$X$X$X$X$X$X$X$X$X$X$X$X$X$X$X$X$X$X$X$X$X$X$X$X$X$X",
"$X$X$X$X$X$X$X$X$X$X$X$X$X$X$X$X$X$X$X$X$X$X$X$X$X$X$X$X$X$X$X$X$X$X$X$X$X$X$X$X$X$X$X$X$X$X$X$X$X$X$X$X$X$X$X$X$X$X$X$X$X$X",
"$X$X$X$X$X$X$X$X$X$X$X$X$X$X$X$X$X$X$X$X$X$X$X$X$X$X$X$X$X$X$X$X$X$X$X$X$X$X$X$X$X$X$X$X$X$X$X$X$X$X$X$X$X$X$X$X$X$X$X$X$X$X",
"$X$X$X$X$X$X$X$X$X$X$X$X$X$X$X$X$X$X$X$X$X$X$X$X$X$X$X$X$X$X$X$X$X$X$X$X$X$X$X$X$X$X$X$X$X$X$X$X$X$X$X$X$X$X$X$X$X$X$X$X$X$X",
"$X$X$X$X$X$X$X$X$X$X$X$X$X$X$X$X$X$X$X$X$X$X$X$X$X$X$X$X$X$X$X$X$X$X$X$X$X$X$X$X$X$X$X$X$X$X$X$X$X$X$X$X$X$X$X$X$X$X$X$X$X$X",
"$X$X$X$X$X$X$X$X$X$X$X$X$X$X$X$X$X$X$X$X$X$X$X$X$X$X$X$X$X$X$X$X$X$X$X$X$X$X$X$X$X$X$X$X$X$X$X$X$X$X$X$X$X$X$X$X$X$X$X$X$X$X",
"$X$X$X$X$X$X$X$X$X$X$X$X$X$X$X$X$X$X$X$X$X$X$X$X$X$X$X$X$X$X$X$X$X$X$X$X$X$X$X$X$X$X$X$X$X$X$X$X$X$X$X$X$X$X$X$X$X$X$X$X$X$X",
"$X$X$X$X$X$X$X$X$X$X$X$X$X$X$X$X$X$X$X$X$X$X$X$X$X$X$X$X$X$X$X$X$X$X$X$X$X$X$X$X$X$X$X$X$X$X$X$X$X$X$X$X$X$X$X$X$X$X$X$X$X$X",
"$X$X$X$X$X$X$X$X$X$X$X$X$X$X$X$X$X$X$X$X$X$X$X$X$X$X$X$X$X$X$X$X$X$X$X$X$X$X$X$X$X$X$X$X$X$X$X$X$X$X$X$X$X$X$X$X$X$X$X$X$X$X",
"$X$X$X$X$X$X$X$X$X$X$X$X$X$X$X$X$X$X$X$X$X$X$X$X$X$X$X$X$X$X$X$X$X$X$X$X$X$X$X$X$X$X$X$X$X$X$X$X$X$X$X$X$X$X$X$X$X$X$X$X$X$X",
"$X$X$X$X$X$X$X$X$X$X$X$X$X$X$X$X$X$X$X$X$X$X$X$X$X$X$X$X$X$X$X$X$X$X$X$X$X$X$X$X$X$X$X$X$X$X$X$X$X$X$X$X$X$X$X$X$X$X$X$X$X$X",
"$X$X$X$X$X$X$X$X$X$X$X$X$X$X$X$X$X$X$X$X$X$X$X$X$X$X$X$X: - = + X       $X$X$X$X$X$X$X$X$X$X$X$X$X$X$X$X$X$X$X$X$X$X$X$X$X$X",
"$X$X$X$X$X$X$X$X$X$X$X$X$X$X$X$X$X$X$X$X$X$X$X$X$X@ O X L <.O.O._ T y w 7 : $X$X$X$X$X$X$X$X$X$X$X$X$X$X$X$X$X$X$X$X$X$X$X$X",
"$X$X$X$X$X$X$X$X$X$X$X$X$X$X$X$X$X$X$X$X$X$X$X% @ _ ] _ +.q.5.5.r.r.r.e.8.>.=     $X$X$X$X$X$X$X$X$X$X$X$X$X$X$X$X$X$X$X$X$X",
"$X$X$X$X$X$X$X$X$X$X$X$X$X$X$X$X$X$X$X$X$X$X  t P 1.i.t.w.8.8.8.8.8.8.8.e.2.I 9 6 $X$X$X$X$X$X$X$X$X$X$X$X$X$X$X$X$X$X$X$X$X",
"$X$X$X$X$X$X$X$X$X$X$X$X$X$X$X$X$X$X$X$X$X$X- ` y.g.a.a.w.8.8.8.8.8.8.e.e.6.r.$.Q @ X $X$X$X$X$X$X$X$X$X$X$X$X$X$X$X$X$X$X$X",
"$X$X$X$X$X$X$X$X$X$X$X$X$X$X$X$X$X$X$X$X  9 <.p.h.I.I.P.f.w.5.8.e.6.q.5.q.e.e.7.+.K 5 $X$X$X$X$X$X$X$X$X$X$X$X$X$X$X$X$X$X$X",
"$X$X$X$X$X$X$X$X$X$X$X$X$X$X$X$X$X$X$X$X  y t.s.j.#X@X[.g.u.5.8.6.8.8.q.5.q.e.e.*...8 + $X$X$X$X$X$X$X$X$X$X$X$X$X$X$X$X$X$X",
"$X$X$X$X$X$X$X$X$X$X$X$X$X$X$X$X$X$X$X$X: I t.s.L.#X@X[.g.i.6.6.8.8.8.6.e.6.8.8.&.{ ~ K O $X$X$X$X$X$X$X$X$X$X$X$X$X$X$X$X$X",
"$X$X$X$X$X$X$X$X$X$X$X$X$X$X$X$X$X$X  0 4.3.0.y.h.L.P.K.g.w.6.6.8.8.8.8.8.8.8.8.$.{ ..R O $X$X$X$X$X$X$X$X$X$X$X$X$X$X$X$X$X",
"$X$X$X$X$X$X$X$X$X$X$X$X$X$X$X$X$X$X  w 8.8.8.5.i.s.a.p.e.e.6.6.8.8.8.8.6.6.8.8.@.| ..K . $X$X$X$X$X$X$X$X$X$X$X$X$X$X$X$X$X",
"$X$X$X$X$X$X$X$X$X$X$X$X$X$X$X$X$X$X  L r.8.8.6.0.w.w.w.e.8.8.6.8.r.6.6.8.e.e.8.#.| ..! r ; $X$X$X$X$X$X$X$X$X$X$X$X$X$X$X$X",
"$X$X$X$X$X$X$X$X$X$X$X$X$X$X$X$X$X$X  T r.r.r.8.8.8.8.8.e.8.8.8.8.8.8.e.6.8.2.&.o.| | ..) * $X$X$X$X$X$X$X$X$X$X$X$X$X$X$X$X",
"$X$X$X$X$X$X$X$X$X$X$X$X$X$X$X$X$X$X. I +.8.q.r.8.8.8.r.6.q.6.8.9.8.8.6.8.8.&.| } | | ..! + $X$X$X$X$X$X$X$X$X$X$X$X$X$X$X$X",
"$X$X$X$X$X$X$X$X$X$X$X$X$X$X$X$X$X  . e / 8.e.6.8.8.r.r.6.q.e.6.8.8.8.9.6.9.@.} | | | ..E O $X$X$X$X$X$X$X$X$X$X$X$X$X$X$X$X",
"$X$X$X$X$X$X$X$X$X$X$X$X$X$X$X$X$X  . a =.' 2.q.q.d.d.d.4.3.8.8.6.8.6.6.7.&.o.} ..| | X.K . $X$X$X$X$X$X$X$X$X$X$X$X$X$X$X$X",
"$X$X$X$X$X$X$X$X$X$X$X$X$X$X$X$X$X  # p v Y >.3.3.;.g n m -.,.q.e.7.*.7.$.{ { { { { [ ! q   $X$X$X$X$X$X$X$X$X$X$X$X$X$X$X$X",
"$X$X$X$X$X$X$X$X$X$X$X$X$X$X$X$X$X  % p j f m V -.H k.N.G B :.4.7.@. . .} } { ..} [ Q =.5   $X$X$X$X$X$X$X$X$X$X$X$X$X$X$X$X",
"$X$X$X$X$X$X$X$X$X$X$X$X$X$X$X$X$X$X& < l S l l z m.(.@XW.b.B ^ o. . .| [ ) / ) ( Q b s ,   $X$X$X$X$X$X$X$X$X$X$X$X$X$X$X$X",
"$X$X$X$X$X$X$X$X$X$X$X$X$X$X$X$X$X$X$X. A H x l S ].OX@XoXJ.z V ^ / ( [ Q U d g d d s h %   $X$X$X$X$X$X$X$X$X$X$X$X$X$X$X$X",
"$X$X$X$X$X$X$X$X$X$X$X$X$X$X$X$X$X$X  $ A._.(.b.G (.XX@XOXW.z l s f g n v d j l z S l 4 % o $X$X$X$X$X$X$X$X$X$X$X$X$X$X$X$X",
"$X$X$X$X$X$X$X$X$X$X$X$X$X$X$X$X$X$X$X> H W.+XD.n.Z.'.OXF.c.p h l l l l h z x c S k.4 o $X$X$X$X$X$X$X$X$X$X$X$X$X$X$X$X$X$X",
"$X$X$X$X$X$X$X$X$X$X$X$X$X$X$X$X$X$X$X$X. F .XXX(.c.B.D.m.n.k.G S S C z z S k.F.F.Z.u   $X$X$X$X$X$X$X$X$X$X$X$X$X$X$X$X$X$X",
"$X$X$X$X$X$X$X$X$X$X$X$X$X$X$X$X$X$X$X$X$Xa D _.(.B.n.b.k.H.`.`._.~.Q.F.A.A.G.!.G.M.3   $X$X$X$X$X$X$X$X$X$X$X$X$X$X$X$X$X$X",
"$X$X$X$X$X$X$X$X$X$X$X$X$X$X$X$X$X$X$X$X$XX > Z.E.`.`././.`. X}. X|. X}.{.{./.C.C $ $X$X$X$X$X$X$X$X$X$X$X$X$X$X$X$X$X$X$X$X",
"$X$X$X$X$X$X$X$X$X$X$X$X$X$X$X$X$X$X$X$X$X$X$X1 4 Z T.!./././.{.{.{.}./.Y.R.m.u 3 $X$X$X$X$X$X$X$X$X$X$X$X$X$X$X$X$X$X$X$X$X",
"$X$X$X$X$X$X$X$X$X$X$X$X$X$X$X$X$X$X$X$X$X$X$X    > M.C.C.C.Y.Y.R.R.E.x.C D C   $X$X$X$X$X$X$X$X$X$X$X$X$X$X$X$X$X$X$X$X$X$X",
"$X$X$X$X$X$X$X$X$X$X$X$X$X$X$X$X$X$X$X$X$X$X$X$X$X$X> 1 4 i k Z k.k.l.i     o $X$X$X$X$X$X$X$X$X$X$X$X$X$X$X$X$X$X$X$X$X$X$X",
"$X$X$X$X$X$X$X$X$X$X$X$X$X$X$X$X$X$X$X$X$X$X$X$X$X$X$X            o # $X$X$X$X$X$X$X$X$X$X$X$X$X$X$X$X$X$X$X$X$X$X$X$X$X$X$X",
"$X$X$X$X$X$X$X$X$X$X$X$X$X$X$X$X$X$X$X$X$X$X$X$X$X$X$X$X$X$X$X$X$X$X$X$X$X$X$X$X$X$X$X$X$X$X$X$X$X$X$X$X$X$X$X$X$X$X$X$X$X$X",
"$X$X$X$X$X$X$X$X$X$X$X$X$X$X$X$X$X$X$X$X$X$X$X$X$X$X$X$X$X$X$X$X$X$X$X$X$X$X$X$X$X$X$X$X$X$X$X$X$X$X$X$X$X$X$X$X$X$X$X$X$X$X",
"$X$X$X$X$X$X$X$X$X$X$X$X$X$X$X$X$X$X$X$X$X$X$X$X$X$X$X$X$X$X$X$X$X$X$X$X$X$X$X$X$X$X$X$X$X$X$X$X$X$X$X$X$X$X$X$X$X$X$X$X$X$X",
"$X$X$X$X$X$X$X$X$X$X$X$X$X$X$X$X$X$X$X$X$X$X$X$X$X$X$X$X$X$X$X$X$X$X$X$X$X$X$X$X$X$X$X$X$X$X$X$X$X$X$X$X$X$X$X$X$X$X$X$X$X$X",
"$X$X$X$X$X$X$X$X$X$X$X$X$X$X$X$X$X$X$X$X$X$X$X$X$X$X$X$X$X$X$X$X$X$X$X$X$X$X$X$X$X$X$X$X$X$X$X$X$X$X$X$X$X$X$X$X$X$X$X$X$X$X",
"$X$X$X$X$X$X$X$X$X$X$X$X$X$X$X$X$X$X$X$X$X$X$X$X$X$X$X$X$X$X$X$X$X$X$X$X$X$X$X$X$X$X$X$X$X$X$X$X$X$X$X$X$X$X$X$X$X$X$X$X$X$X",
"$X$X$X$X$X$X$X$X$X$X$X$X$X$X$X$X$X$X$X$X$X$X$X$X$X$X$X$X$X$X$X$X$X$X$X$X$X$X$X$X$X$X$X$X$X$X$X$X$X$X$X$X$X$X$X$X$X$X$X$X$X$X",
"$X$X$X$X$X$X$X$X$X$X$X$X$X$X$X$X$X$X$X$X$X$X$X$X$X$X$X$X$X$X$X$X$X$X$X$X$X$X$X$X$X$X$X$X$X$X$X$X$X$X$X$X$X$X$X$X$X$X$X$X$X$X",
"$X$X$X$X$X$X$X$X$X$X$X$X$X$X$X$X$X$X$X$X$X$X$X$X$X$X$X$X$X$X$X$X$X$X$X$X$X$X$X$X$X$X$X$X$X$X$X$X$X$X$X$X$X$X$X$X$X$X$X$X$X$X",
"$X$X$X$X$X$X$X$X$X$X$X$X$X$X$X$X$X$X$X$X$X$X$X$X$X$X$X$X$X$X$X$X$X$X$X$X$X$X$X$X$X$X$X$X$X$X$X$X$X$X$X$X$X$X$X$X$X$X$X$X$X$X",
"$X$X$X$X$X$X$X$X$X$X$X$X$X$X$X$X$X$X$X$X$X$X$X$X$X$X$X$X$X$X$X$X$X$X$X$X$X$X$X$X$X$X$X$X$X$X$X$X$X$X$X$X$X$X$X$X$X$X$X$X$X$X",
"$X$X$X$X$X$X$X$X$X$X$X$X$X$X$X$X$X$X$X$X$X$X$X$X$X$X$X$X$X$X$X$X$X$X$X$X$X$X$X$X$X$X$X$X$X$X$X$X$X$X$X$X$X$X$X$X$X$X$X$X$X$X",
"$X$X$X$X$X$X$X$X$X$X$X$X$X$X$X$X$X$X$X$X$X$X$X$X$X$X$X$X$X$X$X$X$X$X$X$X$X$X$X$X$X$X$X$X$X$X$X$X$X$X$X$X$X$X$X$X$X$X$X$X$X$X",
"$X$X$X$X$X$X$X$X$X$X$X$X$X$X$X$X$X$X$X$X$X$X$X$X$X$X$X$X$X$X$X$X$X$X$X$X$X$X$X$X$X$X$X$X$X$X$X$X$X$X$X$X$X$X$X$X$X$X$X$X$X$X",
"$X$X$X$X$X$X$X$X$X$X$X$X$X$X$X$X$X$X$X$X$X$X$X$X$X$X$X$X$X$X$X$X$X$X$X$X$X$X$X$X$X$X$X$X$X$X$X$X$X$X$X$X$X$X$X$X$X$X$X$X$X$X",
"$X$X$X$X$X$X$X$X$X$X$X$X$X$X$X$X$X$X$X$X$X$X$X$X$X$X$X$X$X$X$X$X$X$X$X$X$X$X$X$X$X$X$X$X$X$X$X$X$X$X$X$X$X$X$X$X$X$X$X$X$X$X",
"$X$X$X$X$X$X$X$X$X$X$X$X$X$X$X$X$X$X$X$X$X$X$X$X$X$X$X$X$X$X$X$X$X$X$X$X$X$X$X$X$X$X$X$X$X$X$X$X$X$X$X$X$X$X$X$X$X$X$X$X$X$X"
};
