/* XPM */
static char *_24bba1d99ca403cedfac32bff3debd0pipeKzVS9O69dvCR[] = {
/* columns rows colors chars-per-pixel */
"59 62 188 2 ",
"   c None",
".  c #272126",
"X  c #2A252A",
"o  c #2D292B",
"O  c #292C30",
"+  c #302C33",
"@  c #333134",
"#  c #313439",
"$  c #3A353A",
"%  c #3C383D",
"&  c #41231D",
"*  c #59362F",
"=  c #4E3835",
"-  c #503836",
";  c #6D453E",
":  c #6E3C41",
">  c #4A444C",
",  c #58484B",
"<  c #464750",
"1  c #4F4C53",
"2  c #534C51",
"3  c #555155",
"4  c #5B575C",
"5  c #5C585C",
"6  c #684743",
"7  c #724942",
"8  c #66524F",
"9  c #7B544C",
"0  c #64575D",
"q  c #7F5B58",
"w  c #625F62",
"e  c #6B5D6A",
"r  c #666366",
"t  c #6A666A",
"y  c #6E6B6E",
"u  c #64606E",
"i  c #6E6C7B",
"p  c #6B6D74",
"a  c #7B6E73",
"s  c #737275",
"d  c #73757C",
"f  c #787578",
"g  c #76787E",
"h  c #7E7B7E",
"j  c #8C493A",
"k  c #924636",
"l  c #994635",
"z  c #94493B",
"x  c #9A4A3B",
"c  c #92443C",
"v  c #A84833",
"b  c #B7523B",
"n  c #904D40",
"m  c #9A4D40",
"M  c #83564F",
"N  c #895249",
"B  c #9B5448",
"V  c #855855",
"C  c #995753",
"Z  c #A15547",
"A  c #A15F52",
"S  c #8D6A66",
"D  c #976661",
"F  c #9B6868",
"G  c #8C7378",
"H  c #90787E",
"J  c #AD6F70",
"K  c #AC7471",
"L  c #AB757A",
"P  c #A3777E",
"I  c #B67A76",
"U  c #CD5745",
"Y  c #C35641",
"T  c #D26A5B",
"R  c #B68077",
"E  c #B68178",
"W  c #D6897C",
"Q  c #7B7E84",
"!  c #837A8D",
"~  c #82788A",
"^  c #837D94",
"/  c #A47F8A",
"(  c #BB7D82",
")  c #8D8A8D",
"_  c #858285",
"`  c #988B88",
"'  c #8B8696",
"]  c #978992",
"[  c #959295",
"{  c #989598",
"}  c #98979C",
"|  c #B6878B",
" . c #BC8F91",
".. c #BA9490",
"X. c #968CA9",
"o. c #9793AD",
"O. c #9696B5",
"+. c #A89EA1",
"@. c #BF98AC",
"#. c #A59DBE",
"$. c #BB9FB7",
"%. c #BB9FB8",
"&. c #A5A3A5",
"*. c #AFADAF",
"=. c #A4A5AB",
"-. c #BDA7AF",
";. c #B9A8AB",
":. c #AEA5B3",
">. c #A9A4BC",
",. c #B0AEB0",
"<. c #B8A8B4",
"1. c #B3B3B5",
"2. c #BCBBBC",
"3. c #B6B6B9",
"4. c #DC9182",
"5. c #D49E93",
"6. c #D9A59D",
"7. c #C19FB9",
"8. c #C3A7A1",
"9. c #DFB0A9",
"0. c #D4B5AF",
"q. c #C3A4BD",
"w. c #C0A9BC",
"e. c #D9BAB8",
"r. c #DCC3BD",
"t. c #ADA6C2",
"y. c #B3ACC4",
"u. c #BCA7C3",
"i. c #B6B5C1",
"p. c #BAAFD4",
"a. c #BFB6DB",
"s. c #B6B4D7",
"d. c #C6BBCD",
"f. c #C0B7DD",
"g. c #CEBDD2",
"h. c #D6BADB",
"j. c #D5B7D8",
"k. c #CDBEE5",
"l. c #C4BAE0",
"z. c #D4BFE5",
"x. c #C6C5C6",
"c. c #CCCBCC",
"v. c #C3C4CC",
"b. c #D3C6C3",
"n. c #CEC3D4",
"m. c #D1CDD3",
"M. c #D6D5D6",
"N. c #DBDADB",
"B. c #D6D6DD",
"V. c #EBC9C1",
"C. c #E3CEDC",
"Z. c #E9D9D6",
"A. c #ECDEDA",
"S. c #E3D9D9",
"D. c #E8E0DF",
"F. c #CCC2E8",
"G. c #D5C5EE",
"H. c #D8C7EF",
"J. c #D9C8EF",
"K. c #D7C9E9",
"L. c #CAC9F8",
"P. c #D7C7F0",
"I. c #D8C6F0",
"U. c #D6C8F2",
"Y. c #DBCBF3",
"T. c #D3CCF9",
"R. c #DED1FE",
"E. c #E0DFE0",
"W. c #E1D3F4",
"Q. c #E7DAF9",
"!. c #DFE1EE",
"~. c #DDEDEE",
"^. c #E2E2E4",
"/. c #E7E8E8",
"(. c #EBEBEC",
"). c #E8E4E5",
"_. c #F5EDEC",
"`. c #EFEBF2",
"'. c #ECE3F8",
"]. c #F0EFF1",
"[. c #F4EEFA",
"{. c #E9F9FF",
"}. c #F3F3F3",
"|. c #F7F3FC",
" X c #F9F4FD",
".X c #F1FFFF",
"XX c #FFFFFF",
"oX c #F8F4F3",
/* pixels */
"                                                                                                                      ",
"                                                                                                                      ",
"                                                                                                                      ",
"                                                                                                                      ",
"                                                                                                                      ",
"                                                                                                                      ",
"                                                                                                                      ",
"                                                                                                                      ",
"                                                                                                                      ",
"                                                                                                                      ",
"                                                                                                                      ",
"                                                                                                                      ",
"                                                                                                                      ",
"                                                                                                                      ",
"                                                                                                                      ",
"                                                                                                                      ",
"                                                                                                                      ",
"                                                XXXXXXXXXXXXXXXXXXXXXXXX                                              ",
"                                          XXXXXXXX*.3 4 4 4 4 4 4 4 N.XXXXXX                                          ",
"                                          XX^.3.2.[ t t t t t t t t &.2.2.].XX                                        ",
"                                        XXXX&.. . { XXXXXXXXXXXXXXXXw . + d.[.XX                                      ",
"                                    XXXXXXr _ B.M.(.XXXXXXXXXXXXXXXX^.m.d.4 [ XXXX                                    ",
"                                    XX^.&.G 1.XXXXXXXXXXXXXXXXXXXXXXXXXX[.! ~ *.`. X                                  ",
"                                  XXXX*.@ ^.XXXXXXXXXXXXXXXXXXXXXXXXXXXXXXQ.X.$ n.[.XX                                ",
"                                  XXy f ^.XXXXXXXXXXXXXXXXXXXXXXXXXXXXXXXXW.K.n.2 } XX                                ",
"                                XXXX2 y XXXXXXXXXXXXXXXXXXXXXXXXXXXXXXXXXXW.Y.K.$ ) XXXX                              ",
"                              XXXX/.w h XXXXXXXXXXXXXXXXXXXXXXXXXXXXXXXXXXW.U.k.> ) ].XX                              ",
"                              XXc.$ x.oXXXXXXXXXXXXXXXXXXXXXXXXXXXXXXXXXXXY.P.G.k.! > }.                              ",
"                              XXx.X c.XXXXXXXXXXXXXXXXXXXXXXXXXXXXXXXX|.'.Y.H.P.Y.! $ ].                              ",
"                              XXx.X c.XXXXXXXXXXXXXXXXXXXXXXXXXXXXXXXX[.H.P.H.P.R.! $ ].                              ",
"                              XXx.o c.XXXXXXXXXXXXXXXXXXXXXXXXXXXXXXXX[.J.J.I.P.Y.! $ _.                              ",
"                              XXx.o &.N..XXXXXXXXXXXXXXXXXXXXXXXXXXX'.W.J.J.U.L.<.e $ `.                              ",
"                              XXx.o G -.~..XXXXXA.Z.Z.Z._.XXXXXX|.|.W.H.J.J.F.s.H , % ].                              ",
"                              XXx.o : F ;.].XXoXA z z z 0.XXXXQ.G.P.P.P.U.Y.u.H 9 = % `.                              ",
"                              XXx.. 6 V S I R E ] ;.r.| E  .W.Y.U.T.%.| K J F V 9 = $ _.                              ",
"                              XXM.r 6 ; N z l x u.!.XXb.K C q.q.d.<./ C l l n M ; 8 s }.                              ",
"                              XXXXXX8 * F m x B _.XXXX.X..c c x c c j c x x C D & ` XXXX                              ",
"                                  XX2 0 C.S.5.Y 9.D.{.g.I v k k k k c N a %.<.+.o ) XX                                ",
"                                  XX) ~ :.).V.4.W 6.e.| ( I L L J P L / o.a.>.Q p 1.XX                                ",
"                                  XX X:.@ 8.A.}.T U U b 7.L.H.H.P.P.z.U.G.t.i # !.XXXX                                ",
"                                    XX}.M.3 p v.h.h.j.j.z.U.P.U.Y.R.p.t.i.< d ^.XXXX                                  ",
"                                      XXXX[ Q d ' #.a.f.a.a.f.a.f.l.^ p d g 1.XXXX                                    ",
"                                        XXXX=.O + u o.O.O.O.O.O.O.o.1 + # B.XXXX                                      ",
"                                          XXoX/.(.' X + + + + + + + 3.(./.XXXX                                        ",
"                                              XXXXc.) [ [ [ [ [ [ [ /.XX  XX                                          ",
"                                                XXXXXXXXXXXXXXXXXXXXXXXX                                              ",
"                                                                                                                      ",
"                                                                                                                      ",
"                                                                                                                      ",
"                                                                                                                      ",
"                                                                                                                      ",
"                                                                                                                      ",
"                                                                                                                      ",
"                                                                                                                      ",
"                                                                                                                      ",
"                                                                                                                      ",
"                                                                                                                      ",
"                                                                                                                      ",
"                                                                                                                      ",
"                                                                                                                      ",
"                                                                                                                      ",
"                                                                                                                      "
};
