/* XPM */
static char *cm9jaw__[] = {
/* columns rows colors chars-per-pixel */
"62 65 240 2 ",
"   c #513A3B",
".  c #3C403F",
"X  c #4E403D",
"o  c #5D3C4B",
"O  c #5B3B44",
"+  c #4E3D43",
"@  c #633D45",
"#  c #633C4C",
"$  c #693D49",
"%  c #673F51",
"&  c #494747",
"*  c #54444B",
"=  c #5B434C",
"-  c #544A4D",
";  c #5A4B4C",
":  c #48514B",
">  c #5D4C53",
",  c #5A4852",
"<  c #4C5652",
"1  c #565657",
"2  c #54554E",
"3  c #64424E",
"4  c #6B434C",
"5  c #6A474A",
"6  c #75474B",
"7  c #644252",
"8  c #6A4353",
"9  c #654B53",
"0  c #6B4A55",
"q  c #6D4B5A",
"w  c #664C59",
"e  c #734D54",
"r  c #724C5B",
"t  c #754856",
"y  c #6B535B",
"u  c #655759",
"i  c #7B5555",
"p  c #73535D",
"a  c #7C545C",
"s  c #775857",
"d  c #79524F",
"f  c #5A6659",
"g  c #4E675B",
"h  c #67665A",
"j  c #73645C",
"k  c #5E5D60",
"l  c #6B5861",
"z  c #7C5562",
"x  c #7A5866",
"c  c #774F61",
"v  c #596B65",
"b  c #5B7268",
"n  c #447F61",
"m  c #696766",
"M  c #766469",
"N  c #65756C",
"B  c #747C6D",
"V  c #7B776B",
"C  c #697B76",
"Z  c #787976",
"A  c #6E6E71",
"S  c #83555C",
"D  c #835B5C",
"F  c #835957",
"G  c #87625C",
"H  c #845D63",
"J  c #835967",
"K  c #8B6363",
"L  c #8C646B",
"P  c #896966",
"I  c #916A64",
"U  c #936C6C",
"Y  c #966868",
"T  c #89766E",
"R  c #94716D",
"E  c #9A736B",
"W  c #946E73",
"Q  c #897C73",
"!  c #9B7574",
"~  c #947C75",
"^  c #987B77",
"/  c #8C6771",
"(  c #A47C74",
")  c #A37C7B",
"_  c #A97877",
"`  c #A2776E",
"'  c #379472",
"]  c #358868",
"[  c #56866B",
"{  c #498E73",
"}  c #499A79",
"|  c #58977D",
" . c #4C876E",
".. c #69816D",
"X. c #6A8776",
"o. c #7C8D7D",
"O. c #768677",
"+. c #70927C",
"@. c #51A37F",
"#. c #888578",
"$. c #94847A",
"%. c #9C827C",
"&. c #87907F",
"*. c #A4837D",
"=. c #A9827C",
"-. c #AA8377",
";. c #B1877E",
":. c #A57D80",
">. c #857C81",
",. c #579A82",
"<. c #6E8C83",
"1. c #798A85",
"2. c #6A9986",
"3. c #789688",
"4. c #7B9D92",
"5. c #4BA884",
"6. c #54A482",
"7. c #58AA89",
"8. c #4CB58C",
"9. c #5BB28E",
"0. c #55B28D",
"q. c #5DB492",
"w. c #5CBA97",
"e. c #5FAE91",
"r. c #64A98B",
"t. c #79A38B",
"y. c #6BAC94",
"u. c #7DAC94",
"i. c #78AB97",
"p. c #63B593",
"a. c #63BA95",
"s. c #65BD9A",
"d. c #6DBD9C",
"f. c #6BB798",
"g. c #74B59D",
"h. c #7BB59C",
"j. c #72BD9E",
"k. c #7ABA9E",
"l. c #73B596",
"z. c #61B38F",
"x. c #6DBEA1",
"c. c #74BEA1",
"v. c #7ABCA2",
"b. c #7DB7A3",
"n. c #5BC69A",
"m. c #65C19D",
"M. c #6DC19E",
"N. c #72C19E",
"B. c #6DC3A1",
"V. c #69C7A2",
"C. c #73C2A2",
"Z. c #7AC2A4",
"A. c #7CC5A8",
"S. c #77C8A8",
"D. c #858D85",
"F. c #998B82",
"G. c #869785",
"H. c #889A94",
"J. c #979386",
"K. c #AC8483",
"L. c #AB8A84",
"P. c #B18685",
"I. c #B38C84",
"U. c #B48D8A",
"Y. c #BA8D8B",
"T. c #B88986",
"R. c #A9928A",
"E. c #B4928B",
"W. c #BB938C",
"Q. c #BA9387",
"!. c #BD9B94",
"~. c #B89692",
"^. c #AD9B90",
"/. c #87A38D",
"(. c #85AC9C",
"). c #87A998",
"_. c #95A797",
"`. c #82B49C",
"'. c #8BB39C",
"]. c #82B99E",
"[. c #8AB99F",
"{. c #95B59F",
"}. c #87ACA0",
"|. c #83B5A3",
" X c #8BB4A4",
".X c #82BBA3",
"XX c #8ABAA7",
"oX c #94B8A7",
"OX c #ACB1A8",
"+X c #C3998D",
"@X c #C39C94",
"#X c #C99D94",
"$X c #C69C9A",
"%X c #C99A98",
"&X c #CB9593",
"*X c #CCA395",
"=X c #C5A29B",
"-X c #CBA49B",
";X c #CAA499",
":X c #D4AC9D",
">X c #D5A69D",
",X c #D6B19F",
"<X c #D9B19F",
"1X c #CCA5A2",
"2X c #CBACA3",
"3X c #D4ADA3",
"4X c #DAADA3",
"5X c #D9ACAA",
"6X c #CEB1A4",
"7X c #D4B2A4",
"8X c #DAB2A4",
"9X c #D5B3AA",
"0X c #DBB4AB",
"qX c #DBB9AB",
"wX c #DDB8B2",
"eX c #E2BDB5",
"rX c #E1B3A7",
"tX c #81C2A6",
"yX c #83C5AA",
"uX c #83CAAD",
"iX c #8AC7AD",
"pX c #8BCDB2",
"aX c #86CEB1",
"sX c #96CBB5",
"dX c #8BD3B6",
"fX c #94D6BA",
"gX c #93D9BC",
"hX c #96D5BA",
"jX c #90C4AB",
"kX c #A4CBB8",
"lX c #DEC0B5",
"zX c #E7C5BC",
"xX c #99DDC1",
"cX c #A9D5C2",
"vX c #B1D4C0",
"bX c #EDCBC3",
"nX c #EACBC3",
"mX c #F2CBC5",
"MX c #F3CBC8",
"NX c #F4D2CA",
/* pixels */
"d.d.d.d.d.d.d.d.x.j.d.j.d.d.j.d.N.N.N.d.d.j.j.d.j.N.N.tXc.v.k.c.j.x.x.x.x.x.v.x.j.c.d.j.j.j.N.N.j.N.k.Z.N.j.j.j.c.j.N.C.d.9.",
"d.d.M.d.d.d.d.d.d.d.j.j.j.j.j.C.N.C.N.j.d.j.j.j.j.k.j.k.c.j.c.C.c.x.x.x.x.x.x.x.C.c.C.C.Z.C.A.N.N.N.C.N.j.g.d.l.j.j.j.d.d.9.",
"d.d.d.d.d.M.j.x.c.c.d.N.d.c.j.C.j.c.c.c.j.N.Z.N.j.j.N.j.j.B.j.x.B.x.V.x.x.x.c.x.c.c.j.d.N.j.g.f.N.j.j.j.j.k.N.Z.Z.j.f.d.a.p.",
"s.d.d.M.M.j.B.d.B.j.C.j.C.N.j.j.j.v.j.c.Z.uXuXuXC.C.j.M.d.B.M.B.V.w.w.w.x.B.C.c.C.C.c.c.N.j.j.d.d.d.j.j.Z.uXpXpXiXc.g.j.j.d.",
"d.d.d.d.C.d.j.N.d.c.j.j.j.N.j.c.v.c.c.v.dXgXgXaXA.S.C.x.B.M.x.M.0.5.5.5.w.x.B.x.g.d.c.c.d.N.N.N.C.C.N.c.A.pXgXfXpXtXk.c.c.d.",
"d.d.j.B.d.C.x.M.C.j.c.j.C.j.c.j.v.c.v.A.dXxXgXdXA.C.c.C.C.C.d.d.0.5.} ,.e.x.v.x.j.c.c.d.d.M.N.M.s.M.M.N.uXhXcXhXjXZ.k.c.C.d.",
"d.x.j.d.c.j.j.c.d.j.j.j.j.j.j.j.c.c.c.A.aXgXgXdXZ.v.k.c.c.Z.j.f.y.7.7.7.y.g.v.v.tXv.j.j.N.N.N.M.s.M.M.g.Z.sXgXhXiXtXk.c.C.d.",
"d.d.B.j.B.d.d.j.d.j.j.d.j.j.j.d.g.c.c.S.A.aXpXuXc.k.h.k..X.X[.h.g.i.y.y.i.b.XXiXt.r.,.7.f.N.M.m.B.C.M.d.c.iXjXiXiX.Xk.c.c.d.",
"M.C.C.C.N.d.j.j.j.j.j.j.c.c.c.C.N.N.j.j.j.j.k.].].XX'.(.).).{.'.(.).'.'.'.'.(.u.2.| [  .@.z.N.m.M.M.M.d.j.j.k.k.h.k.j.j.j.j.",
"d.d.j.d.j.j.j.j.j.j.j.j.c.j.c.c.M.M.N.j.j.h.h.[.`.3.3.+.G.&.D.o.1.o.o.o.o.1.o.1.+.[ n  .@.M.N.M.M.B.C.C.k.k.k.v.k.k.k.j.c.c.",
"d.j.j.C.N.j.c.C.c.j.j.j.j.c.j.c.N.N.N.N.k.h.[.[.{.&.B B B V V V #.Q V Z Z #.o.Q B O...[ @.].N.N.d.d.j.c.j.j.C.C.c.c.c.C.c.C.",
"c.C.C.C.C.j.j.j.c.C.j.j.j.j.k.j.N.N.].N.h.`.'.'._.G.#.#.~ ~ %.%.T ~ $.$.~ ~ W ! V O.O.X.+.`.].N.d.d.p.p.d.C.C.C.d.j.j.j.j.j.",
"j.j.C.C.c.j.c.j.C.c.k.j.j.j.v.j.N.].N.].[.[.&.&...&.*.^.!.1X$XW.*.~.1X1X=X~.T.:.T Q O.B O./.[.].y.r.6.7.p.M.B.M.B.M.N.d.j.j.",
"d.j.N.j.N.j.j.C.j.j.c.j.j.j.j.v.N.].'.[.[.[.&.#.V $.*.^.-X0X5X%X;.Q.%X3X-X&XT.:.! ~ T M ..&./.'.y.7.} @.9.M.V.M.B.B.B.C.j.j.",
"C.C.C.C.c.j.j.j.j.j.j.j.k.j.c..XN./.l.&./././.&.$._.2X;X%X-X>X#X=X-X3X5X5X>X&X&X;._ ! ~ #.&.&./.t.r.@.6.9.m.V.V.V.V.B.B.j.j.",
"uXuXuXA.c.j.d.g.j.j.j.j.k.k.k.[./.o.....O.&.&.&.*.6XzXzX3X+XY.#X7X:X>X4XrXrX>X&X+XT.I.E.R.$.$.&.t.r.r.r.w.m.m.V.V.V.B.j.j.j.",
"dXgXgXpX.Xg.d.C.N.Z.A.tX].'.[.{.{.&.B V #.Q F.^.L.2XNXnX9XI.!.;X7X:X0X8X4X4X4X*X#X;.I.!.R.%.R V G.{.u.l.N.f.M.m.m.m.d.d.C.C.",
"gXgXgXdXtXb.c.S.N.d.f.l.u./.&.#.#.%.F.Q T T ~ ) P.@X9X9XqX;X-X@X@X=X:X8X3X4X<X*X+X;.I.@X@XL.K.^ J._.t.).yXN.N.S.M.N.M.B.j.j.",
"gXgXgXpXb.x.c.v.N.d.N.].[._.o.h j R.^.J.T T R R ! ) Y.%XwXzXzX-XQ.W.;X3X:X8X3X*X+XI.W.3X9X1X!.R.T #...+.].N.N.V.M.M.V.C.d.d.",
"aXaXpXyXv.b.c.A.N.tXjXjX{./.O.h j *.!.R.^ W R U W :.:.:.0XmXmX3XI.Q.-X3X3X8X4X>X+X;.W.9X9X1X!.R.%.#.#.G./.l.z.@.9.M.S.B.m.d.",
"Z.Z.S.v.c.g.c.v.aXhXsX/.O.B #.#.%.*.) ) K.:.P.$X%X%X&X:.1X5X5XY.( I.=X:X8X8X4X*X-.-.;.*X=X!.!.!.W.*.$.G.o.+.[ { 6.a.S.B.m.M.",
"c.d.j.c.c.c.v.iXfXvXkX+.f h #.^.R.! L ) P.U.1XMXMX5X&X:.Y.Y.Y.) I ( @X9X0X5X3X#XE I -.;.W.@X9XlX>XI.R.F.O.[  .] } q.V.B.M.B.",
"C.d.d.C.c.j.c.XXjXkXkXo.f j $.E.L.) W :.P.Y.1XMXMXwX$XP.Y.P.P.:.I ( @X3X0X0X,X@XE E E ;.I.!.7XwX-X+XT.%...X.[ { } q.B.M.s.C.",
"B.d.d.c.c.b.c.v.kXkXkX#.u j %.E.U.$X1X1X5X5X5XmXMXeXwX5X%X:.K.K.( =.=X5X7X7X:X*X;.-.-.;.-.%.K.=.T._ _ T h ..[ { 6.s.C.s.d.C.",
"M.N.C.C.C.c.v..XoXoX_.#.j d *.E.@XeXNXmXNXNXbXNXNXbXNXMX!.I R K.P.~.-X3X3X0X0X>XQ.Q._ E E I s F Y ` ` j 2 f 2.b.d.f.B.x.d.c.",
"d.d.M.M.j.c.b.`.oX_.J.Q M a L.W.$XwXbXbXNXNXnXnXzXnXNXzX@X! ! =.U.@X1X7X0X3X3X-XW.W.=.! E P s i K E R V h N t.b.g.d.S.C.c.Z.",
"j.d.M.j.j.j.h.`.3.O.Z Q ~ ^ 5XwXqXzXmXnXnXnXlXlXlXwXlXlX2X!.Q.+XU.W.-X9X4X*X&X%X%X-XW.=.=.~ P K K Y G j 2 f 3.|.j.d.C.B.c.C.",
"N.N.N.N.j.j.v.`...f m $.E.~.nXNXnXNXNXzXNXnXlX6X6X6X9XwX7X7X7X*XI.I.;X0X3XW.Q.@X5X0X1XE.W.L.! ! Y S s ; X : <.XXk.f.s.a.a.d.",
"j.N.N.N.N.N.k.`.+.f j $.~.E.wXbXbXNXzXzXzXzXlXlX6X6X6X7X,XqX<X#X+XQ.:XqX:X;.;.Q.>X5X$XU.P.^ U / L J e 9 + : <.XXg.e.8.8.0.a.",
"N.l.l.N.N.j.g.[.o.f h ~ U.R.wXbXmXNXzXzXzXzXqX7X9X6X,X,X,X,X<X*X*X*X,XqX;X-.` -.Y.@XK.W / K 0 t S z a y , 1 4.XXy.7.5.5.8.m.",
"l.k.N.N.N.k.].'.+.f u $.~.!.nXbXzXNXzXeXlXqX6X6XqX,X,X8X<X<XrX>X,X:X<XqX*X-.` ( ;.U.) G a e @ O t r a c o 1 1.XXy.7.5.5.8.n.",
"N.N.N.N.N.N.].[.O.f j %.!.!.wXwXzXzXzXeX<X,X,X,X7X,X8X<X,X<X<X<X:X,X8X8X*X;.( _ K.Y.) H a e # # t J x y o 1 1. Xg.e.8.8.8.n.",
"M.m.M.N.N.].[.'.o.h j F.2X2X!.&X@X=X=X;X7X:X,XqX7X<X<X8X*X+X+X#X<XqX,X:X:X*X+X*XW.$X! 4 @ 4 $ % t J J % * & 3.oXb.f.w.w.n.m.",
"M.M.M.M.N.N.h.'...f j R.9X3XW.P.I.E.;.W.2X7X:X:X,X<X8X<X+XI.I.+X<X8X<X,X<X8X:X3XY.$XW $ @ 8 % # t J J r , : 1.XXb.c.M.M.M.M.",
"M.M.M.M.M.l.].'.+.h j L.6X1X+X_ =.L.I.~.3XqX8X,X:X*X*X*X#X+X#X*X<X:X<X:X:X8X8X;XK.) Y t $ 8 8 # t t c w , < 1.XXb.c.x.B.M.M.",
"m.m.M.M.M.l.[.[.O.h j >.~.U.Y G I =.Y.@X:X7X8X8XqX*XQ.Q.#X:X8X8X<X<X<X:X;X0X0X@XE D i H J 4 % % % % 0 7 - 1 H.oXb.c.d.M.M.M.",
"0.0.n.a.N.k.[.[.O.h j %.Y.=.K F K ) W.@X-X3X5X8XrX*X;.;.+X:X<X4X8X<X0X8X7X8X7X@XK t S L J r % % % % 3 = * < H.sXiXZ.N.N.N.M.",
"5.@.@.0.N.N.]./.X.h ; P ` Y K S K U ) K.@X1X-X%X*X*X*X*X#X>X<X4X8X:X8X8X>XQ.I.) K L D J J c % % % $ 3 = - 1 _.cXsXA.j.N.N.N.",
"5.@.@.0.f.N.N.).b 2   X $ 6 F S S i a Y P.~.T.T.I.*X<X<X<X4X8X8X4X:X:X0X*XE F K L ! / c c c % % % o # * - < ).cXsXZ.j.j.l.d.",
"8.5.@.0.f.N.].`...2 X O $ $ $ S H D a U P.E.W.W.Q.%X4X<X8XrX8X:X8X3X7XqX=XI 6 K / :./ c J c o % # o = = - < ).kXsXZ.j.N.N.N.",
"a.m.m.m.N.N.k.u.b : : 0 e i t S a e 6 s H H I ! U P.@X%X#X@X%X#X-X@X-.I.=.I W H i t a x q % r c 0 , w , - < H.XXtXv.j.j.g.j.",
"m.M.M.M.N.N.k.u.g : : u x H J L a 4 @ @ 4 4 6 i D ) Y.!.W.W.W.I.I.I.I F D K ! a 4 @ $ # # q x J w o O & & : 3. X.Xv.j.d.j.N.",
"M.M.M.M.M.N.l.u.g : < l s x p z r 0 $ @ @ @ 4 e H ! L.Y.U.Y.U.K.I.Q.I d a U :.H 4 # # o # q x x w = , * : < 3.|..Xc.j.d.j.N.",
"N.M.M.M.N.j.f.u.X.b m l u y 0 0 e e p e 8 4 8 r 0 z L L L ! E U ( ! G G U / ! J 0 4 0 r c q c w q w l l A b 4.XXv.c.j.C.N.N.",
"N.N.C.N.C.C.v.|.4.<.C v , * = = 9 p x r 5 o # 7 O o o @ 4 s a a d F G U ! W / / 8 @ 8 J J c % o y y x Z >.<.H.XXk.N.N.V.M.N.",
"N.N.N.N.N.j.k..X2.<.C l : , + * 3 y c w 3 o 7 7 o o # 8 e z D s d G U E ! ! W / 8 o % x x q w 7 p l l Z H.1.u.|.k.N.V.M.M.M.",
"k.l.j.j.M.g.j..Xi.H.H.1.A M l , = 9 q w q c c w % % % w c M M D s G I F H L J z t 8 8 q q c c c q > > A _.H.(.|.j.j.M.M.M.M.",
"N.N.j.N.N.d.c.tXXX}.oXH.1.Z 1 & * = , w l x l o 7 o o o r x x a F i j d i H a z % % 7 o o c x l w , - Z OXoX Xb.c.c.M.M.M.M.",
"jXpXdXuXZ.C.C.j.Z.k.u.(.3.b g < k , 1 w l A x 7 o 7 o 7 r r x a i F F S S S S S % # o o 7 w l k 1 1 1 C }.}.b.b.c.x.d.B.N.N.",
"sXgXgXaXA.N.N.j.g.g.g.`.(.u.t.3.1.A A C >.>.A , , 7 o w 0 7 c z D F S S S S S a % % 7 , , , w k A A C 4. XXXb.b.c.x.M.x.j.M.",
"gXgXxXdXZ.j.j.j.j.k.h.].[.XXoXoX}.4.<.<.1.1.A < & & + , *   = 0 a i d s S J a p % % , o + + o & A C <.4.XXXXb.C.x.x.B.M.M.N.",
"dXfXfXaXv.j.j.Z.tXtXtX].`.`. XXXg.4.2.<.<.<.C g k k , k u , y w s y s e p a s y = = 7 1 , k w k C <.4.4.b.b.c.x.x.B.M.B.M.M.",
"N.uXuXtXN.j.k.tXiXpXsXiX.X].`.h.b.x.g.y.2.,.,.[ 2.4.C C Z >.Z l - ; ; ; - , ; > * - l A Z 1.H.H.4.b.}.b.b.v.x.x.V.M.M.M.M.M.",
"l.N.Z.N.k.h.k.yXfXhXgXsXiXZ.b.c.S.x.x.x.,.{ { { y.i.<.<.<.1.>.v . & & : + . & & . & v C 1.H.oXoX|.b.b.g.b.S.V.x.V.V.V.V.M.M.",
"N.d.j.j.k.c.tXyXsXgXhXhXyXc.j.j.x.V.x.0.' ] ] ] r.y.2.2.<.1.1.C v v b b v v v b v C <.3.4.u. X|.b.b.x.x.x.x.x.x.B.B.M.M.N.d.",
"N.N.j.N.Z.v..XiXhXhXgXiXZ.N.C.C.x.m.V.w.5.' ' ' e.x.x.b.b.}.|.}.}.}.(.).}.}.}.}.XXoXsXsXXX|.|.|.b.b.b.x.c.x.x.x.V.C.N.N.l.d.",
"d.j.N.c.N.k.b.k.iXpXiXyXZ.M.M.M.M.C.B.m.0.8.8.0.m.m.d.N.k.].].].b.b.b.b.|.b.|.|.|.iXpXpXb.v.c.c.c.c.c.C.j.C.N.M.N.d.g.d.j.N.",
"B.B.d.j.c.k.k.v.k.tXZ.C.d.f.s.d.C.N.C.M.M.s.m.m.m.m.V.V.N.N.k.N.b.c.b.c.v.v.v.v.c.c.c.v.C.C.x.x.c.c.c.c.c.j.N.N.j.d.j.j.l.j.",
"M.d.M.c.j.c.j.v.k.k.N.j.d.d.d.N.N.l.N.N.B.C.V.V.V.V.V.S.M.N.M.N.x.c.c.c.c.x.x.c.d.d.d.d.x.x.x.B.d.j.j.j.d.j.N.j.C.Z.C.c.j.k.",
"B.d.j.N.k.j.j.j.j.j.N.Z.N.B.B.C.d.N.l.N.M.B.B.M.M.V.M.V.M.B.N.M.x.x.x.x.B.x.x.S.B.B.d.M.B.B.B.B.d.j.j.j.j.j.N.l.Z.N.c.C.j.j.",
"d.d.d.c.d.c.c.C.j.c.N.c.j.d.C.C.N.N.N.N.M.f.m.M.a.9.0.9.z.M.M.m.N.N.N.l.x.x.C.C.C.C.C.B.C.C.M.N.C.N.N.N.N.N.N.N.f.p.r.p.f.f.",
"d.j.d.d.d.B.M.d.M.d.B.d.x.N.x.d.M.N.N.N.N.N.N.M.z.7.@.6.m.M.M.M.M.N.N.N.x.C.c.B.N.N.d.M.C.N.N.f.N.M.N.N.N.N.N.N.p.7.7.z.d.f.",
"d.d.d.d.M.d.M.M.B.B.d.B.C.C.C.j.M.M.M.N.N.N.M.l.z.@.@.7.z.M.M.M.d.l.N.N.N.j.N.j.j.l.f.j.j.c.j.j.M.M.M.M.N.N.M.N.f.z.9.s.M.M.",
"d.d.d.B.M.M.M.M.s.d.d.d.j.N.j.j.N.M.M.M.N.N.N.l.7.@.@.7.z.m.M.M.N.N.N.N.l.N.j.N.N.N.j.j.j.j.j.j.M.M.M.M.M.M.M.M.N.M.M.B.V.M.",
"x.M.M.M.d.d.d.d.x.d.j.d.j.d.j.j.f.j.d.d.d.d.d.d.q.9.7.9.q.a.d.M.M.N.d.d.f.f.d.d.j.d.j.f.j.j.j.j.d.d.M.j.d.M.j.M.d.d.d.M.j.s."
};
