/* XPM */
static char *result[] = {
/* columns rows colors chars-per-pixel */
"62 62 218 2 ",
"   c #3E3C26",
".  c #40372F",
"X  c #40392E",
"o  c #423933",
"O  c #374F00",
"+  c #384F01",
"@  c #3A4C0B",
"#  c #365403",
"$  c #385101",
"%  c #3A5807",
"&  c #375609",
"*  c #375D0B",
"=  c #395C0B",
"-  c #3B4613",
";  c #3C461C",
":  c #3E5B11",
">  c #37610E",
",  c #3B610E",
"<  c #366513",
"1  c #386613",
"2  c #386915",
"3  c #356619",
"4  c #366C1A",
"5  c #396D1A",
"6  c #37721C",
"7  c #39721D",
"8  c #3E4B2F",
"9  c #2B712B",
"0  c #367521",
"q  c #397521",
"w  c #377B24",
"e  c #387B25",
"r  c #397F28",
"t  c #307731",
"y  c #367733",
"u  c #405C0A",
"i  c #425615",
"p  c #44610D",
"a  c #456513",
"s  c #456A15",
"d  c #496A16",
"f  c #486A19",
"g  c #43701C",
"h  c #4C731E",
"j  c #51731B",
"k  c #51781D",
"l  c #464728",
"z  c #4E5131",
"x  c #466526",
"c  c #467925",
"v  c #4C7B24",
"b  c #557D26",
"n  c #567F28",
"m  c #487537",
"M  c #554945",
"N  c #5F504F",
"B  c #62574C",
"V  c #655555",
"C  c #685859",
"Z  c #4E7B41",
"A  c #547447",
"S  c #37842C",
"D  c #38842C",
"F  c #38862C",
"G  c #2D873B",
"H  c #368731",
"J  c #398531",
"K  c #368933",
"L  c #398931",
"P  c #338C3A",
"I  c #3C8C39",
"U  c #3E903E",
"Y  c #46832B",
"T  c #56822B",
"R  c #5B842A",
"E  c #428E35",
"W  c #4B8833",
"Q  c #5D8B32",
"!  c #578B39",
"~  c #419137",
"^  c #459339",
"/  c #49953B",
"(  c #4B993D",
")  c #56973C",
"_  c #628A2C",
"`  c #618E32",
"'  c #699534",
"]  c #62933A",
"[  c #68983A",
"{  c #68A13F",
"}  c #1F8D4F",
"|  c #1D975B",
" . c #1E9A5C",
".. c #278B47",
"X. c #3E8A4E",
"o. c #299349",
"O. c #2A934A",
"+. c #399746",
"@. c #259552",
"#. c #219B5B",
"$. c #259858",
"%. c #3B9A54",
"&. c #169F67",
"*. c #1A9E64",
"=. c #179F68",
"-. c #19A067",
";. c #17A069",
":. c #19A069",
">. c #23A46E",
",. c #26A571",
"<. c #2AA773",
"1. c #25A873",
"2. c #2DA976",
"3. c #32A976",
"4. c #34AB7A",
"5. c #3BAD7D",
"6. c #438F43",
"7. c #578846",
"8. c #469447",
"9. c #549D43",
"0. c #5F9F43",
"q. c #568D57",
"w. c #4E9E5C",
"e. c #57955C",
"r. c #659B40",
"t. c #56A144",
"y. c #5CA548",
"u. c #58A35A",
"i. c #67A646",
"p. c #6EA549",
"a. c #63AA4D",
"s. c #74A848",
"d. c #73AB4D",
"f. c #65B14F",
"g. c #6AB44E",
"h. c #76B44D",
"j. c #7EB34C",
"k. c #68AD51",
"l. c #71AF52",
"z. c #6AB552",
"x. c #6CB955",
"c. c #75B354",
"v. c #79B556",
"b. c #78B957",
"n. c #76BA59",
"m. c #7CBD5D",
"M. c #5A9766",
"N. c #56A567",
"B. c #52AE70",
"V. c #5AAB76",
"C. c #7FBF60",
"Z. c #63A67A",
"A. c #62A979",
"S. c #7FC157",
"D. c #7CC45D",
"F. c #7EC95F",
"G. c #7FC160",
"H. c #7AC660",
"J. c #71D376",
"K. c #81B74E",
"L. c #83BE58",
"P. c #86C65B",
"I. c #91CD5F",
"U. c #81C161",
"Y. c #83CA62",
"T. c #89CD66",
"R. c #8CCE68",
"E. c #87D265",
"W. c #8ED469",
"Q. c #95D568",
"!. c #93DB6D",
"~. c #9ADE71",
"^. c #96E06F",
"/. c #9CE273",
"(. c #9DE674",
"). c #A0E16E",
"_. c #A2E673",
"`. c #A3EA76",
"'. c #A5ED79",
"]. c #A8EE7A",
"[. c #A6F07A",
"{. c #ACF47E",
"}. c #B0F67F",
"|. c #3EAE80",
" X c #3DB182",
".X c #41AF82",
"XX c #55AE82",
"oX c #44B183",
"OX c #49B387",
"+X c #4DB489",
"@X c #57B68B",
"#X c #53B68D",
"$X c #57B791",
"%X c #5BB992",
"&X c #67AC83",
"*X c #62B283",
"=X c #63B68D",
"-X c #69B18C",
";X c #6BB691",
":X c #62BB96",
">X c #6AB993",
",X c #66BD99",
"<X c #6CBE9D",
"1X c #70BF9F",
"2X c #6FC09F",
"3X c #70C09F",
"4X c #6FC0A0",
"5X c #70C0A0",
"6X c #79C3A6",
"7X c #7DC4A9",
"8X c #AFF780",
"9X c #B1F981",
"0X c #83C6AD",
"qX c #89C6AD",
"wX c #8BC9B2",
"eX c #92CBB6",
"rX c #95CDB9",
"tX c #9CCFBD",
/* pixels */
"5X5XwX0X5X5X5X5X,X:X4X5X5X5X5X<X5X5X5X5X5X4X5X5X5X5X7X7X5X5X4X:X<X<X5.OX3X3X5X0X5X5X3X5X5X5X1X5X3X5X5X5X0X5X5X5X<X:X2X$X5.%X",
"2X6XtXwX5X5X5X5X5X4X,X<X5X3X5X4X5X5X5X5X5X5X5X4X5X5X4X5X5X>X>X>X<X<X>.oX5X<X2X2X5X5X3X5X5X5X5X5X5X4X5X5X5X5X5X5X5X5X5X+X,.%X",
"5X5X5X5X5XeXrX5X5X,X<.|.5X5X5X5X5X2X2X2X5X4X5X4X1X4X5X5X<Xw.I I A.5X,X<X3X#X+X2X5X2X5X5X5X5X5X5X5X5X5X5X5X5X5X5X5X5X5X<X,X<X",
"3X5X5X5X5XqXqX5X4X<X|.#X5X3X5X3X4X5X0X7X5X4X5X4X5X5X5X&Xe.f.z.z.u.M.<X3X3X$X%X2X5X5X2X6X0X5X4X4X<X5X5X5X5X1X5X6X0X5X5X5X$X+X",
"5X4X4X5X4X5X5X4X3X5X5X5X5X<X5X5X5X6XtXwX<X5X6X4X5X1X5Xe.$ I.9X9X' = -X<X4X4X5X4X2X4X5X0XtX7X4X5X5X4X5X5X4X5X4X7XrX6X<X5XOX<.",
",X5X5X5X5X4X5X5X5X5X5X:X+X<X5X<X5X<X6X6X5XwXwX5X5X;Xm q r !.9X9Xg.0 x q.5X4X,X2.#X5X5X5X7X5X6XrX7X2X5X5X5X3X5X5X5X5X5X5X<X2X",
":X5X5X4X5X5X5X4X5X5X5X%XOX<X5X5X5X5X4X5X5XwXqX*X*XA.T c L ^.9X].f.F k 7.=X*XXX2.#X5X5X5X5X4X6XrX0X<X5X5X<X5X5X5X5X4X4X5X5X5X",
"5X5X5X5X4X4X5X5X5X5X5X2X2X2X5X4X5X4X5X4X5X6X*XI L / `.P.L !.].U.t./ `.H.L L 8.<X5X5X5X5X5X5X4X5X5X5X5X5X5X5X3X5X5X1X5X5X5X5X",
"4X4X5X1X5X5X2X4X5X5XwX0X5X5X<X#X2X3X3X3X3XB.u.H.t.^ [.P.K ^.'.P.9.^ ].P.H x.H.w.OX$X2X3X2X2X2X2X5X5X5X5X2X$X$X2X5X5X3X5X4X2X",
"5X5X5X5X4X5X5X5X1X5XqX7X5X5X,XoX%X5X3X2X;X8.t.`.z./ ~.P./ ^.`.G.t.6.`.D.F ^.^.F %.B.=X2X2X2X2X2X<X<X4X4X2X+X+X3X3X5X5X4X7X0X",
"4X2X4X5X5X3X1X5X5X5X5X4X5X4X4X<X2X2X6XV.L L F ~ a.c.d [ [.8X'.G.m.m.Y.] % Q.^.L P P I u.2X3X2X2X#X+X<X4X2X2X2X5X3X5X5X2XwXtX",
"7X0X5X1X4X5X5X4X4X4X5X5X5X7X7X5X2X2XV.N.z.z.z.z.n.b.5 r.9X9X`.U.U.U.U.r.2 P.!.z.g.g.g.B.+X$X2X2X%X#X<X6X0X,X:X4X5X4X5X5X6X7X",
"eXtX6X<X5X5X5X5X5X5X5X5X5XrXrX5X2X>XI g.9X9X9X9X!.n.~ x.9X9X'.U.U.U.U.a.L x.E.{.}.9X}.J.;.4.OX2X5X5X2X0XtX$XOX5X4X5X5X2X5X4X",
"6X6X5X4X5X4X2X5X4X5X2X5X2X6X6X5X2X;X2 Q W.{.].R.~.`.^.(.8X8X{.'.'./.U.m.c.^.!.t.W.}.^.B.-.:.1.2.|.#X2X6X6X2X,X5X3X5X5X5X2X5X",
"<X4X5X5X5X5X3X5X5X5X5X5X4X<X5X5X;XV.= h p.R.!.T.`.9X9X9X9X8X9X9X9X8XW.T.U.].(.t.D.W.h.t. .-.;.;.<.5.$X%X:X2X2X5X5X2X4X2X5X5X",
"%X5X5X5X4X5X5X4X5X4X2X5X5X5X5X5Xw.D # + # e t.{.9X9X9X8X}.9X9X9X9X9X9X~.C.'.9X}.g.F = 1 K  .-.-.:.:.;.<.oX,X5X5X6X4X4X5X5X4X",
"<X5X5X5X4XqXqX5X5X5X3X1X5X5X;Xw.x.Y.K._ $ i.W.}.E.S.[.9X9X9X9X}.9X9X}.[./.D.D.}.^.n.% T F.%.@.-.:.*.O.$.1.OX%X7XtX6X5X5X4X5X",
"<X,X4X4X4XeXrX5X5X5X3X1X5X>XA.^ E.9X9Xv.% Q.}.[.f.^ '.9X9X9X9X9X}.}.9X}.{.t.t.(.{.`.s ' 9Xy.U  .*.*.P O.=.4.oX6XwX6X5X<X5X5X",
"5.,.,X4X4X6X5X5XwXtX6X1X1Xm n `.{.{.R.a.D ~././ y.D.[.9X9X9X}.9X}.}.}.}.}.H.z./ E.[.L g.9X8XP.= ..*.*.*.;.:.|.<X5X4X5X5X5X5X",
"+X.X<X4X4X4X5X2X0XwX1X1X1Xq.7.j.P.Y.!.n.t.h.i.J x./.{.[./.{.9X{.}.{.E.^.}.(.D.L { j.t.g.P.K.p.9 } =.=.*.@.=.1.%X5X5X4X5X5X4X",
"5X5X4X<X5X3X5X5X2X3X3X3X4X5XZ.@ 6 / `.~.m.d * D D.}.}./.m.'.9X8X9X`.^ z.9X9X!.L > , b.a.F > 3 *.=.&.=.@.F #.>.#X1X5X5X5X5X5X",
"4X<X+X%X4X5X4X5X3X3X5X5X<XZ v p.P.!.W.n./ D 6 = d _ ].E.( ~.9X8X9X`.^ g.}.' d = 2 D ^ g.^.v.) 3 ..*...O.$.o.o.B.5X5X5X4X5X5X",
"5X<X+X%X5X5X4X5X5X5X4X>X*Xc d p.Y.!.n.t.D ^ W f d j P.s.r !.9X9X/.P.Y i.`._ a f e L F y.^.v.' = G #.P @.=.o.o.5.5X5X5X<X0XwX",
"5X4X2X5X4X5X5X5X5X5X5XV.L D w $ q L L F J z.U.m.L.c.p $ $ Q.9X9X[ O O n U.m.C.L.) H H L F , > F D K *.:.:.*.&.5.<X<X5X5XwXtX",
"0XwX5X5X5X$X$X3X4X<XM.u.a.a.! & = 7 S.H.Y.~.!.P.a.9.] ] ] ' ' ' ' ] ] ) 0.n.T.~.W.F.P.{ 1 # a a.a.y.+.$.&.&.:.2.>.%X5X5X6X6X",
"wXrX5X2X5X#X+X3X<X=X+.9.v.P.d.$ u j `.}.`.{.'.T.t.E G.Y.m.j % % [ U.T.k.H c.W.9X{.[.9XL.p $ d m.m.c.I @.&.&.,.oX|.,X<X%X,X<X",
"5X6X3X5X2X2X2X3X|.,.>Xe.% d.p.+ s.].9XE.^ ^.}.}.z.~ (.^.U.v.v.v.m.Y.[.S.L W.9X9Xx.( `.{.).j d C.T < | ;.&.&.<.<X5X5X,XoX%X5X",
"5X5X5X5X3X5X3X3X#X5.M.7.n c.c.n ' K.j.h.x.(.[.Y.) c `.!.a.T.!.!.n.f.{.L.q z.W.8XE.g.j.K.j.Q Q m.[ b t } &.,.5.4X5X5X<X,X<X5X",
"5X4X4X5X5X5X5X5X5X;X: b L.m.m.L.R O O ' }.9X~.L 1 p _.G.J !.9X9Xz.^ `.K.$ 0 t.{.}./.p $ & p.L.m.L.v.u 9 ;.4.+X6X7X5X5X5X,X$X",
"5X5X5X5X5XwXwX5X6X>X: 5 / h c / { i.e c k ~.Q., # $ j ] c.(.9X9XT.k.T a $ # T 9Xj.k 7 W p.9.W f W E $ y 4.%X,X0XtX7X5X5X|.:.",
"3X5X5X4X5XwXwX5X-XM.= * e f c ^ k.C.9.e = j.j., = = O n W.].9X9X_.L.= # * * k I.Q > ^ a.G.t.W d 7 q $ y 4.,X4X6X0X5X5X5X$X+X",
"5X4X5X5X5X5X5X6XZ + + O & p.G.C.G.C.L.a.S , , D D D # ' 9X9X9X9X}._.p 1 F H w $ 6 E n.D.U.m.m.U.b + + t :.%X5X4X4X5X5X5X5X5X",
"5X5X5X4X5X5X5X5XZ.q.& + + v T 9.l.G.U.a.H 0 6 H H J 7 Y ' ).9X9XL.` g e F L D 7 D E n.U.U.y.) n a + + t 3.OX$X5X5X4X5X5X5X5X",
"2X4X<X2X5X5X1X5X;X&Xf u u + = E a.C.m.y.L L E I L F D 5 # P.`._._ % D F D I E I L L x.S.m.9.r O # u u m 5.5.OX<X5X5X5X4X5X5X",
"4X<XOX#X5X5X5X5X7.i d.b.c.a a b.C.m./ L L k.m.m.( S = 1 S s p u 7 e % 1 L k.m.n.9.H I y.U.C.i.+ Q v.L.) # $.1.$X5X4X5X5X5X5X",
"5X2X$X%X5X5X;XM.7.n y.a.a.c g ] i.y.q Y t.b.U.U.a.) % 1 H n b b Y F # g 9.n.U.U.f.) 7 W a.] Q 1 ! a.a.] b t ..#X3X5X5X4XqXrX",
"5X5X4X4X4X5XZ.& ] m.L S D L e $ 4 D # n U.U.U.U.P.c.u 1 L c.U.U.t.S # b U.L.U.G.U.v.u 1 J * * D H H S 9.L.f 3 #X5X5X4X5X0XrX",
"wXeX6X5X5X5X>X&X7.d = 5 H H S w 2 = O n U.L.U.U.` f w r L z.U.U.t.S r 7 f c.U.U.U.v.u # = 0 r L H r > , f ..| #X3X5X5X1X5X5X",
"qXeX5X5X5X5X4X5XZ O a v / L D r = + + j d.m.m.p.v * 0 J 8.c.U.U.y.^ D 5 = ] l.U.c.[ % $ + 6 r H E / h u @ } 2.$X5X2X5X5X5X5X",
"4X5X5X5X4X5X5X5Xm % c.G.G./ w $ + + + & $ p.p.% 5 D & n P.U.G.U.U.v.u 1 D = d U.n $ + + $ $ > S a.U.m.! @ w.OX4X5X5X5X4X5X5X",
",X5X5X5X5X5X5X5XA.e.n b b 5 2 6 6 6 6 6 6 b j $ > 1 6 c n c.U.U.[ b 7 5 2 # % b c 4 6 6 6 6 6 1 c b b W X.XX:X4X5X<X<X5X5X5X",
":X5X4X5X5X5X5X5X6X;Xx : : $ = D L L D D S * # # $ # w 4 + i.m.n.v $ r 5 $ # # $ 6 D D D L L e $ # & # y  X%X4X6X0X6X5X5X<X4X",
"4X5X5X4X5XrXeX5X5X<X-X-X-Xf * S F D * # # q D D 1 $ # # $ c E I 2 + # # $ q D D 1 # # 2 L K e + 9 *.| *.>.|.+X0XtX7X4X5X5X5X",
"$X#X4X5X5XqX0X5X7X0X6X4X4Xe.m 6 6 5 # % 1 D D 6 = $ 1 1 1 6 6 6 5 1 1 = $ 2 w L q 1 $ = 6 5 6 9 @.:.=.;.=.1.|.5X7X5X5X5X5X5X",
"4.,.,X1X5X4X5X5XqXtX6X5X5X5XZ.& $ # $ 1 L H e $ $ # D F F , $ O 6 L L 6 $ + = J L D & $ $ O 3 &.:.;.:.:.;.&.2.2X4X5X5X4X5X5X",
":X%X1X5X5X5X5X4X6X7X4X5X5X5XZ.+ 1 e w D L L w $ 1 D H L H r w w D J F F e # = D H H e w e % 3 *.-.;.;.-.:.:.>.$X5X5X5X5X4X5X",
"5X5X,X,X5X4X5X4X4X4X5X4X5X5XZ.1 5 e w D H D 6 * 5 r F L F L L L F H L D w 1 1 e F D r w w 3 9 &.;.-.-.-.#.*.:.#X5X5X5X4X4X4X",
"5X4X.X#X5X4X5X4X4X4X5X4X5X6X*XJ 1 $ $ 1 H = , S 1 # S L L L F L L J L 6 $ w w $ 6 F & O # } &.&.:.:.:.@.H | &..X5X<X5X5X5X6X",
"5X4X%X,X5X5X5X4X5X5X5X5X1XV.8.2 % + + % 1 # # 1 2 q J H J L r 1 r H H S 6 D D 7 2 1 # $ $ G @.:.:.*.O.O.@.o.O.5.5X4X5X5XqXtX",
"5X5X5X5X5X<X<X5X5X5X5X<X-X6.6 $ + $ $ + O $ $ + 5 r D D F S q % q F D D y F F K 2 # $ $ $ 6 K *.*.*.P o.-.o.P 3.+X<X5X5X0XwX",
"eXtX6X4X2X#X+X4X5X5X<XV.I 1 # + + $ + $ + $ $ $ ; 8 @ 5 H > : B m r & @ l D L L D r # $ + # 1 K $.;.*.-.-.-.>.2.:.%X5X1X4X4X",
"0XqX5X4X2X$X$X5X$X+X4XV.D > + $ $ + $ + $ + + - l X l x Z z z C A A z l   8 y H e 5 # + + + = D @.*.@. .-.-.>.$X$X<X<XOX,X4X",
"5X5X5X5X3X5X4X5X|.,.,XV.S * $ $ + $ + $ + $ @ . . o V C C C C V C C C N o   8 y 1 + $ $ + $ = S @.-.H o.:.-.2.<X5X5X,X+X:X5X",
"5X5X<X4X5X4X4X5X,X%X4XV.S = O $ $ O $ + $ + + @   o V C C C C C C C C M   ; - : # + $ + $ $ * H @.:.#.*.:.2.OX5X4X4X5X5X4X4X",
"5X5X5X5X5X6X6X5X5X5X6XV.8.5 % $ + $ + $ + $ + $ - X N N N V C C N N N z   @ # # + $ + $ + % 4 P $.-.;.:.>.oX#X6XwX6X5X5X#X5.",
"5X5X5X5X5XeXrX5X4X4X4X5X<X8.0 $ + O $ + $ + $ + @ -   o o N C V M o o ; $ O $ $ $ + $ $ # 0 P *.-.-.;.<.5.:X2X0XtX7X5X5X.X:.",
"5X5X5X5X5X7X0X5X0XwX5X3X4XXXw.7 6 2 $ $ $ + $ + + + - - - z M M X - - @ $ $ $ $ $ # 5 6 q ..$.-.>.4.OX#X%X2X5X5X6X5X5X5X<X,X",
"<X5X5X5X5X4X<X5XwXrX5X5X4X4X-X8.U I = # # # # $ $ + $ $ + ;     - $ + O $ # # # # * H P P  .:.,.5.OX:X2X4X<X,X5X4X4X5X4X5X5X",
"5X5X5X5X5X5X<X5X5X5X5X5X4X4X4X,X>X*XI r r S 7 $ $ $ + + $ + + $ O + + + $ 6 S S D S | *.&.3.oX<X<X:X1.|.4X3.3.4X5X4X5X5X4X5X",
"5X<X%X,X5X5X5X5X5X5X5X5X4X4X<X%X<X<XN.w.w.N.8.2 1 1 1 1 1 1 1 2 1 2 1 1 4 G o.%.%.%.5.5.|.+X%X5X4X<X|.#X4X5.4.<X5X5X5X4X4X4X",
"5X<XOX#X2X2X5X4X5X5X5X5X5X5X,XB.%X5X5X5X5X5X*XI L L L I L L I I L I I K L #.>.B.B. X4X5X5X5X4X4X2X4X4X<X<X+X+X2X4X5X1X5X6X6X",
"5X2X:X<X4X4X3X5X5X5X5X5X5X5X2X,X<X5X5X1X5X5X<X*X*X*X*X*XA.*XA.@X*XA.*X*XXX%X%X2X%X,X5X5X4X5X4X4X2X<X4.2.3.#X<X5X5X5X5X4XqXtX"
};
