/* XPM */
static char *result[] = {
/* columns rows colors chars-per-pixel */
"62 68 77 1 ",
"  c #A70101",
". c #A90101",
"X c #AC0902",
"o c #B20101",
"O c #BC0101",
"+ c #BA0902",
"@ c #B31303",
"# c #B61B04",
"$ c #BF1804",
"% c #B92F07",
"& c #BE3D09",
"* c #C40000",
"= c #CA0201",
"- c #D40000",
"; c #DD0100",
": c #D81403",
"> c #E40000",
", c #EC0200",
"< c #F00000",
"1 c #FF0000",
"2 c #FF0A01",
"3 c #FE1503",
"4 c #FE1C04",
"5 c #C52206",
"6 c #D22706",
"7 c #D32906",
"8 c #D83F0A",
"9 c #FE2204",
"0 c #FE2D07",
"q c #FF3307",
"w c #FF3508",
"e c #FE3A08",
"r c #C84A0A",
"t c #D7490B",
"y c #D65E0D",
"u c #FC4509",
"i c #FF4D0B",
"p c #ED540D",
"a c #ED5A0E",
"s c #FF550C",
"d c #FE5C0D",
"f c #CE6A0E",
"g c #D6690F",
"h c #D57410",
"j c #FD650E",
"k c #FD6F0F",
"l c #FD730F",
"z c #FF6710",
"x c #F36A10",
"c c #FF6E11",
"v c #F67310",
"b c #FF7311",
"n c #FE7D12",
"m c #DB8412",
"M c #DD9514",
"N c #E98D13",
"B c #F08613",
"V c #FE8313",
"C c #FD8B13",
"Z c #E49C15",
"A c #FE9315",
"S c #FD9A15",
"D c #FDA516",
"F c #FDAA17",
"G c #FDAE18",
"H c #FDB217",
"J c #FDB218",
"K c #FCBD19",
"L c #EEC019",
"P c #FCC31A",
"I c #FCCD1B",
"U c #FBD31C",
"Y c #FBDC1D",
"T c #FBE41E",
"R c #FBE91E",
"E c #FBEA20",
"W c None",
/* pixels */
"WWWWWWWWWWWWWWWWWWWWWWWWWWWWWWWWWWWWWWWWWWWWWWWWWWWWWWWWWWWWWW",
"WWWWWWWWWWWWWWWWWWWWWWWWWWWWWWWWWWWWWWWWWWWWWWWWWWWWWWWWWWWWWW",
"WWWWWWWWWWWWWWWWWWWWWWWWWWWWWWWWWWWWWWWWWWWWWWWWWWWWWWWWWWWWWW",
"WWWWWWWWWWWWWWWWWWWWWWWWWWWWWWWWWWWWWWWWWWWWWWWWWWWWWWWWWWWWWW",
"WWWWWWWWWWWWWWWWWWWWWWWWWWWWWWWWWWWWWWWWWWWWWWWWWWWWWWWWWWWWWW",
"WWWWWWWWWWWWWWWWWWWWWWWWWWWWWWWWWWWWWWWWWWWWWWWWWWWWWWWWWWWWWW",
"WWWWWWWWWWWWWWWWWWWWWWWWWWWWWWWWWWWWWWWWWWWWWWWWWWWWWWWWWWWWWW",
"WWWWWWWWWWWWWWWWWWWWWWWWWWWWWWWWWWWWWWWWWWWWWWWWWWWWWWWWWWWWWW",
"WWWWWWWWWWWWWWWWWWWWWWWWWWWWWWWWWWWWWWWWWWWWWWWWWWWWWWWWWWWWWW",
"WWWWWWWWWWWWWWWWWWWWWWWWWWWWWWWWWWWWWWWWWWWWWWWWWWWWWWWWWWWWWW",
"WWWWWWWWWWWWWWWWWWWWWWWWWWWWWWWWWWWWWWWWWWWWWWWWWWWWWWWWWWWWWW",
"WWWWWWWWWWWWWWWWWWWWWWWWWWWWWWWWWWWWWWWWWWWWWWWWWWWWWWWWWWWWWW",
"WWWWWWWWWWWWWWWWWWWWWWWWWWWWWTWWWWWWWWWWWWWWWWWWWWWWWWWWWWWWWW",
"WWWWWWWWWWWWWWWWWWWWWWTWWWWWWWWWWWWWWWWWWWWWWWWWWWWWWWWWWWWWWW",
"WWWWWWWWWWWWWWWWWWWWWWWWWWWWWWWWWWWWWWWWWWWWWWWWWWWWWWWWWWWWWW",
"WWWWWWWWWWWWWWWWWWWWWWWWWWWWWWWWWWWWWWWWWWWWWWWWWWWWWWWWWWWWWW",
"WWWWWWWWWWWWWWWWWWWWWWWWWWWWTTETTTWWWWWWWWWWWWWWWWWWWWWWWWWWWW",
"WWWWWWWWWWWWWWTTWWWWWWWWWWTTTYYYTRWWWWWWWWWWWWWWWWWWWWWWWWWWWW",
"WWWWWWWWWWWWWWEWTTWWWWWTTTTPSVVAPTPWWWWWWWWWWWWWWWWWWWWWWWWWWW",
"WWWWWWWWWWWWWWWWTTWWWWTTTTJbbcbcVUTTWWWWWWWWWWWWWWWWWWWWWWWWWW",
"WWWWWWWWWWWWWWWTTWWWWWWTTUnziupcbKTTWWWWWWWWWWWWWWWWWWWWWWWWWW",
"WWWWWWWWWWWWWWTTTWWWWWTTTGs411,6aDTTWWWWWWWWWWWWWWWWWWWWWWWWWW",
"WWWWWWWWWWWWWTTTWWWWTTTTTn21111>+yYRWWWWWWWWWWWWWWWWWWWWWWWWWW",
"WWWWWWWWWWWWTTTWWWWTTTTTUD411111*XhYTWWWWWWWWWWWWWWWWWWWWWWWWW",
"WWWWWWWWWWWWTTWWWWTTEIJDz4211111-8rBYTWWWWWWWTWWWWWWWWWWWWWWWW",
"WWWWWWWWWWWWTWWWWWTTEAcci111111; %ZxGTRWWWWWWWTWWWWWWWWWWWWWWW",
"WWWWWWWWWWWWTWWWWTTTJbcbbde1111* XMAATS2WWWWWWWWWWWWWWWWWWWWWW",
"WWWWWWWWWWWWTWWWWTTUncbDTRC1111-  gPAj210WWWWWWWWWWWWWWWWWWWWW",
"WWWWWWWWWWWWWWWWWTTDbcbCVl91111;..tID911sWTWWWWWWWWWWWWWWWWWWW",
"WWWWWWWWWWWWWWWWWWTSVbs21111112>&@aFYCjuWTTWWWWWWWWWWWWWWWWWWW",
"WWWWWWWWWWWWWWWWWWTPncw11111111=MmanITRWWTWWWWWWWWWWWWWWWWWWWW",
"WWWWWWWWWWWWWWWWWWTUbb011111211>yYNbSTTWTTWWWWWWWWWWWWWWWWWWWW",
"WWWWWWWWWWWWWWWWW2DIbc011111111-#LUGKTTTTTWWWWWWWWWWWWWWWWWWWW",
"WWWWWWWWWWWWWWWW21AIbbe1111111,o fTUTTTWWWWWWWWWWWWWWWWWWWWWWW",
"WWWWWWWWWWWWWWWWw1DYVbu111111>o..6PKTTWWWWWWWWWWWWWWWWWWWWWWWW",
"WWWWWWWWWWWWWWWWSdIEAcj:O;11;.  *3FITWWWWWWWWWWWWWWWWWWWWWWWWW",
"WWWWWWWWWWWWWWWWTTTTKcjt .-*.oOo;wDTWWWWWWWWWWWWWWWWWWWWWWWWWW",
"WWWWWWWWWWWWWWWWTTTTTVdz5  o-<1,4cKTWWWWWWWWWWWWWWWWWWWWWWWWWW",
"WWWWWWWWWWWWWWWWWWTTTPVAx$*<9213nITTWWWWWWWWWWWWWWWWWWWWWWWWWW",
"WWWWWWWWWWWWWWWWWWWTTUFDFv0qj23CYETTWWWWWWWWWWWWWWWWWWWWWWWWWW",
"WWWWWWWWWWWWWWWWWWWTTTTu0DIUIlDTTTTWWWWWWWWWWWWWWWWWWWWWWWWWWW",
"WWWWWWWWWWWWWWWWWWWWWPYk10UTTRTTTTTWWWWWWWWWWWWWWWWWWWWWWWWWWW",
"WWWWWWWWWWWWWWWWWWWWWWWH3eUTTTYTTEWWWWWWWWWWWWWWWWWWWWWWWWWWWW",
"WWWWWWWWWWWWWWWWWWWWWWWTSWTTTHPTTWWWWWWWWWWWWWWWWWWWWWWWWWWWWW",
"WWWWWWWWWWWWWWWWWWWWWWWWWWWWTWWPPWWWWWWWWWWWWWWWWWWWWWWWWWWWWW",
"WWWWWWWWWWWWWWWWWWWWWWWWWWWWWWWWIWWWWWWWWWWWWWWWWWWWWWWWWWWWWW",
"WWWWWWWWWWWWWWWWWWWWWWWWWWWWk1WWWWWWWWWWWWWWWWWWWWWWWWWWWWWWWW",
"WWWWWWWWWWWWWWWWWWWWWWWWWWWRn11WWWWWWWWWWWWWWWWWWWWWWWWWWWWWWW",
"WWWWWWWWWWWWWWWWWWWWWWWWWWWWWWWWWWWWWWWWWWWWWWWWWWWWWWWWWWWWWW",
"WWWWWWWWWWWWWWWWWWWWWWWWTTTWWWWWWWWWWWWWWWWWWWWWWWWWWWWWWWWWWW",
"WWWWWWWWWWWWWWWWWWWWWWWWYTTTTWWWWWWWWWWWWWWWWWWWWWWWWWWWWWWWWW",
"WWWWWWWWWWWWWWWWWWWWWWWWKYTTTWWWWWWWWWWWWWWWWWWWWWWWWWWWWWWWWW",
"WWWWWWWWWWWWWWWWWWWWWWWWWTTTTWWWWWWWWWWWWWWWWWWWWWWWWWWWWWWWWW",
"WWWWWWWWWWWWWWWWWWWWWWWWWWETWWWWWWWWWWWWWWWWWWWWWWWWWWWWWWWWWW",
"WWWWWWWWWWWWWWWWWWWWWWWWWWWWWWWWWWWWWWWWWWWWWWWWWWWWWWWWWWWWWW",
"WWWWWWWWWWWWWWWWWWWWWWWWWW11WWWWWWWWWWWWWWWWWWWWWWWWWWWWWWWWWW",
"WWWWWWWWWWWWWWWWWWWWWWWWWWW11WWWWWWWWWWWWWWWWWWWWWWWWWWWWWWWWW",
"WWWWWWWWWWWWWWWWWWWWWWWWWWWWWWWWWWWWWWWWWWWWWWWWWWWWWWWWWWWWWW",
"WWWWWWWWWWWWWWWWWWWWWWW11WWWWTWWWWWWWWWWWWWWWWWWWWWWWWWWWWWWWW",
"WWWWWWWWWWWWWWWWWWWWWWW11WWWWTWWWWWWWWWWWWWWWWWWWWWWWWWWWWWWWW",
"WWWWWWWWWWWWWWWWWWWWWWWjWWWWWTWWWWWWWWWWWWWWWWWWWWWWWWWWWWWWWW",
"WWWWWWWWWWWWWWWWWWWWWWWTWWWWWTTWWWWWWWWWWWWWWWWWWWWWWWWWWWWWWW",
"WWWWWWWWWWWWWWWWWWWWWWWTWWWWWWTWWWWWWWWWWWWWWWWWWWWWWWWWWWWWWW",
"WWWWWWWWWWWWWWWWWWWWWWWTWWWWWWWWWWWWWWWWWWWWWWWWWWWWWWWWWWWWWW",
"WWWWWWWWWWWWWWWWWWWWWWWWWWWWWWWWWWWWWWWWWWWWWWWWWWWWWWWWWWWWWW",
"WWWWWWWWWWWWWWWWWWWWWWWWWWWWWWWWWWWWWWWWWWWWWWWWWWWWWWWWWWWWWW",
"WWWWWWWWWWWWWWWWWWWWWWWWWWWWWWWWWWWWWWWWWWWWWWWWWWWWWWWWWWWWWW",
"WWWWWWWWWWWWWWWWWWWWWWWWWWWWWWWWWWWWWWWWWWWWWWWWWWWWWWWWWWWWWW"
};
